<?xml version="1.0" encoding="UTF-8" standalone="no"?>
<svg
   xmlns:dc="http://purl.org/dc/elements/1.1/"
   xmlns:cc="http://creativecommons.org/ns#"
   xmlns:rdf="http://www.w3.org/1999/02/22-rdf-syntax-ns#"
   xmlns:svg="http://www.w3.org/2000/svg"
   xmlns="http://www.w3.org/2000/svg"
   viewBox="0 0 800 400"
   height="400"
   width="800"
   xml:space="preserve"
   id="svg2"
   version="1.1"><metadata
     id="metadata8"><rdf:RDF><cc:Work
         rdf:about=""><dc:format>image/svg+xml</dc:format><dc:type
           rdf:resource="http://purl.org/dc/dcmitype/StillImage" /></cc:Work></rdf:RDF></metadata><defs
     id="defs6"><clipPath
       id="clipPath18"
       clipPathUnits="userSpaceOnUse"><path
         style="clip-rule:evenodd"
         id="path16"
         d="M 0,0 H 2500 V 1250 H 0 Z" /></clipPath><clipPath
       id="clipPath30"
       clipPathUnits="userSpaceOnUse"><path
         style="clip-rule:evenodd"
         id="path28"
         d="M 0,0 H 2500 V 1250 H 0 Z" /></clipPath><clipPath
       id="clipPath68"
       clipPathUnits="userSpaceOnUse"><path
         style="clip-rule:evenodd"
         id="path66"
         d="m 250,312.5 h 2000 v 600 H 250 Z" /></clipPath><clipPath
       id="clipPath344"
       clipPathUnits="userSpaceOnUse"><path
         style="clip-rule:evenodd"
         id="path342"
         d="M 0,0 H 2500 V 1250 H 0 Z" /></clipPath><clipPath
       id="clipPath434"
       clipPathUnits="userSpaceOnUse"><path
         style="clip-rule:evenodd"
         id="path432"
         d="m 1250,312.5 h 928.125 V 525 H 1250 Z" /></clipPath><clipPath
       id="clipPath466"
       clipPathUnits="userSpaceOnUse"><path
         style="clip-rule:evenodd"
         id="path464"
         d="M 0,0 H 2500 V 1250 H 0 Z" /></clipPath></defs><g
     transform="matrix(0.31999998,0,0,0.31999998,0,1e-5)"
     id="g10"><g
       id="g12"><g
         clip-path="url(#clipPath18)"
         id="g14"><g
           transform="scale(3.125)"
           id="g20"><path
             id="path22"
             style="fill:#ffffff;fill-opacity:1;fill-rule:nonzero;stroke:none"
             d="M 0,0 H 800 V 400 H 0 Z" /></g></g></g><g
       id="g24"><g
         clip-path="url(#clipPath30)"
         id="g26"><g
           transform="matrix(3.125,0,0,3.125,0,741.5)"
           id="g32"><path
             id="path34"
             style="fill:#000000;fill-opacity:1;fill-rule:nonzero;stroke:none"
             d="M 80,0 H 720" /><path
             id="path36"
             style="fill:none;stroke:#ffffff;stroke-width:1;stroke-linecap:butt;stroke-linejoin:miter;stroke-miterlimit:10;stroke-dasharray:none;stroke-opacity:1"
             d="M 80,0 H 720" /></g><g
           transform="matrix(3.125,0,0,3.125,0,604.59375)"
           id="g38"><path
             id="path40"
             style="fill:#000000;fill-opacity:1;fill-rule:nonzero;stroke:none"
             d="M 80,0 H 720" /><path
             id="path42"
             style="fill:none;stroke:#ffffff;stroke-width:1;stroke-linecap:butt;stroke-linejoin:miter;stroke-miterlimit:10;stroke-dasharray:none;stroke-opacity:1"
             d="M 80,0 H 720" /></g><g
           transform="matrix(3.125,0,0,3.125,0,467.6875)"
           id="g44"><path
             id="path46"
             style="fill:#000000;fill-opacity:1;fill-rule:nonzero;stroke:none"
             d="M 80,0 H 720" /><path
             id="path48"
             style="fill:none;stroke:#ffffff;stroke-width:1;stroke-linecap:butt;stroke-linejoin:miter;stroke-miterlimit:10;stroke-dasharray:none;stroke-opacity:1"
             d="M 80,0 H 720" /></g><g
           transform="matrix(3.125,0,0,3.125,0,330.78125)"
           id="g50"><path
             id="path52"
             style="fill:#000000;fill-opacity:1;fill-rule:nonzero;stroke:none"
             d="M 80,0 H 720" /><path
             id="path54"
             style="fill:none;stroke:#ffffff;stroke-width:1;stroke-linecap:butt;stroke-linejoin:miter;stroke-miterlimit:10;stroke-dasharray:none;stroke-opacity:1"
             d="M 80,0 H 720" /></g><g
           transform="matrix(3.125,0,0,3.125,0,878.40625)"
           id="g56"><path
             id="path58"
             style="fill:#000000;fill-opacity:1;fill-rule:nonzero;stroke:none"
             d="M 80,0 H 720" /><path
             id="path60"
             style="fill:none;stroke:#000000;stroke-width:1;stroke-linecap:butt;stroke-linejoin:miter;stroke-miterlimit:10;stroke-dasharray:none;stroke-opacity:1"
             d="M 80,0 H 720" /></g></g></g><g
       id="g62"><g
         clip-path="url(#clipPath68)"
         id="g64"><g
           transform="matrix(3.125,0,0,3.125,250,312.5)"
           id="g70"><path
             id="path72"
             style="fill:#808080;fill-opacity:0.50199998;fill-rule:nonzero;stroke:none"
             d="M 33.990002,168.86 H 42.43 m -8.439998,1 H 42.43 v -2.95 h -8.439998 z m 4.219997,0 v 8.8 m 0,-11.75 v -15.92 m -2.110001,27.67 H 40.32 M 36.099998,150.99 H 40.32" /><path
             id="path74"
             style="fill:none;stroke:#808080;stroke-width:1;stroke-linecap:butt;stroke-linejoin:miter;stroke-miterlimit:10;stroke-dasharray:none;stroke-opacity:1"
             d="M 33.990002,168.86 H 42.43 m -8.439998,1 H 42.43 v -2.95 h -8.439998 z m 4.219997,0 v 8.8 m 0,-11.75 v -15.92 m -2.110001,27.67 H 40.32 M 36.099998,150.99 H 40.32" /><path
             id="path76"
             style="fill:#808080;fill-opacity:0.50199998;fill-rule:nonzero;stroke:none"
             d="M 51.220001,153.94 H 59.66 m -8.439999,3.70999 H 59.66 v -8.54998 h -8.439999 z m 4.219998,0 V 169.33 m 0,-20.22999 V 107.67 m -2.109997,61.66 h 4.219997 m -4.219997,-61.66 h 4.219997" /><path
             id="path78"
             style="fill:none;stroke:#808080;stroke-width:1;stroke-linecap:butt;stroke-linejoin:miter;stroke-miterlimit:10;stroke-dasharray:none;stroke-opacity:1"
             d="M 51.220001,153.94 H 59.66 m -8.439999,3.70999 H 59.66 v -8.54998 h -8.439999 z m 4.219998,0 V 169.33 m 0,-20.22999 V 107.67 m -2.109997,61.66 h 4.219997 m -4.219997,-61.66 h 4.219997" /><path
             id="path80"
             style="fill:#808080;fill-opacity:0.50199998;fill-rule:nonzero;stroke:none"
             d="m 68.440002,117.74 h 8.449997 m -8.449997,11.34 h 8.449997 v -24.27 h -8.449997 z m 4.229996,0 v 52.01 m 0,-76.28 V 61.07 m -2.11,120.02 h 4.220001 M 70.559998,61.07 h 4.220001" /><path
             id="path82"
             style="fill:none;stroke:#808080;stroke-width:1;stroke-linecap:butt;stroke-linejoin:miter;stroke-miterlimit:10;stroke-dasharray:none;stroke-opacity:1"
             d="m 68.440002,117.74 h 8.449997 m -8.449997,11.34 h 8.449997 v -24.27 h -8.449997 z m 4.229996,0 v 52.01 m 0,-76.28 V 61.07 m -2.11,120.02 h 4.220001 M 70.559998,61.07 h 4.220001" /><path
             id="path84"
             style="fill:#808080;fill-opacity:0.50199998;fill-rule:nonzero;stroke:none"
             d="m 85.669998,73.360001 h 8.440003 m -8.440003,19.449997 h 8.440003 V 63.540001 h -8.440003 z m 4.220001,0 V 125.71 m 0,-62.169999 V 24.559999 M 87.779999,125.71 H 92 M 87.779999,24.559999 H 92" /><path
             id="path86"
             style="fill:none;stroke:#808080;stroke-width:1;stroke-linecap:butt;stroke-linejoin:miter;stroke-miterlimit:10;stroke-dasharray:none;stroke-opacity:1"
             d="m 85.669998,73.360001 h 8.440003 m -8.440003,19.449997 h 8.440003 V 63.540001 h -8.440003 z m 4.220001,0 V 125.71 m 0,-62.169999 V 24.559999 M 87.779999,125.71 H 92 M 87.779999,24.559999 H 92" /><path
             id="path88"
             style="fill:#808080;fill-opacity:0.50199998;fill-rule:nonzero;stroke:none"
             d="m 102.9,38.610001 h 8.44 m -8.44,49.790001 h 8.44 v -55.57 h -8.44 z m 4.22,0 V 178.66 m 0,-145.829998 V 9.6000004 M 105.01,178.66 h 4.22 M 105.01,9.6000004 h 4.22" /><path
             id="path90"
             style="fill:none;stroke:#808080;stroke-width:1;stroke-linecap:butt;stroke-linejoin:miter;stroke-miterlimit:10;stroke-dasharray:none;stroke-opacity:1"
             d="m 102.9,38.610001 h 8.44 m -8.44,49.790001 h 8.44 v -55.57 h -8.44 z m 4.22,0 V 178.66 m 0,-145.829998 V 9.6000004 M 105.01,178.66 h 4.22 M 105.01,9.6000004 h 4.22" /><path
             id="path92"
             style="fill:#808080;fill-opacity:0.50199998;fill-rule:nonzero;stroke:none"
             d="m 120.13,120.02 h 8.44001 M 120.13,130.56 h 8.44001 V 107.53 H 120.13 Z m 4.22,0 V 180 m 0,-72.47 V 48.189999 M 122.24,180 h 4.22 M 122.24,48.189999 h 4.22" /><path
             id="path94"
             style="fill:none;stroke:#808080;stroke-width:1;stroke-linecap:butt;stroke-linejoin:miter;stroke-miterlimit:10;stroke-dasharray:none;stroke-opacity:1"
             d="m 120.13,120.02 h 8.44001 M 120.13,130.56 h 8.44001 V 107.53 H 120.13 Z m 4.22,0 V 180 m 0,-72.47 V 48.189999 M 122.24,180 h 4.22 M 122.24,48.189999 h 4.22" /><path
             id="path96"
             style="fill:#808080;fill-opacity:0.50199998;fill-rule:nonzero;stroke:none"
             d="M 137.35001,155.36 H 145.8 m -8.44999,10.92 H 145.8 v -15.10001 h -8.44999 z m 4.22,0 v 13.94 m 0,-29.04001 V 84.089996 m -2.11,96.130004 H 143.69 M 139.46001,84.089996 H 143.69" /><path
             id="path98"
             style="fill:none;stroke:#808080;stroke-width:1;stroke-linecap:butt;stroke-linejoin:miter;stroke-miterlimit:10;stroke-dasharray:none;stroke-opacity:1"
             d="M 137.35001,155.36 H 145.8 m -8.44999,10.92 H 145.8 v -15.10001 h -8.44999 z m 4.22,0 v 13.94 m 0,-29.04001 V 84.089996 m -2.11,96.130004 H 143.69 M 139.46001,84.089996 H 143.69" /><path
             id="path100"
             style="fill:#808080;fill-opacity:0.50199998;fill-rule:nonzero;stroke:none"
             d="m 154.58,170.02 h 8.44 m -8.44,2.84 h 8.44 v -4.39 h -8.44 z m 4.22,0 v 8.23 m 0,-12.62 v -8.46001 M 156.69,181.09 h 4.22 m -4.22,-21.08001 h 4.22" /><path
             id="path102"
             style="fill:none;stroke:#808080;stroke-width:1;stroke-linecap:butt;stroke-linejoin:miter;stroke-miterlimit:10;stroke-dasharray:none;stroke-opacity:1"
             d="m 154.58,170.02 h 8.44 m -8.44,2.84 h 8.44 v -4.39 h -8.44 z m 4.22,0 v 8.23 m 0,-12.62 v -8.46001 M 156.69,181.09 h 4.22 m -4.22,-21.08001 h 4.22" /><path
             id="path104"
             style="fill:#808080;fill-opacity:0.50199998;fill-rule:nonzero;stroke:none"
             d="m 171.81,175.56 h 8.44 m -8.44,1.54001 h 8.44 V 173.78 h -8.44 z m 4.22,0 V 178.52 m 0,-4.74 v -3.58 m -2.11,8.32 h 4.22 m -4.22,-8.32 h 4.22" /><path
             id="path106"
             style="fill:none;stroke:#808080;stroke-width:1;stroke-linecap:butt;stroke-linejoin:miter;stroke-miterlimit:10;stroke-dasharray:none;stroke-opacity:1"
             d="m 171.81,175.56 h 8.44 m -8.44,1.54001 h 8.44 V 173.78 h -8.44 z m 4.22,0 V 178.52 m 0,-4.74 v -3.58 m -2.11,8.32 h 4.22 m -4.22,-8.32 h 4.22" /><path
             id="path108"
             style="fill:#808080;fill-opacity:0.50199998;fill-rule:nonzero;stroke:none"
             d="M 189.03999,174.7 H 197.48 m -8.44001,2.14 H 197.48 v -3.54 h -8.44001 z m 4.22,0 v 3.39 m 0,-6.93 v -7.65001 m -2.11,14.58001 H 195.37 m -4.22001,-14.58001 H 195.37" /><path
             id="path110"
             style="fill:none;stroke:#808080;stroke-width:1;stroke-linecap:butt;stroke-linejoin:miter;stroke-miterlimit:10;stroke-dasharray:none;stroke-opacity:1"
             d="M 189.03999,174.7 H 197.48 m -8.44001,2.14 H 197.48 v -3.54 h -8.44001 z m 4.22,0 v 3.39 m 0,-6.93 v -7.65001 m -2.11,14.58001 H 195.37 m -4.22001,-14.58001 H 195.37" /><path
             id="path112"
             style="fill:#808080;fill-opacity:0.50199998;fill-rule:nonzero;stroke:none"
             d="M 206.25999,173.48 H 214.7 m -8.44001,1 H 214.7 v -2.04 h -8.44001 z m 4.22001,0 v 6.12001 m 0,-8.16001 v -5.55 m -2.11,13.71001 h 4.22 M 208.37,166.89 h 4.22" /><path
             id="path114"
             style="fill:none;stroke:#808080;stroke-width:1;stroke-linecap:butt;stroke-linejoin:miter;stroke-miterlimit:10;stroke-dasharray:none;stroke-opacity:1"
             d="M 206.25999,173.48 H 214.7 m -8.44001,1 H 214.7 v -2.04 h -8.44001 z m 4.22001,0 v 6.12001 m 0,-8.16001 v -5.55 m -2.11,13.71001 h 4.22 M 208.37,166.89 h 4.22" /><path
             id="path116"
             style="fill:#808080;fill-opacity:0.50199998;fill-rule:nonzero;stroke:none"
             d="m 223.49001,176.36 h 8.43998 m -8.43998,1.19 h 8.43998 v -2.19 h -8.43998 z m 4.22,0 v 3.54 m 0,-5.73 v -7.33 m -2.11,13.06 h 4.22 m -4.22,-13.06 h 4.22" /><path
             id="path118"
             style="fill:none;stroke:#808080;stroke-width:1;stroke-linecap:butt;stroke-linejoin:miter;stroke-miterlimit:10;stroke-dasharray:none;stroke-opacity:1"
             d="m 223.49001,176.36 h 8.43998 m -8.43998,1.19 h 8.43998 v -2.19 h -8.43998 z m 4.22,0 v 3.54 m 0,-5.73 v -7.33 m -2.11,13.06 h 4.22 m -4.22,-13.06 h 4.22" /><path
             id="path120"
             style="fill:#ff0000;fill-opacity:0.50199998;fill-rule:nonzero;stroke:none"
             d="m 240.72,173.07001 h 8.44 m -8.44,4.82998 h 8.44 V 145.91 h -8.44 z m 4.22,0 V 181.09 m 0,-35.18 v -29.8 m -2.11,64.98 h 4.22 m -4.22,-64.98 h 4.22" /><path
             id="path122"
             style="fill:none;stroke:#ff0000;stroke-width:1;stroke-linecap:butt;stroke-linejoin:miter;stroke-miterlimit:10;stroke-dasharray:none;stroke-opacity:1"
             d="m 240.72,173.07001 h 8.44 m -8.44,4.82998 h 8.44 V 145.91 h -8.44 z m 4.22,0 V 181.09 m 0,-35.18 v -29.8 m -2.11,64.98 h 4.22 m -4.22,-64.98 h 4.22" /><path
             id="path124"
             style="fill:#808080;fill-opacity:0.50199998;fill-rule:nonzero;stroke:none"
             d="m 257.94,177.64 h 8.45001 m -8.45001,1.00999 h 8.45001 V 175.48 H 257.94 Z m 4.23001,0 V 181.09 m 0,-5.61 V 156.13 M 260.06,181.09 h 4.22 m -4.22,-24.96 h 4.22" /><path
             id="path126"
             style="fill:none;stroke:#808080;stroke-width:1;stroke-linecap:butt;stroke-linejoin:miter;stroke-miterlimit:10;stroke-dasharray:none;stroke-opacity:1"
             d="m 257.94,177.64 h 8.45001 m -8.45001,1.00999 h 8.45001 V 175.48 H 257.94 Z m 4.23001,0 V 181.09 m 0,-5.61 V 156.13 M 260.06,181.09 h 4.22 m -4.22,-24.96 h 4.22" /><path
             id="path128"
             style="fill:#808080;fill-opacity:0.50199998;fill-rule:nonzero;stroke:none"
             d="m 275.17001,178.53 h 8.43998 m -8.43998,1 h 8.43998 v -1.35001 h -8.43998 z m 4.22,0 v 1.56 m 0,-2.91001 V 169 M 277.28,181.09 h 4.22 M 277.28,169 h 4.22" /><path
             id="path130"
             style="fill:none;stroke:#808080;stroke-width:1;stroke-linecap:butt;stroke-linejoin:miter;stroke-miterlimit:10;stroke-dasharray:none;stroke-opacity:1"
             d="m 275.17001,178.53 h 8.43998 m -8.43998,1 h 8.43998 v -1.35001 h -8.43998 z m 4.22,0 v 1.56 m 0,-2.91001 V 169 M 277.28,181.09 h 4.22 M 277.28,169 h 4.22" /><path
             id="path132"
             style="fill:#808080;fill-opacity:0.50199998;fill-rule:nonzero;stroke:none"
             d="M 292.39999,178.45 H 300.84 m -8.44001,0.97999 H 300.84 V 177.73 h -8.44001 z m 4.22001,0 V 181.09 m 0,-3.36 V 169 m -2.10999,12.09 h 4.22 m -4.22,-12.09 h 4.22" /><path
             id="path134"
             style="fill:none;stroke:#808080;stroke-width:1;stroke-linecap:butt;stroke-linejoin:miter;stroke-miterlimit:10;stroke-dasharray:none;stroke-opacity:1"
             d="M 292.39999,178.45 H 300.84 m -8.44001,0.97999 H 300.84 V 177.73 h -8.44001 z m 4.22001,0 V 181.09 m 0,-3.36 V 169 m -2.10999,12.09 h 4.22 m -4.22,-12.09 h 4.22" /><path
             id="path136"
             style="fill:#808080;fill-opacity:0.50199998;fill-rule:nonzero;stroke:none"
             d="m 309.63,178.08 h 8.44001 m -8.44001,0.87 h 8.44001 v -1.87 H 309.63 Z m 4.22001,0 v 2.14 m 0,-4.01 V 169 m -2.11002,12.09 h 4.22 m -4.22,-12.09 h 4.22" /><path
             id="path138"
             style="fill:none;stroke:#808080;stroke-width:1;stroke-linecap:butt;stroke-linejoin:miter;stroke-miterlimit:10;stroke-dasharray:none;stroke-opacity:1"
             d="m 309.63,178.08 h 8.44001 m -8.44001,0.87 h 8.44001 v -1.87 H 309.63 Z m 4.22001,0 v 2.14 m 0,-4.01 V 169 m -2.11002,12.09 h 4.22 m -4.22,-12.09 h 4.22" /><path
             id="path140"
             style="fill:#808080;fill-opacity:0.50199998;fill-rule:nonzero;stroke:none"
             d="m 326.85001,178.12 h 8.44998 m -8.44998,0.27999 h 8.44998 V 177.41 h -8.44998 z m 4.22,0 V 181.09 m 0,-3.68 v -5.88 m -2.11002,9.56 H 333.19 m -4.23001,-9.56 H 333.19" /><path
             id="path142"
             style="fill:none;stroke:#808080;stroke-width:1;stroke-linecap:butt;stroke-linejoin:miter;stroke-miterlimit:10;stroke-dasharray:none;stroke-opacity:1"
             d="m 326.85001,178.12 h 8.44998 m -8.44998,0.27999 h 8.44998 V 177.41 h -8.44998 z m 4.22,0 V 181.09 m 0,-3.68 v -5.88 m -2.11002,9.56 H 333.19 m -4.23001,-9.56 H 333.19" /><path
             id="path144"
             style="fill:#808080;fill-opacity:0.50199998;fill-rule:nonzero;stroke:none"
             d="m 344.07999,177.31 h 8.44 m -8.44,0.56 h 8.44 v -1.56 h -8.44 z m 4.22,0 v 3.22 m 0,-4.78 v -4.77001 M 346.19,181.09 h 4.22 m -4.22,-9.55001 h 4.22" /><path
             id="path146"
             style="fill:none;stroke:#808080;stroke-width:1;stroke-linecap:butt;stroke-linejoin:miter;stroke-miterlimit:10;stroke-dasharray:none;stroke-opacity:1"
             d="m 344.07999,177.31 h 8.44 m -8.44,0.56 h 8.44 v -1.56 h -8.44 z m 4.22,0 v 3.22 m 0,-4.78 v -4.77001 M 346.19,181.09 h 4.22 m -4.22,-9.55001 h 4.22" /><path
             id="path148"
             style="fill:#808080;fill-opacity:0.50199998;fill-rule:nonzero;stroke:none"
             d="m 361.31,175.72 h 8.44 m -8.44,0.27001 h 8.44 V 175.28 h -8.44 z m 4.22,0 V 181.09 m 0,-5.81 v -3.78999 m -2.10999,9.59999 h 4.22 m -4.22,-9.59999 h 4.22" /><path
             id="path150"
             style="fill:none;stroke:#808080;stroke-width:1;stroke-linecap:butt;stroke-linejoin:miter;stroke-miterlimit:10;stroke-dasharray:none;stroke-opacity:1"
             d="m 361.31,175.72 h 8.44 m -8.44,0.27001 h 8.44 V 175.28 h -8.44 z m 4.22,0 V 181.09 m 0,-5.81 v -3.78999 m -2.10999,9.59999 h 4.22 m -4.22,-9.59999 h 4.22" /><path
             id="path152"
             style="fill:#808080;fill-opacity:0.50199998;fill-rule:nonzero;stroke:none"
             d="m 378.54001,174.47 h 8.44 m -8.44,0.67999 h 8.44 v -1.47 h -8.44 z m 4.22,0 V 181.09 m 0,-7.41001 V 171.56 m -2.11002,9.53 H 384.87 m -4.22001,-9.53 H 384.87" /><path
             id="path154"
             style="fill:none;stroke:#808080;stroke-width:1;stroke-linecap:butt;stroke-linejoin:miter;stroke-miterlimit:10;stroke-dasharray:none;stroke-opacity:1"
             d="m 378.54001,174.47 h 8.44 m -8.44,0.67999 h 8.44 v -1.47 h -8.44 z m 4.22,0 V 181.09 m 0,-7.41001 V 171.56 m -2.11002,9.53 H 384.87 m -4.22001,-9.53 H 384.87" /><path
             id="path156"
             style="fill:#808080;fill-opacity:0.50199998;fill-rule:nonzero;stroke:none"
             d="m 395.76001,171.3 h 8.44 m -8.44,1 h 8.44 v -1.40001 h -8.44 z m 4.22,0 v 8.79 m 0,-10.19001 V 168.84 M 397.87,181.09 h 4.22 m -4.22,-12.25 h 4.22" /><path
             id="path158"
             style="fill:none;stroke:#808080;stroke-width:1;stroke-linecap:butt;stroke-linejoin:miter;stroke-miterlimit:10;stroke-dasharray:none;stroke-opacity:1"
             d="m 395.76001,171.3 h 8.44 m -8.44,1 h 8.44 v -1.40001 h -8.44 z m 4.22,0 v 8.79 m 0,-10.19001 V 168.84 M 397.87,181.09 h 4.22 m -4.22,-12.25 h 4.22" /><path
             id="path160"
             style="fill:#808080;fill-opacity:0.50199998;fill-rule:nonzero;stroke:none"
             d="m 412.98999,167.95 h 8.44 m -8.44,1.36 h 8.44 v -2.36 h -8.44 z m 4.22,0 v 11.75 m 0,-14.11 v -1.98999 M 415.10001,181.06 h 4.22 m -4.22,-16.09999 h 4.22" /><path
             id="path162"
             style="fill:none;stroke:#808080;stroke-width:1;stroke-linecap:butt;stroke-linejoin:miter;stroke-miterlimit:10;stroke-dasharray:none;stroke-opacity:1"
             d="m 412.98999,167.95 h 8.44 m -8.44,1.36 h 8.44 v -2.36 h -8.44 z m 4.22,0 v 11.75 m 0,-14.11 v -1.98999 M 415.10001,181.06 h 4.22 m -4.22,-16.09999 h 4.22" /><path
             id="path164"
             style="fill:#808080;fill-opacity:0.50199998;fill-rule:nonzero;stroke:none"
             d="m 430.22,165.19 h 8.44 m -8.44,2.54 h 8.44 v -3.54 h -8.44 z m 4.22,0 v 13.36 m 0,-16.9 v -9.79001 M 432.32999,181.09 h 4.22 m -4.22,-26.69001 h 4.22" /><path
             id="path166"
             style="fill:none;stroke:#808080;stroke-width:1;stroke-linecap:butt;stroke-linejoin:miter;stroke-miterlimit:10;stroke-dasharray:none;stroke-opacity:1"
             d="m 430.22,165.19 h 8.44 m -8.44,2.54 h 8.44 v -3.54 h -8.44 z m 4.22,0 v 13.36 m 0,-16.9 v -9.79001 M 432.32999,181.09 h 4.22 m -4.22,-26.69001 h 4.22" /><path
             id="path168"
             style="fill:#808080;fill-opacity:0.50199998;fill-rule:nonzero;stroke:none"
             d="m 447.44,166.33 h 8.45001 m -8.45001,1.99001 h 8.45001 V 165.33 H 447.44 Z m 4.23001,0 v 12.71998 m 0,-15.70999 v -4.65001 m -2.11001,20.36 h 4.22 m -4.22,-20.36 h 4.22" /><path
             id="path170"
             style="fill:none;stroke:#808080;stroke-width:1;stroke-linecap:butt;stroke-linejoin:miter;stroke-miterlimit:10;stroke-dasharray:none;stroke-opacity:1"
             d="m 447.44,166.33 h 8.45001 m -8.45001,1.99001 h 8.45001 V 165.33 H 447.44 Z m 4.23001,0 v 12.71998 m 0,-15.70999 v -4.65001 m -2.11001,20.36 h 4.22 m -4.22,-20.36 h 4.22" /><path
             id="path172"
             style="fill:#808080;fill-opacity:0.50199998;fill-rule:nonzero;stroke:none"
             d="m 464.67001,163.41 h 8.43998 m -8.43998,2.72 h 8.43998 v -5.02 h -8.43998 z m 4.22,0 v 14.96 m 0,-19.98 v -4.37 M 466.78,181.09 H 471 m -4.22,-24.35 H 471" /><path
             id="path174"
             style="fill:none;stroke:#808080;stroke-width:1;stroke-linecap:butt;stroke-linejoin:miter;stroke-miterlimit:10;stroke-dasharray:none;stroke-opacity:1"
             d="m 464.67001,163.41 h 8.43998 m -8.43998,2.72 h 8.43998 v -5.02 h -8.43998 z m 4.22,0 v 14.96 m 0,-19.98 v -4.37 M 466.78,181.09 H 471 m -4.22,-24.35 H 471" /><path
             id="path176"
             style="fill:#808080;fill-opacity:0.50199998;fill-rule:nonzero;stroke:none"
             d="M 481.89999,165.42999 H 490.34 M 481.89999,167.08 H 490.34 v -2.65001 h -8.44001 z m 4.22001,0 v 14.01 m 0,-16.66001 v -8.92 M 484.01001,181.09 h 4.22 m -4.22,-25.58001 h 4.22" /><path
             id="path178"
             style="fill:none;stroke:#808080;stroke-width:1;stroke-linecap:butt;stroke-linejoin:miter;stroke-miterlimit:10;stroke-dasharray:none;stroke-opacity:1"
             d="M 481.89999,165.42999 H 490.34 M 481.89999,167.08 H 490.34 v -2.65001 h -8.44001 z m 4.22001,0 v 14.01 m 0,-16.66001 v -8.92 M 484.01001,181.09 h 4.22 m -4.22,-25.58001 h 4.22" /><path
             id="path180"
             style="fill:#808080;fill-opacity:0.50199998;fill-rule:nonzero;stroke:none"
             d="m 499.13,164.38 h 8.44001 m -8.44001,1.4 h 8.44001 v -2.49001 H 499.13 Z m 4.22001,0 v 15.31 m 0,-17.80001 v -0.78 M 501.23999,181.09 h 4.22 m -4.22,-18.58001 h 4.22" /><path
             id="path182"
             style="fill:none;stroke:#808080;stroke-width:1;stroke-linecap:butt;stroke-linejoin:miter;stroke-miterlimit:10;stroke-dasharray:none;stroke-opacity:1"
             d="m 499.13,164.38 h 8.44001 m -8.44001,1.4 h 8.44001 v -2.49001 H 499.13 Z m 4.22001,0 v 15.31 m 0,-17.80001 v -0.78 M 501.23999,181.09 h 4.22 m -4.22,-18.58001 h 4.22" /><path
             id="path184"
             style="fill:#808080;fill-opacity:0.50199998;fill-rule:nonzero;stroke:none"
             d="m 516.34998,163.98 h 8.45001 m -8.45001,1 h 8.45001 v -1.92 h -8.45001 z m 4.22003,0 v 16.11 m 0,-18.03 v -2.32 m -2.10999,20.35 H 522.69 m -4.22998,-20.35 H 522.69" /><path
             id="path186"
             style="fill:none;stroke:#808080;stroke-width:1;stroke-linecap:butt;stroke-linejoin:miter;stroke-miterlimit:10;stroke-dasharray:none;stroke-opacity:1"
             d="m 516.34998,163.98 h 8.45001 m -8.45001,1 h 8.45001 v -1.92 h -8.45001 z m 4.22003,0 v 16.11 m 0,-18.03 v -2.32 m -2.10999,20.35 H 522.69 m -4.22998,-20.35 H 522.69" /><path
             id="path188"
             style="fill:#808080;fill-opacity:0.50199998;fill-rule:nonzero;stroke:none"
             d="m 533.58002,164.95 h 8.44 m -8.44,0.77 h 8.44 v -1.48 h -8.44 z m 4.21997,0 v 7.58 m 0,-9.06 v -0.91 M 535.69,173.3 h 4.21997 M 535.69,163.33 h 4.21997" /><path
             id="path190"
             style="fill:none;stroke:#808080;stroke-width:1;stroke-linecap:butt;stroke-linejoin:miter;stroke-miterlimit:10;stroke-dasharray:none;stroke-opacity:1"
             d="m 533.58002,164.95 h 8.44 m -8.44,0.77 h 8.44 v -1.48 h -8.44 z m 4.21997,0 v 7.58 m 0,-9.06 v -0.91 M 535.69,173.3 h 4.21997 M 535.69,163.33 h 4.21997" /><path
             id="path192"
             style="fill:#808080;fill-opacity:0.50199998;fill-rule:nonzero;stroke:none"
             d="m 550.81,165.89 h 8.44 m -8.44,0.36999 h 8.44 V 165.47 h -8.44 z m 4.22003,0 V 171.97 m 0,-6.5 v -20.08 m -2.11005,26.58 h 4.22003 m -4.22003,-26.58 h 4.22003" /><path
             id="path194"
             style="fill:none;stroke:#808080;stroke-width:1;stroke-linecap:butt;stroke-linejoin:miter;stroke-miterlimit:10;stroke-dasharray:none;stroke-opacity:1"
             d="m 550.81,165.89 h 8.44 m -8.44,0.36999 h 8.44 V 165.47 h -8.44 z m 4.22003,0 V 171.97 m 0,-6.5 v -20.08 m -2.11005,26.58 h 4.22003 m -4.22003,-26.58 h 4.22003" /><path
             id="path196"
             style="fill:#ff0000;fill-opacity:0.50199998;fill-rule:nonzero;stroke:none"
             d="m 568.03998,160.50999 h 8.44 m -8.44,5.47001 h 8.44 v -19 h -8.44 z m 4.22003,0 v 11.55999 m 0,-30.55999 V 94.449997 m -2.10999,83.089993 H 574.37 M 570.15002,94.449997 H 574.37" /><path
             id="path198"
             style="fill:none;stroke:#ff0000;stroke-width:1;stroke-linecap:butt;stroke-linejoin:miter;stroke-miterlimit:10;stroke-dasharray:none;stroke-opacity:1"
             d="m 568.03998,160.50999 h 8.44 m -8.44,5.47001 h 8.44 v -19 h -8.44 z m 4.22003,0 v 11.55999 m 0,-30.55999 V 94.449997 m -2.10999,83.089993 H 574.37 M 570.15002,94.449997 H 574.37" /><path
             id="path200"
             style="fill:none;stroke:#000000;stroke-width:1;stroke-linecap:butt;stroke-linejoin:miter;stroke-miterlimit:10;stroke-dasharray:none;stroke-opacity:1"
             d="M 35.75,167.95 52.98,157.83 70.199997,137.09 87.43,97.040001 104.66,39.25 l 17.23,63.34 17.22,35.98001 17.23,22.39 17.23001,10.50999 17.22999,2.99001 17.22,-4.55001 17.23,5.30001 17.23,-45.25 17.22001,48.68998 17.22998,-0.11 51.68,-0.14999 17.23001,-1.56 17.23001,-1.05 17.22998,-1.84 17.22,-2.49 17.23001,-4.06 17.23001,-2.15 17.22,0.86001 17.22998,-5.33001 17.23001,4.5 17.23001,-2.22 17.21998,0.08 34.46002,2.12 17.22998,-48.67 17.22003,54.67 17.22998,2.19" /></g><g
           transform="matrix(3.125,0,0,3.125,361.71875,837.34375)"
           id="g202"><path
             id="path204"
             style="fill:#000000;fill-opacity:1;fill-rule:nonzero;stroke:none"
             d="m 3,0 c -2e-7,0.3978247 -0.076121,0.78050804 -0.2283618,1.1480502 -0.152241,0.3675421 -0.3690136,0.6919654 -0.650318,0.97327 -0.2813046,0.2813044 -0.6057279,0.498077 -0.97327,0.650318 C 0.78050804,2.9238791 0.3978247,2.9999998 0,3 -0.3978247,2.9999998 -0.78050804,2.923879 -1.1480502,2.7716382 -1.5155923,2.6193972 -1.8400156,2.4026246 -2.1213202,2.1213202 -2.4026246,1.8400156 -2.6193972,1.5155923 -2.7716382,1.1480502 -2.9238791,0.78050804 -2.9999998,0.3978247 -3,0 c 2e-7,-0.3978247 0.076121,-0.78050804 0.2283618,-1.1480502 0.152241,-0.3675421 0.3690136,-0.6919654 0.650318,-0.97327 0.2813046,-0.2813044 0.6057279,-0.498077 0.97327,-0.650318 C -0.78050804,-2.9238791 -0.3978247,-2.9999998 0,-3 c 0.3978247,2e-7 0.78050804,0.076121 1.1480502,0.2283618 0.3675421,0.152241 0.6919654,0.3690136 0.97327,0.650318 0.2813044,0.2813046 0.498077,0.6057279 0.650318,0.97327 C 2.9238791,-0.78050804 2.9999998,-0.3978247 3,0 Z" /></g><g
           transform="matrix(3.125,0,0,3.125,415.5625,805.71875)"
           id="g206"><path
             id="path208"
             style="fill:#000000;fill-opacity:1;fill-rule:nonzero;stroke:none"
             d="m 3,0 c -2e-7,0.3978247 -0.076121,0.78050804 -0.2283618,1.1480502 -0.152241,0.3675421 -0.3690136,0.6919654 -0.650318,0.97327 -0.2813046,0.2813044 -0.6057279,0.498077 -0.97327,0.650318 C 0.78050804,2.9238791 0.3978247,2.9999998 0,3 -0.3978247,2.9999998 -0.78050804,2.923879 -1.1480502,2.7716382 -1.5155923,2.6193972 -1.8400156,2.4026246 -2.1213202,2.1213202 -2.4026246,1.8400156 -2.6193972,1.5155923 -2.7716382,1.1480502 -2.9238791,0.78050804 -2.9999998,0.3978247 -3,0 c 2e-7,-0.3978247 0.076121,-0.78050804 0.2283618,-1.1480502 0.152241,-0.3675421 0.3690136,-0.6919654 0.650318,-0.97327 0.2813046,-0.2813044 0.6057279,-0.498077 0.97327,-0.650318 C -0.78050804,-2.9238791 -0.3978247,-2.9999998 0,-3 c 0.3978247,2e-7 0.78050804,0.076121 1.1480502,0.2283618 0.3675421,0.152241 0.6919654,0.3690136 0.97327,0.650318 0.2813044,0.2813046 0.498077,0.6057279 0.650318,0.97327 C 2.9238791,-0.78050804 2.9999998,-0.3978247 3,0 Z" /></g><g
           transform="matrix(3.125,0,0,3.125,469.375,740.90625)"
           id="g210"><path
             id="path212"
             style="fill:#000000;fill-opacity:1;fill-rule:nonzero;stroke:none"
             d="m 3,0 c -2e-7,0.3978247 -0.076121,0.78050804 -0.2283618,1.1480502 -0.152241,0.3675421 -0.3690136,0.6919654 -0.650318,0.97327 -0.2813046,0.2813044 -0.6057279,0.498077 -0.97327,0.650318 C 0.78050804,2.9238791 0.3978247,2.9999998 0,3 -0.3978247,2.9999998 -0.78050804,2.923879 -1.1480502,2.7716382 -1.5155923,2.6193972 -1.8400156,2.4026246 -2.1213202,2.1213202 -2.4026246,1.8400156 -2.6193972,1.5155923 -2.7716382,1.1480502 -2.9238791,0.78050804 -2.9999998,0.3978247 -3,0 c 2e-7,-0.3978247 0.076121,-0.78050804 0.2283618,-1.1480502 0.152241,-0.3675421 0.3690136,-0.6919654 0.650318,-0.97327 0.2813046,-0.2813044 0.6057279,-0.498077 0.97327,-0.650318 C -0.78050804,-2.9238791 -0.3978247,-2.9999998 0,-3 c 0.3978247,2e-7 0.78050804,0.076121 1.1480502,0.2283618 0.3675421,0.152241 0.6919654,0.3690136 0.97327,0.650318 0.2813044,0.2813046 0.498077,0.6057279 0.650318,0.97327 C 2.9238791,-0.78050804 2.9999998,-0.3978247 3,0 Z" /></g><g
           transform="matrix(3.125,0,0,3.125,523.21875,615.75)"
           id="g214"><path
             id="path216"
             style="fill:#000000;fill-opacity:1;fill-rule:nonzero;stroke:none"
             d="m 3,0 c -2e-7,0.3978247 -0.076121,0.78050804 -0.2283618,1.1480502 -0.152241,0.3675421 -0.3690136,0.6919654 -0.650318,0.97327 -0.2813046,0.2813044 -0.6057279,0.498077 -0.97327,0.650318 C 0.78050804,2.9238791 0.3978247,2.9999998 0,3 -0.3978247,2.9999998 -0.78050804,2.923879 -1.1480502,2.7716382 -1.5155923,2.6193972 -1.8400156,2.4026246 -2.1213202,2.1213202 -2.4026246,1.8400156 -2.6193972,1.5155923 -2.7716382,1.1480502 -2.9238791,0.78050804 -2.9999998,0.3978247 -3,0 c 2e-7,-0.3978247 0.076121,-0.78050804 0.2283618,-1.1480502 0.152241,-0.3675421 0.3690136,-0.6919654 0.650318,-0.97327 0.2813046,-0.2813044 0.6057279,-0.498077 0.97327,-0.650318 C -0.78050804,-2.9238791 -0.3978247,-2.9999998 0,-3 c 0.3978247,2e-7 0.78050804,0.076121 1.1480502,0.2283618 0.3675421,0.152241 0.6919654,0.3690136 0.97327,0.650318 0.2813044,0.2813046 0.498077,0.6057279 0.650318,0.97327 C 2.9238791,-0.78050804 2.9999998,-0.3978247 3,0 Z" /></g><g
           transform="matrix(3.125,0,0,3.125,577.0625,435.15625)"
           id="g218"><path
             id="path220"
             style="fill:#000000;fill-opacity:1;fill-rule:nonzero;stroke:none"
             d="m 3,0 c -2e-7,0.3978247 -0.076121,0.78050804 -0.2283618,1.1480502 -0.152241,0.3675421 -0.3690136,0.6919654 -0.650318,0.97327 -0.2813046,0.2813044 -0.6057279,0.498077 -0.97327,0.650318 C 0.78050804,2.9238791 0.3978247,2.9999998 0,3 -0.3978247,2.9999998 -0.78050804,2.923879 -1.1480502,2.7716382 -1.5155923,2.6193972 -1.8400156,2.4026246 -2.1213202,2.1213202 -2.4026246,1.8400156 -2.6193972,1.5155923 -2.7716382,1.1480502 -2.9238791,0.78050804 -2.9999998,0.3978247 -3,0 c 2e-7,-0.3978247 0.076121,-0.78050804 0.2283618,-1.1480502 0.152241,-0.3675421 0.3690136,-0.6919654 0.650318,-0.97327 0.2813046,-0.2813044 0.6057279,-0.498077 0.97327,-0.650318 C -0.78050804,-2.9238791 -0.3978247,-2.9999998 0,-3 c 0.3978247,2e-7 0.78050804,0.076121 1.1480502,0.2283618 0.3675421,0.152241 0.6919654,0.3690136 0.97327,0.650318 0.2813044,0.2813046 0.498077,0.6057279 0.650318,0.97327 C 2.9238791,-0.78050804 2.9999998,-0.3978247 3,0 Z" /></g><g
           transform="matrix(3.125,0,0,3.125,630.90625,633.09375)"
           id="g222"><path
             id="path224"
             style="fill:#000000;fill-opacity:1;fill-rule:nonzero;stroke:none"
             d="m 3,0 c -2e-7,0.3978247 -0.076121,0.78050804 -0.2283618,1.1480502 -0.152241,0.3675421 -0.3690136,0.6919654 -0.650318,0.97327 -0.2813046,0.2813044 -0.6057279,0.498077 -0.97327,0.650318 C 0.78050804,2.9238791 0.3978247,2.9999998 0,3 -0.3978247,2.9999998 -0.78050804,2.923879 -1.1480502,2.7716382 -1.5155923,2.6193972 -1.8400156,2.4026246 -2.1213202,2.1213202 -2.4026246,1.8400156 -2.6193972,1.5155923 -2.7716382,1.1480502 -2.9238791,0.78050804 -2.9999998,0.3978247 -3,0 c 2e-7,-0.3978247 0.076121,-0.78050804 0.2283618,-1.1480502 0.152241,-0.3675421 0.3690136,-0.6919654 0.650318,-0.97327 0.2813046,-0.2813044 0.6057279,-0.498077 0.97327,-0.650318 C -0.78050804,-2.9238791 -0.3978247,-2.9999998 0,-3 c 0.3978247,2e-7 0.78050804,0.076121 1.1480502,0.2283618 0.3675421,0.152241 0.6919654,0.3690136 0.97327,0.650318 0.2813044,0.2813046 0.498077,0.6057279 0.650318,0.97327 C 2.9238791,-0.78050804 2.9999998,-0.3978247 3,0 Z" /></g><g
           transform="matrix(3.125,0,0,3.125,684.71875,745.53125)"
           id="g226"><path
             id="path228"
             style="fill:#000000;fill-opacity:1;fill-rule:nonzero;stroke:none"
             d="m 3,0 c -2e-7,0.3978247 -0.076121,0.78050804 -0.2283618,1.1480502 -0.152241,0.3675421 -0.3690136,0.6919654 -0.650318,0.97327 -0.2813046,0.2813044 -0.6057279,0.498077 -0.97327,0.650318 C 0.78050804,2.9238791 0.3978247,2.9999998 0,3 -0.3978247,2.9999998 -0.78050804,2.923879 -1.1480502,2.7716382 -1.5155923,2.6193972 -1.8400156,2.4026246 -2.1213202,2.1213202 -2.4026246,1.8400156 -2.6193972,1.5155923 -2.7716382,1.1480502 -2.9238791,0.78050804 -2.9999998,0.3978247 -3,0 c 2e-7,-0.3978247 0.076121,-0.78050804 0.2283618,-1.1480502 0.152241,-0.3675421 0.3690136,-0.6919654 0.650318,-0.97327 0.2813046,-0.2813044 0.6057279,-0.498077 0.97327,-0.650318 C -0.78050804,-2.9238791 -0.3978247,-2.9999998 0,-3 c 0.3978247,2e-7 0.78050804,0.076121 1.1480502,0.2283618 0.3675421,0.152241 0.6919654,0.3690136 0.97327,0.650318 0.2813044,0.2813046 0.498077,0.6057279 0.650318,0.97327 C 2.9238791,-0.78050804 2.9999998,-0.3978247 3,0 Z" /></g><g
           transform="matrix(3.125,0,0,3.125,738.5625,815.5)"
           id="g230"><path
             id="path232"
             style="fill:#000000;fill-opacity:1;fill-rule:nonzero;stroke:none"
             d="m 3,0 c -2e-7,0.3978247 -0.076121,0.78050804 -0.2283618,1.1480502 -0.152241,0.3675421 -0.3690136,0.6919654 -0.650318,0.97327 -0.2813046,0.2813044 -0.6057279,0.498077 -0.97327,0.650318 C 0.78050804,2.9238791 0.3978247,2.9999998 0,3 -0.3978247,2.9999998 -0.78050804,2.923879 -1.1480502,2.7716382 -1.5155923,2.6193972 -1.8400156,2.4026246 -2.1213202,2.1213202 -2.4026246,1.8400156 -2.6193972,1.5155923 -2.7716382,1.1480502 -2.9238791,0.78050804 -2.9999998,0.3978247 -3,0 c 2e-7,-0.3978247 0.076121,-0.78050804 0.2283618,-1.1480502 0.152241,-0.3675421 0.3690136,-0.6919654 0.650318,-0.97327 0.2813046,-0.2813044 0.6057279,-0.498077 0.97327,-0.650318 C -0.78050804,-2.9238791 -0.3978247,-2.9999998 0,-3 c 0.3978247,2e-7 0.78050804,0.076121 1.1480502,0.2283618 0.3675421,0.152241 0.6919654,0.3690136 0.97327,0.650318 0.2813044,0.2813046 0.498077,0.6057279 0.650318,0.97327 C 2.9238791,-0.78050804 2.9999998,-0.3978247 3,0 Z" /></g><g
           transform="matrix(3.125,0,0,3.125,792.40625,848.34375)"
           id="g234"><path
             id="path236"
             style="fill:#000000;fill-opacity:1;fill-rule:nonzero;stroke:none"
             d="m 3,0 c -2e-7,0.3978247 -0.076121,0.78050804 -0.2283618,1.1480502 -0.152241,0.3675421 -0.3690136,0.6919654 -0.650318,0.97327 -0.2813046,0.2813044 -0.6057279,0.498077 -0.97327,0.650318 C 0.78050804,2.9238791 0.3978247,2.9999998 0,3 -0.3978247,2.9999998 -0.78050804,2.923879 -1.1480502,2.7716382 -1.5155923,2.6193972 -1.8400156,2.4026246 -2.1213202,2.1213202 -2.4026246,1.8400156 -2.6193972,1.5155923 -2.7716382,1.1480502 -2.9238791,0.78050804 -2.9999998,0.3978247 -3,0 c 2e-7,-0.3978247 0.076121,-0.78050804 0.2283618,-1.1480502 0.152241,-0.3675421 0.3690136,-0.6919654 0.650318,-0.97327 0.2813046,-0.2813044 0.6057279,-0.498077 0.97327,-0.650318 C -0.78050804,-2.9238791 -0.3978247,-2.9999998 0,-3 c 0.3978247,2e-7 0.78050804,0.076121 1.1480502,0.2283618 0.3675421,0.152241 0.6919654,0.3690136 0.97327,0.650318 0.2813044,0.2813046 0.498077,0.6057279 0.650318,0.97327 C 2.9238791,-0.78050804 2.9999998,-0.3978247 3,0 Z" /></g><g
           transform="matrix(3.125,0,0,3.125,846.25,857.6875)"
           id="g238"><path
             id="path240"
             style="fill:#000000;fill-opacity:1;fill-rule:nonzero;stroke:none"
             d="m 3,0 c -2e-7,0.3978247 -0.076121,0.78050804 -0.2283618,1.1480502 -0.152241,0.3675421 -0.3690136,0.6919654 -0.650318,0.97327 -0.2813046,0.2813044 -0.6057279,0.498077 -0.97327,0.650318 C 0.78050804,2.9238791 0.3978247,2.9999998 0,3 -0.3978247,2.9999998 -0.78050804,2.923879 -1.1480502,2.7716382 -1.5155923,2.6193972 -1.8400156,2.4026246 -2.1213202,2.1213202 -2.4026246,1.8400156 -2.6193972,1.5155923 -2.7716382,1.1480502 -2.9238791,0.78050804 -2.9999998,0.3978247 -3,0 c 2e-7,-0.3978247 0.076121,-0.78050804 0.2283618,-1.1480502 0.152241,-0.3675421 0.3690136,-0.6919654 0.650318,-0.97327 0.2813046,-0.2813044 0.6057279,-0.498077 0.97327,-0.650318 C -0.78050804,-2.9238791 -0.3978247,-2.9999998 0,-3 c 0.3978247,2e-7 0.78050804,0.076121 1.1480502,0.2283618 0.3675421,0.152241 0.6919654,0.3690136 0.97327,0.650318 0.2813044,0.2813046 0.498077,0.6057279 0.650318,0.97327 C 2.9238791,-0.78050804 2.9999998,-0.3978247 3,0 Z" /></g><g
           transform="matrix(3.125,0,0,3.125,900.0625,843.46875)"
           id="g242"><path
             id="path244"
             style="fill:#000000;fill-opacity:1;fill-rule:nonzero;stroke:none"
             d="m 3,0 c -2e-7,0.3978247 -0.076121,0.78050804 -0.2283618,1.1480502 -0.152241,0.3675421 -0.3690136,0.6919654 -0.650318,0.97327 -0.2813046,0.2813044 -0.6057279,0.498077 -0.97327,0.650318 C 0.78050804,2.9238791 0.3978247,2.9999998 0,3 -0.3978247,2.9999998 -0.78050804,2.923879 -1.1480502,2.7716382 -1.5155923,2.6193972 -1.8400156,2.4026246 -2.1213202,2.1213202 -2.4026246,1.8400156 -2.6193972,1.5155923 -2.7716382,1.1480502 -2.9238791,0.78050804 -2.9999998,0.3978247 -3,0 c 2e-7,-0.3978247 0.076121,-0.78050804 0.2283618,-1.1480502 0.152241,-0.3675421 0.3690136,-0.6919654 0.650318,-0.97327 0.2813046,-0.2813044 0.6057279,-0.498077 0.97327,-0.650318 C -0.78050804,-2.9238791 -0.3978247,-2.9999998 0,-3 c 0.3978247,2e-7 0.78050804,0.076121 1.1480502,0.2283618 0.3675421,0.152241 0.6919654,0.3690136 0.97327,0.650318 0.2813044,0.2813046 0.498077,0.6057279 0.650318,0.97327 C 2.9238791,-0.78050804 2.9999998,-0.3978247 3,0 Z" /></g><g
           transform="matrix(3.125,0,0,3.125,953.90625,860.03125)"
           id="g246"><path
             id="path248"
             style="fill:#000000;fill-opacity:1;fill-rule:nonzero;stroke:none"
             d="m 3,0 c -2e-7,0.3978247 -0.076121,0.78050804 -0.2283618,1.1480502 -0.152241,0.3675421 -0.3690136,0.6919654 -0.650318,0.97327 -0.2813046,0.2813044 -0.6057279,0.498077 -0.97327,0.650318 C 0.78050804,2.9238791 0.3978247,2.9999998 0,3 -0.3978247,2.9999998 -0.78050804,2.923879 -1.1480502,2.7716382 -1.5155923,2.6193972 -1.8400156,2.4026246 -2.1213202,2.1213202 -2.4026246,1.8400156 -2.6193972,1.5155923 -2.7716382,1.1480502 -2.9238791,0.78050804 -2.9999998,0.3978247 -3,0 c 2e-7,-0.3978247 0.076121,-0.78050804 0.2283618,-1.1480502 0.152241,-0.3675421 0.3690136,-0.6919654 0.650318,-0.97327 0.2813046,-0.2813044 0.6057279,-0.498077 0.97327,-0.650318 C -0.78050804,-2.9238791 -0.3978247,-2.9999998 0,-3 c 0.3978247,2e-7 0.78050804,0.076121 1.1480502,0.2283618 0.3675421,0.152241 0.6919654,0.3690136 0.97327,0.650318 0.2813044,0.2813046 0.498077,0.6057279 0.650318,0.97327 C 2.9238791,-0.78050804 2.9999998,-0.3978247 3,0 Z" /></g><g
           transform="matrix(3.125,0,0,3.125,1007.75,718.625)"
           id="g250"><path
             id="path252"
             style="fill:#000000;fill-opacity:1;fill-rule:nonzero;stroke:none"
             d="m 3,0 c -2e-7,0.3978247 -0.076121,0.78050804 -0.2283618,1.1480502 -0.152241,0.3675421 -0.3690136,0.6919654 -0.650318,0.97327 -0.2813046,0.2813044 -0.6057279,0.498077 -0.97327,0.650318 C 0.78050804,2.9238791 0.3978247,2.9999998 0,3 -0.3978247,2.9999998 -0.78050804,2.923879 -1.1480502,2.7716382 -1.5155923,2.6193972 -1.8400156,2.4026246 -2.1213202,2.1213202 -2.4026246,1.8400156 -2.6193972,1.5155923 -2.7716382,1.1480502 -2.9238791,0.78050804 -2.9999998,0.3978247 -3,0 c 2e-7,-0.3978247 0.076121,-0.78050804 0.2283618,-1.1480502 0.152241,-0.3675421 0.3690136,-0.6919654 0.650318,-0.97327 0.2813046,-0.2813044 0.6057279,-0.498077 0.97327,-0.650318 C -0.78050804,-2.9238791 -0.3978247,-2.9999998 0,-3 c 0.3978247,2e-7 0.78050804,0.076121 1.1480502,0.2283618 0.3675421,0.152241 0.6919654,0.3690136 0.97327,0.650318 0.2813044,0.2813046 0.498077,0.6057279 0.650318,0.97327 C 2.9238791,-0.78050804 2.9999998,-0.3978247 3,0 Z" /></g><g
           transform="matrix(3.125,0,0,3.125,1061.5625,870.78125)"
           id="g254"><path
             id="path256"
             style="fill:#000000;fill-opacity:1;fill-rule:nonzero;stroke:none"
             d="m 3,0 c -2e-7,0.3978247 -0.076121,0.78050804 -0.2283618,1.1480502 -0.152241,0.3675421 -0.3690136,0.6919654 -0.650318,0.97327 -0.2813046,0.2813044 -0.6057279,0.498077 -0.97327,0.650318 C 0.78050804,2.9238791 0.3978247,2.9999998 0,3 -0.3978247,2.9999998 -0.78050804,2.923879 -1.1480502,2.7716382 -1.5155923,2.6193972 -1.8400156,2.4026246 -2.1213202,2.1213202 -2.4026246,1.8400156 -2.6193972,1.5155923 -2.7716382,1.1480502 -2.9238791,0.78050804 -2.9999998,0.3978247 -3,0 c 2e-7,-0.3978247 0.076121,-0.78050804 0.2283618,-1.1480502 0.152241,-0.3675421 0.3690136,-0.6919654 0.650318,-0.97327 0.2813046,-0.2813044 0.6057279,-0.498077 0.97327,-0.650318 C -0.78050804,-2.9238791 -0.3978247,-2.9999998 0,-3 c 0.3978247,2e-7 0.78050804,0.076121 1.1480502,0.2283618 0.3675421,0.152241 0.6919654,0.3690136 0.97327,0.650318 0.2813044,0.2813046 0.498077,0.6057279 0.650318,0.97327 C 2.9238791,-0.78050804 2.9999998,-0.3978247 3,0 Z" /></g><g
           transform="matrix(3.125,0,0,3.125,1115.4063,870.4375)"
           id="g258"><path
             id="path260"
             style="fill:#000000;fill-opacity:1;fill-rule:nonzero;stroke:none"
             d="m 3,0 c -2e-7,0.3978247 -0.076121,0.78050804 -0.2283618,1.1480502 -0.152241,0.3675421 -0.3690136,0.6919654 -0.650318,0.97327 -0.2813046,0.2813044 -0.6057279,0.498077 -0.97327,0.650318 C 0.78050804,2.9238791 0.3978247,2.9999998 0,3 -0.3978247,2.9999998 -0.78050804,2.923879 -1.1480502,2.7716382 -1.5155923,2.6193972 -1.8400156,2.4026246 -2.1213202,2.1213202 -2.4026246,1.8400156 -2.6193972,1.5155923 -2.7716382,1.1480502 -2.9238791,0.78050804 -2.9999998,0.3978247 -3,0 c 2e-7,-0.3978247 0.076121,-0.78050804 0.2283618,-1.1480502 0.152241,-0.3675421 0.3690136,-0.6919654 0.650318,-0.97327 0.2813046,-0.2813044 0.6057279,-0.498077 0.97327,-0.650318 C -0.78050804,-2.9238791 -0.3978247,-2.9999998 0,-3 c 0.3978247,2e-7 0.78050804,0.076121 1.1480502,0.2283618 0.3675421,0.152241 0.6919654,0.3690136 0.97327,0.650318 0.2813044,0.2813046 0.498077,0.6057279 0.650318,0.97327 C 2.9238791,-0.78050804 2.9999998,-0.3978247 3,0 Z" /></g><g
           transform="matrix(3.125,0,0,3.125,1169.25,870.40625)"
           id="g262"><path
             id="path264"
             style="fill:#000000;fill-opacity:1;fill-rule:nonzero;stroke:none"
             d="m 3,0 c -2e-7,0.3978247 -0.076121,0.78050804 -0.2283618,1.1480502 -0.152241,0.3675421 -0.3690136,0.6919654 -0.650318,0.97327 -0.2813046,0.2813044 -0.6057279,0.498077 -0.97327,0.650318 C 0.78050804,2.9238791 0.3978247,2.9999998 0,3 -0.3978247,2.9999998 -0.78050804,2.923879 -1.1480502,2.7716382 -1.5155923,2.6193972 -1.8400156,2.4026246 -2.1213202,2.1213202 -2.4026246,1.8400156 -2.6193972,1.5155923 -2.7716382,1.1480502 -2.9238791,0.78050804 -2.9999998,0.3978247 -3,0 c 2e-7,-0.3978247 0.076121,-0.78050804 0.2283618,-1.1480502 0.152241,-0.3675421 0.3690136,-0.6919654 0.650318,-0.97327 0.2813046,-0.2813044 0.6057279,-0.498077 0.97327,-0.650318 C -0.78050804,-2.9238791 -0.3978247,-2.9999998 0,-3 c 0.3978247,2e-7 0.78050804,0.076121 1.1480502,0.2283618 0.3675421,0.152241 0.6919654,0.3690136 0.97327,0.650318 0.2813044,0.2813046 0.498077,0.6057279 0.650318,0.97327 C 2.9238791,-0.78050804 2.9999998,-0.3978247 3,0 Z" /></g><g
           transform="matrix(3.125,0,0,3.125,1223.0938,870.21875)"
           id="g266"><path
             id="path268"
             style="fill:#000000;fill-opacity:1;fill-rule:nonzero;stroke:none"
             d="m 3,0 c -2e-7,0.3978247 -0.076121,0.78050804 -0.2283618,1.1480502 -0.152241,0.3675421 -0.3690136,0.6919654 -0.650318,0.97327 -0.2813046,0.2813044 -0.6057279,0.498077 -0.97327,0.650318 C 0.78050804,2.9238791 0.3978247,2.9999998 0,3 -0.3978247,2.9999998 -0.78050804,2.923879 -1.1480502,2.7716382 -1.5155923,2.6193972 -1.8400156,2.4026246 -2.1213202,2.1213202 -2.4026246,1.8400156 -2.6193972,1.5155923 -2.7716382,1.1480502 -2.9238791,0.78050804 -2.9999998,0.3978247 -3,0 c 2e-7,-0.3978247 0.076121,-0.78050804 0.2283618,-1.1480502 0.152241,-0.3675421 0.3690136,-0.6919654 0.650318,-0.97327 0.2813046,-0.2813044 0.6057279,-0.498077 0.97327,-0.650318 C -0.78050804,-2.9238791 -0.3978247,-2.9999998 0,-3 c 0.3978247,2e-7 0.78050804,0.076121 1.1480502,0.2283618 0.3675421,0.152241 0.6919654,0.3690136 0.97327,0.650318 0.2813044,0.2813046 0.498077,0.6057279 0.650318,0.97327 C 2.9238791,-0.78050804 2.9999998,-0.3978247 3,0 Z" /></g><g
           transform="matrix(3.125,0,0,3.125,1276.9063,869.96875)"
           id="g270"><path
             id="path272"
             style="fill:#000000;fill-opacity:1;fill-rule:nonzero;stroke:none"
             d="m 3,0 c -2e-7,0.3978247 -0.076121,0.78050804 -0.2283618,1.1480502 -0.152241,0.3675421 -0.3690136,0.6919654 -0.650318,0.97327 -0.2813046,0.2813044 -0.6057279,0.498077 -0.97327,0.650318 C 0.78050804,2.9238791 0.3978247,2.9999998 0,3 -0.3978247,2.9999998 -0.78050804,2.923879 -1.1480502,2.7716382 -1.5155923,2.6193972 -1.8400156,2.4026246 -2.1213202,2.1213202 -2.4026246,1.8400156 -2.6193972,1.5155923 -2.7716382,1.1480502 -2.9238791,0.78050804 -2.9999998,0.3978247 -3,0 c 2e-7,-0.3978247 0.076121,-0.78050804 0.2283618,-1.1480502 0.152241,-0.3675421 0.3690136,-0.6919654 0.650318,-0.97327 0.2813046,-0.2813044 0.6057279,-0.498077 0.97327,-0.650318 C -0.78050804,-2.9238791 -0.3978247,-2.9999998 0,-3 c 0.3978247,2e-7 0.78050804,0.076121 1.1480502,0.2283618 0.3675421,0.152241 0.6919654,0.3690136 0.97327,0.650318 0.2813044,0.2813046 0.498077,0.6057279 0.650318,0.97327 C 2.9238791,-0.78050804 2.9999998,-0.3978247 3,0 Z" /></g><g
           transform="matrix(3.125,0,0,3.125,1330.75,865.09375)"
           id="g274"><path
             id="path276"
             style="fill:#000000;fill-opacity:1;fill-rule:nonzero;stroke:none"
             d="m 3,0 c -2e-7,0.3978247 -0.076121,0.78050804 -0.2283618,1.1480502 -0.152241,0.3675421 -0.3690136,0.6919654 -0.650318,0.97327 -0.2813046,0.2813044 -0.6057279,0.498077 -0.97327,0.650318 C 0.78050804,2.9238791 0.3978247,2.9999998 0,3 -0.3978247,2.9999998 -0.78050804,2.923879 -1.1480502,2.7716382 -1.5155923,2.6193972 -1.8400156,2.4026246 -2.1213202,2.1213202 -2.4026246,1.8400156 -2.6193972,1.5155923 -2.7716382,1.1480502 -2.9238791,0.78050804 -2.9999998,0.3978247 -3,0 c 2e-7,-0.3978247 0.076121,-0.78050804 0.2283618,-1.1480502 0.152241,-0.3675421 0.3690136,-0.6919654 0.650318,-0.97327 0.2813046,-0.2813044 0.6057279,-0.498077 0.97327,-0.650318 C -0.78050804,-2.9238791 -0.3978247,-2.9999998 0,-3 c 0.3978247,2e-7 0.78050804,0.076121 1.1480502,0.2283618 0.3675421,0.152241 0.6919654,0.3690136 0.97327,0.650318 0.2813044,0.2813046 0.498077,0.6057279 0.650318,0.97327 C 2.9238791,-0.78050804 2.9999998,-0.3978247 3,0 Z" /></g><g
           transform="matrix(3.125,0,0,3.125,1384.5938,861.8125)"
           id="g278"><path
             id="path280"
             style="fill:#000000;fill-opacity:1;fill-rule:nonzero;stroke:none"
             d="m 3,0 c -2e-7,0.3978247 -0.076121,0.78050804 -0.2283618,1.1480502 -0.152241,0.3675421 -0.3690136,0.6919654 -0.650318,0.97327 -0.2813046,0.2813044 -0.6057279,0.498077 -0.97327,0.650318 C 0.78050804,2.9238791 0.3978247,2.9999998 0,3 -0.3978247,2.9999998 -0.78050804,2.923879 -1.1480502,2.7716382 -1.5155923,2.6193972 -1.8400156,2.4026246 -2.1213202,2.1213202 -2.4026246,1.8400156 -2.6193972,1.5155923 -2.7716382,1.1480502 -2.9238791,0.78050804 -2.9999998,0.3978247 -3,0 c 2e-7,-0.3978247 0.076121,-0.78050804 0.2283618,-1.1480502 0.152241,-0.3675421 0.3690136,-0.6919654 0.650318,-0.97327 0.2813046,-0.2813044 0.6057279,-0.498077 0.97327,-0.650318 C -0.78050804,-2.9238791 -0.3978247,-2.9999998 0,-3 c 0.3978247,2e-7 0.78050804,0.076121 1.1480502,0.2283618 0.3675421,0.152241 0.6919654,0.3690136 0.97327,0.650318 0.2813044,0.2813046 0.498077,0.6057279 0.650318,0.97327 C 2.9238791,-0.78050804 2.9999998,-0.3978247 3,0 Z" /></g><g
           transform="matrix(3.125,0,0,3.125,1438.4375,856.0625)"
           id="g282"><path
             id="path284"
             style="fill:#000000;fill-opacity:1;fill-rule:nonzero;stroke:none"
             d="m 3,0 c -2e-7,0.3978247 -0.076121,0.78050804 -0.2283618,1.1480502 -0.152241,0.3675421 -0.3690136,0.6919654 -0.650318,0.97327 -0.2813046,0.2813044 -0.6057279,0.498077 -0.97327,0.650318 C 0.78050804,2.9238791 0.3978247,2.9999998 0,3 -0.3978247,2.9999998 -0.78050804,2.923879 -1.1480502,2.7716382 -1.5155923,2.6193972 -1.8400156,2.4026246 -2.1213202,2.1213202 -2.4026246,1.8400156 -2.6193972,1.5155923 -2.7716382,1.1480502 -2.9238791,0.78050804 -2.9999998,0.3978247 -3,0 c 2e-7,-0.3978247 0.076121,-0.78050804 0.2283618,-1.1480502 0.152241,-0.3675421 0.3690136,-0.6919654 0.650318,-0.97327 0.2813046,-0.2813044 0.6057279,-0.498077 0.97327,-0.650318 C -0.78050804,-2.9238791 -0.3978247,-2.9999998 0,-3 c 0.3978247,2e-7 0.78050804,0.076121 1.1480502,0.2283618 0.3675421,0.152241 0.6919654,0.3690136 0.97327,0.650318 0.2813044,0.2813046 0.498077,0.6057279 0.650318,0.97327 C 2.9238791,-0.78050804 2.9999998,-0.3978247 3,0 Z" /></g><g
           transform="matrix(3.125,0,0,3.125,1492.25,848.28125)"
           id="g286"><path
             id="path288"
             style="fill:#000000;fill-opacity:1;fill-rule:nonzero;stroke:none"
             d="m 3,0 c -2e-7,0.3978247 -0.076121,0.78050804 -0.2283618,1.1480502 -0.152241,0.3675421 -0.3690136,0.6919654 -0.650318,0.97327 -0.2813046,0.2813044 -0.6057279,0.498077 -0.97327,0.650318 C 0.78050804,2.9238791 0.3978247,2.9999998 0,3 -0.3978247,2.9999998 -0.78050804,2.923879 -1.1480502,2.7716382 -1.5155923,2.6193972 -1.8400156,2.4026246 -2.1213202,2.1213202 -2.4026246,1.8400156 -2.6193972,1.5155923 -2.7716382,1.1480502 -2.9238791,0.78050804 -2.9999998,0.3978247 -3,0 c 2e-7,-0.3978247 0.076121,-0.78050804 0.2283618,-1.1480502 0.152241,-0.3675421 0.3690136,-0.6919654 0.650318,-0.97327 0.2813046,-0.2813044 0.6057279,-0.498077 0.97327,-0.650318 C -0.78050804,-2.9238791 -0.3978247,-2.9999998 0,-3 c 0.3978247,2e-7 0.78050804,0.076121 1.1480502,0.2283618 0.3675421,0.152241 0.6919654,0.3690136 0.97327,0.650318 0.2813044,0.2813046 0.498077,0.6057279 0.650318,0.97327 C 2.9238791,-0.78050804 2.9999998,-0.3978247 3,0 Z" /></g><g
           transform="matrix(3.125,0,0,3.125,1546.0938,835.59375)"
           id="g290"><path
             id="path292"
             style="fill:#000000;fill-opacity:1;fill-rule:nonzero;stroke:none"
             d="m 3,0 c -2e-7,0.3978247 -0.076121,0.78050804 -0.2283618,1.1480502 -0.152241,0.3675421 -0.3690136,0.6919654 -0.650318,0.97327 -0.2813046,0.2813044 -0.6057279,0.498077 -0.97327,0.650318 C 0.78050804,2.9238791 0.3978247,2.9999998 0,3 -0.3978247,2.9999998 -0.78050804,2.923879 -1.1480502,2.7716382 -1.5155923,2.6193972 -1.8400156,2.4026246 -2.1213202,2.1213202 -2.4026246,1.8400156 -2.6193972,1.5155923 -2.7716382,1.1480502 -2.9238791,0.78050804 -2.9999998,0.3978247 -3,0 c 2e-7,-0.3978247 0.076121,-0.78050804 0.2283618,-1.1480502 0.152241,-0.3675421 0.3690136,-0.6919654 0.650318,-0.97327 0.2813046,-0.2813044 0.6057279,-0.498077 0.97327,-0.650318 C -0.78050804,-2.9238791 -0.3978247,-2.9999998 0,-3 c 0.3978247,2e-7 0.78050804,0.076121 1.1480502,0.2283618 0.3675421,0.152241 0.6919654,0.3690136 0.97327,0.650318 0.2813044,0.2813046 0.498077,0.6057279 0.650318,0.97327 C 2.9238791,-0.78050804 2.9999998,-0.3978247 3,0 Z" /></g><g
           transform="matrix(3.125,0,0,3.125,1599.9375,828.875)"
           id="g294"><path
             id="path296"
             style="fill:#000000;fill-opacity:1;fill-rule:nonzero;stroke:none"
             d="m 3,0 c -2e-7,0.3978247 -0.076121,0.78050804 -0.2283618,1.1480502 -0.152241,0.3675421 -0.3690136,0.6919654 -0.650318,0.97327 -0.2813046,0.2813044 -0.6057279,0.498077 -0.97327,0.650318 C 0.78050804,2.9238791 0.3978247,2.9999998 0,3 -0.3978247,2.9999998 -0.78050804,2.923879 -1.1480502,2.7716382 -1.5155923,2.6193972 -1.8400156,2.4026246 -2.1213202,2.1213202 -2.4026246,1.8400156 -2.6193972,1.5155923 -2.7716382,1.1480502 -2.9238791,0.78050804 -2.9999998,0.3978247 -3,0 c 2e-7,-0.3978247 0.076121,-0.78050804 0.2283618,-1.1480502 0.152241,-0.3675421 0.3690136,-0.6919654 0.650318,-0.97327 0.2813046,-0.2813044 0.6057279,-0.498077 0.97327,-0.650318 C -0.78050804,-2.9238791 -0.3978247,-2.9999998 0,-3 c 0.3978247,2e-7 0.78050804,0.076121 1.1480502,0.2283618 0.3675421,0.152241 0.6919654,0.3690136 0.97327,0.650318 0.2813044,0.2813046 0.498077,0.6057279 0.650318,0.97327 C 2.9238791,-0.78050804 2.9999998,-0.3978247 3,0 Z" /></g><g
           transform="matrix(3.125,0,0,3.125,1653.75,831.5625)"
           id="g298"><path
             id="path300"
             style="fill:#000000;fill-opacity:1;fill-rule:nonzero;stroke:none"
             d="m 3,0 c -2e-7,0.3978247 -0.076121,0.78050804 -0.2283618,1.1480502 -0.152241,0.3675421 -0.3690136,0.6919654 -0.650318,0.97327 -0.2813046,0.2813044 -0.6057279,0.498077 -0.97327,0.650318 C 0.78050804,2.9238791 0.3978247,2.9999998 0,3 -0.3978247,2.9999998 -0.78050804,2.923879 -1.1480502,2.7716382 -1.5155923,2.6193972 -1.8400156,2.4026246 -2.1213202,2.1213202 -2.4026246,1.8400156 -2.6193972,1.5155923 -2.7716382,1.1480502 -2.9238791,0.78050804 -2.9999998,0.3978247 -3,0 c 2e-7,-0.3978247 0.076121,-0.78050804 0.2283618,-1.1480502 0.152241,-0.3675421 0.3690136,-0.6919654 0.650318,-0.97327 0.2813046,-0.2813044 0.6057279,-0.498077 0.97327,-0.650318 C -0.78050804,-2.9238791 -0.3978247,-2.9999998 0,-3 c 0.3978247,2e-7 0.78050804,0.076121 1.1480502,0.2283618 0.3675421,0.152241 0.6919654,0.3690136 0.97327,0.650318 0.2813044,0.2813046 0.498077,0.6057279 0.650318,0.97327 C 2.9238791,-0.78050804 2.9999998,-0.3978247 3,0 Z" /></g><g
           transform="matrix(3.125,0,0,3.125,1707.5938,814.90625)"
           id="g302"><path
             id="path304"
             style="fill:#000000;fill-opacity:1;fill-rule:nonzero;stroke:none"
             d="m 3,0 c -2e-7,0.3978247 -0.076121,0.78050804 -0.2283618,1.1480502 -0.152241,0.3675421 -0.3690136,0.6919654 -0.650318,0.97327 -0.2813046,0.2813044 -0.6057279,0.498077 -0.97327,0.650318 C 0.78050804,2.9238791 0.3978247,2.9999998 0,3 -0.3978247,2.9999998 -0.78050804,2.923879 -1.1480502,2.7716382 -1.5155923,2.6193972 -1.8400156,2.4026246 -2.1213202,2.1213202 -2.4026246,1.8400156 -2.6193972,1.5155923 -2.7716382,1.1480502 -2.9238791,0.78050804 -2.9999998,0.3978247 -3,0 c 2e-7,-0.3978247 0.076121,-0.78050804 0.2283618,-1.1480502 0.152241,-0.3675421 0.3690136,-0.6919654 0.650318,-0.97327 0.2813046,-0.2813044 0.6057279,-0.498077 0.97327,-0.650318 C -0.78050804,-2.9238791 -0.3978247,-2.9999998 0,-3 c 0.3978247,2e-7 0.78050804,0.076121 1.1480502,0.2283618 0.3675421,0.152241 0.6919654,0.3690136 0.97327,0.650318 0.2813044,0.2813046 0.498077,0.6057279 0.650318,0.97327 C 2.9238791,-0.78050804 2.9999998,-0.3978247 3,0 Z" /></g><g
           transform="matrix(3.125,0,0,3.125,1761.4375,828.96875)"
           id="g306"><path
             id="path308"
             style="fill:#000000;fill-opacity:1;fill-rule:nonzero;stroke:none"
             d="m 3,0 c -2e-7,0.3978247 -0.076121,0.78050804 -0.2283618,1.1480502 -0.152241,0.3675421 -0.3690136,0.6919654 -0.650318,0.97327 -0.2813046,0.2813044 -0.6057279,0.498077 -0.97327,0.650318 C 0.78050804,2.9238791 0.3978247,2.9999998 0,3 -0.3978247,2.9999998 -0.78050804,2.923879 -1.1480502,2.7716382 -1.5155923,2.6193972 -1.8400156,2.4026246 -2.1213202,2.1213202 -2.4026246,1.8400156 -2.6193972,1.5155923 -2.7716382,1.1480502 -2.9238791,0.78050804 -2.9999998,0.3978247 -3,0 c 2e-7,-0.3978247 0.076121,-0.78050804 0.2283618,-1.1480502 0.152241,-0.3675421 0.3690136,-0.6919654 0.650318,-0.97327 0.2813046,-0.2813044 0.6057279,-0.498077 0.97327,-0.650318 C -0.78050804,-2.9238791 -0.3978247,-2.9999998 0,-3 c 0.3978247,2e-7 0.78050804,0.076121 1.1480502,0.2283618 0.3675421,0.152241 0.6919654,0.3690136 0.97327,0.650318 0.2813044,0.2813046 0.498077,0.6057279 0.650318,0.97327 C 2.9238791,-0.78050804 2.9999998,-0.3978247 3,0 Z" /></g><g
           transform="matrix(3.125,0,0,3.125,1815.2813,822.03125)"
           id="g310"><path
             id="path312"
             style="fill:#000000;fill-opacity:1;fill-rule:nonzero;stroke:none"
             d="m 3,0 c -2e-7,0.3978247 -0.076121,0.78050804 -0.2283618,1.1480502 -0.152241,0.3675421 -0.3690136,0.6919654 -0.650318,0.97327 -0.2813046,0.2813044 -0.6057279,0.498077 -0.97327,0.650318 C 0.78050804,2.9238791 0.3978247,2.9999998 0,3 -0.3978247,2.9999998 -0.78050804,2.923879 -1.1480502,2.7716382 -1.5155923,2.6193972 -1.8400156,2.4026246 -2.1213202,2.1213202 -2.4026246,1.8400156 -2.6193972,1.5155923 -2.7716382,1.1480502 -2.9238791,0.78050804 -2.9999998,0.3978247 -3,0 c 2e-7,-0.3978247 0.076121,-0.78050804 0.2283618,-1.1480502 0.152241,-0.3675421 0.3690136,-0.6919654 0.650318,-0.97327 0.2813046,-0.2813044 0.6057279,-0.498077 0.97327,-0.650318 C -0.78050804,-2.9238791 -0.3978247,-2.9999998 0,-3 c 0.3978247,2e-7 0.78050804,0.076121 1.1480502,0.2283618 0.3675421,0.152241 0.6919654,0.3690136 0.97327,0.650318 0.2813044,0.2813046 0.498077,0.6057279 0.650318,0.97327 C 2.9238791,-0.78050804 2.9999998,-0.3978247 3,0 Z" /></g><g
           transform="matrix(3.125,0,0,3.125,1869.0938,822.28125)"
           id="g314"><path
             id="path316"
             style="fill:#000000;fill-opacity:1;fill-rule:nonzero;stroke:none"
             d="m 3,0 c -2e-7,0.3978247 -0.076121,0.78050804 -0.2283618,1.1480502 -0.152241,0.3675421 -0.3690136,0.6919654 -0.650318,0.97327 -0.2813046,0.2813044 -0.6057279,0.498077 -0.97327,0.650318 C 0.78050804,2.9238791 0.3978247,2.9999998 0,3 -0.3978247,2.9999998 -0.78050804,2.923879 -1.1480502,2.7716382 -1.5155923,2.6193972 -1.8400156,2.4026246 -2.1213202,2.1213202 -2.4026246,1.8400156 -2.6193972,1.5155923 -2.7716382,1.1480502 -2.9238791,0.78050804 -2.9999998,0.3978247 -3,0 c 2e-7,-0.3978247 0.076121,-0.78050804 0.2283618,-1.1480502 0.152241,-0.3675421 0.3690136,-0.6919654 0.650318,-0.97327 0.2813046,-0.2813044 0.6057279,-0.498077 0.97327,-0.650318 C -0.78050804,-2.9238791 -0.3978247,-2.9999998 0,-3 c 0.3978247,2e-7 0.78050804,0.076121 1.1480502,0.2283618 0.3675421,0.152241 0.6919654,0.3690136 0.97327,0.650318 0.2813044,0.2813046 0.498077,0.6057279 0.650318,0.97327 C 2.9238791,-0.78050804 2.9999998,-0.3978247 3,0 Z" /></g><g
           transform="matrix(3.125,0,0,3.125,1922.9376,825.1875)"
           id="g318"><path
             id="path320"
             style="fill:#000000;fill-opacity:1;fill-rule:nonzero;stroke:none"
             d="m 3,0 c -2e-7,0.3978247 -0.076121,0.78050804 -0.2283618,1.1480502 -0.152241,0.3675421 -0.3690136,0.6919654 -0.650318,0.97327 -0.2813046,0.2813044 -0.6057279,0.498077 -0.97327,0.650318 C 0.78050804,2.9238791 0.3978247,2.9999998 0,3 -0.3978247,2.9999998 -0.78050804,2.923879 -1.1480502,2.7716382 -1.5155923,2.6193972 -1.8400156,2.4026246 -2.1213202,2.1213202 -2.4026246,1.8400156 -2.6193972,1.5155923 -2.7716382,1.1480502 -2.9238791,0.78050804 -2.9999998,0.3978247 -3,0 c 2e-7,-0.3978247 0.076121,-0.78050804 0.2283618,-1.1480502 0.152241,-0.3675421 0.3690136,-0.6919654 0.650318,-0.97327 0.2813046,-0.2813044 0.6057279,-0.498077 0.97327,-0.650318 C -0.78050804,-2.9238791 -0.3978247,-2.9999998 0,-3 c 0.3978247,2e-7 0.78050804,0.076121 1.1480502,0.2283618 0.3675421,0.152241 0.6919654,0.3690136 0.97327,0.650318 0.2813044,0.2813046 0.498077,0.6057279 0.650318,0.97327 C 2.9238791,-0.78050804 2.9999998,-0.3978247 3,0 Z" /></g><g
           transform="matrix(3.125,0,0,3.125,1976.7813,828.90625)"
           id="g322"><path
             id="path324"
             style="fill:#000000;fill-opacity:1;fill-rule:nonzero;stroke:none"
             d="m 3,0 c -2e-7,0.3978247 -0.076121,0.78050804 -0.2283618,1.1480502 -0.152241,0.3675421 -0.3690136,0.6919654 -0.650318,0.97327 -0.2813046,0.2813044 -0.6057279,0.498077 -0.97327,0.650318 C 0.78050804,2.9238791 0.3978247,2.9999998 0,3 -0.3978247,2.9999998 -0.78050804,2.923879 -1.1480502,2.7716382 -1.5155923,2.6193972 -1.8400156,2.4026246 -2.1213202,2.1213202 -2.4026246,1.8400156 -2.6193972,1.5155923 -2.7716382,1.1480502 -2.9238791,0.78050804 -2.9999998,0.3978247 -3,0 c 2e-7,-0.3978247 0.076121,-0.78050804 0.2283618,-1.1480502 0.152241,-0.3675421 0.3690136,-0.6919654 0.650318,-0.97327 0.2813046,-0.2813044 0.6057279,-0.498077 0.97327,-0.650318 C -0.78050804,-2.9238791 -0.3978247,-2.9999998 0,-3 c 0.3978247,2e-7 0.78050804,0.076121 1.1480502,0.2283618 0.3675421,0.152241 0.6919654,0.3690136 0.97327,0.650318 0.2813044,0.2813046 0.498077,0.6057279 0.650318,0.97327 C 2.9238791,-0.78050804 2.9999998,-0.3978247 3,0 Z" /></g><g
           transform="matrix(3.125,0,0,3.125,2030.625,676.8125)"
           id="g326"><path
             id="path328"
             style="fill:#000000;fill-opacity:1;fill-rule:nonzero;stroke:none"
             d="m 3,0 c -2e-7,0.3978247 -0.076121,0.78050804 -0.2283618,1.1480502 -0.152241,0.3675421 -0.3690136,0.6919654 -0.650318,0.97327 -0.2813046,0.2813044 -0.6057279,0.498077 -0.97327,0.650318 C 0.78050804,2.9238791 0.3978247,2.9999998 0,3 -0.3978247,2.9999998 -0.78050804,2.923879 -1.1480502,2.7716382 -1.5155923,2.6193972 -1.8400156,2.4026246 -2.1213202,2.1213202 -2.4026246,1.8400156 -2.6193972,1.5155923 -2.7716382,1.1480502 -2.9238791,0.78050804 -2.9999998,0.3978247 -3,0 c 2e-7,-0.3978247 0.076121,-0.78050804 0.2283618,-1.1480502 0.152241,-0.3675421 0.3690136,-0.6919654 0.650318,-0.97327 0.2813046,-0.2813044 0.6057279,-0.498077 0.97327,-0.650318 C -0.78050804,-2.9238791 -0.3978247,-2.9999998 0,-3 c 0.3978247,2e-7 0.78050804,0.076121 1.1480502,0.2283618 0.3675421,0.152241 0.6919654,0.3690136 0.97327,0.650318 0.2813044,0.2813046 0.498077,0.6057279 0.650318,0.97327 C 2.9238791,-0.78050804 2.9999998,-0.3978247 3,0 Z" /></g><g
           transform="matrix(3.125,0,0,3.125,2084.4375,847.65625)"
           id="g330"><path
             id="path332"
             style="fill:#000000;fill-opacity:1;fill-rule:nonzero;stroke:none"
             d="m 3,0 c -2e-7,0.3978247 -0.076121,0.78050804 -0.2283618,1.1480502 -0.152241,0.3675421 -0.3690136,0.6919654 -0.650318,0.97327 -0.2813046,0.2813044 -0.6057279,0.498077 -0.97327,0.650318 C 0.78050804,2.9238791 0.3978247,2.9999998 0,3 -0.3978247,2.9999998 -0.78050804,2.923879 -1.1480502,2.7716382 -1.5155923,2.6193972 -1.8400156,2.4026246 -2.1213202,2.1213202 -2.4026246,1.8400156 -2.6193972,1.5155923 -2.7716382,1.1480502 -2.9238791,0.78050804 -2.9999998,0.3978247 -3,0 c 2e-7,-0.3978247 0.076121,-0.78050804 0.2283618,-1.1480502 0.152241,-0.3675421 0.3690136,-0.6919654 0.650318,-0.97327 0.2813046,-0.2813044 0.6057279,-0.498077 0.97327,-0.650318 C -0.78050804,-2.9238791 -0.3978247,-2.9999998 0,-3 c 0.3978247,2e-7 0.78050804,0.076121 1.1480502,0.2283618 0.3675421,0.152241 0.6919654,0.3690136 0.97327,0.650318 0.2813044,0.2813046 0.498077,0.6057279 0.650318,0.97327 C 2.9238791,-0.78050804 2.9999998,-0.3978247 3,0 Z" /></g><g
           transform="matrix(3.125,0,0,3.125,2138.2813,854.5)"
           id="g334"><path
             id="path336"
             style="fill:#000000;fill-opacity:1;fill-rule:nonzero;stroke:none"
             d="m 3,0 c -2e-7,0.3978247 -0.076121,0.78050804 -0.2283618,1.1480502 -0.152241,0.3675421 -0.3690136,0.6919654 -0.650318,0.97327 -0.2813046,0.2813044 -0.6057279,0.498077 -0.97327,0.650318 C 0.78050804,2.9238791 0.3978247,2.9999998 0,3 -0.3978247,2.9999998 -0.78050804,2.923879 -1.1480502,2.7716382 -1.5155923,2.6193972 -1.8400156,2.4026246 -2.1213202,2.1213202 -2.4026246,1.8400156 -2.6193972,1.5155923 -2.7716382,1.1480502 -2.9238791,0.78050804 -2.9999998,0.3978247 -3,0 c 2e-7,-0.3978247 0.076121,-0.78050804 0.2283618,-1.1480502 0.152241,-0.3675421 0.3690136,-0.6919654 0.650318,-0.97327 0.2813046,-0.2813044 0.6057279,-0.498077 0.97327,-0.650318 C -0.78050804,-2.9238791 -0.3978247,-2.9999998 0,-3 c 0.3978247,2e-7 0.78050804,0.076121 1.1480502,0.2283618 0.3675421,0.152241 0.6919654,0.3690136 0.97327,0.650318 0.2813044,0.2813046 0.498077,0.6057279 0.650318,0.97327 C 2.9238791,-0.78050804 2.9999998,-0.3978247 3,0 Z" /></g></g></g><g
       id="g338"><g
         clip-path="url(#clipPath344)"
         id="g340"><g
           transform="matrix(2.7063293,1.5625,-1.5625,2.7063293,896.6875,126.8572)"
           id="g346"><text
             id="text350"
             style="font-variant:normal;font-weight:normal;font-size:20px;font-family:TimesNewRomanPSMT;-inkscape-font-specification:TimesNewRomanPSMT;writing-mode:lr-tb;fill:#000000;fill-opacity:1;fill-rule:nonzero;stroke:none"
             transform="translate(0,313)"><tspan
               id="tspan348"
               y="0"
               x="0 7.7832031 16.660156 26.660156 31.660156 41.660156 51.660156 61.660156">Jan 2022</tspan></text>
</g><g
           transform="matrix(2.7063293,1.5625,-1.5625,2.7063293,1135.0938,126.8572)"
           id="g352"><text
             id="text356"
             style="font-variant:normal;font-weight:normal;font-size:20px;font-family:TimesNewRomanPSMT;-inkscape-font-specification:TimesNewRomanPSMT;writing-mode:lr-tb;fill:#000000;fill-opacity:1;fill-rule:nonzero;stroke:none"
             transform="translate(0,313)"><tspan
               id="tspan354"
               y="0"
               x="0 11.123047 20 30 35 45 55 65">Feb 2022</tspan></text>
</g><g
           transform="matrix(2.7063293,1.5625,-1.5625,2.7063293,1350.4375,126.8572)"
           id="g358"><text
             id="text362"
             style="font-variant:normal;font-weight:normal;font-size:20px;font-family:TimesNewRomanPSMT;-inkscape-font-specification:TimesNewRomanPSMT;writing-mode:lr-tb;fill:#000000;fill-opacity:1;fill-rule:nonzero;stroke:none"
             transform="translate(0,313)"><tspan
               id="tspan360"
               y="0"
               x="0 17.783203 26.660156 33.320312 38.320312 48.320312 58.320312 68.320312">Mar 2022</tspan></text>
</g><g
           transform="matrix(2.7063293,1.5625,-1.5625,2.7063293,1588.8438,126.8572)"
           id="g364"><text
             id="text368"
             style="font-variant:normal;font-weight:normal;font-size:20px;font-family:TimesNewRomanPSMT;-inkscape-font-specification:TimesNewRomanPSMT;writing-mode:lr-tb;fill:#000000;fill-opacity:1;fill-rule:nonzero;stroke:none"
             transform="translate(0,313)"><tspan
               id="tspan366"
               y="0"
               x="0 14.443359 24.443359 31.103516 36.103516 46.103516 56.103516 66.103516">Apr 2022</tspan></text>
</g><g
           transform="matrix(2.7063293,1.5625,-1.5625,2.7063293,1819.5625,126.8572)"
           id="g370"><text
             id="text374"
             style="font-variant:normal;font-weight:normal;font-size:20px;font-family:TimesNewRomanPSMT;-inkscape-font-specification:TimesNewRomanPSMT;writing-mode:lr-tb;fill:#000000;fill-opacity:1;fill-rule:nonzero;stroke:none"
             transform="translate(0,313)"><tspan
               id="tspan372"
               y="0"
               x="0 17.783203 26.660156 36.660156 41.660156 51.660156 61.660156 71.660156">May 2022</tspan></text>
</g><g
           transform="matrix(2.7063293,1.5625,-1.5625,2.7063293,2058,126.8572)"
           id="g376"><text
             id="text380"
             style="font-variant:normal;font-weight:normal;font-size:20px;font-family:TimesNewRomanPSMT;-inkscape-font-specification:TimesNewRomanPSMT;writing-mode:lr-tb;fill:#000000;fill-opacity:1;fill-rule:nonzero;stroke:none"
             transform="translate(0,313)"><tspan
               id="tspan378"
               y="0"
               x="0 7.7832031 17.783203 27.783203 32.783203 42.783203 52.783203 62.783203">Jun 2022</tspan></text>
</g><g
           transform="matrix(2.7063293,1.5625,-1.5625,2.7063293,2288.7188,126.8572)"
           id="g382"><text
             id="text386"
             style="font-variant:normal;font-weight:normal;font-size:20px;font-family:TimesNewRomanPSMT;-inkscape-font-specification:TimesNewRomanPSMT;writing-mode:lr-tb;fill:#000000;fill-opacity:1;fill-rule:nonzero;stroke:none"
             transform="translate(0,313)"><tspan
               id="tspan384"
               y="0"
               x="0 7.7832031 17.783203 23.339844 28.339844 38.339844 48.339844 58.339844">Jul 2022</tspan></text>
</g><g
           transform="matrix(2.7063293,1.5625,-1.5625,2.7063293,2527.125,126.8572)"
           id="g388"><text
             id="text392"
             style="font-variant:normal;font-weight:normal;font-size:20px;font-family:TimesNewRomanPSMT;-inkscape-font-specification:TimesNewRomanPSMT;writing-mode:lr-tb;fill:#000000;fill-opacity:1;fill-rule:nonzero;stroke:none"
             transform="translate(0,313)"><tspan
               id="tspan390"
               y="0"
               x="0 14.443359 24.443359 34.443359 39.443359 49.443359 59.443359 69.443359">Aug 2022</tspan></text>
</g><g
           transform="matrix(3.125,0,0,3.125,0,878.40625)"
           id="g394"><text
             id="text398"
             style="font-variant:normal;font-weight:normal;font-size:20px;font-family:TimesNewRomanPSMT;-inkscape-font-specification:TimesNewRomanPSMT;writing-mode:lr-tb;fill:#000000;fill-opacity:1;fill-rule:nonzero;stroke:none"
             transform="translate(69,7)"><tspan
               id="tspan396"
               y="0"
               x="0">0</tspan></text>
</g><g
           transform="matrix(3.125,0,0,3.125,0,741.5)"
           id="g400"><text
             id="text404"
             style="font-variant:normal;font-weight:normal;font-size:20px;font-family:TimesNewRomanPSMT;-inkscape-font-specification:TimesNewRomanPSMT;writing-mode:lr-tb;fill:#000000;fill-opacity:1;fill-rule:nonzero;stroke:none"
             transform="translate(49,7)"><tspan
               id="tspan402"
               y="0"
               x="0 10 20">20k</tspan></text>
</g><g
           transform="matrix(3.125,0,0,3.125,0,604.59375)"
           id="g406"><text
             id="text410"
             style="font-variant:normal;font-weight:normal;font-size:20px;font-family:TimesNewRomanPSMT;-inkscape-font-specification:TimesNewRomanPSMT;writing-mode:lr-tb;fill:#000000;fill-opacity:1;fill-rule:nonzero;stroke:none"
             transform="translate(49,7)"><tspan
               id="tspan408"
               y="0"
               x="0 10 20">40k</tspan></text>
</g><g
           transform="matrix(3.125,0,0,3.125,0,467.6875)"
           id="g412"><text
             id="text416"
             style="font-variant:normal;font-weight:normal;font-size:20px;font-family:TimesNewRomanPSMT;-inkscape-font-specification:TimesNewRomanPSMT;writing-mode:lr-tb;fill:#000000;fill-opacity:1;fill-rule:nonzero;stroke:none"
             transform="translate(49,7)"><tspan
               id="tspan414"
               y="0"
               x="0 10 20">60k</tspan></text>
</g><g
           transform="matrix(3.125,0,0,3.125,0,330.78125)"
           id="g418"><text
             id="text422"
             style="font-variant:normal;font-weight:normal;font-size:20px;font-family:TimesNewRomanPSMT;-inkscape-font-specification:TimesNewRomanPSMT;writing-mode:lr-tb;fill:#000000;fill-opacity:1;fill-rule:nonzero;stroke:none"
             transform="translate(49,7)"><tspan
               id="tspan420"
               y="0"
               x="0 10 20">80k</tspan></text>
</g><g
           transform="matrix(3.125,0,0,3.125,1250,312.5)"
           id="g424"><path
             id="path426"
             style="fill:#ffffff;fill-opacity:1;fill-rule:nonzero;stroke:none"
             d="M 0,0 H 297 V 68 H 0 Z" /></g></g></g><g
       id="g428"><g
         clip-path="url(#clipPath434)"
         id="g430"><g
           transform="matrix(3.125,0,0,3.125,1250,373.4375)"
           id="g436"><text
             id="text440"
             style="font-variant:normal;font-weight:normal;font-size:20px;font-family:TimesNewRomanPSMT;-inkscape-font-specification:TimesNewRomanPSMT;writing-mode:lr-tb;fill:#000000;fill-opacity:1;fill-rule:nonzero;stroke:none"
             transform="translate(40,7.8000002)"><tspan
               id="tspan438"
               y="0"
               x="0 10 15 25 30 44.443359 54.443359 63.320312 73.320312 78.876953 84.433594 89.990234 98.867188 103.86719 114.99023 124.99023 131.65039 140.52734 149.4043 158.28125 166.06445 171.62109 180.49805 190.49805 195.49805 209.94141 218.81836 224.375 234.375 243.25195">0.5 Quantile Forecasted Values</tspan></text>
</g><g
           transform="matrix(3.125,0,0,3.125,1312.5,373.4375)"
           id="g442"><path
             id="path444"
             style="fill:#808080;fill-opacity:0.50199998;fill-rule:nonzero;stroke:none"
             d="M -6,-6 H 6 V 6 H -6 Z" /><path
             id="path446"
             style="fill:none;stroke:#808080;stroke-width:1;stroke-linecap:butt;stroke-linejoin:miter;stroke-miterlimit:10;stroke-dasharray:none;stroke-opacity:1"
             d="M -6,-6 H 6 V 6 H -6 Z" /></g><g
           transform="matrix(3.125,0,0,3.125,1250,464.0625)"
           id="g448"><text
             id="text452"
             style="font-variant:normal;font-weight:normal;font-size:20px;font-family:TimesNewRomanPSMT;-inkscape-font-specification:TimesNewRomanPSMT;writing-mode:lr-tb;fill:#000000;fill-opacity:1;fill-rule:nonzero;stroke:none"
             transform="translate(40,7.8000002)"><tspan
               id="tspan450"
               y="0"
               x="0 14.443359 23.320312 28.876953 38.876953 47.753906 53.310547 58.310547 71.650391 81.650391 91.650391 101.65039 107.20703">Actual Counts</tspan></text>
<path
             id="path454"
             style="fill:none;stroke:#000000;stroke-width:1;stroke-linecap:butt;stroke-linejoin:miter;stroke-miterlimit:10;stroke-dasharray:none;stroke-opacity:1"
             d="M 5,0 H 35" /></g><g
           transform="matrix(3.125,0,0,3.125,1312.5,464.0625)"
           id="g456"><path
             id="path458"
             style="fill:#000000;fill-opacity:1;fill-rule:nonzero;stroke:none"
             d="m 3,0 c -2e-7,0.3978247 -0.076121,0.78050804 -0.2283618,1.1480502 -0.152241,0.3675421 -0.3690136,0.6919654 -0.650318,0.97327 -0.2813046,0.2813044 -0.6057279,0.498077 -0.97327,0.650318 C 0.78050804,2.9238791 0.3978247,2.9999998 0,3 -0.3978247,2.9999998 -0.78050804,2.923879 -1.1480502,2.7716382 -1.5155923,2.6193972 -1.8400156,2.4026246 -2.1213202,2.1213202 -2.4026246,1.8400156 -2.6193972,1.5155923 -2.7716382,1.1480502 -2.9238791,0.78050804 -2.9999998,0.3978247 -3,0 c 2e-7,-0.3978247 0.076121,-0.78050804 0.2283618,-1.1480502 0.152241,-0.3675421 0.3690136,-0.6919654 0.650318,-0.97327 0.2813046,-0.2813044 0.6057279,-0.498077 0.97327,-0.650318 C -0.78050804,-2.9238791 -0.3978247,-2.9999998 0,-3 c 0.3978247,2e-7 0.78050804,0.076121 1.1480502,0.2283618 0.3675421,0.152241 0.6919654,0.3690136 0.97327,0.650318 0.2813044,0.2813046 0.498077,0.6057279 0.650318,0.97327 C 2.9238791,-0.78050804 2.9999998,-0.3978247 3,0 Z" /></g></g></g><g
       id="g460"><g
         clip-path="url(#clipPath466)"
         id="g462"><g
           transform="scale(3.125)"
           id="g468"><text
             id="text472"
             style="font-variant:normal;font-weight:normal;font-size:28px;font-family:TimesNewRomanPSMT;-inkscape-font-specification:TimesNewRomanPSMT;writing-mode:lr-tb;fill:#000000;fill-opacity:1;fill-rule:nonzero;stroke:none"
             transform="translate(123.16504,50)"><tspan
               id="tspan470"
               y="0"
               x="0 15.572266 29.572266 38.896484 51.324219 63.751953 76.179688 87.076172 94.855469 107.2832 121.2832 128.2832 146.95898 167.17969 187.40039 196.72461 216.94531 223.94531 242.62109 255.04883 265.94531 278.37305 285.37305 304.04883 318.04883 332.04883 346.04883 353.82812 364.72461 371.72461 381.04883 395.04883 404.37305 411.37305 431.59375 444.02148 458.02148 470.44922 484.44922 496.87695 503.87695 510.87695 531.09766 546.66992">Forecasted COVID Case Counts for Nevada, US </tspan></text>
<text
             id="text476"
             style="font-variant:normal;font-weight:normal;font-size:19.60000038px;font-family:TimesNewRomanPSMT;-inkscape-font-specification:TimesNewRomanPSMT;writing-mode:lr-tb;fill:#000000;fill-opacity:1;fill-rule:nonzero;stroke:none"
             transform="translate(176.26062,74.639992)"><tspan
               id="tspan474"
               y="0"
               x="0 13.073044 22.873032 32.673019 37.573013 47.373001 52.818497 62.618484 68.06398 75.691513 80.591507 87.118454 93.645401 103.44539 118.69089 123.59088 133.39087 143.19086 148.09085 158.99142 168.79141 175.31836 184.01776 192.71716 201.41656 209.0441 214.48959 223.189 229.71594 237.34348 242.24347 247.68896 257.48895 266.18835 271.63385 276.53384 283.06079 291.76019 301.56018 311.36017 317.88712 323.33261 328.2326 333.6781 343.47809 348.37808 353.82358 363.62357 372.32297 377.22296 391.37744 402.27802 407.17801 420.25104 434.40552">Box plots from 30 Forecasters that report to the US CDC</tspan></text>
</g><g
           transform="matrix(0,-3.125,3.125,0,-545.31311,667.8125)"
           id="g478"><text
             id="text482"
             style="font-variant:normal;font-weight:normal;font-size:24px;font-family:TimesNewRomanPSMT;-inkscape-font-specification:TimesNewRomanPSMT;writing-mode:lr-tb;fill:#000000;fill-opacity:1;fill-rule:nonzero;stroke:none"
             transform="translate(-51.29414,196)"><tspan
               id="tspan480"
               y="0"
               x="0 16.007812 33.339844 50.671875 58.664062 75.996094 81.996094 98.003906 108.65625 117.99609 128.64844">COVID Cases</tspan></text>
</g></g></g></g></svg>