<?xml version="1.0" encoding="utf-8" standalone="no"?>
<!DOCTYPE svg PUBLIC "-//W3C//DTD SVG 1.1//EN"
  "http://www.w3.org/Graphics/SVG/1.1/DTD/svg11.dtd">
<!-- Created with matplotlib (https://matplotlib.org/) -->
<svg height="206.954679pt" version="1.1" viewBox="0 0 912.246094 206.954679" width="912.246094pt" xmlns="http://www.w3.org/2000/svg" xmlns:xlink="http://www.w3.org/1999/xlink">
 <metadata>
  <rdf:RDF xmlns:cc="http://creativecommons.org/ns#" xmlns:dc="http://purl.org/dc/elements/1.1/" xmlns:rdf="http://www.w3.org/1999/02/22-rdf-syntax-ns#">
   <cc:Work>
    <dc:type rdf:resource="http://purl.org/dc/dcmitype/StillImage"/>
    <dc:date>2021-01-18T09:10:01.646702</dc:date>
    <dc:format>image/svg+xml</dc:format>
    <dc:creator>
     <cc:Agent>
      <dc:title>Matplotlib v3.3.1, https://matplotlib.org/</dc:title>
     </cc:Agent>
    </dc:creator>
   </cc:Work>
  </rdf:RDF>
 </metadata>
 <defs>
  <style type="text/css">*{stroke-linecap:butt;stroke-linejoin:round;}</style>
 </defs>
 <rect width='100%' height='100%' style='stroke: none; fill: #FFFFFF;'/>
 <g id="figure_1">
  <g id="patch_1">
   <path d="M 0 206.954679 
L 912.246094 206.954679 
L 912.246094 0 
L 0 0 
z
" style="fill:none;"/>
  </g>
  <g id="axes_1">
   <g id="patch_2">
    <path d="M 69.413594 162.018125 
L 297.606094 162.018125 
L 297.606094 22.318125 
L 69.413594 22.318125 
z
" style="fill:#ffffff;"/>
   </g>
   <g id="patch_3">
    <path clip-path="url(#pff173b5bb5)" d="M 273.380178 162.018125 
L 273.380178 22.318125 
L 297.606094 22.318125 
L 297.606094 162.018125 
z
" style="fill:#808080;opacity:0.5;"/>
   </g>
   <g id="patch_4">
    <path clip-path="url(#pff173b5bb5)" d="M 69.413594 162.018125 
L 69.413594 22.318125 
L 81.917292 22.318125 
L 81.917292 162.018125 
z
" style="fill:#808080;opacity:0.5;"/>
   </g>
   <g id="matplotlib.axis_1">
    <g id="xtick_1">
     <g id="line2d_1">
      <defs>
       <path d="M 0 0 
L 0 3.5 
" id="m2fcd27b568" style="stroke:#000000;stroke-width:0.8;"/>
      </defs>
      <g>
       <use style="stroke:#000000;stroke-width:0.8;" x="82.698774" xlink:href="#m2fcd27b568" y="162.018125"/>
      </g>
     </g>
     <g id="text_1">
      <!-- 2020-04 -->
      <g transform="translate(43.612712 197.863563)rotate(-30)scale(0.105 -0.105)">
       <defs>
        <path d="M 19.1875 8.296875 
L 53.609375 8.296875 
L 53.609375 0 
L 7.328125 0 
L 7.328125 8.296875 
Q 12.9375 14.109375 22.625 23.890625 
Q 32.328125 33.6875 34.8125 36.53125 
Q 39.546875 41.84375 41.421875 45.53125 
Q 43.3125 49.21875 43.3125 52.78125 
Q 43.3125 58.59375 39.234375 62.25 
Q 35.15625 65.921875 28.609375 65.921875 
Q 23.96875 65.921875 18.8125 64.3125 
Q 13.671875 62.703125 7.8125 59.421875 
L 7.8125 69.390625 
Q 13.765625 71.78125 18.9375 73 
Q 24.125 74.21875 28.421875 74.21875 
Q 39.75 74.21875 46.484375 68.546875 
Q 53.21875 62.890625 53.21875 53.421875 
Q 53.21875 48.921875 51.53125 44.890625 
Q 49.859375 40.875 45.40625 35.40625 
Q 44.1875 33.984375 37.640625 27.21875 
Q 31.109375 20.453125 19.1875 8.296875 
z
" id="DejaVuSans-50"/>
        <path d="M 31.78125 66.40625 
Q 24.171875 66.40625 20.328125 58.90625 
Q 16.5 51.421875 16.5 36.375 
Q 16.5 21.390625 20.328125 13.890625 
Q 24.171875 6.390625 31.78125 6.390625 
Q 39.453125 6.390625 43.28125 13.890625 
Q 47.125 21.390625 47.125 36.375 
Q 47.125 51.421875 43.28125 58.90625 
Q 39.453125 66.40625 31.78125 66.40625 
z
M 31.78125 74.21875 
Q 44.046875 74.21875 50.515625 64.515625 
Q 56.984375 54.828125 56.984375 36.375 
Q 56.984375 17.96875 50.515625 8.265625 
Q 44.046875 -1.421875 31.78125 -1.421875 
Q 19.53125 -1.421875 13.0625 8.265625 
Q 6.59375 17.96875 6.59375 36.375 
Q 6.59375 54.828125 13.0625 64.515625 
Q 19.53125 74.21875 31.78125 74.21875 
z
" id="DejaVuSans-48"/>
        <path d="M 4.890625 31.390625 
L 31.203125 31.390625 
L 31.203125 23.390625 
L 4.890625 23.390625 
z
" id="DejaVuSans-45"/>
        <path d="M 37.796875 64.3125 
L 12.890625 25.390625 
L 37.796875 25.390625 
z
M 35.203125 72.90625 
L 47.609375 72.90625 
L 47.609375 25.390625 
L 58.015625 25.390625 
L 58.015625 17.1875 
L 47.609375 17.1875 
L 47.609375 0 
L 37.796875 0 
L 37.796875 17.1875 
L 4.890625 17.1875 
L 4.890625 26.703125 
z
" id="DejaVuSans-52"/>
       </defs>
       <use xlink:href="#DejaVuSans-50"/>
       <use x="63.623047" xlink:href="#DejaVuSans-48"/>
       <use x="127.246094" xlink:href="#DejaVuSans-50"/>
       <use x="190.869141" xlink:href="#DejaVuSans-48"/>
       <use x="254.492188" xlink:href="#DejaVuSans-45"/>
       <use x="290.576172" xlink:href="#DejaVuSans-48"/>
       <use x="354.199219" xlink:href="#DejaVuSans-52"/>
      </g>
     </g>
    </g>
    <g id="xtick_2">
     <g id="line2d_2">
      <g>
       <use style="stroke:#000000;stroke-width:0.8;" x="106.143208" xlink:href="#m2fcd27b568" y="162.018125"/>
      </g>
     </g>
     <g id="text_2">
      <!-- 2020-05 -->
      <g transform="translate(67.057147 197.863563)rotate(-30)scale(0.105 -0.105)">
       <defs>
        <path d="M 10.796875 72.90625 
L 49.515625 72.90625 
L 49.515625 64.59375 
L 19.828125 64.59375 
L 19.828125 46.734375 
Q 21.96875 47.46875 24.109375 47.828125 
Q 26.265625 48.1875 28.421875 48.1875 
Q 40.625 48.1875 47.75 41.5 
Q 54.890625 34.8125 54.890625 23.390625 
Q 54.890625 11.625 47.5625 5.09375 
Q 40.234375 -1.421875 26.90625 -1.421875 
Q 22.3125 -1.421875 17.546875 -0.640625 
Q 12.796875 0.140625 7.71875 1.703125 
L 7.71875 11.625 
Q 12.109375 9.234375 16.796875 8.0625 
Q 21.484375 6.890625 26.703125 6.890625 
Q 35.15625 6.890625 40.078125 11.328125 
Q 45.015625 15.765625 45.015625 23.390625 
Q 45.015625 31 40.078125 35.4375 
Q 35.15625 39.890625 26.703125 39.890625 
Q 22.75 39.890625 18.8125 39.015625 
Q 14.890625 38.140625 10.796875 36.28125 
z
" id="DejaVuSans-53"/>
       </defs>
       <use xlink:href="#DejaVuSans-50"/>
       <use x="63.623047" xlink:href="#DejaVuSans-48"/>
       <use x="127.246094" xlink:href="#DejaVuSans-50"/>
       <use x="190.869141" xlink:href="#DejaVuSans-48"/>
       <use x="254.492188" xlink:href="#DejaVuSans-45"/>
       <use x="290.576172" xlink:href="#DejaVuSans-48"/>
       <use x="354.199219" xlink:href="#DejaVuSans-53"/>
      </g>
     </g>
    </g>
    <g id="xtick_3">
     <g id="line2d_3">
      <g>
       <use style="stroke:#000000;stroke-width:0.8;" x="130.369125" xlink:href="#m2fcd27b568" y="162.018125"/>
      </g>
     </g>
     <g id="text_3">
      <!-- 2020-06 -->
      <g transform="translate(91.283063 197.863563)rotate(-30)scale(0.105 -0.105)">
       <defs>
        <path d="M 33.015625 40.375 
Q 26.375 40.375 22.484375 35.828125 
Q 18.609375 31.296875 18.609375 23.390625 
Q 18.609375 15.53125 22.484375 10.953125 
Q 26.375 6.390625 33.015625 6.390625 
Q 39.65625 6.390625 43.53125 10.953125 
Q 47.40625 15.53125 47.40625 23.390625 
Q 47.40625 31.296875 43.53125 35.828125 
Q 39.65625 40.375 33.015625 40.375 
z
M 52.59375 71.296875 
L 52.59375 62.3125 
Q 48.875 64.0625 45.09375 64.984375 
Q 41.3125 65.921875 37.59375 65.921875 
Q 27.828125 65.921875 22.671875 59.328125 
Q 17.53125 52.734375 16.796875 39.40625 
Q 19.671875 43.65625 24.015625 45.921875 
Q 28.375 48.1875 33.59375 48.1875 
Q 44.578125 48.1875 50.953125 41.515625 
Q 57.328125 34.859375 57.328125 23.390625 
Q 57.328125 12.15625 50.6875 5.359375 
Q 44.046875 -1.421875 33.015625 -1.421875 
Q 20.359375 -1.421875 13.671875 8.265625 
Q 6.984375 17.96875 6.984375 36.375 
Q 6.984375 53.65625 15.1875 63.9375 
Q 23.390625 74.21875 37.203125 74.21875 
Q 40.921875 74.21875 44.703125 73.484375 
Q 48.484375 72.75 52.59375 71.296875 
z
" id="DejaVuSans-54"/>
       </defs>
       <use xlink:href="#DejaVuSans-50"/>
       <use x="63.623047" xlink:href="#DejaVuSans-48"/>
       <use x="127.246094" xlink:href="#DejaVuSans-50"/>
       <use x="190.869141" xlink:href="#DejaVuSans-48"/>
       <use x="254.492188" xlink:href="#DejaVuSans-45"/>
       <use x="290.576172" xlink:href="#DejaVuSans-48"/>
       <use x="354.199219" xlink:href="#DejaVuSans-54"/>
      </g>
     </g>
    </g>
    <g id="xtick_4">
     <g id="line2d_4">
      <g>
       <use style="stroke:#000000;stroke-width:0.8;" x="153.81356" xlink:href="#m2fcd27b568" y="162.018125"/>
      </g>
     </g>
     <g id="text_4">
      <!-- 2020-07 -->
      <g transform="translate(114.727498 197.863563)rotate(-30)scale(0.105 -0.105)">
       <defs>
        <path d="M 8.203125 72.90625 
L 55.078125 72.90625 
L 55.078125 68.703125 
L 28.609375 0 
L 18.3125 0 
L 43.21875 64.59375 
L 8.203125 64.59375 
z
" id="DejaVuSans-55"/>
       </defs>
       <use xlink:href="#DejaVuSans-50"/>
       <use x="63.623047" xlink:href="#DejaVuSans-48"/>
       <use x="127.246094" xlink:href="#DejaVuSans-50"/>
       <use x="190.869141" xlink:href="#DejaVuSans-48"/>
       <use x="254.492188" xlink:href="#DejaVuSans-45"/>
       <use x="290.576172" xlink:href="#DejaVuSans-48"/>
       <use x="354.199219" xlink:href="#DejaVuSans-55"/>
      </g>
     </g>
    </g>
    <g id="xtick_5">
     <g id="line2d_5">
      <g>
       <use style="stroke:#000000;stroke-width:0.8;" x="178.039476" xlink:href="#m2fcd27b568" y="162.018125"/>
      </g>
     </g>
     <g id="text_5">
      <!-- 2020-08 -->
      <g transform="translate(138.953414 197.863563)rotate(-30)scale(0.105 -0.105)">
       <defs>
        <path d="M 31.78125 34.625 
Q 24.75 34.625 20.71875 30.859375 
Q 16.703125 27.09375 16.703125 20.515625 
Q 16.703125 13.921875 20.71875 10.15625 
Q 24.75 6.390625 31.78125 6.390625 
Q 38.8125 6.390625 42.859375 10.171875 
Q 46.921875 13.96875 46.921875 20.515625 
Q 46.921875 27.09375 42.890625 30.859375 
Q 38.875 34.625 31.78125 34.625 
z
M 21.921875 38.8125 
Q 15.578125 40.375 12.03125 44.71875 
Q 8.5 49.078125 8.5 55.328125 
Q 8.5 64.0625 14.71875 69.140625 
Q 20.953125 74.21875 31.78125 74.21875 
Q 42.671875 74.21875 48.875 69.140625 
Q 55.078125 64.0625 55.078125 55.328125 
Q 55.078125 49.078125 51.53125 44.71875 
Q 48 40.375 41.703125 38.8125 
Q 48.828125 37.15625 52.796875 32.3125 
Q 56.78125 27.484375 56.78125 20.515625 
Q 56.78125 9.90625 50.3125 4.234375 
Q 43.84375 -1.421875 31.78125 -1.421875 
Q 19.734375 -1.421875 13.25 4.234375 
Q 6.78125 9.90625 6.78125 20.515625 
Q 6.78125 27.484375 10.78125 32.3125 
Q 14.796875 37.15625 21.921875 38.8125 
z
M 18.3125 54.390625 
Q 18.3125 48.734375 21.84375 45.5625 
Q 25.390625 42.390625 31.78125 42.390625 
Q 38.140625 42.390625 41.71875 45.5625 
Q 45.3125 48.734375 45.3125 54.390625 
Q 45.3125 60.0625 41.71875 63.234375 
Q 38.140625 66.40625 31.78125 66.40625 
Q 25.390625 66.40625 21.84375 63.234375 
Q 18.3125 60.0625 18.3125 54.390625 
z
" id="DejaVuSans-56"/>
       </defs>
       <use xlink:href="#DejaVuSans-50"/>
       <use x="63.623047" xlink:href="#DejaVuSans-48"/>
       <use x="127.246094" xlink:href="#DejaVuSans-50"/>
       <use x="190.869141" xlink:href="#DejaVuSans-48"/>
       <use x="254.492188" xlink:href="#DejaVuSans-45"/>
       <use x="290.576172" xlink:href="#DejaVuSans-48"/>
       <use x="354.199219" xlink:href="#DejaVuSans-56"/>
      </g>
     </g>
    </g>
    <g id="xtick_6">
     <g id="line2d_6">
      <g>
       <use style="stroke:#000000;stroke-width:0.8;" x="202.265392" xlink:href="#m2fcd27b568" y="162.018125"/>
      </g>
     </g>
     <g id="text_6">
      <!-- 2020-09 -->
      <g transform="translate(163.17933 197.863563)rotate(-30)scale(0.105 -0.105)">
       <defs>
        <path d="M 10.984375 1.515625 
L 10.984375 10.5 
Q 14.703125 8.734375 18.5 7.8125 
Q 22.3125 6.890625 25.984375 6.890625 
Q 35.75 6.890625 40.890625 13.453125 
Q 46.046875 20.015625 46.78125 33.40625 
Q 43.953125 29.203125 39.59375 26.953125 
Q 35.25 24.703125 29.984375 24.703125 
Q 19.046875 24.703125 12.671875 31.3125 
Q 6.296875 37.9375 6.296875 49.421875 
Q 6.296875 60.640625 12.9375 67.421875 
Q 19.578125 74.21875 30.609375 74.21875 
Q 43.265625 74.21875 49.921875 64.515625 
Q 56.59375 54.828125 56.59375 36.375 
Q 56.59375 19.140625 48.40625 8.859375 
Q 40.234375 -1.421875 26.421875 -1.421875 
Q 22.703125 -1.421875 18.890625 -0.6875 
Q 15.09375 0.046875 10.984375 1.515625 
z
M 30.609375 32.421875 
Q 37.25 32.421875 41.125 36.953125 
Q 45.015625 41.5 45.015625 49.421875 
Q 45.015625 57.28125 41.125 61.84375 
Q 37.25 66.40625 30.609375 66.40625 
Q 23.96875 66.40625 20.09375 61.84375 
Q 16.21875 57.28125 16.21875 49.421875 
Q 16.21875 41.5 20.09375 36.953125 
Q 23.96875 32.421875 30.609375 32.421875 
z
" id="DejaVuSans-57"/>
       </defs>
       <use xlink:href="#DejaVuSans-50"/>
       <use x="63.623047" xlink:href="#DejaVuSans-48"/>
       <use x="127.246094" xlink:href="#DejaVuSans-50"/>
       <use x="190.869141" xlink:href="#DejaVuSans-48"/>
       <use x="254.492188" xlink:href="#DejaVuSans-45"/>
       <use x="290.576172" xlink:href="#DejaVuSans-48"/>
       <use x="354.199219" xlink:href="#DejaVuSans-57"/>
      </g>
     </g>
    </g>
    <g id="xtick_7">
     <g id="line2d_7">
      <g>
       <use style="stroke:#000000;stroke-width:0.8;" x="225.709827" xlink:href="#m2fcd27b568" y="162.018125"/>
      </g>
     </g>
     <g id="text_7">
      <!-- 2020-10 -->
      <g transform="translate(186.623765 197.863563)rotate(-30)scale(0.105 -0.105)">
       <defs>
        <path d="M 12.40625 8.296875 
L 28.515625 8.296875 
L 28.515625 63.921875 
L 10.984375 60.40625 
L 10.984375 69.390625 
L 28.421875 72.90625 
L 38.28125 72.90625 
L 38.28125 8.296875 
L 54.390625 8.296875 
L 54.390625 0 
L 12.40625 0 
z
" id="DejaVuSans-49"/>
       </defs>
       <use xlink:href="#DejaVuSans-50"/>
       <use x="63.623047" xlink:href="#DejaVuSans-48"/>
       <use x="127.246094" xlink:href="#DejaVuSans-50"/>
       <use x="190.869141" xlink:href="#DejaVuSans-48"/>
       <use x="254.492188" xlink:href="#DejaVuSans-45"/>
       <use x="290.576172" xlink:href="#DejaVuSans-49"/>
       <use x="354.199219" xlink:href="#DejaVuSans-48"/>
      </g>
     </g>
    </g>
    <g id="xtick_8">
     <g id="line2d_8">
      <g>
       <use style="stroke:#000000;stroke-width:0.8;" x="249.935743" xlink:href="#m2fcd27b568" y="162.018125"/>
      </g>
     </g>
     <g id="text_8">
      <!-- 2020-11 -->
      <g transform="translate(210.849681 197.863563)rotate(-30)scale(0.105 -0.105)">
       <use xlink:href="#DejaVuSans-50"/>
       <use x="63.623047" xlink:href="#DejaVuSans-48"/>
       <use x="127.246094" xlink:href="#DejaVuSans-50"/>
       <use x="190.869141" xlink:href="#DejaVuSans-48"/>
       <use x="254.492188" xlink:href="#DejaVuSans-45"/>
       <use x="290.576172" xlink:href="#DejaVuSans-49"/>
       <use x="354.199219" xlink:href="#DejaVuSans-49"/>
      </g>
     </g>
    </g>
    <g id="xtick_9">
     <g id="line2d_9">
      <g>
       <use style="stroke:#000000;stroke-width:0.8;" x="273.380178" xlink:href="#m2fcd27b568" y="162.018125"/>
      </g>
     </g>
     <g id="text_9">
      <!-- 2020-12 -->
      <g transform="translate(234.294116 197.863563)rotate(-30)scale(0.105 -0.105)">
       <use xlink:href="#DejaVuSans-50"/>
       <use x="63.623047" xlink:href="#DejaVuSans-48"/>
       <use x="127.246094" xlink:href="#DejaVuSans-50"/>
       <use x="190.869141" xlink:href="#DejaVuSans-48"/>
       <use x="254.492188" xlink:href="#DejaVuSans-45"/>
       <use x="290.576172" xlink:href="#DejaVuSans-49"/>
       <use x="354.199219" xlink:href="#DejaVuSans-50"/>
      </g>
     </g>
    </g>
    <g id="xtick_10">
     <g id="line2d_10">
      <g>
       <use style="stroke:#000000;stroke-width:0.8;" x="297.606094" xlink:href="#m2fcd27b568" y="162.018125"/>
      </g>
     </g>
     <g id="text_10">
      <!-- 2021-01 -->
      <g transform="translate(258.520032 197.863563)rotate(-30)scale(0.105 -0.105)">
       <use xlink:href="#DejaVuSans-50"/>
       <use x="63.623047" xlink:href="#DejaVuSans-48"/>
       <use x="127.246094" xlink:href="#DejaVuSans-50"/>
       <use x="190.869141" xlink:href="#DejaVuSans-49"/>
       <use x="254.492188" xlink:href="#DejaVuSans-45"/>
       <use x="290.576172" xlink:href="#DejaVuSans-48"/>
       <use x="354.199219" xlink:href="#DejaVuSans-49"/>
      </g>
     </g>
    </g>
    <g id="xtick_11">
     <g id="line2d_11">
      <defs>
       <path d="M 0 0 
L 0 2 
" id="m8e06169ff5" style="stroke:#000000;stroke-width:0.6;"/>
      </defs>
      <g>
       <use style="stroke:#000000;stroke-width:0.6;" x="70.195075" xlink:href="#m8e06169ff5" y="162.018125"/>
      </g>
     </g>
    </g>
    <g id="xtick_12">
     <g id="line2d_12">
      <g>
       <use style="stroke:#000000;stroke-width:0.6;" x="75.665443" xlink:href="#m8e06169ff5" y="162.018125"/>
      </g>
     </g>
    </g>
    <g id="xtick_13">
     <g id="line2d_13">
      <g>
       <use style="stroke:#000000;stroke-width:0.6;" x="81.135811" xlink:href="#m8e06169ff5" y="162.018125"/>
      </g>
     </g>
    </g>
    <g id="xtick_14">
     <g id="line2d_14">
      <g>
       <use style="stroke:#000000;stroke-width:0.6;" x="86.606179" xlink:href="#m8e06169ff5" y="162.018125"/>
      </g>
     </g>
    </g>
    <g id="xtick_15">
     <g id="line2d_15">
      <g>
       <use style="stroke:#000000;stroke-width:0.6;" x="92.076548" xlink:href="#m8e06169ff5" y="162.018125"/>
      </g>
     </g>
    </g>
    <g id="xtick_16">
     <g id="line2d_16">
      <g>
       <use style="stroke:#000000;stroke-width:0.6;" x="97.546916" xlink:href="#m8e06169ff5" y="162.018125"/>
      </g>
     </g>
    </g>
    <g id="xtick_17">
     <g id="line2d_17">
      <g>
       <use style="stroke:#000000;stroke-width:0.6;" x="103.017284" xlink:href="#m8e06169ff5" y="162.018125"/>
      </g>
     </g>
    </g>
    <g id="xtick_18">
     <g id="line2d_18">
      <g>
       <use style="stroke:#000000;stroke-width:0.6;" x="108.487652" xlink:href="#m8e06169ff5" y="162.018125"/>
      </g>
     </g>
    </g>
    <g id="xtick_19">
     <g id="line2d_19">
      <g>
       <use style="stroke:#000000;stroke-width:0.6;" x="113.95802" xlink:href="#m8e06169ff5" y="162.018125"/>
      </g>
     </g>
    </g>
    <g id="xtick_20">
     <g id="line2d_20">
      <g>
       <use style="stroke:#000000;stroke-width:0.6;" x="119.428388" xlink:href="#m8e06169ff5" y="162.018125"/>
      </g>
     </g>
    </g>
    <g id="xtick_21">
     <g id="line2d_21">
      <g>
       <use style="stroke:#000000;stroke-width:0.6;" x="124.898756" xlink:href="#m8e06169ff5" y="162.018125"/>
      </g>
     </g>
    </g>
    <g id="xtick_22">
     <g id="line2d_22">
      <g>
       <use style="stroke:#000000;stroke-width:0.6;" x="135.839493" xlink:href="#m8e06169ff5" y="162.018125"/>
      </g>
     </g>
    </g>
    <g id="xtick_23">
     <g id="line2d_23">
      <g>
       <use style="stroke:#000000;stroke-width:0.6;" x="141.309861" xlink:href="#m8e06169ff5" y="162.018125"/>
      </g>
     </g>
    </g>
    <g id="xtick_24">
     <g id="line2d_24">
      <g>
       <use style="stroke:#000000;stroke-width:0.6;" x="146.780229" xlink:href="#m8e06169ff5" y="162.018125"/>
      </g>
     </g>
    </g>
    <g id="xtick_25">
     <g id="line2d_25">
      <g>
       <use style="stroke:#000000;stroke-width:0.6;" x="152.250597" xlink:href="#m8e06169ff5" y="162.018125"/>
      </g>
     </g>
    </g>
    <g id="xtick_26">
     <g id="line2d_26">
      <g>
       <use style="stroke:#000000;stroke-width:0.6;" x="157.720965" xlink:href="#m8e06169ff5" y="162.018125"/>
      </g>
     </g>
    </g>
    <g id="xtick_27">
     <g id="line2d_27">
      <g>
       <use style="stroke:#000000;stroke-width:0.6;" x="163.191333" xlink:href="#m8e06169ff5" y="162.018125"/>
      </g>
     </g>
    </g>
    <g id="xtick_28">
     <g id="line2d_28">
      <g>
       <use style="stroke:#000000;stroke-width:0.6;" x="168.661702" xlink:href="#m8e06169ff5" y="162.018125"/>
      </g>
     </g>
    </g>
    <g id="xtick_29">
     <g id="line2d_29">
      <g>
       <use style="stroke:#000000;stroke-width:0.6;" x="174.13207" xlink:href="#m8e06169ff5" y="162.018125"/>
      </g>
     </g>
    </g>
    <g id="xtick_30">
     <g id="line2d_30">
      <g>
       <use style="stroke:#000000;stroke-width:0.6;" x="179.602438" xlink:href="#m8e06169ff5" y="162.018125"/>
      </g>
     </g>
    </g>
    <g id="xtick_31">
     <g id="line2d_31">
      <g>
       <use style="stroke:#000000;stroke-width:0.6;" x="185.072806" xlink:href="#m8e06169ff5" y="162.018125"/>
      </g>
     </g>
    </g>
    <g id="xtick_32">
     <g id="line2d_32">
      <g>
       <use style="stroke:#000000;stroke-width:0.6;" x="190.543174" xlink:href="#m8e06169ff5" y="162.018125"/>
      </g>
     </g>
    </g>
    <g id="xtick_33">
     <g id="line2d_33">
      <g>
       <use style="stroke:#000000;stroke-width:0.6;" x="196.013542" xlink:href="#m8e06169ff5" y="162.018125"/>
      </g>
     </g>
    </g>
    <g id="xtick_34">
     <g id="line2d_34">
      <g>
       <use style="stroke:#000000;stroke-width:0.6;" x="201.483911" xlink:href="#m8e06169ff5" y="162.018125"/>
      </g>
     </g>
    </g>
    <g id="xtick_35">
     <g id="line2d_35">
      <g>
       <use style="stroke:#000000;stroke-width:0.6;" x="206.954279" xlink:href="#m8e06169ff5" y="162.018125"/>
      </g>
     </g>
    </g>
    <g id="xtick_36">
     <g id="line2d_36">
      <g>
       <use style="stroke:#000000;stroke-width:0.6;" x="212.424647" xlink:href="#m8e06169ff5" y="162.018125"/>
      </g>
     </g>
    </g>
    <g id="xtick_37">
     <g id="line2d_37">
      <g>
       <use style="stroke:#000000;stroke-width:0.6;" x="217.895015" xlink:href="#m8e06169ff5" y="162.018125"/>
      </g>
     </g>
    </g>
    <g id="xtick_38">
     <g id="line2d_38">
      <g>
       <use style="stroke:#000000;stroke-width:0.6;" x="223.365383" xlink:href="#m8e06169ff5" y="162.018125"/>
      </g>
     </g>
    </g>
    <g id="xtick_39">
     <g id="line2d_39">
      <g>
       <use style="stroke:#000000;stroke-width:0.6;" x="228.835751" xlink:href="#m8e06169ff5" y="162.018125"/>
      </g>
     </g>
    </g>
    <g id="xtick_40">
     <g id="line2d_40">
      <g>
       <use style="stroke:#000000;stroke-width:0.6;" x="234.306119" xlink:href="#m8e06169ff5" y="162.018125"/>
      </g>
     </g>
    </g>
    <g id="xtick_41">
     <g id="line2d_41">
      <g>
       <use style="stroke:#000000;stroke-width:0.6;" x="239.776488" xlink:href="#m8e06169ff5" y="162.018125"/>
      </g>
     </g>
    </g>
    <g id="xtick_42">
     <g id="line2d_42">
      <g>
       <use style="stroke:#000000;stroke-width:0.6;" x="245.246856" xlink:href="#m8e06169ff5" y="162.018125"/>
      </g>
     </g>
    </g>
    <g id="xtick_43">
     <g id="line2d_43">
      <g>
       <use style="stroke:#000000;stroke-width:0.6;" x="250.717224" xlink:href="#m8e06169ff5" y="162.018125"/>
      </g>
     </g>
    </g>
    <g id="xtick_44">
     <g id="line2d_44">
      <g>
       <use style="stroke:#000000;stroke-width:0.6;" x="256.187592" xlink:href="#m8e06169ff5" y="162.018125"/>
      </g>
     </g>
    </g>
    <g id="xtick_45">
     <g id="line2d_45">
      <g>
       <use style="stroke:#000000;stroke-width:0.6;" x="261.65796" xlink:href="#m8e06169ff5" y="162.018125"/>
      </g>
     </g>
    </g>
    <g id="xtick_46">
     <g id="line2d_46">
      <g>
       <use style="stroke:#000000;stroke-width:0.6;" x="267.128328" xlink:href="#m8e06169ff5" y="162.018125"/>
      </g>
     </g>
    </g>
    <g id="xtick_47">
     <g id="line2d_47">
      <g>
       <use style="stroke:#000000;stroke-width:0.6;" x="272.598696" xlink:href="#m8e06169ff5" y="162.018125"/>
      </g>
     </g>
    </g>
    <g id="xtick_48">
     <g id="line2d_48">
      <g>
       <use style="stroke:#000000;stroke-width:0.6;" x="278.069065" xlink:href="#m8e06169ff5" y="162.018125"/>
      </g>
     </g>
    </g>
    <g id="xtick_49">
     <g id="line2d_49">
      <g>
       <use style="stroke:#000000;stroke-width:0.6;" x="283.539433" xlink:href="#m8e06169ff5" y="162.018125"/>
      </g>
     </g>
    </g>
    <g id="xtick_50">
     <g id="line2d_50">
      <g>
       <use style="stroke:#000000;stroke-width:0.6;" x="289.009801" xlink:href="#m8e06169ff5" y="162.018125"/>
      </g>
     </g>
    </g>
    <g id="xtick_51">
     <g id="line2d_51">
      <g>
       <use style="stroke:#000000;stroke-width:0.6;" x="294.480169" xlink:href="#m8e06169ff5" y="162.018125"/>
      </g>
     </g>
    </g>
   </g>
   <g id="matplotlib.axis_2">
    <g id="ytick_1">
     <g id="line2d_52">
      <defs>
       <path d="M 0 0 
L -3.5 0 
" id="m8cf893ac3c" style="stroke:#000000;stroke-width:0.8;"/>
      </defs>
      <g>
       <use style="stroke:#000000;stroke-width:0.8;" x="69.413594" xlink:href="#m8cf893ac3c" y="155.927388"/>
      </g>
     </g>
     <g id="text_11">
      <!-- 0 -->
      <g transform="translate(55.732969 159.916568)scale(0.105 -0.105)">
       <use xlink:href="#DejaVuSans-48"/>
      </g>
     </g>
    </g>
    <g id="ytick_2">
     <g id="line2d_53">
      <g>
       <use style="stroke:#000000;stroke-width:0.8;" x="69.413594" xlink:href="#m8cf893ac3c" y="128.23679"/>
      </g>
     </g>
     <g id="text_12">
      <!-- 50000 -->
      <g transform="translate(29.010469 132.22597)scale(0.105 -0.105)">
       <use xlink:href="#DejaVuSans-53"/>
       <use x="63.623047" xlink:href="#DejaVuSans-48"/>
       <use x="127.246094" xlink:href="#DejaVuSans-48"/>
       <use x="190.869141" xlink:href="#DejaVuSans-48"/>
       <use x="254.492188" xlink:href="#DejaVuSans-48"/>
      </g>
     </g>
    </g>
    <g id="ytick_3">
     <g id="line2d_54">
      <g>
       <use style="stroke:#000000;stroke-width:0.8;" x="69.413594" xlink:href="#m8cf893ac3c" y="100.546192"/>
      </g>
     </g>
     <g id="text_13">
      <!-- 100000 -->
      <g transform="translate(22.329844 104.535372)scale(0.105 -0.105)">
       <use xlink:href="#DejaVuSans-49"/>
       <use x="63.623047" xlink:href="#DejaVuSans-48"/>
       <use x="127.246094" xlink:href="#DejaVuSans-48"/>
       <use x="190.869141" xlink:href="#DejaVuSans-48"/>
       <use x="254.492188" xlink:href="#DejaVuSans-48"/>
       <use x="318.115234" xlink:href="#DejaVuSans-48"/>
      </g>
     </g>
    </g>
    <g id="ytick_4">
     <g id="line2d_55">
      <g>
       <use style="stroke:#000000;stroke-width:0.8;" x="69.413594" xlink:href="#m8cf893ac3c" y="72.855594"/>
      </g>
     </g>
     <g id="text_14">
      <!-- 150000 -->
      <g transform="translate(22.329844 76.844774)scale(0.105 -0.105)">
       <use xlink:href="#DejaVuSans-49"/>
       <use x="63.623047" xlink:href="#DejaVuSans-53"/>
       <use x="127.246094" xlink:href="#DejaVuSans-48"/>
       <use x="190.869141" xlink:href="#DejaVuSans-48"/>
       <use x="254.492188" xlink:href="#DejaVuSans-48"/>
       <use x="318.115234" xlink:href="#DejaVuSans-48"/>
      </g>
     </g>
    </g>
    <g id="ytick_5">
     <g id="line2d_56">
      <g>
       <use style="stroke:#000000;stroke-width:0.8;" x="69.413594" xlink:href="#m8cf893ac3c" y="45.164996"/>
      </g>
     </g>
     <g id="text_15">
      <!-- 200000 -->
      <g transform="translate(22.329844 49.154176)scale(0.105 -0.105)">
       <use xlink:href="#DejaVuSans-50"/>
       <use x="63.623047" xlink:href="#DejaVuSans-48"/>
       <use x="127.246094" xlink:href="#DejaVuSans-48"/>
       <use x="190.869141" xlink:href="#DejaVuSans-48"/>
       <use x="254.492188" xlink:href="#DejaVuSans-48"/>
       <use x="318.115234" xlink:href="#DejaVuSans-48"/>
      </g>
     </g>
    </g>
    <g id="text_16">
     <!-- Count -->
     <g transform="translate(15.938203 109.243828)rotate(-90)scale(0.115 -0.115)">
      <defs>
       <path d="M 64.40625 67.28125 
L 64.40625 56.890625 
Q 59.421875 61.53125 53.78125 63.8125 
Q 48.140625 66.109375 41.796875 66.109375 
Q 29.296875 66.109375 22.65625 58.46875 
Q 16.015625 50.828125 16.015625 36.375 
Q 16.015625 21.96875 22.65625 14.328125 
Q 29.296875 6.6875 41.796875 6.6875 
Q 48.140625 6.6875 53.78125 8.984375 
Q 59.421875 11.28125 64.40625 15.921875 
L 64.40625 5.609375 
Q 59.234375 2.09375 53.4375 0.328125 
Q 47.65625 -1.421875 41.21875 -1.421875 
Q 24.65625 -1.421875 15.125 8.703125 
Q 5.609375 18.84375 5.609375 36.375 
Q 5.609375 53.953125 15.125 64.078125 
Q 24.65625 74.21875 41.21875 74.21875 
Q 47.75 74.21875 53.53125 72.484375 
Q 59.328125 70.75 64.40625 67.28125 
z
" id="DejaVuSans-67"/>
       <path d="M 30.609375 48.390625 
Q 23.390625 48.390625 19.1875 42.75 
Q 14.984375 37.109375 14.984375 27.296875 
Q 14.984375 17.484375 19.15625 11.84375 
Q 23.34375 6.203125 30.609375 6.203125 
Q 37.796875 6.203125 41.984375 11.859375 
Q 46.1875 17.53125 46.1875 27.296875 
Q 46.1875 37.015625 41.984375 42.703125 
Q 37.796875 48.390625 30.609375 48.390625 
z
M 30.609375 56 
Q 42.328125 56 49.015625 48.375 
Q 55.71875 40.765625 55.71875 27.296875 
Q 55.71875 13.875 49.015625 6.21875 
Q 42.328125 -1.421875 30.609375 -1.421875 
Q 18.84375 -1.421875 12.171875 6.21875 
Q 5.515625 13.875 5.515625 27.296875 
Q 5.515625 40.765625 12.171875 48.375 
Q 18.84375 56 30.609375 56 
z
" id="DejaVuSans-111"/>
       <path d="M 8.5 21.578125 
L 8.5 54.6875 
L 17.484375 54.6875 
L 17.484375 21.921875 
Q 17.484375 14.15625 20.5 10.265625 
Q 23.53125 6.390625 29.59375 6.390625 
Q 36.859375 6.390625 41.078125 11.03125 
Q 45.3125 15.671875 45.3125 23.6875 
L 45.3125 54.6875 
L 54.296875 54.6875 
L 54.296875 0 
L 45.3125 0 
L 45.3125 8.40625 
Q 42.046875 3.421875 37.71875 1 
Q 33.40625 -1.421875 27.6875 -1.421875 
Q 18.265625 -1.421875 13.375 4.4375 
Q 8.5 10.296875 8.5 21.578125 
z
M 31.109375 56 
z
" id="DejaVuSans-117"/>
       <path d="M 54.890625 33.015625 
L 54.890625 0 
L 45.90625 0 
L 45.90625 32.71875 
Q 45.90625 40.484375 42.875 44.328125 
Q 39.84375 48.1875 33.796875 48.1875 
Q 26.515625 48.1875 22.3125 43.546875 
Q 18.109375 38.921875 18.109375 30.90625 
L 18.109375 0 
L 9.078125 0 
L 9.078125 54.6875 
L 18.109375 54.6875 
L 18.109375 46.1875 
Q 21.34375 51.125 25.703125 53.5625 
Q 30.078125 56 35.796875 56 
Q 45.21875 56 50.046875 50.171875 
Q 54.890625 44.34375 54.890625 33.015625 
z
" id="DejaVuSans-110"/>
       <path d="M 18.3125 70.21875 
L 18.3125 54.6875 
L 36.8125 54.6875 
L 36.8125 47.703125 
L 18.3125 47.703125 
L 18.3125 18.015625 
Q 18.3125 11.328125 20.140625 9.421875 
Q 21.96875 7.515625 27.59375 7.515625 
L 36.8125 7.515625 
L 36.8125 0 
L 27.59375 0 
Q 17.1875 0 13.234375 3.875 
Q 9.28125 7.765625 9.28125 18.015625 
L 9.28125 47.703125 
L 2.6875 47.703125 
L 2.6875 54.6875 
L 9.28125 54.6875 
L 9.28125 70.21875 
z
" id="DejaVuSans-116"/>
      </defs>
      <use xlink:href="#DejaVuSans-67"/>
      <use x="69.824219" xlink:href="#DejaVuSans-111"/>
      <use x="131.005859" xlink:href="#DejaVuSans-117"/>
      <use x="194.384766" xlink:href="#DejaVuSans-110"/>
      <use x="257.763672" xlink:href="#DejaVuSans-116"/>
     </g>
    </g>
   </g>
   <g id="line2d_57">
    <path clip-path="url(#pff173b5bb5)" d="M 69.413594 155.668125 
L 70.976556 155.510763 
L 71.758037 155.302688 
L 73.321 154.595391 
L 74.883962 153.554937 
L 76.446924 152.162574 
L 81.135811 146.446444 
L 83.480255 143.523503 
L 84.261736 142.124416 
L 85.043217 141.073202 
L 85.824698 140.60531 
L 87.387661 139.404804 
L 88.950623 138.5066 
L 90.513585 138.87536 
L 91.295066 138.674247 
L 92.858029 139.452353 
L 94.420991 139.752123 
L 96.765435 140.359892 
L 97.546916 140.236155 
L 98.328397 140.227215 
L 99.891359 140.40665 
L 101.454321 139.40069 
L 102.235803 139.37205 
L 103.017284 139.667153 
L 105.361727 140.053713 
L 106.92469 140.712354 
L 109.269133 140.823591 
L 110.050614 141.161416 
L 110.832095 141.269331 
L 112.395058 142.068323 
L 113.95802 142.773879 
L 115.520982 143.219935 
L 116.302464 143.286788 
L 117.865426 143.567413 
L 118.646907 143.694552 
L 119.428388 143.38956 
L 120.209869 143.458787 
L 120.991351 143.346363 
L 122.554313 143.504911 
L 123.335794 143.684425 
L 124.117275 143.509737 
L 127.2432 144.356041 
L 128.806162 144.227082 
L 129.587643 144.3418 
L 131.150606 143.968294 
L 132.713568 144.07328 
L 133.495049 143.744316 
L 135.058012 143.851914 
L 135.839493 144.193379 
L 136.620974 144.341958 
L 138.183936 144.203505 
L 138.965417 144.443227 
L 140.52838 144.02233 
L 141.309861 143.89432 
L 142.091342 143.428248 
L 143.654304 142.742629 
L 145.217267 141.85115 
L 145.998748 141.342671 
L 149.124673 137.858719 
L 149.906154 136.674669 
L 150.687635 135.841261 
L 151.469116 134.797721 
L 152.250597 134.040027 
L 153.032078 133.121886 
L 154.595041 130.701253 
L 155.376522 130.087788 
L 156.939484 129.721639 
L 157.720965 128.58134 
L 159.283928 127.157094 
L 160.065409 126.6339 
L 162.409852 122.97352 
L 163.191333 122.804923 
L 163.972815 121.8727 
L 164.754296 121.271972 
L 165.535777 119.822883 
L 166.317258 119.894009 
L 167.098739 119.336399 
L 168.661702 118.834329 
L 170.224664 118.784169 
L 171.006145 119.734194 
L 171.787626 119.302854 
L 172.569107 119.445817 
L 173.350589 119.95833 
L 174.13207 119.997809 
L 174.913551 120.309763 
L 175.695032 120.378278 
L 176.476513 120.215773 
L 177.257994 120.828052 
L 178.039476 121.132174 
L 178.820957 122.103244 
L 179.602438 122.766157 
L 181.1654 124.563197 
L 181.946881 125.673116 
L 182.728363 126.051132 
L 183.509844 126.736197 
L 184.291325 126.260868 
L 185.072806 126.816104 
L 185.854287 126.518153 
L 186.635768 126.501381 
L 188.198731 127.160892 
L 188.980212 127.297762 
L 189.761693 128.079982 
L 190.543174 128.249923 
L 191.324655 129.445208 
L 193.669099 131.606736 
L 194.45058 132.009199 
L 195.232061 132.540779 
L 196.795024 133.041188 
L 197.576505 133.039289 
L 198.357986 132.854158 
L 199.920948 133.237475 
L 200.702429 133.079638 
L 201.483911 133.199262 
L 202.265392 132.942293 
L 203.046873 133.398634 
L 203.828354 133.660904 
L 204.609835 133.274738 
L 205.391316 133.213424 
L 206.172798 133.40615 
L 206.954279 134.161945 
L 207.73576 135.623534 
L 208.517241 135.995775 
L 209.298722 136.555916 
L 210.861685 137.226108 
L 211.643166 136.954028 
L 212.424647 136.319834 
L 213.206128 134.888467 
L 213.987609 134.423977 
L 214.76909 133.750146 
L 215.550571 133.555838 
L 216.332053 133.241114 
L 217.113534 133.227111 
L 217.895015 132.938733 
L 218.676496 132.302324 
L 220.239458 132.565226 
L 221.02094 131.966635 
L 221.802421 131.716628 
L 222.583902 131.72992 
L 223.365383 132.161339 
L 224.146864 133.138659 
L 224.928345 132.577806 
L 225.709827 132.242749 
L 226.491308 132.922989 
L 227.272789 132.480097 
L 228.05427 132.358575 
L 230.398714 131.388059 
L 231.961676 129.947278 
L 232.743157 129.786514 
L 235.087601 127.988841 
L 237.432044 125.858722 
L 238.213525 125.361636 
L 238.995006 125.080932 
L 239.776488 123.899493 
L 240.557969 123.148999 
L 241.33945 122.906192 
L 242.120931 122.029428 
L 242.902412 120.557238 
L 243.683893 119.674066 
L 244.465375 118.409555 
L 246.028337 116.699621 
L 246.809818 115.436614 
L 247.591299 114.512143 
L 248.37278 113.386402 
L 249.154262 113.206017 
L 251.498705 108.577257 
L 253.061667 103.999131 
L 254.62463 98.005936 
L 255.406111 96.244181 
L 257.750554 86.015511 
L 258.532036 83.863952 
L 260.094998 75.875927 
L 261.65796 71.679693 
L 262.439441 71.362201 
L 263.220923 70.211301 
L 264.002404 66.475918 
L 264.783885 67.09326 
L 265.565366 63.703694 
L 266.346847 63.26903 
L 267.128328 61.987668 
L 267.90981 59.68468 
L 268.691291 57.86612 
L 269.472772 64.433776 
L 270.254253 63.850295 
L 271.035734 66.389523 
L 271.817215 68.088777 
L 272.598696 69.273618 
L 273.380178 68.288228 
L 274.161659 66.895312 
L 274.94314 59.164572 
L 275.724621 55.981893 
L 276.506102 53.461021 
L 278.850546 43.383225 
L 279.632027 41.670364 
L 280.413508 41.263708 
L 281.194989 40.14208 
L 281.97647 40.273175 
L 282.757952 39.402346 
L 283.539433 39.062068 
L 284.320914 41.383252 
L 285.102395 41.136252 
L 285.883876 39.029472 
L 286.665357 39.275997 
L 287.446839 40.953019 
L 288.22832 41.437605 
L 289.009801 28.668125 
L 289.791282 30.112704 
L 290.572763 29.931528 
L 291.354244 34.424446 
L 292.135726 48.890094 
L 292.917207 49.82208 
L 293.698688 53.180792 
L 294.480169 63.729802 
L 295.26165 58.910135 
L 296.824613 54.317609 
L 297.606094 45.347122 
L 297.606094 45.347122 
" style="fill:none;stroke:#1f77b4;stroke-linecap:square;stroke-width:1.5;"/>
   </g>
   <g id="patch_5">
    <path d="M 69.413594 162.018125 
L 69.413594 22.318125 
" style="fill:none;stroke:#000000;stroke-linecap:square;stroke-linejoin:miter;stroke-width:0.8;"/>
   </g>
   <g id="patch_6">
    <path d="M 297.606094 162.018125 
L 297.606094 22.318125 
" style="fill:none;stroke:#000000;stroke-linecap:square;stroke-linejoin:miter;stroke-width:0.8;"/>
   </g>
   <g id="patch_7">
    <path d="M 69.413594 162.018125 
L 297.606094 162.018125 
" style="fill:none;stroke:#000000;stroke-linecap:square;stroke-linejoin:miter;stroke-width:0.8;"/>
   </g>
   <g id="patch_8">
    <path d="M 69.413594 22.318125 
L 297.606094 22.318125 
" style="fill:none;stroke:#000000;stroke-linecap:square;stroke-linejoin:miter;stroke-width:0.8;"/>
   </g>
   <g id="text_17">
    <!-- COVID-19 Cases -->
    <g transform="translate(134.691406 16.318125)scale(0.12 -0.12)">
     <defs>
      <path d="M 39.40625 66.21875 
Q 28.65625 66.21875 22.328125 58.203125 
Q 16.015625 50.203125 16.015625 36.375 
Q 16.015625 22.609375 22.328125 14.59375 
Q 28.65625 6.59375 39.40625 6.59375 
Q 50.140625 6.59375 56.421875 14.59375 
Q 62.703125 22.609375 62.703125 36.375 
Q 62.703125 50.203125 56.421875 58.203125 
Q 50.140625 66.21875 39.40625 66.21875 
z
M 39.40625 74.21875 
Q 54.734375 74.21875 63.90625 63.9375 
Q 73.09375 53.65625 73.09375 36.375 
Q 73.09375 19.140625 63.90625 8.859375 
Q 54.734375 -1.421875 39.40625 -1.421875 
Q 24.03125 -1.421875 14.8125 8.828125 
Q 5.609375 19.09375 5.609375 36.375 
Q 5.609375 53.65625 14.8125 63.9375 
Q 24.03125 74.21875 39.40625 74.21875 
z
" id="DejaVuSans-79"/>
      <path d="M 28.609375 0 
L 0.78125 72.90625 
L 11.078125 72.90625 
L 34.1875 11.53125 
L 57.328125 72.90625 
L 67.578125 72.90625 
L 39.796875 0 
z
" id="DejaVuSans-86"/>
      <path d="M 9.8125 72.90625 
L 19.671875 72.90625 
L 19.671875 0 
L 9.8125 0 
z
" id="DejaVuSans-73"/>
      <path d="M 19.671875 64.796875 
L 19.671875 8.109375 
L 31.59375 8.109375 
Q 46.6875 8.109375 53.6875 14.9375 
Q 60.6875 21.78125 60.6875 36.53125 
Q 60.6875 51.171875 53.6875 57.984375 
Q 46.6875 64.796875 31.59375 64.796875 
z
M 9.8125 72.90625 
L 30.078125 72.90625 
Q 51.265625 72.90625 61.171875 64.09375 
Q 71.09375 55.28125 71.09375 36.53125 
Q 71.09375 17.671875 61.125 8.828125 
Q 51.171875 0 30.078125 0 
L 9.8125 0 
z
" id="DejaVuSans-68"/>
      <path id="DejaVuSans-32"/>
      <path d="M 34.28125 27.484375 
Q 23.390625 27.484375 19.1875 25 
Q 14.984375 22.515625 14.984375 16.5 
Q 14.984375 11.71875 18.140625 8.90625 
Q 21.296875 6.109375 26.703125 6.109375 
Q 34.1875 6.109375 38.703125 11.40625 
Q 43.21875 16.703125 43.21875 25.484375 
L 43.21875 27.484375 
z
M 52.203125 31.203125 
L 52.203125 0 
L 43.21875 0 
L 43.21875 8.296875 
Q 40.140625 3.328125 35.546875 0.953125 
Q 30.953125 -1.421875 24.3125 -1.421875 
Q 15.921875 -1.421875 10.953125 3.296875 
Q 6 8.015625 6 15.921875 
Q 6 25.140625 12.171875 29.828125 
Q 18.359375 34.515625 30.609375 34.515625 
L 43.21875 34.515625 
L 43.21875 35.40625 
Q 43.21875 41.609375 39.140625 45 
Q 35.0625 48.390625 27.6875 48.390625 
Q 23 48.390625 18.546875 47.265625 
Q 14.109375 46.140625 10.015625 43.890625 
L 10.015625 52.203125 
Q 14.9375 54.109375 19.578125 55.046875 
Q 24.21875 56 28.609375 56 
Q 40.484375 56 46.34375 49.84375 
Q 52.203125 43.703125 52.203125 31.203125 
z
" id="DejaVuSans-97"/>
      <path d="M 44.28125 53.078125 
L 44.28125 44.578125 
Q 40.484375 46.53125 36.375 47.5 
Q 32.28125 48.484375 27.875 48.484375 
Q 21.1875 48.484375 17.84375 46.4375 
Q 14.5 44.390625 14.5 40.28125 
Q 14.5 37.15625 16.890625 35.375 
Q 19.28125 33.59375 26.515625 31.984375 
L 29.59375 31.296875 
Q 39.15625 29.25 43.1875 25.515625 
Q 47.21875 21.78125 47.21875 15.09375 
Q 47.21875 7.46875 41.1875 3.015625 
Q 35.15625 -1.421875 24.609375 -1.421875 
Q 20.21875 -1.421875 15.453125 -0.5625 
Q 10.6875 0.296875 5.421875 2 
L 5.421875 11.28125 
Q 10.40625 8.6875 15.234375 7.390625 
Q 20.0625 6.109375 24.8125 6.109375 
Q 31.15625 6.109375 34.5625 8.28125 
Q 37.984375 10.453125 37.984375 14.40625 
Q 37.984375 18.0625 35.515625 20.015625 
Q 33.0625 21.96875 24.703125 23.78125 
L 21.578125 24.515625 
Q 13.234375 26.265625 9.515625 29.90625 
Q 5.8125 33.546875 5.8125 39.890625 
Q 5.8125 47.609375 11.28125 51.796875 
Q 16.75 56 26.8125 56 
Q 31.78125 56 36.171875 55.265625 
Q 40.578125 54.546875 44.28125 53.078125 
z
" id="DejaVuSans-115"/>
      <path d="M 56.203125 29.59375 
L 56.203125 25.203125 
L 14.890625 25.203125 
Q 15.484375 15.921875 20.484375 11.0625 
Q 25.484375 6.203125 34.421875 6.203125 
Q 39.59375 6.203125 44.453125 7.46875 
Q 49.3125 8.734375 54.109375 11.28125 
L 54.109375 2.78125 
Q 49.265625 0.734375 44.1875 -0.34375 
Q 39.109375 -1.421875 33.890625 -1.421875 
Q 20.796875 -1.421875 13.15625 6.1875 
Q 5.515625 13.8125 5.515625 26.8125 
Q 5.515625 40.234375 12.765625 48.109375 
Q 20.015625 56 32.328125 56 
Q 43.359375 56 49.78125 48.890625 
Q 56.203125 41.796875 56.203125 29.59375 
z
M 47.21875 32.234375 
Q 47.125 39.59375 43.09375 43.984375 
Q 39.0625 48.390625 32.421875 48.390625 
Q 24.90625 48.390625 20.390625 44.140625 
Q 15.875 39.890625 15.1875 32.171875 
z
" id="DejaVuSans-101"/>
     </defs>
     <use xlink:href="#DejaVuSans-67"/>
     <use x="69.824219" xlink:href="#DejaVuSans-79"/>
     <use x="146.785156" xlink:href="#DejaVuSans-86"/>
     <use x="215.193359" xlink:href="#DejaVuSans-73"/>
     <use x="244.685547" xlink:href="#DejaVuSans-68"/>
     <use x="321.6875" xlink:href="#DejaVuSans-45"/>
     <use x="357.771484" xlink:href="#DejaVuSans-49"/>
     <use x="421.394531" xlink:href="#DejaVuSans-57"/>
     <use x="485.017578" xlink:href="#DejaVuSans-32"/>
     <use x="516.804688" xlink:href="#DejaVuSans-67"/>
     <use x="586.628906" xlink:href="#DejaVuSans-97"/>
     <use x="647.908203" xlink:href="#DejaVuSans-115"/>
     <use x="700.007812" xlink:href="#DejaVuSans-101"/>
     <use x="761.53125" xlink:href="#DejaVuSans-115"/>
    </g>
   </g>
  </g>
  <g id="axes_2">
   <g id="patch_9">
    <path d="M 373.133594 162.018125 
L 601.326094 162.018125 
L 601.326094 22.318125 
L 373.133594 22.318125 
z
" style="fill:#ffffff;"/>
   </g>
   <g id="patch_10">
    <path clip-path="url(#p5d460c379c)" d="M 577.100178 162.018125 
L 577.100178 22.318125 
L 601.326094 22.318125 
L 601.326094 162.018125 
z
" style="fill:#808080;opacity:0.5;"/>
   </g>
   <g id="patch_11">
    <path clip-path="url(#p5d460c379c)" d="M 373.133594 162.018125 
L 373.133594 22.318125 
L 385.637292 22.318125 
L 385.637292 162.018125 
z
" style="fill:#808080;opacity:0.5;"/>
   </g>
   <g id="matplotlib.axis_3">
    <g id="xtick_52">
     <g id="line2d_58">
      <g>
       <use style="stroke:#000000;stroke-width:0.8;" x="386.418774" xlink:href="#m2fcd27b568" y="162.018125"/>
      </g>
     </g>
     <g id="text_18">
      <!-- 2020-04 -->
      <g transform="translate(347.332712 197.863563)rotate(-30)scale(0.105 -0.105)">
       <use xlink:href="#DejaVuSans-50"/>
       <use x="63.623047" xlink:href="#DejaVuSans-48"/>
       <use x="127.246094" xlink:href="#DejaVuSans-50"/>
       <use x="190.869141" xlink:href="#DejaVuSans-48"/>
       <use x="254.492188" xlink:href="#DejaVuSans-45"/>
       <use x="290.576172" xlink:href="#DejaVuSans-48"/>
       <use x="354.199219" xlink:href="#DejaVuSans-52"/>
      </g>
     </g>
    </g>
    <g id="xtick_53">
     <g id="line2d_59">
      <g>
       <use style="stroke:#000000;stroke-width:0.8;" x="409.863208" xlink:href="#m2fcd27b568" y="162.018125"/>
      </g>
     </g>
     <g id="text_19">
      <!-- 2020-05 -->
      <g transform="translate(370.777147 197.863563)rotate(-30)scale(0.105 -0.105)">
       <use xlink:href="#DejaVuSans-50"/>
       <use x="63.623047" xlink:href="#DejaVuSans-48"/>
       <use x="127.246094" xlink:href="#DejaVuSans-50"/>
       <use x="190.869141" xlink:href="#DejaVuSans-48"/>
       <use x="254.492188" xlink:href="#DejaVuSans-45"/>
       <use x="290.576172" xlink:href="#DejaVuSans-48"/>
       <use x="354.199219" xlink:href="#DejaVuSans-53"/>
      </g>
     </g>
    </g>
    <g id="xtick_54">
     <g id="line2d_60">
      <g>
       <use style="stroke:#000000;stroke-width:0.8;" x="434.089125" xlink:href="#m2fcd27b568" y="162.018125"/>
      </g>
     </g>
     <g id="text_20">
      <!-- 2020-06 -->
      <g transform="translate(395.003063 197.863563)rotate(-30)scale(0.105 -0.105)">
       <use xlink:href="#DejaVuSans-50"/>
       <use x="63.623047" xlink:href="#DejaVuSans-48"/>
       <use x="127.246094" xlink:href="#DejaVuSans-50"/>
       <use x="190.869141" xlink:href="#DejaVuSans-48"/>
       <use x="254.492188" xlink:href="#DejaVuSans-45"/>
       <use x="290.576172" xlink:href="#DejaVuSans-48"/>
       <use x="354.199219" xlink:href="#DejaVuSans-54"/>
      </g>
     </g>
    </g>
    <g id="xtick_55">
     <g id="line2d_61">
      <g>
       <use style="stroke:#000000;stroke-width:0.8;" x="457.53356" xlink:href="#m2fcd27b568" y="162.018125"/>
      </g>
     </g>
     <g id="text_21">
      <!-- 2020-07 -->
      <g transform="translate(418.447498 197.863563)rotate(-30)scale(0.105 -0.105)">
       <use xlink:href="#DejaVuSans-50"/>
       <use x="63.623047" xlink:href="#DejaVuSans-48"/>
       <use x="127.246094" xlink:href="#DejaVuSans-50"/>
       <use x="190.869141" xlink:href="#DejaVuSans-48"/>
       <use x="254.492188" xlink:href="#DejaVuSans-45"/>
       <use x="290.576172" xlink:href="#DejaVuSans-48"/>
       <use x="354.199219" xlink:href="#DejaVuSans-55"/>
      </g>
     </g>
    </g>
    <g id="xtick_56">
     <g id="line2d_62">
      <g>
       <use style="stroke:#000000;stroke-width:0.8;" x="481.759476" xlink:href="#m2fcd27b568" y="162.018125"/>
      </g>
     </g>
     <g id="text_22">
      <!-- 2020-08 -->
      <g transform="translate(442.673414 197.863563)rotate(-30)scale(0.105 -0.105)">
       <use xlink:href="#DejaVuSans-50"/>
       <use x="63.623047" xlink:href="#DejaVuSans-48"/>
       <use x="127.246094" xlink:href="#DejaVuSans-50"/>
       <use x="190.869141" xlink:href="#DejaVuSans-48"/>
       <use x="254.492188" xlink:href="#DejaVuSans-45"/>
       <use x="290.576172" xlink:href="#DejaVuSans-48"/>
       <use x="354.199219" xlink:href="#DejaVuSans-56"/>
      </g>
     </g>
    </g>
    <g id="xtick_57">
     <g id="line2d_63">
      <g>
       <use style="stroke:#000000;stroke-width:0.8;" x="505.985392" xlink:href="#m2fcd27b568" y="162.018125"/>
      </g>
     </g>
     <g id="text_23">
      <!-- 2020-09 -->
      <g transform="translate(466.89933 197.863563)rotate(-30)scale(0.105 -0.105)">
       <use xlink:href="#DejaVuSans-50"/>
       <use x="63.623047" xlink:href="#DejaVuSans-48"/>
       <use x="127.246094" xlink:href="#DejaVuSans-50"/>
       <use x="190.869141" xlink:href="#DejaVuSans-48"/>
       <use x="254.492188" xlink:href="#DejaVuSans-45"/>
       <use x="290.576172" xlink:href="#DejaVuSans-48"/>
       <use x="354.199219" xlink:href="#DejaVuSans-57"/>
      </g>
     </g>
    </g>
    <g id="xtick_58">
     <g id="line2d_64">
      <g>
       <use style="stroke:#000000;stroke-width:0.8;" x="529.429827" xlink:href="#m2fcd27b568" y="162.018125"/>
      </g>
     </g>
     <g id="text_24">
      <!-- 2020-10 -->
      <g transform="translate(490.343765 197.863563)rotate(-30)scale(0.105 -0.105)">
       <use xlink:href="#DejaVuSans-50"/>
       <use x="63.623047" xlink:href="#DejaVuSans-48"/>
       <use x="127.246094" xlink:href="#DejaVuSans-50"/>
       <use x="190.869141" xlink:href="#DejaVuSans-48"/>
       <use x="254.492188" xlink:href="#DejaVuSans-45"/>
       <use x="290.576172" xlink:href="#DejaVuSans-49"/>
       <use x="354.199219" xlink:href="#DejaVuSans-48"/>
      </g>
     </g>
    </g>
    <g id="xtick_59">
     <g id="line2d_65">
      <g>
       <use style="stroke:#000000;stroke-width:0.8;" x="553.655743" xlink:href="#m2fcd27b568" y="162.018125"/>
      </g>
     </g>
     <g id="text_25">
      <!-- 2020-11 -->
      <g transform="translate(514.569681 197.863563)rotate(-30)scale(0.105 -0.105)">
       <use xlink:href="#DejaVuSans-50"/>
       <use x="63.623047" xlink:href="#DejaVuSans-48"/>
       <use x="127.246094" xlink:href="#DejaVuSans-50"/>
       <use x="190.869141" xlink:href="#DejaVuSans-48"/>
       <use x="254.492188" xlink:href="#DejaVuSans-45"/>
       <use x="290.576172" xlink:href="#DejaVuSans-49"/>
       <use x="354.199219" xlink:href="#DejaVuSans-49"/>
      </g>
     </g>
    </g>
    <g id="xtick_60">
     <g id="line2d_66">
      <g>
       <use style="stroke:#000000;stroke-width:0.8;" x="577.100178" xlink:href="#m2fcd27b568" y="162.018125"/>
      </g>
     </g>
     <g id="text_26">
      <!-- 2020-12 -->
      <g transform="translate(538.014116 197.863563)rotate(-30)scale(0.105 -0.105)">
       <use xlink:href="#DejaVuSans-50"/>
       <use x="63.623047" xlink:href="#DejaVuSans-48"/>
       <use x="127.246094" xlink:href="#DejaVuSans-50"/>
       <use x="190.869141" xlink:href="#DejaVuSans-48"/>
       <use x="254.492188" xlink:href="#DejaVuSans-45"/>
       <use x="290.576172" xlink:href="#DejaVuSans-49"/>
       <use x="354.199219" xlink:href="#DejaVuSans-50"/>
      </g>
     </g>
    </g>
    <g id="xtick_61">
     <g id="line2d_67">
      <g>
       <use style="stroke:#000000;stroke-width:0.8;" x="601.326094" xlink:href="#m2fcd27b568" y="162.018125"/>
      </g>
     </g>
     <g id="text_27">
      <!-- 2021-01 -->
      <g transform="translate(562.240032 197.863563)rotate(-30)scale(0.105 -0.105)">
       <use xlink:href="#DejaVuSans-50"/>
       <use x="63.623047" xlink:href="#DejaVuSans-48"/>
       <use x="127.246094" xlink:href="#DejaVuSans-50"/>
       <use x="190.869141" xlink:href="#DejaVuSans-49"/>
       <use x="254.492188" xlink:href="#DejaVuSans-45"/>
       <use x="290.576172" xlink:href="#DejaVuSans-48"/>
       <use x="354.199219" xlink:href="#DejaVuSans-49"/>
      </g>
     </g>
    </g>
    <g id="xtick_62">
     <g id="line2d_68">
      <g>
       <use style="stroke:#000000;stroke-width:0.6;" x="373.915075" xlink:href="#m8e06169ff5" y="162.018125"/>
      </g>
     </g>
    </g>
    <g id="xtick_63">
     <g id="line2d_69">
      <g>
       <use style="stroke:#000000;stroke-width:0.6;" x="379.385443" xlink:href="#m8e06169ff5" y="162.018125"/>
      </g>
     </g>
    </g>
    <g id="xtick_64">
     <g id="line2d_70">
      <g>
       <use style="stroke:#000000;stroke-width:0.6;" x="384.855811" xlink:href="#m8e06169ff5" y="162.018125"/>
      </g>
     </g>
    </g>
    <g id="xtick_65">
     <g id="line2d_71">
      <g>
       <use style="stroke:#000000;stroke-width:0.6;" x="390.326179" xlink:href="#m8e06169ff5" y="162.018125"/>
      </g>
     </g>
    </g>
    <g id="xtick_66">
     <g id="line2d_72">
      <g>
       <use style="stroke:#000000;stroke-width:0.6;" x="395.796548" xlink:href="#m8e06169ff5" y="162.018125"/>
      </g>
     </g>
    </g>
    <g id="xtick_67">
     <g id="line2d_73">
      <g>
       <use style="stroke:#000000;stroke-width:0.6;" x="401.266916" xlink:href="#m8e06169ff5" y="162.018125"/>
      </g>
     </g>
    </g>
    <g id="xtick_68">
     <g id="line2d_74">
      <g>
       <use style="stroke:#000000;stroke-width:0.6;" x="406.737284" xlink:href="#m8e06169ff5" y="162.018125"/>
      </g>
     </g>
    </g>
    <g id="xtick_69">
     <g id="line2d_75">
      <g>
       <use style="stroke:#000000;stroke-width:0.6;" x="412.207652" xlink:href="#m8e06169ff5" y="162.018125"/>
      </g>
     </g>
    </g>
    <g id="xtick_70">
     <g id="line2d_76">
      <g>
       <use style="stroke:#000000;stroke-width:0.6;" x="417.67802" xlink:href="#m8e06169ff5" y="162.018125"/>
      </g>
     </g>
    </g>
    <g id="xtick_71">
     <g id="line2d_77">
      <g>
       <use style="stroke:#000000;stroke-width:0.6;" x="423.148388" xlink:href="#m8e06169ff5" y="162.018125"/>
      </g>
     </g>
    </g>
    <g id="xtick_72">
     <g id="line2d_78">
      <g>
       <use style="stroke:#000000;stroke-width:0.6;" x="428.618756" xlink:href="#m8e06169ff5" y="162.018125"/>
      </g>
     </g>
    </g>
    <g id="xtick_73">
     <g id="line2d_79">
      <g>
       <use style="stroke:#000000;stroke-width:0.6;" x="439.559493" xlink:href="#m8e06169ff5" y="162.018125"/>
      </g>
     </g>
    </g>
    <g id="xtick_74">
     <g id="line2d_80">
      <g>
       <use style="stroke:#000000;stroke-width:0.6;" x="445.029861" xlink:href="#m8e06169ff5" y="162.018125"/>
      </g>
     </g>
    </g>
    <g id="xtick_75">
     <g id="line2d_81">
      <g>
       <use style="stroke:#000000;stroke-width:0.6;" x="450.500229" xlink:href="#m8e06169ff5" y="162.018125"/>
      </g>
     </g>
    </g>
    <g id="xtick_76">
     <g id="line2d_82">
      <g>
       <use style="stroke:#000000;stroke-width:0.6;" x="455.970597" xlink:href="#m8e06169ff5" y="162.018125"/>
      </g>
     </g>
    </g>
    <g id="xtick_77">
     <g id="line2d_83">
      <g>
       <use style="stroke:#000000;stroke-width:0.6;" x="461.440965" xlink:href="#m8e06169ff5" y="162.018125"/>
      </g>
     </g>
    </g>
    <g id="xtick_78">
     <g id="line2d_84">
      <g>
       <use style="stroke:#000000;stroke-width:0.6;" x="466.911333" xlink:href="#m8e06169ff5" y="162.018125"/>
      </g>
     </g>
    </g>
    <g id="xtick_79">
     <g id="line2d_85">
      <g>
       <use style="stroke:#000000;stroke-width:0.6;" x="472.381702" xlink:href="#m8e06169ff5" y="162.018125"/>
      </g>
     </g>
    </g>
    <g id="xtick_80">
     <g id="line2d_86">
      <g>
       <use style="stroke:#000000;stroke-width:0.6;" x="477.85207" xlink:href="#m8e06169ff5" y="162.018125"/>
      </g>
     </g>
    </g>
    <g id="xtick_81">
     <g id="line2d_87">
      <g>
       <use style="stroke:#000000;stroke-width:0.6;" x="483.322438" xlink:href="#m8e06169ff5" y="162.018125"/>
      </g>
     </g>
    </g>
    <g id="xtick_82">
     <g id="line2d_88">
      <g>
       <use style="stroke:#000000;stroke-width:0.6;" x="488.792806" xlink:href="#m8e06169ff5" y="162.018125"/>
      </g>
     </g>
    </g>
    <g id="xtick_83">
     <g id="line2d_89">
      <g>
       <use style="stroke:#000000;stroke-width:0.6;" x="494.263174" xlink:href="#m8e06169ff5" y="162.018125"/>
      </g>
     </g>
    </g>
    <g id="xtick_84">
     <g id="line2d_90">
      <g>
       <use style="stroke:#000000;stroke-width:0.6;" x="499.733542" xlink:href="#m8e06169ff5" y="162.018125"/>
      </g>
     </g>
    </g>
    <g id="xtick_85">
     <g id="line2d_91">
      <g>
       <use style="stroke:#000000;stroke-width:0.6;" x="505.203911" xlink:href="#m8e06169ff5" y="162.018125"/>
      </g>
     </g>
    </g>
    <g id="xtick_86">
     <g id="line2d_92">
      <g>
       <use style="stroke:#000000;stroke-width:0.6;" x="510.674279" xlink:href="#m8e06169ff5" y="162.018125"/>
      </g>
     </g>
    </g>
    <g id="xtick_87">
     <g id="line2d_93">
      <g>
       <use style="stroke:#000000;stroke-width:0.6;" x="516.144647" xlink:href="#m8e06169ff5" y="162.018125"/>
      </g>
     </g>
    </g>
    <g id="xtick_88">
     <g id="line2d_94">
      <g>
       <use style="stroke:#000000;stroke-width:0.6;" x="521.615015" xlink:href="#m8e06169ff5" y="162.018125"/>
      </g>
     </g>
    </g>
    <g id="xtick_89">
     <g id="line2d_95">
      <g>
       <use style="stroke:#000000;stroke-width:0.6;" x="527.085383" xlink:href="#m8e06169ff5" y="162.018125"/>
      </g>
     </g>
    </g>
    <g id="xtick_90">
     <g id="line2d_96">
      <g>
       <use style="stroke:#000000;stroke-width:0.6;" x="532.555751" xlink:href="#m8e06169ff5" y="162.018125"/>
      </g>
     </g>
    </g>
    <g id="xtick_91">
     <g id="line2d_97">
      <g>
       <use style="stroke:#000000;stroke-width:0.6;" x="538.026119" xlink:href="#m8e06169ff5" y="162.018125"/>
      </g>
     </g>
    </g>
    <g id="xtick_92">
     <g id="line2d_98">
      <g>
       <use style="stroke:#000000;stroke-width:0.6;" x="543.496488" xlink:href="#m8e06169ff5" y="162.018125"/>
      </g>
     </g>
    </g>
    <g id="xtick_93">
     <g id="line2d_99">
      <g>
       <use style="stroke:#000000;stroke-width:0.6;" x="548.966856" xlink:href="#m8e06169ff5" y="162.018125"/>
      </g>
     </g>
    </g>
    <g id="xtick_94">
     <g id="line2d_100">
      <g>
       <use style="stroke:#000000;stroke-width:0.6;" x="554.437224" xlink:href="#m8e06169ff5" y="162.018125"/>
      </g>
     </g>
    </g>
    <g id="xtick_95">
     <g id="line2d_101">
      <g>
       <use style="stroke:#000000;stroke-width:0.6;" x="559.907592" xlink:href="#m8e06169ff5" y="162.018125"/>
      </g>
     </g>
    </g>
    <g id="xtick_96">
     <g id="line2d_102">
      <g>
       <use style="stroke:#000000;stroke-width:0.6;" x="565.37796" xlink:href="#m8e06169ff5" y="162.018125"/>
      </g>
     </g>
    </g>
    <g id="xtick_97">
     <g id="line2d_103">
      <g>
       <use style="stroke:#000000;stroke-width:0.6;" x="570.848328" xlink:href="#m8e06169ff5" y="162.018125"/>
      </g>
     </g>
    </g>
    <g id="xtick_98">
     <g id="line2d_104">
      <g>
       <use style="stroke:#000000;stroke-width:0.6;" x="576.318696" xlink:href="#m8e06169ff5" y="162.018125"/>
      </g>
     </g>
    </g>
    <g id="xtick_99">
     <g id="line2d_105">
      <g>
       <use style="stroke:#000000;stroke-width:0.6;" x="581.789065" xlink:href="#m8e06169ff5" y="162.018125"/>
      </g>
     </g>
    </g>
    <g id="xtick_100">
     <g id="line2d_106">
      <g>
       <use style="stroke:#000000;stroke-width:0.6;" x="587.259433" xlink:href="#m8e06169ff5" y="162.018125"/>
      </g>
     </g>
    </g>
    <g id="xtick_101">
     <g id="line2d_107">
      <g>
       <use style="stroke:#000000;stroke-width:0.6;" x="592.729801" xlink:href="#m8e06169ff5" y="162.018125"/>
      </g>
     </g>
    </g>
    <g id="xtick_102">
     <g id="line2d_108">
      <g>
       <use style="stroke:#000000;stroke-width:0.6;" x="598.200169" xlink:href="#m8e06169ff5" y="162.018125"/>
      </g>
     </g>
    </g>
   </g>
   <g id="matplotlib.axis_4">
    <g id="ytick_6">
     <g id="line2d_109">
      <g>
       <use style="stroke:#000000;stroke-width:0.8;" x="373.133594" xlink:href="#m8cf893ac3c" y="155.968924"/>
      </g>
     </g>
     <g id="text_28">
      <!-- 0 -->
      <g transform="translate(359.452969 159.958103)scale(0.105 -0.105)">
       <use xlink:href="#DejaVuSans-48"/>
      </g>
     </g>
    </g>
    <g id="ytick_7">
     <g id="line2d_110">
      <g>
       <use style="stroke:#000000;stroke-width:0.8;" x="373.133594" xlink:href="#m8cf893ac3c" y="131.48531"/>
      </g>
     </g>
     <g id="text_29">
      <!-- 500 -->
      <g transform="translate(346.091719 135.47449)scale(0.105 -0.105)">
       <use xlink:href="#DejaVuSans-53"/>
       <use x="63.623047" xlink:href="#DejaVuSans-48"/>
       <use x="127.246094" xlink:href="#DejaVuSans-48"/>
      </g>
     </g>
    </g>
    <g id="ytick_8">
     <g id="line2d_111">
      <g>
       <use style="stroke:#000000;stroke-width:0.8;" x="373.133594" xlink:href="#m8cf893ac3c" y="107.001697"/>
      </g>
     </g>
     <g id="text_30">
      <!-- 1000 -->
      <g transform="translate(339.411094 110.990877)scale(0.105 -0.105)">
       <use xlink:href="#DejaVuSans-49"/>
       <use x="63.623047" xlink:href="#DejaVuSans-48"/>
       <use x="127.246094" xlink:href="#DejaVuSans-48"/>
       <use x="190.869141" xlink:href="#DejaVuSans-48"/>
      </g>
     </g>
    </g>
    <g id="ytick_9">
     <g id="line2d_112">
      <g>
       <use style="stroke:#000000;stroke-width:0.8;" x="373.133594" xlink:href="#m8cf893ac3c" y="82.518084"/>
      </g>
     </g>
     <g id="text_31">
      <!-- 1500 -->
      <g transform="translate(339.411094 86.507263)scale(0.105 -0.105)">
       <use xlink:href="#DejaVuSans-49"/>
       <use x="63.623047" xlink:href="#DejaVuSans-53"/>
       <use x="127.246094" xlink:href="#DejaVuSans-48"/>
       <use x="190.869141" xlink:href="#DejaVuSans-48"/>
      </g>
     </g>
    </g>
    <g id="ytick_10">
     <g id="line2d_113">
      <g>
       <use style="stroke:#000000;stroke-width:0.8;" x="373.133594" xlink:href="#m8cf893ac3c" y="58.03447"/>
      </g>
     </g>
     <g id="text_32">
      <!-- 2000 -->
      <g transform="translate(339.411094 62.02365)scale(0.105 -0.105)">
       <use xlink:href="#DejaVuSans-50"/>
       <use x="63.623047" xlink:href="#DejaVuSans-48"/>
       <use x="127.246094" xlink:href="#DejaVuSans-48"/>
       <use x="190.869141" xlink:href="#DejaVuSans-48"/>
      </g>
     </g>
    </g>
    <g id="ytick_11">
     <g id="line2d_114">
      <g>
       <use style="stroke:#000000;stroke-width:0.8;" x="373.133594" xlink:href="#m8cf893ac3c" y="33.550857"/>
      </g>
     </g>
     <g id="text_33">
      <!-- 2500 -->
      <g transform="translate(339.411094 37.540037)scale(0.105 -0.105)">
       <use xlink:href="#DejaVuSans-50"/>
       <use x="63.623047" xlink:href="#DejaVuSans-53"/>
       <use x="127.246094" xlink:href="#DejaVuSans-48"/>
       <use x="190.869141" xlink:href="#DejaVuSans-48"/>
      </g>
     </g>
    </g>
    <g id="text_34">
     <!-- Count -->
     <g transform="translate(333.019453 109.243828)rotate(-90)scale(0.115 -0.115)">
      <use xlink:href="#DejaVuSans-67"/>
      <use x="69.824219" xlink:href="#DejaVuSans-111"/>
      <use x="131.005859" xlink:href="#DejaVuSans-117"/>
      <use x="194.384766" xlink:href="#DejaVuSans-110"/>
      <use x="257.763672" xlink:href="#DejaVuSans-116"/>
     </g>
    </g>
   </g>
   <g id="line2d_115">
    <path clip-path="url(#p5d460c379c)" d="M 373.133594 155.668125 
L 375.478037 155.12249 
L 376.259518 154.723757 
L 377.041 154.485916 
L 377.822481 153.982253 
L 379.385443 152.569199 
L 380.166924 151.212107 
L 381.729887 147.833369 
L 382.511368 145.33604 
L 383.292849 142.062231 
L 384.07433 139.802744 
L 384.855811 136.270108 
L 386.418774 125.875065 
L 387.981736 112.479031 
L 388.763217 106.609959 
L 389.544698 99.069006 
L 390.326179 92.77322 
L 391.107661 84.210951 
L 391.889142 76.963801 
L 392.670623 71.997125 
L 393.452104 63.931524 
L 394.233585 61.406214 
L 395.015066 60.147056 
L 395.796548 63.064104 
L 396.578029 56.124749 
L 397.35951 53.571457 
L 398.140991 51.598778 
L 398.922472 55.250334 
L 399.703953 56.957191 
L 400.485435 51.067134 
L 401.266916 46.247359 
L 402.829878 51.899576 
L 403.611359 55.019488 
L 404.39284 50.066803 
L 405.174321 46.820975 
L 405.955803 56.530477 
L 406.737284 59.580436 
L 407.518765 63.148048 
L 408.300246 59.24466 
L 409.081727 57.118084 
L 409.863208 63.224996 
L 410.64469 66.016128 
L 411.426171 64.29528 
L 412.207652 67.002468 
L 412.989133 65.393545 
L 413.770614 65.38655 
L 414.552095 65.93918 
L 415.333577 66.967492 
L 416.115058 67.394206 
L 416.896539 70.947828 
L 417.67802 71.33257 
L 419.240982 83.287569 
L 420.022464 85.085365 
L 420.803945 86.442457 
L 421.585426 88.988753 
L 422.366907 89.555374 
L 423.148388 88.904809 
L 423.929869 89.681289 
L 424.711351 91.122325 
L 425.492832 94.19327 
L 426.274313 95.900127 
L 427.055794 96.221912 
L 427.837275 97.215247 
L 428.618756 99.726566 
L 429.400238 105.86146 
L 430.181719 106.62395 
L 430.9632 107.792168 
L 431.744681 107.708224 
L 432.526162 109.47804 
L 433.307643 109.883768 
L 434.089125 110.051656 
L 434.870606 105.630615 
L 435.652087 108.421747 
L 436.433568 109.82081 
L 437.215049 110.863113 
L 437.99653 111.35978 
L 438.778012 112.6749 
L 439.559493 113.346451 
L 440.340974 115.675891 
L 441.903936 117.005002 
L 442.685417 119.271485 
L 443.466899 119.586274 
L 444.24838 120.061956 
L 445.029861 121.118249 
L 445.811342 122.489331 
L 446.592823 123.377737 
L 447.374304 124.629899 
L 448.155786 124.783796 
L 448.937267 125.973 
L 449.718748 126.476663 
L 450.500229 126.735489 
L 451.28171 126.385723 
L 452.063191 126.581592 
L 452.844673 127.162204 
L 453.626154 127.95967 
L 454.407635 115.270163 
L 455.189116 115.298144 
L 455.970597 115.619929 
L 456.752078 112.220204 
L 457.53356 112.56997 
L 458.315041 111.940392 
L 459.096522 112.486026 
L 459.878003 127.288119 
L 460.659484 127.567932 
L 461.440965 127.176194 
L 462.222446 129.904368 
L 463.003928 128.855071 
L 464.56689 125.014641 
L 465.348371 122.216514 
L 466.129852 120.537638 
L 466.911333 120.810455 
L 467.692815 120.880408 
L 468.474296 120.600595 
L 469.255777 121.055291 
L 470.037258 120.831441 
L 470.818739 119.082611 
L 471.60022 119.530312 
L 472.381702 118.928714 
L 473.944664 117.326787 
L 474.726145 116.151573 
L 475.507626 113.689221 
L 476.289107 115.396079 
L 477.070589 115.151243 
L 477.85207 106.526015 
L 478.633551 111.34579 
L 479.415032 102.510703 
L 480.196513 101.272531 
L 480.977994 99.649618 
L 481.759476 96.431771 
L 482.540957 96.830505 
L 483.322438 104.336481 
L 484.103919 97.2852 
L 484.8854 104.168593 
L 485.666881 104.168593 
L 486.448363 104.86113 
L 487.229844 105.924418 
L 488.011325 103.937748 
L 488.792806 104.805167 
L 489.574287 104.3085 
L 490.355768 103.175258 
L 491.13725 103.66493 
L 491.918731 104.966059 
L 492.700212 103.741879 
L 493.481693 104.420425 
L 494.263174 104.21756 
L 495.826137 106.176249 
L 496.607618 106.62395 
L 497.389099 106.735875 
L 498.952061 108.4917 
L 499.733542 108.827475 
L 500.515024 109.429072 
L 501.296505 108.463719 
L 502.077986 108.484704 
L 502.859467 109.568979 
L 503.640948 110.058651 
L 504.422429 110.310482 
L 505.203911 110.037665 
L 505.985392 110.730202 
L 506.766873 113.640254 
L 509.111316 115.025327 
L 509.892798 115.158238 
L 510.674279 116.795142 
L 511.45576 121.656888 
L 512.237241 120.796464 
L 513.018722 120.775478 
L 513.800203 119.754162 
L 514.581685 120.901394 
L 515.363166 120.950361 
L 516.144647 119.719185 
L 516.926128 114.759505 
L 517.707609 114.99035 
L 518.48909 116.508334 
L 519.270571 117.711529 
L 520.052053 117.648571 
L 521.615015 119.306462 
L 522.396496 120.551628 
L 523.177977 120.572614 
L 523.959458 119.998998 
L 524.74094 120.1459 
L 525.522421 119.92205 
L 526.303902 120.152895 
L 527.085383 119.978012 
L 527.866864 120.509656 
L 528.648345 121.209188 
L 529.429827 121.377076 
L 530.211308 122.069612 
L 530.992789 122.167547 
L 531.77427 121.670879 
L 532.555751 123.230835 
L 533.337232 122.433369 
L 534.118714 123.195858 
L 534.900195 123.160882 
L 535.681676 122.412383 
L 536.463157 123.279802 
L 538.026119 120.649563 
L 538.807601 121.957687 
L 539.589082 123.748489 
L 540.370563 122.125575 
L 541.152044 122.6852 
L 541.933525 122.097593 
L 542.715006 123.055952 
L 543.496488 121.363085 
L 544.277969 120.033975 
L 545.05945 116.228522 
L 545.840931 117.571623 
L 546.622412 116.312465 
L 547.403893 117.438712 
L 548.185375 117.459698 
L 548.966856 116.599273 
L 549.748337 116.704203 
L 550.529818 118.718855 
L 551.311299 118.306131 
L 552.09278 118.655897 
L 552.874262 117.074955 
L 553.655743 116.718194 
L 554.437224 117.473688 
L 555.218705 115.151243 
L 556.000186 113.55631 
L 556.781667 112.79382 
L 557.563149 111.373771 
L 558.34463 110.268511 
L 559.126111 110.072642 
L 559.907592 107.50536 
L 560.689073 107.379444 
L 561.470554 104.854134 
L 562.252036 107.218552 
L 563.033517 104.525354 
L 563.814998 102.531689 
L 564.596479 101.461405 
L 565.37796 102.762534 
L 566.159441 101.853143 
L 566.940923 99.355814 
L 567.722404 89.352509 
L 568.503885 88.834856 
L 569.285366 90.422793 
L 570.848328 80.349535 
L 571.62981 76.907839 
L 572.411291 74.51544 
L 573.192772 81.370852 
L 573.974253 84.378838 
L 574.755734 82.392168 
L 575.537215 86.624335 
L 576.318696 86.51241 
L 577.100178 84.106021 
L 577.881659 80.832212 
L 579.444621 61.154382 
L 580.226102 54.466858 
L 581.007583 52.235352 
L 582.570546 51.046148 
L 583.352027 47.639428 
L 584.133508 47.359615 
L 584.914989 41.700403 
L 585.69647 41.623454 
L 586.477952 39.245046 
L 587.259433 38.125795 
L 588.040914 35.38363 
L 588.822395 33.29203 
L 589.603876 28.745073 
L 590.385357 35.285696 
L 591.166839 34.71208 
L 591.94832 34.425272 
L 592.729801 36.901614 
L 593.511282 31.620149 
L 594.292763 37.020535 
L 595.074244 38.069833 
L 595.855726 49.591121 
L 596.637207 58.34926 
L 597.418688 60.447855 
L 598.200169 46.415247 
L 598.98165 46.499191 
L 599.763131 41.084815 
L 600.544613 39.210069 
L 601.326094 28.668125 
L 601.326094 28.668125 
" style="fill:none;stroke:#1f77b4;stroke-linecap:square;stroke-width:1.5;"/>
   </g>
   <g id="patch_12">
    <path d="M 373.133594 162.018125 
L 373.133594 22.318125 
" style="fill:none;stroke:#000000;stroke-linecap:square;stroke-linejoin:miter;stroke-width:0.8;"/>
   </g>
   <g id="patch_13">
    <path d="M 601.326094 162.018125 
L 601.326094 22.318125 
" style="fill:none;stroke:#000000;stroke-linecap:square;stroke-linejoin:miter;stroke-width:0.8;"/>
   </g>
   <g id="patch_14">
    <path d="M 373.133594 162.018125 
L 601.326094 162.018125 
" style="fill:none;stroke:#000000;stroke-linecap:square;stroke-linejoin:miter;stroke-width:0.8;"/>
   </g>
   <g id="patch_15">
    <path d="M 373.133594 22.318125 
L 601.326094 22.318125 
" style="fill:none;stroke:#000000;stroke-linecap:square;stroke-linejoin:miter;stroke-width:0.8;"/>
   </g>
   <g id="text_35">
    <!-- COVID-19 Deaths -->
    <g transform="translate(434.952031 16.318125)scale(0.12 -0.12)">
     <defs>
      <path d="M 54.890625 33.015625 
L 54.890625 0 
L 45.90625 0 
L 45.90625 32.71875 
Q 45.90625 40.484375 42.875 44.328125 
Q 39.84375 48.1875 33.796875 48.1875 
Q 26.515625 48.1875 22.3125 43.546875 
Q 18.109375 38.921875 18.109375 30.90625 
L 18.109375 0 
L 9.078125 0 
L 9.078125 75.984375 
L 18.109375 75.984375 
L 18.109375 46.1875 
Q 21.34375 51.125 25.703125 53.5625 
Q 30.078125 56 35.796875 56 
Q 45.21875 56 50.046875 50.171875 
Q 54.890625 44.34375 54.890625 33.015625 
z
" id="DejaVuSans-104"/>
     </defs>
     <use xlink:href="#DejaVuSans-67"/>
     <use x="69.824219" xlink:href="#DejaVuSans-79"/>
     <use x="146.785156" xlink:href="#DejaVuSans-86"/>
     <use x="215.193359" xlink:href="#DejaVuSans-73"/>
     <use x="244.685547" xlink:href="#DejaVuSans-68"/>
     <use x="321.6875" xlink:href="#DejaVuSans-45"/>
     <use x="357.771484" xlink:href="#DejaVuSans-49"/>
     <use x="421.394531" xlink:href="#DejaVuSans-57"/>
     <use x="485.017578" xlink:href="#DejaVuSans-32"/>
     <use x="516.804688" xlink:href="#DejaVuSans-68"/>
     <use x="593.806641" xlink:href="#DejaVuSans-101"/>
     <use x="655.330078" xlink:href="#DejaVuSans-97"/>
     <use x="716.609375" xlink:href="#DejaVuSans-116"/>
     <use x="755.818359" xlink:href="#DejaVuSans-104"/>
     <use x="819.197266" xlink:href="#DejaVuSans-115"/>
    </g>
   </g>
  </g>
  <g id="axes_3">
   <g id="patch_16">
    <path d="M 676.853594 162.018125 
L 905.046094 162.018125 
L 905.046094 22.318125 
L 676.853594 22.318125 
z
" style="fill:#ffffff;"/>
   </g>
   <g id="patch_17">
    <path clip-path="url(#p18a5437b26)" d="M 880.820178 162.018125 
L 880.820178 22.318125 
L 905.046094 22.318125 
L 905.046094 162.018125 
z
" style="fill:#808080;opacity:0.5;"/>
   </g>
   <g id="patch_18">
    <path clip-path="url(#p18a5437b26)" d="M 676.853594 162.018125 
L 676.853594 22.318125 
L 689.357292 22.318125 
L 689.357292 162.018125 
z
" style="fill:#808080;opacity:0.5;"/>
   </g>
   <g id="matplotlib.axis_5">
    <g id="xtick_103">
     <g id="line2d_116">
      <g>
       <use style="stroke:#000000;stroke-width:0.8;" x="690.138774" xlink:href="#m2fcd27b568" y="162.018125"/>
      </g>
     </g>
     <g id="text_36">
      <!-- 2020-04 -->
      <g transform="translate(651.052712 197.863563)rotate(-30)scale(0.105 -0.105)">
       <use xlink:href="#DejaVuSans-50"/>
       <use x="63.623047" xlink:href="#DejaVuSans-48"/>
       <use x="127.246094" xlink:href="#DejaVuSans-50"/>
       <use x="190.869141" xlink:href="#DejaVuSans-48"/>
       <use x="254.492188" xlink:href="#DejaVuSans-45"/>
       <use x="290.576172" xlink:href="#DejaVuSans-48"/>
       <use x="354.199219" xlink:href="#DejaVuSans-52"/>
      </g>
     </g>
    </g>
    <g id="xtick_104">
     <g id="line2d_117">
      <g>
       <use style="stroke:#000000;stroke-width:0.8;" x="713.583208" xlink:href="#m2fcd27b568" y="162.018125"/>
      </g>
     </g>
     <g id="text_37">
      <!-- 2020-05 -->
      <g transform="translate(674.497147 197.863563)rotate(-30)scale(0.105 -0.105)">
       <use xlink:href="#DejaVuSans-50"/>
       <use x="63.623047" xlink:href="#DejaVuSans-48"/>
       <use x="127.246094" xlink:href="#DejaVuSans-50"/>
       <use x="190.869141" xlink:href="#DejaVuSans-48"/>
       <use x="254.492188" xlink:href="#DejaVuSans-45"/>
       <use x="290.576172" xlink:href="#DejaVuSans-48"/>
       <use x="354.199219" xlink:href="#DejaVuSans-53"/>
      </g>
     </g>
    </g>
    <g id="xtick_105">
     <g id="line2d_118">
      <g>
       <use style="stroke:#000000;stroke-width:0.8;" x="737.809125" xlink:href="#m2fcd27b568" y="162.018125"/>
      </g>
     </g>
     <g id="text_38">
      <!-- 2020-06 -->
      <g transform="translate(698.723063 197.863563)rotate(-30)scale(0.105 -0.105)">
       <use xlink:href="#DejaVuSans-50"/>
       <use x="63.623047" xlink:href="#DejaVuSans-48"/>
       <use x="127.246094" xlink:href="#DejaVuSans-50"/>
       <use x="190.869141" xlink:href="#DejaVuSans-48"/>
       <use x="254.492188" xlink:href="#DejaVuSans-45"/>
       <use x="290.576172" xlink:href="#DejaVuSans-48"/>
       <use x="354.199219" xlink:href="#DejaVuSans-54"/>
      </g>
     </g>
    </g>
    <g id="xtick_106">
     <g id="line2d_119">
      <g>
       <use style="stroke:#000000;stroke-width:0.8;" x="761.25356" xlink:href="#m2fcd27b568" y="162.018125"/>
      </g>
     </g>
     <g id="text_39">
      <!-- 2020-07 -->
      <g transform="translate(722.167498 197.863563)rotate(-30)scale(0.105 -0.105)">
       <use xlink:href="#DejaVuSans-50"/>
       <use x="63.623047" xlink:href="#DejaVuSans-48"/>
       <use x="127.246094" xlink:href="#DejaVuSans-50"/>
       <use x="190.869141" xlink:href="#DejaVuSans-48"/>
       <use x="254.492188" xlink:href="#DejaVuSans-45"/>
       <use x="290.576172" xlink:href="#DejaVuSans-48"/>
       <use x="354.199219" xlink:href="#DejaVuSans-55"/>
      </g>
     </g>
    </g>
    <g id="xtick_107">
     <g id="line2d_120">
      <g>
       <use style="stroke:#000000;stroke-width:0.8;" x="785.479476" xlink:href="#m2fcd27b568" y="162.018125"/>
      </g>
     </g>
     <g id="text_40">
      <!-- 2020-08 -->
      <g transform="translate(746.393414 197.863563)rotate(-30)scale(0.105 -0.105)">
       <use xlink:href="#DejaVuSans-50"/>
       <use x="63.623047" xlink:href="#DejaVuSans-48"/>
       <use x="127.246094" xlink:href="#DejaVuSans-50"/>
       <use x="190.869141" xlink:href="#DejaVuSans-48"/>
       <use x="254.492188" xlink:href="#DejaVuSans-45"/>
       <use x="290.576172" xlink:href="#DejaVuSans-48"/>
       <use x="354.199219" xlink:href="#DejaVuSans-56"/>
      </g>
     </g>
    </g>
    <g id="xtick_108">
     <g id="line2d_121">
      <g>
       <use style="stroke:#000000;stroke-width:0.8;" x="809.705392" xlink:href="#m2fcd27b568" y="162.018125"/>
      </g>
     </g>
     <g id="text_41">
      <!-- 2020-09 -->
      <g transform="translate(770.61933 197.863563)rotate(-30)scale(0.105 -0.105)">
       <use xlink:href="#DejaVuSans-50"/>
       <use x="63.623047" xlink:href="#DejaVuSans-48"/>
       <use x="127.246094" xlink:href="#DejaVuSans-50"/>
       <use x="190.869141" xlink:href="#DejaVuSans-48"/>
       <use x="254.492188" xlink:href="#DejaVuSans-45"/>
       <use x="290.576172" xlink:href="#DejaVuSans-48"/>
       <use x="354.199219" xlink:href="#DejaVuSans-57"/>
      </g>
     </g>
    </g>
    <g id="xtick_109">
     <g id="line2d_122">
      <g>
       <use style="stroke:#000000;stroke-width:0.8;" x="833.149827" xlink:href="#m2fcd27b568" y="162.018125"/>
      </g>
     </g>
     <g id="text_42">
      <!-- 2020-10 -->
      <g transform="translate(794.063765 197.863563)rotate(-30)scale(0.105 -0.105)">
       <use xlink:href="#DejaVuSans-50"/>
       <use x="63.623047" xlink:href="#DejaVuSans-48"/>
       <use x="127.246094" xlink:href="#DejaVuSans-50"/>
       <use x="190.869141" xlink:href="#DejaVuSans-48"/>
       <use x="254.492188" xlink:href="#DejaVuSans-45"/>
       <use x="290.576172" xlink:href="#DejaVuSans-49"/>
       <use x="354.199219" xlink:href="#DejaVuSans-48"/>
      </g>
     </g>
    </g>
    <g id="xtick_110">
     <g id="line2d_123">
      <g>
       <use style="stroke:#000000;stroke-width:0.8;" x="857.375743" xlink:href="#m2fcd27b568" y="162.018125"/>
      </g>
     </g>
     <g id="text_43">
      <!-- 2020-11 -->
      <g transform="translate(818.289681 197.863563)rotate(-30)scale(0.105 -0.105)">
       <use xlink:href="#DejaVuSans-50"/>
       <use x="63.623047" xlink:href="#DejaVuSans-48"/>
       <use x="127.246094" xlink:href="#DejaVuSans-50"/>
       <use x="190.869141" xlink:href="#DejaVuSans-48"/>
       <use x="254.492188" xlink:href="#DejaVuSans-45"/>
       <use x="290.576172" xlink:href="#DejaVuSans-49"/>
       <use x="354.199219" xlink:href="#DejaVuSans-49"/>
      </g>
     </g>
    </g>
    <g id="xtick_111">
     <g id="line2d_124">
      <g>
       <use style="stroke:#000000;stroke-width:0.8;" x="880.820178" xlink:href="#m2fcd27b568" y="162.018125"/>
      </g>
     </g>
     <g id="text_44">
      <!-- 2020-12 -->
      <g transform="translate(841.734116 197.863563)rotate(-30)scale(0.105 -0.105)">
       <use xlink:href="#DejaVuSans-50"/>
       <use x="63.623047" xlink:href="#DejaVuSans-48"/>
       <use x="127.246094" xlink:href="#DejaVuSans-50"/>
       <use x="190.869141" xlink:href="#DejaVuSans-48"/>
       <use x="254.492188" xlink:href="#DejaVuSans-45"/>
       <use x="290.576172" xlink:href="#DejaVuSans-49"/>
       <use x="354.199219" xlink:href="#DejaVuSans-50"/>
      </g>
     </g>
    </g>
    <g id="xtick_112">
     <g id="line2d_125">
      <g>
       <use style="stroke:#000000;stroke-width:0.8;" x="905.046094" xlink:href="#m2fcd27b568" y="162.018125"/>
      </g>
     </g>
     <g id="text_45">
      <!-- 2021-01 -->
      <g transform="translate(865.960032 197.863563)rotate(-30)scale(0.105 -0.105)">
       <use xlink:href="#DejaVuSans-50"/>
       <use x="63.623047" xlink:href="#DejaVuSans-48"/>
       <use x="127.246094" xlink:href="#DejaVuSans-50"/>
       <use x="190.869141" xlink:href="#DejaVuSans-49"/>
       <use x="254.492188" xlink:href="#DejaVuSans-45"/>
       <use x="290.576172" xlink:href="#DejaVuSans-48"/>
       <use x="354.199219" xlink:href="#DejaVuSans-49"/>
      </g>
     </g>
    </g>
    <g id="xtick_113">
     <g id="line2d_126">
      <g>
       <use style="stroke:#000000;stroke-width:0.6;" x="677.635075" xlink:href="#m8e06169ff5" y="162.018125"/>
      </g>
     </g>
    </g>
    <g id="xtick_114">
     <g id="line2d_127">
      <g>
       <use style="stroke:#000000;stroke-width:0.6;" x="683.105443" xlink:href="#m8e06169ff5" y="162.018125"/>
      </g>
     </g>
    </g>
    <g id="xtick_115">
     <g id="line2d_128">
      <g>
       <use style="stroke:#000000;stroke-width:0.6;" x="688.575811" xlink:href="#m8e06169ff5" y="162.018125"/>
      </g>
     </g>
    </g>
    <g id="xtick_116">
     <g id="line2d_129">
      <g>
       <use style="stroke:#000000;stroke-width:0.6;" x="694.046179" xlink:href="#m8e06169ff5" y="162.018125"/>
      </g>
     </g>
    </g>
    <g id="xtick_117">
     <g id="line2d_130">
      <g>
       <use style="stroke:#000000;stroke-width:0.6;" x="699.516548" xlink:href="#m8e06169ff5" y="162.018125"/>
      </g>
     </g>
    </g>
    <g id="xtick_118">
     <g id="line2d_131">
      <g>
       <use style="stroke:#000000;stroke-width:0.6;" x="704.986916" xlink:href="#m8e06169ff5" y="162.018125"/>
      </g>
     </g>
    </g>
    <g id="xtick_119">
     <g id="line2d_132">
      <g>
       <use style="stroke:#000000;stroke-width:0.6;" x="710.457284" xlink:href="#m8e06169ff5" y="162.018125"/>
      </g>
     </g>
    </g>
    <g id="xtick_120">
     <g id="line2d_133">
      <g>
       <use style="stroke:#000000;stroke-width:0.6;" x="715.927652" xlink:href="#m8e06169ff5" y="162.018125"/>
      </g>
     </g>
    </g>
    <g id="xtick_121">
     <g id="line2d_134">
      <g>
       <use style="stroke:#000000;stroke-width:0.6;" x="721.39802" xlink:href="#m8e06169ff5" y="162.018125"/>
      </g>
     </g>
    </g>
    <g id="xtick_122">
     <g id="line2d_135">
      <g>
       <use style="stroke:#000000;stroke-width:0.6;" x="726.868388" xlink:href="#m8e06169ff5" y="162.018125"/>
      </g>
     </g>
    </g>
    <g id="xtick_123">
     <g id="line2d_136">
      <g>
       <use style="stroke:#000000;stroke-width:0.6;" x="732.338756" xlink:href="#m8e06169ff5" y="162.018125"/>
      </g>
     </g>
    </g>
    <g id="xtick_124">
     <g id="line2d_137">
      <g>
       <use style="stroke:#000000;stroke-width:0.6;" x="743.279493" xlink:href="#m8e06169ff5" y="162.018125"/>
      </g>
     </g>
    </g>
    <g id="xtick_125">
     <g id="line2d_138">
      <g>
       <use style="stroke:#000000;stroke-width:0.6;" x="748.749861" xlink:href="#m8e06169ff5" y="162.018125"/>
      </g>
     </g>
    </g>
    <g id="xtick_126">
     <g id="line2d_139">
      <g>
       <use style="stroke:#000000;stroke-width:0.6;" x="754.220229" xlink:href="#m8e06169ff5" y="162.018125"/>
      </g>
     </g>
    </g>
    <g id="xtick_127">
     <g id="line2d_140">
      <g>
       <use style="stroke:#000000;stroke-width:0.6;" x="759.690597" xlink:href="#m8e06169ff5" y="162.018125"/>
      </g>
     </g>
    </g>
    <g id="xtick_128">
     <g id="line2d_141">
      <g>
       <use style="stroke:#000000;stroke-width:0.6;" x="765.160965" xlink:href="#m8e06169ff5" y="162.018125"/>
      </g>
     </g>
    </g>
    <g id="xtick_129">
     <g id="line2d_142">
      <g>
       <use style="stroke:#000000;stroke-width:0.6;" x="770.631333" xlink:href="#m8e06169ff5" y="162.018125"/>
      </g>
     </g>
    </g>
    <g id="xtick_130">
     <g id="line2d_143">
      <g>
       <use style="stroke:#000000;stroke-width:0.6;" x="776.101702" xlink:href="#m8e06169ff5" y="162.018125"/>
      </g>
     </g>
    </g>
    <g id="xtick_131">
     <g id="line2d_144">
      <g>
       <use style="stroke:#000000;stroke-width:0.6;" x="781.57207" xlink:href="#m8e06169ff5" y="162.018125"/>
      </g>
     </g>
    </g>
    <g id="xtick_132">
     <g id="line2d_145">
      <g>
       <use style="stroke:#000000;stroke-width:0.6;" x="787.042438" xlink:href="#m8e06169ff5" y="162.018125"/>
      </g>
     </g>
    </g>
    <g id="xtick_133">
     <g id="line2d_146">
      <g>
       <use style="stroke:#000000;stroke-width:0.6;" x="792.512806" xlink:href="#m8e06169ff5" y="162.018125"/>
      </g>
     </g>
    </g>
    <g id="xtick_134">
     <g id="line2d_147">
      <g>
       <use style="stroke:#000000;stroke-width:0.6;" x="797.983174" xlink:href="#m8e06169ff5" y="162.018125"/>
      </g>
     </g>
    </g>
    <g id="xtick_135">
     <g id="line2d_148">
      <g>
       <use style="stroke:#000000;stroke-width:0.6;" x="803.453542" xlink:href="#m8e06169ff5" y="162.018125"/>
      </g>
     </g>
    </g>
    <g id="xtick_136">
     <g id="line2d_149">
      <g>
       <use style="stroke:#000000;stroke-width:0.6;" x="808.923911" xlink:href="#m8e06169ff5" y="162.018125"/>
      </g>
     </g>
    </g>
    <g id="xtick_137">
     <g id="line2d_150">
      <g>
       <use style="stroke:#000000;stroke-width:0.6;" x="814.394279" xlink:href="#m8e06169ff5" y="162.018125"/>
      </g>
     </g>
    </g>
    <g id="xtick_138">
     <g id="line2d_151">
      <g>
       <use style="stroke:#000000;stroke-width:0.6;" x="819.864647" xlink:href="#m8e06169ff5" y="162.018125"/>
      </g>
     </g>
    </g>
    <g id="xtick_139">
     <g id="line2d_152">
      <g>
       <use style="stroke:#000000;stroke-width:0.6;" x="825.335015" xlink:href="#m8e06169ff5" y="162.018125"/>
      </g>
     </g>
    </g>
    <g id="xtick_140">
     <g id="line2d_153">
      <g>
       <use style="stroke:#000000;stroke-width:0.6;" x="830.805383" xlink:href="#m8e06169ff5" y="162.018125"/>
      </g>
     </g>
    </g>
    <g id="xtick_141">
     <g id="line2d_154">
      <g>
       <use style="stroke:#000000;stroke-width:0.6;" x="836.275751" xlink:href="#m8e06169ff5" y="162.018125"/>
      </g>
     </g>
    </g>
    <g id="xtick_142">
     <g id="line2d_155">
      <g>
       <use style="stroke:#000000;stroke-width:0.6;" x="841.746119" xlink:href="#m8e06169ff5" y="162.018125"/>
      </g>
     </g>
    </g>
    <g id="xtick_143">
     <g id="line2d_156">
      <g>
       <use style="stroke:#000000;stroke-width:0.6;" x="847.216488" xlink:href="#m8e06169ff5" y="162.018125"/>
      </g>
     </g>
    </g>
    <g id="xtick_144">
     <g id="line2d_157">
      <g>
       <use style="stroke:#000000;stroke-width:0.6;" x="852.686856" xlink:href="#m8e06169ff5" y="162.018125"/>
      </g>
     </g>
    </g>
    <g id="xtick_145">
     <g id="line2d_158">
      <g>
       <use style="stroke:#000000;stroke-width:0.6;" x="858.157224" xlink:href="#m8e06169ff5" y="162.018125"/>
      </g>
     </g>
    </g>
    <g id="xtick_146">
     <g id="line2d_159">
      <g>
       <use style="stroke:#000000;stroke-width:0.6;" x="863.627592" xlink:href="#m8e06169ff5" y="162.018125"/>
      </g>
     </g>
    </g>
    <g id="xtick_147">
     <g id="line2d_160">
      <g>
       <use style="stroke:#000000;stroke-width:0.6;" x="869.09796" xlink:href="#m8e06169ff5" y="162.018125"/>
      </g>
     </g>
    </g>
    <g id="xtick_148">
     <g id="line2d_161">
      <g>
       <use style="stroke:#000000;stroke-width:0.6;" x="874.568328" xlink:href="#m8e06169ff5" y="162.018125"/>
      </g>
     </g>
    </g>
    <g id="xtick_149">
     <g id="line2d_162">
      <g>
       <use style="stroke:#000000;stroke-width:0.6;" x="880.038696" xlink:href="#m8e06169ff5" y="162.018125"/>
      </g>
     </g>
    </g>
    <g id="xtick_150">
     <g id="line2d_163">
      <g>
       <use style="stroke:#000000;stroke-width:0.6;" x="885.509065" xlink:href="#m8e06169ff5" y="162.018125"/>
      </g>
     </g>
    </g>
    <g id="xtick_151">
     <g id="line2d_164">
      <g>
       <use style="stroke:#000000;stroke-width:0.6;" x="890.979433" xlink:href="#m8e06169ff5" y="162.018125"/>
      </g>
     </g>
    </g>
    <g id="xtick_152">
     <g id="line2d_165">
      <g>
       <use style="stroke:#000000;stroke-width:0.6;" x="896.449801" xlink:href="#m8e06169ff5" y="162.018125"/>
      </g>
     </g>
    </g>
    <g id="xtick_153">
     <g id="line2d_166">
      <g>
       <use style="stroke:#000000;stroke-width:0.6;" x="901.920169" xlink:href="#m8e06169ff5" y="162.018125"/>
      </g>
     </g>
    </g>
   </g>
   <g id="matplotlib.axis_6">
    <g id="ytick_12">
     <g id="line2d_167">
      <g>
       <use style="stroke:#000000;stroke-width:0.8;" x="676.853594" xlink:href="#m8cf893ac3c" y="162.018125"/>
      </g>
     </g>
     <g id="text_46">
      <!-- 0.00 -->
      <g transform="translate(646.474688 166.007305)scale(0.105 -0.105)">
       <defs>
        <path d="M 10.6875 12.40625 
L 21 12.40625 
L 21 0 
L 10.6875 0 
z
" id="DejaVuSans-46"/>
       </defs>
       <use xlink:href="#DejaVuSans-48"/>
       <use x="63.623047" xlink:href="#DejaVuSans-46"/>
       <use x="95.410156" xlink:href="#DejaVuSans-48"/>
       <use x="159.033203" xlink:href="#DejaVuSans-48"/>
      </g>
     </g>
    </g>
    <g id="ytick_13">
     <g id="line2d_168">
      <g>
       <use style="stroke:#000000;stroke-width:0.8;" x="676.853594" xlink:href="#m8cf893ac3c" y="127.093125"/>
      </g>
     </g>
     <g id="text_47">
      <!-- 0.02 -->
      <g transform="translate(646.474688 131.082305)scale(0.105 -0.105)">
       <use xlink:href="#DejaVuSans-48"/>
       <use x="63.623047" xlink:href="#DejaVuSans-46"/>
       <use x="95.410156" xlink:href="#DejaVuSans-48"/>
       <use x="159.033203" xlink:href="#DejaVuSans-50"/>
      </g>
     </g>
    </g>
    <g id="ytick_14">
     <g id="line2d_169">
      <g>
       <use style="stroke:#000000;stroke-width:0.8;" x="676.853594" xlink:href="#m8cf893ac3c" y="92.168125"/>
      </g>
     </g>
     <g id="text_48">
      <!-- 0.04 -->
      <g transform="translate(646.474688 96.157305)scale(0.105 -0.105)">
       <use xlink:href="#DejaVuSans-48"/>
       <use x="63.623047" xlink:href="#DejaVuSans-46"/>
       <use x="95.410156" xlink:href="#DejaVuSans-48"/>
       <use x="159.033203" xlink:href="#DejaVuSans-52"/>
      </g>
     </g>
    </g>
    <g id="ytick_15">
     <g id="line2d_170">
      <g>
       <use style="stroke:#000000;stroke-width:0.8;" x="676.853594" xlink:href="#m8cf893ac3c" y="57.243125"/>
      </g>
     </g>
     <g id="text_49">
      <!-- 0.06 -->
      <g transform="translate(646.474688 61.232305)scale(0.105 -0.105)">
       <use xlink:href="#DejaVuSans-48"/>
       <use x="63.623047" xlink:href="#DejaVuSans-46"/>
       <use x="95.410156" xlink:href="#DejaVuSans-48"/>
       <use x="159.033203" xlink:href="#DejaVuSans-54"/>
      </g>
     </g>
    </g>
    <g id="ytick_16">
     <g id="line2d_171">
      <g>
       <use style="stroke:#000000;stroke-width:0.8;" x="676.853594" xlink:href="#m8cf893ac3c" y="22.318125"/>
      </g>
     </g>
     <g id="text_50">
      <!-- 0.08 -->
      <g transform="translate(646.474688 26.307305)scale(0.105 -0.105)">
       <use xlink:href="#DejaVuSans-48"/>
       <use x="63.623047" xlink:href="#DejaVuSans-46"/>
       <use x="95.410156" xlink:href="#DejaVuSans-48"/>
       <use x="159.033203" xlink:href="#DejaVuSans-56"/>
      </g>
     </g>
    </g>
    <g id="text_51">
     <!-- Ratio -->
     <g transform="translate(640.083047 106.927656)rotate(-90)scale(0.115 -0.115)">
      <defs>
       <path d="M 44.390625 34.1875 
Q 47.5625 33.109375 50.5625 29.59375 
Q 53.5625 26.078125 56.59375 19.921875 
L 66.609375 0 
L 56 0 
L 46.6875 18.703125 
Q 43.0625 26.03125 39.671875 28.421875 
Q 36.28125 30.8125 30.421875 30.8125 
L 19.671875 30.8125 
L 19.671875 0 
L 9.8125 0 
L 9.8125 72.90625 
L 32.078125 72.90625 
Q 44.578125 72.90625 50.734375 67.671875 
Q 56.890625 62.453125 56.890625 51.90625 
Q 56.890625 45.015625 53.6875 40.46875 
Q 50.484375 35.9375 44.390625 34.1875 
z
M 19.671875 64.796875 
L 19.671875 38.921875 
L 32.078125 38.921875 
Q 39.203125 38.921875 42.84375 42.21875 
Q 46.484375 45.515625 46.484375 51.90625 
Q 46.484375 58.296875 42.84375 61.546875 
Q 39.203125 64.796875 32.078125 64.796875 
z
" id="DejaVuSans-82"/>
       <path d="M 9.421875 54.6875 
L 18.40625 54.6875 
L 18.40625 0 
L 9.421875 0 
z
M 9.421875 75.984375 
L 18.40625 75.984375 
L 18.40625 64.59375 
L 9.421875 64.59375 
z
" id="DejaVuSans-105"/>
      </defs>
      <use xlink:href="#DejaVuSans-82"/>
      <use x="67.232422" xlink:href="#DejaVuSans-97"/>
      <use x="128.511719" xlink:href="#DejaVuSans-116"/>
      <use x="167.720703" xlink:href="#DejaVuSans-105"/>
      <use x="195.503906" xlink:href="#DejaVuSans-111"/>
     </g>
    </g>
   </g>
   <g id="line2d_172">
    <path clip-path="url(#p18a5437b26)" d="M 676.853594 139.104256 
L 677.635075 131.743942 
L 678.416556 133.831408 
L 679.198037 135.258215 
L 679.979518 137.193231 
L 680.761 140.029232 
L 681.542481 140.915406 
L 682.323962 140.06407 
L 683.105443 140.333892 
L 683.886924 137.064357 
L 684.668405 134.929662 
L 685.449887 133.349048 
L 686.231368 130.208387 
L 687.012849 126.050274 
L 687.79433 124.661986 
L 688.575811 120.983378 
L 690.138774 110.047406 
L 690.920255 103.342361 
L 692.483217 96.391447 
L 693.264698 88.675373 
L 694.046179 83.766417 
L 694.827661 76.244171 
L 695.609142 70.31621 
L 696.390623 66.81989 
L 697.172104 56.692038 
L 697.953585 52.494678 
L 698.735066 52.32998 
L 699.516548 53.211862 
L 700.298029 42.327643 
L 701.07951 37.77886 
L 701.860991 34.5833 
L 702.642472 37.695514 
L 703.423953 37.753177 
L 704.205435 28.933655 
L 704.986916 23.916703 
L 705.768397 27.48001 
L 706.549878 30.212132 
L 707.331359 33.562018 
L 708.11284 31.573901 
L 708.894321 31.583552 
L 709.675803 43.392227 
L 710.457284 44.943823 
L 711.238765 48.514398 
L 712.020246 43.244366 
L 712.801727 39.029166 
L 713.583208 44.082714 
L 714.36469 45.255198 
L 715.146171 42.824984 
L 715.927652 45.675251 
L 716.709133 43.581164 
L 717.490614 40.862131 
L 718.272095 40.714765 
L 719.835058 35.794955 
L 720.616539 37.26912 
L 721.39802 34.937726 
L 722.960982 49.057327 
L 723.742464 51.268804 
L 724.523945 51.676414 
L 725.305426 54.991486 
L 726.086907 54.793932 
L 726.868388 56.37746 
L 727.649869 57.020853 
L 728.431351 60.22126 
L 729.212832 64.546181 
L 729.994313 66.517993 
L 730.775794 65.636798 
L 732.338756 71.095287 
L 733.120238 79.605185 
L 734.6832 79.790666 
L 735.464681 80.143928 
L 736.246162 83.542674 
L 737.027643 83.457266 
L 737.809125 84.917572 
L 738.590606 78.887018 
L 739.372087 83.191884 
L 740.153568 85.131937 
L 740.935049 88.897663 
L 741.71653 89.670387 
L 742.498012 91.209364 
L 743.279493 90.279103 
L 744.060974 93.330097 
L 745.623936 96.380261 
L 746.405417 98.907902 
L 747.96838 102.450478 
L 748.749861 104.817857 
L 749.531342 109.117201 
L 750.312823 111.792308 
L 751.094304 115.074512 
L 751.875786 116.728007 
L 752.657267 119.932007 
L 753.438748 122.081321 
L 754.220229 124.607115 
L 755.00171 126.072469 
L 755.783191 128.135494 
L 756.564673 130.531154 
L 757.346154 133.285672 
L 758.127635 122.000784 
L 758.909116 124.003292 
L 759.690597 125.609643 
L 760.472078 124.131235 
L 761.25356 126.193348 
L 762.816522 128.783106 
L 763.598003 140.296028 
L 764.379484 140.613868 
L 765.160965 141.22348 
L 765.942446 143.709322 
L 766.723928 143.405391 
L 767.505409 142.454994 
L 768.28689 141.997355 
L 769.068371 140.970454 
L 769.849852 140.783541 
L 770.631333 141.054299 
L 771.412815 141.668738 
L 772.194296 141.862018 
L 772.975777 142.919729 
L 773.757258 142.75934 
L 774.538739 142.108901 
L 775.32022 142.48485 
L 776.101702 142.29644 
L 777.664664 141.471294 
L 779.227626 139.218744 
L 780.009107 140.053431 
L 780.790589 139.606028 
L 781.57207 134.840274 
L 782.353551 137.274783 
L 783.135032 132.318634 
L 783.916513 131.769027 
L 784.697994 130.328169 
L 785.479476 128.224733 
L 786.260957 127.487365 
L 787.042438 131.267407 
L 787.823919 126.093012 
L 788.6054 129.399798 
L 789.386881 128.203151 
L 790.949844 128.159616 
L 791.731325 127.379529 
L 793.294287 127.325474 
L 794.075768 126.584652 
L 794.85725 126.514584 
L 795.638731 127.001778 
L 796.420212 125.989887 
L 797.201693 125.459107 
L 797.983174 125.089875 
L 798.764655 124.179561 
L 799.546137 123.884851 
L 800.327618 123.18688 
L 801.109099 122.037944 
L 801.89058 122.133446 
L 803.453542 121.737244 
L 804.235024 121.856198 
L 805.016505 121.026539 
L 805.797986 121.373404 
L 806.579467 121.951723 
L 807.360948 122.056763 
L 808.142429 122.550509 
L 808.923911 122.105715 
L 809.705392 123.146986 
L 810.486873 124.910711 
L 811.268354 124.858325 
L 812.049835 125.760149 
L 812.831316 126.417609 
L 813.612798 126.229512 
L 814.394279 126.472085 
L 815.17576 128.642359 
L 815.957241 127.16646 
L 816.738722 126.137302 
L 817.520203 124.552993 
L 818.301685 124.984428 
L 819.083166 125.566466 
L 819.864647 125.505362 
L 820.646128 123.333689 
L 821.427609 124.381322 
L 822.20909 126.876707 
L 822.990571 128.244121 
L 823.772053 128.657854 
L 824.553534 129.34182 
L 825.335015 130.520972 
L 826.116496 132.410359 
L 826.897977 132.219139 
L 827.679458 131.609992 
L 828.46094 132.490738 
L 830.023902 132.785303 
L 831.586864 131.287394 
L 832.368345 132.617228 
L 833.149827 133.173145 
L 833.931308 132.914759 
L 834.712789 133.546978 
L 835.49427 133.277587 
L 836.275751 134.984782 
L 837.057232 134.65994 
L 837.838714 135.641597 
L 838.620195 136.383072 
L 839.401676 136.508772 
L 840.183157 137.321001 
L 841.746119 136.369877 
L 842.527601 137.975502 
L 843.309082 139.845814 
L 844.090563 139.371348 
L 844.872044 140.156574 
L 845.653525 140.132427 
L 846.435006 140.945188 
L 847.997969 140.366392 
L 848.77945 138.249575 
L 849.560931 139.646868 
L 850.342412 139.874931 
L 851.123893 141.027913 
L 851.905375 141.74642 
L 852.686856 141.72392 
L 853.468337 142.249696 
L 854.249818 143.848991 
L 855.031299 144.057745 
L 855.81278 144.695402 
L 856.594262 144.037685 
L 857.375743 144.515979 
L 858.157224 145.386482 
L 858.938705 144.992997 
L 859.720186 145.152957 
L 862.846111 146.830544 
L 863.627592 146.837001 
L 864.409073 147.646685 
L 865.190554 147.578402 
L 865.972036 148.657517 
L 866.753517 148.646569 
L 868.316479 148.923817 
L 869.09796 149.54518 
L 869.879441 149.379624 
L 870.660923 148.973911 
L 871.442404 147.31001 
L 872.223885 147.092712 
L 873.005366 147.981336 
L 873.786847 146.905054 
L 874.568328 146.119955 
L 875.34981 145.794116 
L 876.131291 145.613157 
L 876.912772 145.915374 
L 877.694253 146.662605 
L 878.475734 145.788924 
L 879.257215 146.426537 
L 880.038696 146.187839 
L 881.601659 145.350684 
L 882.38314 144.622017 
L 883.164621 143.282207 
L 883.946102 142.454164 
L 884.727583 142.674482 
L 886.290546 143.60574 
L 887.072027 143.2929 
L 887.853508 143.311114 
L 888.634989 142.527023 
L 889.41647 142.49179 
L 890.197952 142.2346 
L 890.979433 142.103054 
L 891.760914 141.226678 
L 893.323876 140.523741 
L 894.105357 141.585685 
L 894.886839 141.189123 
L 895.66832 141.051487 
L 896.449801 143.539639 
L 897.231282 142.498412 
L 898.012763 143.37299 
L 899.575726 142.389986 
L 900.357207 143.847769 
L 901.138688 143.657183 
L 901.920169 138.550419 
L 902.70165 139.733346 
L 903.483131 139.164816 
L 904.264613 139.323785 
L 905.046094 139.281985 
L 905.046094 139.281985 
" style="fill:none;stroke:#1f77b4;stroke-linecap:square;stroke-width:1.5;"/>
   </g>
   <g id="patch_19">
    <path d="M 676.853594 162.018125 
L 676.853594 22.318125 
" style="fill:none;stroke:#000000;stroke-linecap:square;stroke-linejoin:miter;stroke-width:0.8;"/>
   </g>
   <g id="patch_20">
    <path d="M 905.046094 162.018125 
L 905.046094 22.318125 
" style="fill:none;stroke:#000000;stroke-linecap:square;stroke-linejoin:miter;stroke-width:0.8;"/>
   </g>
   <g id="patch_21">
    <path d="M 676.853594 162.018125 
L 905.046094 162.018125 
" style="fill:none;stroke:#000000;stroke-linecap:square;stroke-linejoin:miter;stroke-width:0.8;"/>
   </g>
   <g id="patch_22">
    <path d="M 676.853594 22.318125 
L 905.046094 22.318125 
" style="fill:none;stroke:#000000;stroke-linecap:square;stroke-linejoin:miter;stroke-width:0.8;"/>
   </g>
   <g id="text_52">
    <!-- CFR -->
    <g transform="translate(779.140156 16.318125)scale(0.12 -0.12)">
     <defs>
      <path d="M 9.8125 72.90625 
L 51.703125 72.90625 
L 51.703125 64.59375 
L 19.671875 64.59375 
L 19.671875 43.109375 
L 48.578125 43.109375 
L 48.578125 34.8125 
L 19.671875 34.8125 
L 19.671875 0 
L 9.8125 0 
z
" id="DejaVuSans-70"/>
     </defs>
     <use xlink:href="#DejaVuSans-67"/>
     <use x="69.824219" xlink:href="#DejaVuSans-70"/>
     <use x="127.34375" xlink:href="#DejaVuSans-82"/>
    </g>
   </g>
  </g>
 </g>
 <defs>
  <clipPath id="pff173b5bb5">
   <rect height="139.7" width="228.1925" x="69.413594" y="22.318125"/>
  </clipPath>
  <clipPath id="p5d460c379c">
   <rect height="139.7" width="228.1925" x="373.133594" y="22.318125"/>
  </clipPath>
  <clipPath id="p18a5437b26">
   <rect height="139.7" width="228.1925" x="676.853594" y="22.318125"/>
  </clipPath>
 </defs>
</svg>
