<?xml version="1.0" standalone="no"?>
<!DOCTYPE svg PUBLIC "-//W3C//DTD SVG 20010904//EN"
 "http://www.w3.org/TR/2001/REC-SVG-20010904/DTD/svg10.dtd">
<svg version="1.0" xmlns="http://www.w3.org/2000/svg"
 width="520.000000pt" height="520.000000pt" viewBox="0 0 520.000000 520.000000"
 preserveAspectRatio="xMidYMid meet">
<metadata>
Created by potrace 1.11, written by Peter Selinger 2001-2013
</metadata>
<g transform="translate(0.000000,520.000000) scale(0.100000,-0.100000)"
fill="#000000" stroke="none">
<path d="M461 5084 c-177 -47 -319 -200 -351 -374 -7 -37 -9 -777 -8 -2145 l3
-2090 22 -57 c53 -138 155 -239 298 -293 11 -5 27 -11 35 -14 8 -3 962 -7
2120 -8 l2105 -3 69 21 c166 50 277 164 334 344 12 37 13 4195 1 4253 -35 171
-177 320 -350 366 -81 22 -4197 22 -4278 0z"/>
</g>
</svg>
