<?xml version="1.0" encoding="utf-8" standalone="no"?>
<!DOCTYPE svg PUBLIC "-//W3C//DTD SVG 1.1//EN"
  "http://www.w3.org/Graphics/SVG/1.1/DTD/svg11.dtd">
<!-- Created with matplotlib (https://matplotlib.org/) -->
<svg height="239.364523pt" version="1.1" viewBox="0 0 915.308594 239.364523" width="915.308594pt" xmlns="http://www.w3.org/2000/svg" xmlns:xlink="http://www.w3.org/1999/xlink">
 <metadata>
  <rdf:RDF xmlns:cc="http://creativecommons.org/ns#" xmlns:dc="http://purl.org/dc/elements/1.1/" xmlns:rdf="http://www.w3.org/1999/02/22-rdf-syntax-ns#">
   <cc:Work>
    <dc:type rdf:resource="http://purl.org/dc/dcmitype/StillImage"/>
    <dc:date>2021-01-18T09:21:40.733074</dc:date>
    <dc:format>image/svg+xml</dc:format>
    <dc:creator>
     <cc:Agent>
      <dc:title>Matplotlib v3.3.1, https://matplotlib.org/</dc:title>
     </cc:Agent>
    </dc:creator>
   </cc:Work>
  </rdf:RDF>
 </metadata>
 <defs>
  <style type="text/css">*{stroke-linecap:butt;stroke-linejoin:round;}</style>
 </defs>
 <g id="figure_1">
  <g id="patch_1">
   <path d="M 0 239.364523 
L 915.308594 239.364523 
L 915.308594 0 
L 0 0 
z
" style="fill:none;"/>
  </g>
  <g id="axes_1">
   <g id="patch_2">
    <path d="M 69.413594 179.298125 
L 311.918594 179.298125 
L 311.918594 22.318125 
L 69.413594 22.318125 
z
" style="fill:#ffffff;"/>
   </g>
   <g id="matplotlib.axis_1">
    <g id="xtick_1">
     <g id="line2d_1">
      <defs>
       <path d="M 0 0 
L 0 3.5 
" id="m50f2f3b43d" style="stroke:#000000;stroke-width:0.8;"/>
      </defs>
      <g>
       <use style="stroke:#000000;stroke-width:0.8;" x="69.413594" xlink:href="#m50f2f3b43d" y="179.298125"/>
      </g>
     </g>
     <g id="text_1">
      <!-- 2020-04 -->
      <g transform="translate(30.327532 215.143563)rotate(-30)scale(0.105 -0.105)">
       <defs>
        <path d="M 19.1875 8.296875 
L 53.609375 8.296875 
L 53.609375 0 
L 7.328125 0 
L 7.328125 8.296875 
Q 12.9375 14.109375 22.625 23.890625 
Q 32.328125 33.6875 34.8125 36.53125 
Q 39.546875 41.84375 41.421875 45.53125 
Q 43.3125 49.21875 43.3125 52.78125 
Q 43.3125 58.59375 39.234375 62.25 
Q 35.15625 65.921875 28.609375 65.921875 
Q 23.96875 65.921875 18.8125 64.3125 
Q 13.671875 62.703125 7.8125 59.421875 
L 7.8125 69.390625 
Q 13.765625 71.78125 18.9375 73 
Q 24.125 74.21875 28.421875 74.21875 
Q 39.75 74.21875 46.484375 68.546875 
Q 53.21875 62.890625 53.21875 53.421875 
Q 53.21875 48.921875 51.53125 44.890625 
Q 49.859375 40.875 45.40625 35.40625 
Q 44.1875 33.984375 37.640625 27.21875 
Q 31.109375 20.453125 19.1875 8.296875 
z
" id="DejaVuSans-50"/>
        <path d="M 31.78125 66.40625 
Q 24.171875 66.40625 20.328125 58.90625 
Q 16.5 51.421875 16.5 36.375 
Q 16.5 21.390625 20.328125 13.890625 
Q 24.171875 6.390625 31.78125 6.390625 
Q 39.453125 6.390625 43.28125 13.890625 
Q 47.125 21.390625 47.125 36.375 
Q 47.125 51.421875 43.28125 58.90625 
Q 39.453125 66.40625 31.78125 66.40625 
z
M 31.78125 74.21875 
Q 44.046875 74.21875 50.515625 64.515625 
Q 56.984375 54.828125 56.984375 36.375 
Q 56.984375 17.96875 50.515625 8.265625 
Q 44.046875 -1.421875 31.78125 -1.421875 
Q 19.53125 -1.421875 13.0625 8.265625 
Q 6.59375 17.96875 6.59375 36.375 
Q 6.59375 54.828125 13.0625 64.515625 
Q 19.53125 74.21875 31.78125 74.21875 
z
" id="DejaVuSans-48"/>
        <path d="M 4.890625 31.390625 
L 31.203125 31.390625 
L 31.203125 23.390625 
L 4.890625 23.390625 
z
" id="DejaVuSans-45"/>
        <path d="M 37.796875 64.3125 
L 12.890625 25.390625 
L 37.796875 25.390625 
z
M 35.203125 72.90625 
L 47.609375 72.90625 
L 47.609375 25.390625 
L 58.015625 25.390625 
L 58.015625 17.1875 
L 47.609375 17.1875 
L 47.609375 0 
L 37.796875 0 
L 37.796875 17.1875 
L 4.890625 17.1875 
L 4.890625 26.703125 
z
" id="DejaVuSans-52"/>
       </defs>
       <use xlink:href="#DejaVuSans-50"/>
       <use x="63.623047" xlink:href="#DejaVuSans-48"/>
       <use x="127.246094" xlink:href="#DejaVuSans-50"/>
       <use x="190.869141" xlink:href="#DejaVuSans-48"/>
       <use x="254.492188" xlink:href="#DejaVuSans-45"/>
       <use x="290.576172" xlink:href="#DejaVuSans-48"/>
       <use x="354.199219" xlink:href="#DejaVuSans-52"/>
      </g>
     </g>
    </g>
    <g id="xtick_2">
     <g id="line2d_2">
      <g>
       <use style="stroke:#000000;stroke-width:0.8;" x="99.229782" xlink:href="#m50f2f3b43d" y="179.298125"/>
      </g>
     </g>
     <g id="text_2">
      <!-- 2020-05 -->
      <g transform="translate(60.14372 215.143563)rotate(-30)scale(0.105 -0.105)">
       <defs>
        <path d="M 10.796875 72.90625 
L 49.515625 72.90625 
L 49.515625 64.59375 
L 19.828125 64.59375 
L 19.828125 46.734375 
Q 21.96875 47.46875 24.109375 47.828125 
Q 26.265625 48.1875 28.421875 48.1875 
Q 40.625 48.1875 47.75 41.5 
Q 54.890625 34.8125 54.890625 23.390625 
Q 54.890625 11.625 47.5625 5.09375 
Q 40.234375 -1.421875 26.90625 -1.421875 
Q 22.3125 -1.421875 17.546875 -0.640625 
Q 12.796875 0.140625 7.71875 1.703125 
L 7.71875 11.625 
Q 12.109375 9.234375 16.796875 8.0625 
Q 21.484375 6.890625 26.703125 6.890625 
Q 35.15625 6.890625 40.078125 11.328125 
Q 45.015625 15.765625 45.015625 23.390625 
Q 45.015625 31 40.078125 35.4375 
Q 35.15625 39.890625 26.703125 39.890625 
Q 22.75 39.890625 18.8125 39.015625 
Q 14.890625 38.140625 10.796875 36.28125 
z
" id="DejaVuSans-53"/>
       </defs>
       <use xlink:href="#DejaVuSans-50"/>
       <use x="63.623047" xlink:href="#DejaVuSans-48"/>
       <use x="127.246094" xlink:href="#DejaVuSans-50"/>
       <use x="190.869141" xlink:href="#DejaVuSans-48"/>
       <use x="254.492188" xlink:href="#DejaVuSans-45"/>
       <use x="290.576172" xlink:href="#DejaVuSans-48"/>
       <use x="354.199219" xlink:href="#DejaVuSans-53"/>
      </g>
     </g>
    </g>
    <g id="xtick_3">
     <g id="line2d_3">
      <g>
       <use style="stroke:#000000;stroke-width:0.8;" x="130.039844" xlink:href="#m50f2f3b43d" y="179.298125"/>
      </g>
     </g>
     <g id="text_3">
      <!-- 2020-06 -->
      <g transform="translate(90.953782 215.143563)rotate(-30)scale(0.105 -0.105)">
       <defs>
        <path d="M 33.015625 40.375 
Q 26.375 40.375 22.484375 35.828125 
Q 18.609375 31.296875 18.609375 23.390625 
Q 18.609375 15.53125 22.484375 10.953125 
Q 26.375 6.390625 33.015625 6.390625 
Q 39.65625 6.390625 43.53125 10.953125 
Q 47.40625 15.53125 47.40625 23.390625 
Q 47.40625 31.296875 43.53125 35.828125 
Q 39.65625 40.375 33.015625 40.375 
z
M 52.59375 71.296875 
L 52.59375 62.3125 
Q 48.875 64.0625 45.09375 64.984375 
Q 41.3125 65.921875 37.59375 65.921875 
Q 27.828125 65.921875 22.671875 59.328125 
Q 17.53125 52.734375 16.796875 39.40625 
Q 19.671875 43.65625 24.015625 45.921875 
Q 28.375 48.1875 33.59375 48.1875 
Q 44.578125 48.1875 50.953125 41.515625 
Q 57.328125 34.859375 57.328125 23.390625 
Q 57.328125 12.15625 50.6875 5.359375 
Q 44.046875 -1.421875 33.015625 -1.421875 
Q 20.359375 -1.421875 13.671875 8.265625 
Q 6.984375 17.96875 6.984375 36.375 
Q 6.984375 53.65625 15.1875 63.9375 
Q 23.390625 74.21875 37.203125 74.21875 
Q 40.921875 74.21875 44.703125 73.484375 
Q 48.484375 72.75 52.59375 71.296875 
z
" id="DejaVuSans-54"/>
       </defs>
       <use xlink:href="#DejaVuSans-50"/>
       <use x="63.623047" xlink:href="#DejaVuSans-48"/>
       <use x="127.246094" xlink:href="#DejaVuSans-50"/>
       <use x="190.869141" xlink:href="#DejaVuSans-48"/>
       <use x="254.492188" xlink:href="#DejaVuSans-45"/>
       <use x="290.576172" xlink:href="#DejaVuSans-48"/>
       <use x="354.199219" xlink:href="#DejaVuSans-54"/>
      </g>
     </g>
    </g>
    <g id="xtick_4">
     <g id="line2d_4">
      <g>
       <use style="stroke:#000000;stroke-width:0.8;" x="159.856032" xlink:href="#m50f2f3b43d" y="179.298125"/>
      </g>
     </g>
     <g id="text_4">
      <!-- 2020-07 -->
      <g transform="translate(120.76997 215.143563)rotate(-30)scale(0.105 -0.105)">
       <defs>
        <path d="M 8.203125 72.90625 
L 55.078125 72.90625 
L 55.078125 68.703125 
L 28.609375 0 
L 18.3125 0 
L 43.21875 64.59375 
L 8.203125 64.59375 
z
" id="DejaVuSans-55"/>
       </defs>
       <use xlink:href="#DejaVuSans-50"/>
       <use x="63.623047" xlink:href="#DejaVuSans-48"/>
       <use x="127.246094" xlink:href="#DejaVuSans-50"/>
       <use x="190.869141" xlink:href="#DejaVuSans-48"/>
       <use x="254.492188" xlink:href="#DejaVuSans-45"/>
       <use x="290.576172" xlink:href="#DejaVuSans-48"/>
       <use x="354.199219" xlink:href="#DejaVuSans-55"/>
      </g>
     </g>
    </g>
    <g id="xtick_5">
     <g id="line2d_5">
      <g>
       <use style="stroke:#000000;stroke-width:0.8;" x="190.666094" xlink:href="#m50f2f3b43d" y="179.298125"/>
      </g>
     </g>
     <g id="text_5">
      <!-- 2020-08 -->
      <g transform="translate(151.580032 215.143563)rotate(-30)scale(0.105 -0.105)">
       <defs>
        <path d="M 31.78125 34.625 
Q 24.75 34.625 20.71875 30.859375 
Q 16.703125 27.09375 16.703125 20.515625 
Q 16.703125 13.921875 20.71875 10.15625 
Q 24.75 6.390625 31.78125 6.390625 
Q 38.8125 6.390625 42.859375 10.171875 
Q 46.921875 13.96875 46.921875 20.515625 
Q 46.921875 27.09375 42.890625 30.859375 
Q 38.875 34.625 31.78125 34.625 
z
M 21.921875 38.8125 
Q 15.578125 40.375 12.03125 44.71875 
Q 8.5 49.078125 8.5 55.328125 
Q 8.5 64.0625 14.71875 69.140625 
Q 20.953125 74.21875 31.78125 74.21875 
Q 42.671875 74.21875 48.875 69.140625 
Q 55.078125 64.0625 55.078125 55.328125 
Q 55.078125 49.078125 51.53125 44.71875 
Q 48 40.375 41.703125 38.8125 
Q 48.828125 37.15625 52.796875 32.3125 
Q 56.78125 27.484375 56.78125 20.515625 
Q 56.78125 9.90625 50.3125 4.234375 
Q 43.84375 -1.421875 31.78125 -1.421875 
Q 19.734375 -1.421875 13.25 4.234375 
Q 6.78125 9.90625 6.78125 20.515625 
Q 6.78125 27.484375 10.78125 32.3125 
Q 14.796875 37.15625 21.921875 38.8125 
z
M 18.3125 54.390625 
Q 18.3125 48.734375 21.84375 45.5625 
Q 25.390625 42.390625 31.78125 42.390625 
Q 38.140625 42.390625 41.71875 45.5625 
Q 45.3125 48.734375 45.3125 54.390625 
Q 45.3125 60.0625 41.71875 63.234375 
Q 38.140625 66.40625 31.78125 66.40625 
Q 25.390625 66.40625 21.84375 63.234375 
Q 18.3125 60.0625 18.3125 54.390625 
z
" id="DejaVuSans-56"/>
       </defs>
       <use xlink:href="#DejaVuSans-50"/>
       <use x="63.623047" xlink:href="#DejaVuSans-48"/>
       <use x="127.246094" xlink:href="#DejaVuSans-50"/>
       <use x="190.869141" xlink:href="#DejaVuSans-48"/>
       <use x="254.492188" xlink:href="#DejaVuSans-45"/>
       <use x="290.576172" xlink:href="#DejaVuSans-48"/>
       <use x="354.199219" xlink:href="#DejaVuSans-56"/>
      </g>
     </g>
    </g>
    <g id="xtick_6">
     <g id="line2d_6">
      <g>
       <use style="stroke:#000000;stroke-width:0.8;" x="221.476155" xlink:href="#m50f2f3b43d" y="179.298125"/>
      </g>
     </g>
     <g id="text_6">
      <!-- 2020-09 -->
      <g transform="translate(182.390093 215.143563)rotate(-30)scale(0.105 -0.105)">
       <defs>
        <path d="M 10.984375 1.515625 
L 10.984375 10.5 
Q 14.703125 8.734375 18.5 7.8125 
Q 22.3125 6.890625 25.984375 6.890625 
Q 35.75 6.890625 40.890625 13.453125 
Q 46.046875 20.015625 46.78125 33.40625 
Q 43.953125 29.203125 39.59375 26.953125 
Q 35.25 24.703125 29.984375 24.703125 
Q 19.046875 24.703125 12.671875 31.3125 
Q 6.296875 37.9375 6.296875 49.421875 
Q 6.296875 60.640625 12.9375 67.421875 
Q 19.578125 74.21875 30.609375 74.21875 
Q 43.265625 74.21875 49.921875 64.515625 
Q 56.59375 54.828125 56.59375 36.375 
Q 56.59375 19.140625 48.40625 8.859375 
Q 40.234375 -1.421875 26.421875 -1.421875 
Q 22.703125 -1.421875 18.890625 -0.6875 
Q 15.09375 0.046875 10.984375 1.515625 
z
M 30.609375 32.421875 
Q 37.25 32.421875 41.125 36.953125 
Q 45.015625 41.5 45.015625 49.421875 
Q 45.015625 57.28125 41.125 61.84375 
Q 37.25 66.40625 30.609375 66.40625 
Q 23.96875 66.40625 20.09375 61.84375 
Q 16.21875 57.28125 16.21875 49.421875 
Q 16.21875 41.5 20.09375 36.953125 
Q 23.96875 32.421875 30.609375 32.421875 
z
" id="DejaVuSans-57"/>
       </defs>
       <use xlink:href="#DejaVuSans-50"/>
       <use x="63.623047" xlink:href="#DejaVuSans-48"/>
       <use x="127.246094" xlink:href="#DejaVuSans-50"/>
       <use x="190.869141" xlink:href="#DejaVuSans-48"/>
       <use x="254.492188" xlink:href="#DejaVuSans-45"/>
       <use x="290.576172" xlink:href="#DejaVuSans-48"/>
       <use x="354.199219" xlink:href="#DejaVuSans-57"/>
      </g>
     </g>
    </g>
    <g id="xtick_7">
     <g id="line2d_7">
      <g>
       <use style="stroke:#000000;stroke-width:0.8;" x="251.292344" xlink:href="#m50f2f3b43d" y="179.298125"/>
      </g>
     </g>
     <g id="text_7">
      <!-- 2020-10 -->
      <g transform="translate(212.206282 215.143563)rotate(-30)scale(0.105 -0.105)">
       <defs>
        <path d="M 12.40625 8.296875 
L 28.515625 8.296875 
L 28.515625 63.921875 
L 10.984375 60.40625 
L 10.984375 69.390625 
L 28.421875 72.90625 
L 38.28125 72.90625 
L 38.28125 8.296875 
L 54.390625 8.296875 
L 54.390625 0 
L 12.40625 0 
z
" id="DejaVuSans-49"/>
       </defs>
       <use xlink:href="#DejaVuSans-50"/>
       <use x="63.623047" xlink:href="#DejaVuSans-48"/>
       <use x="127.246094" xlink:href="#DejaVuSans-50"/>
       <use x="190.869141" xlink:href="#DejaVuSans-48"/>
       <use x="254.492188" xlink:href="#DejaVuSans-45"/>
       <use x="290.576172" xlink:href="#DejaVuSans-49"/>
       <use x="354.199219" xlink:href="#DejaVuSans-48"/>
      </g>
     </g>
    </g>
    <g id="xtick_8">
     <g id="line2d_8">
      <g>
       <use style="stroke:#000000;stroke-width:0.8;" x="282.102405" xlink:href="#m50f2f3b43d" y="179.298125"/>
      </g>
     </g>
     <g id="text_8">
      <!-- 2020-11 -->
      <g transform="translate(243.016343 215.143563)rotate(-30)scale(0.105 -0.105)">
       <use xlink:href="#DejaVuSans-50"/>
       <use x="63.623047" xlink:href="#DejaVuSans-48"/>
       <use x="127.246094" xlink:href="#DejaVuSans-50"/>
       <use x="190.869141" xlink:href="#DejaVuSans-48"/>
       <use x="254.492188" xlink:href="#DejaVuSans-45"/>
       <use x="290.576172" xlink:href="#DejaVuSans-49"/>
       <use x="354.199219" xlink:href="#DejaVuSans-49"/>
      </g>
     </g>
    </g>
    <g id="xtick_9">
     <g id="line2d_9">
      <g>
       <use style="stroke:#000000;stroke-width:0.8;" x="311.918594" xlink:href="#m50f2f3b43d" y="179.298125"/>
      </g>
     </g>
     <g id="text_9">
      <!-- 2020-12 -->
      <g transform="translate(272.832532 215.143563)rotate(-30)scale(0.105 -0.105)">
       <use xlink:href="#DejaVuSans-50"/>
       <use x="63.623047" xlink:href="#DejaVuSans-48"/>
       <use x="127.246094" xlink:href="#DejaVuSans-50"/>
       <use x="190.869141" xlink:href="#DejaVuSans-48"/>
       <use x="254.492188" xlink:href="#DejaVuSans-45"/>
       <use x="290.576172" xlink:href="#DejaVuSans-49"/>
       <use x="354.199219" xlink:href="#DejaVuSans-50"/>
      </g>
     </g>
    </g>
    <g id="xtick_10">
     <g id="line2d_10">
      <defs>
       <path d="M 0 0 
L 0 2 
" id="m6940f7d9ab" style="stroke:#000000;stroke-width:0.6;"/>
      </defs>
      <g>
       <use style="stroke:#000000;stroke-width:0.6;" x="74.382959" xlink:href="#m6940f7d9ab" y="179.298125"/>
      </g>
     </g>
    </g>
    <g id="xtick_11">
     <g id="line2d_11">
      <g>
       <use style="stroke:#000000;stroke-width:0.6;" x="81.340069" xlink:href="#m6940f7d9ab" y="179.298125"/>
      </g>
     </g>
    </g>
    <g id="xtick_12">
     <g id="line2d_12">
      <g>
       <use style="stroke:#000000;stroke-width:0.6;" x="88.29718" xlink:href="#m6940f7d9ab" y="179.298125"/>
      </g>
     </g>
    </g>
    <g id="xtick_13">
     <g id="line2d_13">
      <g>
       <use style="stroke:#000000;stroke-width:0.6;" x="95.25429" xlink:href="#m6940f7d9ab" y="179.298125"/>
      </g>
     </g>
    </g>
    <g id="xtick_14">
     <g id="line2d_14">
      <g>
       <use style="stroke:#000000;stroke-width:0.6;" x="102.211401" xlink:href="#m6940f7d9ab" y="179.298125"/>
      </g>
     </g>
    </g>
    <g id="xtick_15">
     <g id="line2d_15">
      <g>
       <use style="stroke:#000000;stroke-width:0.6;" x="109.168512" xlink:href="#m6940f7d9ab" y="179.298125"/>
      </g>
     </g>
    </g>
    <g id="xtick_16">
     <g id="line2d_16">
      <g>
       <use style="stroke:#000000;stroke-width:0.6;" x="116.125622" xlink:href="#m6940f7d9ab" y="179.298125"/>
      </g>
     </g>
    </g>
    <g id="xtick_17">
     <g id="line2d_17">
      <g>
       <use style="stroke:#000000;stroke-width:0.6;" x="123.082733" xlink:href="#m6940f7d9ab" y="179.298125"/>
      </g>
     </g>
    </g>
    <g id="xtick_18">
     <g id="line2d_18">
      <g>
       <use style="stroke:#000000;stroke-width:0.6;" x="136.996954" xlink:href="#m6940f7d9ab" y="179.298125"/>
      </g>
     </g>
    </g>
    <g id="xtick_19">
     <g id="line2d_19">
      <g>
       <use style="stroke:#000000;stroke-width:0.6;" x="143.954065" xlink:href="#m6940f7d9ab" y="179.298125"/>
      </g>
     </g>
    </g>
    <g id="xtick_20">
     <g id="line2d_20">
      <g>
       <use style="stroke:#000000;stroke-width:0.6;" x="150.911176" xlink:href="#m6940f7d9ab" y="179.298125"/>
      </g>
     </g>
    </g>
    <g id="xtick_21">
     <g id="line2d_21">
      <g>
       <use style="stroke:#000000;stroke-width:0.6;" x="157.868286" xlink:href="#m6940f7d9ab" y="179.298125"/>
      </g>
     </g>
    </g>
    <g id="xtick_22">
     <g id="line2d_22">
      <g>
       <use style="stroke:#000000;stroke-width:0.6;" x="164.825397" xlink:href="#m6940f7d9ab" y="179.298125"/>
      </g>
     </g>
    </g>
    <g id="xtick_23">
     <g id="line2d_23">
      <g>
       <use style="stroke:#000000;stroke-width:0.6;" x="171.782508" xlink:href="#m6940f7d9ab" y="179.298125"/>
      </g>
     </g>
    </g>
    <g id="xtick_24">
     <g id="line2d_24">
      <g>
       <use style="stroke:#000000;stroke-width:0.6;" x="178.739618" xlink:href="#m6940f7d9ab" y="179.298125"/>
      </g>
     </g>
    </g>
    <g id="xtick_25">
     <g id="line2d_25">
      <g>
       <use style="stroke:#000000;stroke-width:0.6;" x="185.696729" xlink:href="#m6940f7d9ab" y="179.298125"/>
      </g>
     </g>
    </g>
    <g id="xtick_26">
     <g id="line2d_26">
      <g>
       <use style="stroke:#000000;stroke-width:0.6;" x="192.65384" xlink:href="#m6940f7d9ab" y="179.298125"/>
      </g>
     </g>
    </g>
    <g id="xtick_27">
     <g id="line2d_27">
      <g>
       <use style="stroke:#000000;stroke-width:0.6;" x="199.61095" xlink:href="#m6940f7d9ab" y="179.298125"/>
      </g>
     </g>
    </g>
    <g id="xtick_28">
     <g id="line2d_28">
      <g>
       <use style="stroke:#000000;stroke-width:0.6;" x="206.568061" xlink:href="#m6940f7d9ab" y="179.298125"/>
      </g>
     </g>
    </g>
    <g id="xtick_29">
     <g id="line2d_29">
      <g>
       <use style="stroke:#000000;stroke-width:0.6;" x="213.525172" xlink:href="#m6940f7d9ab" y="179.298125"/>
      </g>
     </g>
    </g>
    <g id="xtick_30">
     <g id="line2d_30">
      <g>
       <use style="stroke:#000000;stroke-width:0.6;" x="220.482282" xlink:href="#m6940f7d9ab" y="179.298125"/>
      </g>
     </g>
    </g>
    <g id="xtick_31">
     <g id="line2d_31">
      <g>
       <use style="stroke:#000000;stroke-width:0.6;" x="227.439393" xlink:href="#m6940f7d9ab" y="179.298125"/>
      </g>
     </g>
    </g>
    <g id="xtick_32">
     <g id="line2d_32">
      <g>
       <use style="stroke:#000000;stroke-width:0.6;" x="234.396504" xlink:href="#m6940f7d9ab" y="179.298125"/>
      </g>
     </g>
    </g>
    <g id="xtick_33">
     <g id="line2d_33">
      <g>
       <use style="stroke:#000000;stroke-width:0.6;" x="241.353614" xlink:href="#m6940f7d9ab" y="179.298125"/>
      </g>
     </g>
    </g>
    <g id="xtick_34">
     <g id="line2d_34">
      <g>
       <use style="stroke:#000000;stroke-width:0.6;" x="248.310725" xlink:href="#m6940f7d9ab" y="179.298125"/>
      </g>
     </g>
    </g>
    <g id="xtick_35">
     <g id="line2d_35">
      <g>
       <use style="stroke:#000000;stroke-width:0.6;" x="255.267836" xlink:href="#m6940f7d9ab" y="179.298125"/>
      </g>
     </g>
    </g>
    <g id="xtick_36">
     <g id="line2d_36">
      <g>
       <use style="stroke:#000000;stroke-width:0.6;" x="262.224946" xlink:href="#m6940f7d9ab" y="179.298125"/>
      </g>
     </g>
    </g>
    <g id="xtick_37">
     <g id="line2d_37">
      <g>
       <use style="stroke:#000000;stroke-width:0.6;" x="269.182057" xlink:href="#m6940f7d9ab" y="179.298125"/>
      </g>
     </g>
    </g>
    <g id="xtick_38">
     <g id="line2d_38">
      <g>
       <use style="stroke:#000000;stroke-width:0.6;" x="276.139168" xlink:href="#m6940f7d9ab" y="179.298125"/>
      </g>
     </g>
    </g>
    <g id="xtick_39">
     <g id="line2d_39">
      <g>
       <use style="stroke:#000000;stroke-width:0.6;" x="283.096278" xlink:href="#m6940f7d9ab" y="179.298125"/>
      </g>
     </g>
    </g>
    <g id="xtick_40">
     <g id="line2d_40">
      <g>
       <use style="stroke:#000000;stroke-width:0.6;" x="290.053389" xlink:href="#m6940f7d9ab" y="179.298125"/>
      </g>
     </g>
    </g>
    <g id="xtick_41">
     <g id="line2d_41">
      <g>
       <use style="stroke:#000000;stroke-width:0.6;" x="297.010499" xlink:href="#m6940f7d9ab" y="179.298125"/>
      </g>
     </g>
    </g>
    <g id="xtick_42">
     <g id="line2d_42">
      <g>
       <use style="stroke:#000000;stroke-width:0.6;" x="303.96761" xlink:href="#m6940f7d9ab" y="179.298125"/>
      </g>
     </g>
    </g>
    <g id="xtick_43">
     <g id="line2d_43">
      <g>
       <use style="stroke:#000000;stroke-width:0.6;" x="310.924721" xlink:href="#m6940f7d9ab" y="179.298125"/>
      </g>
     </g>
    </g>
   </g>
   <g id="matplotlib.axis_2">
    <g id="ytick_1">
     <g id="line2d_44">
      <defs>
       <path d="M 0 0 
L -3.5 0 
" id="mc9f8589423" style="stroke:#000000;stroke-width:0.8;"/>
      </defs>
      <g>
       <use style="stroke:#000000;stroke-width:0.8;" x="69.413594" xlink:href="#mc9f8589423" y="172.16267"/>
      </g>
     </g>
     <g id="text_10">
      <!-- 0 -->
      <g transform="translate(55.732969 176.15185)scale(0.105 -0.105)">
       <use xlink:href="#DejaVuSans-48"/>
      </g>
     </g>
    </g>
    <g id="ytick_2">
     <g id="line2d_45">
      <g>
       <use style="stroke:#000000;stroke-width:0.8;" x="69.413594" xlink:href="#mc9f8589423" y="146.728786"/>
      </g>
     </g>
     <g id="text_11">
      <!-- 25000 -->
      <g transform="translate(29.010469 150.717965)scale(0.105 -0.105)">
       <use xlink:href="#DejaVuSans-50"/>
       <use x="63.623047" xlink:href="#DejaVuSans-53"/>
       <use x="127.246094" xlink:href="#DejaVuSans-48"/>
       <use x="190.869141" xlink:href="#DejaVuSans-48"/>
       <use x="254.492188" xlink:href="#DejaVuSans-48"/>
      </g>
     </g>
    </g>
    <g id="ytick_3">
     <g id="line2d_46">
      <g>
       <use style="stroke:#000000;stroke-width:0.8;" x="69.413594" xlink:href="#mc9f8589423" y="121.294901"/>
      </g>
     </g>
     <g id="text_12">
      <!-- 50000 -->
      <g transform="translate(29.010469 125.284081)scale(0.105 -0.105)">
       <use xlink:href="#DejaVuSans-53"/>
       <use x="63.623047" xlink:href="#DejaVuSans-48"/>
       <use x="127.246094" xlink:href="#DejaVuSans-48"/>
       <use x="190.869141" xlink:href="#DejaVuSans-48"/>
       <use x="254.492188" xlink:href="#DejaVuSans-48"/>
      </g>
     </g>
    </g>
    <g id="ytick_4">
     <g id="line2d_47">
      <g>
       <use style="stroke:#000000;stroke-width:0.8;" x="69.413594" xlink:href="#mc9f8589423" y="95.861016"/>
      </g>
     </g>
     <g id="text_13">
      <!-- 75000 -->
      <g transform="translate(29.010469 99.850196)scale(0.105 -0.105)">
       <use xlink:href="#DejaVuSans-55"/>
       <use x="63.623047" xlink:href="#DejaVuSans-53"/>
       <use x="127.246094" xlink:href="#DejaVuSans-48"/>
       <use x="190.869141" xlink:href="#DejaVuSans-48"/>
       <use x="254.492188" xlink:href="#DejaVuSans-48"/>
      </g>
     </g>
    </g>
    <g id="ytick_5">
     <g id="line2d_48">
      <g>
       <use style="stroke:#000000;stroke-width:0.8;" x="69.413594" xlink:href="#mc9f8589423" y="70.427132"/>
      </g>
     </g>
     <g id="text_14">
      <!-- 100000 -->
      <g transform="translate(22.329844 74.416311)scale(0.105 -0.105)">
       <use xlink:href="#DejaVuSans-49"/>
       <use x="63.623047" xlink:href="#DejaVuSans-48"/>
       <use x="127.246094" xlink:href="#DejaVuSans-48"/>
       <use x="190.869141" xlink:href="#DejaVuSans-48"/>
       <use x="254.492188" xlink:href="#DejaVuSans-48"/>
       <use x="318.115234" xlink:href="#DejaVuSans-48"/>
      </g>
     </g>
    </g>
    <g id="ytick_6">
     <g id="line2d_49">
      <g>
       <use style="stroke:#000000;stroke-width:0.8;" x="69.413594" xlink:href="#mc9f8589423" y="44.993247"/>
      </g>
     </g>
     <g id="text_15">
      <!-- 125000 -->
      <g transform="translate(22.329844 48.982427)scale(0.105 -0.105)">
       <use xlink:href="#DejaVuSans-49"/>
       <use x="63.623047" xlink:href="#DejaVuSans-50"/>
       <use x="127.246094" xlink:href="#DejaVuSans-53"/>
       <use x="190.869141" xlink:href="#DejaVuSans-48"/>
       <use x="254.492188" xlink:href="#DejaVuSans-48"/>
       <use x="318.115234" xlink:href="#DejaVuSans-48"/>
      </g>
     </g>
    </g>
    <g id="text_16">
     <!-- Count -->
     <g transform="translate(15.938203 117.883828)rotate(-90)scale(0.115 -0.115)">
      <defs>
       <path d="M 64.40625 67.28125 
L 64.40625 56.890625 
Q 59.421875 61.53125 53.78125 63.8125 
Q 48.140625 66.109375 41.796875 66.109375 
Q 29.296875 66.109375 22.65625 58.46875 
Q 16.015625 50.828125 16.015625 36.375 
Q 16.015625 21.96875 22.65625 14.328125 
Q 29.296875 6.6875 41.796875 6.6875 
Q 48.140625 6.6875 53.78125 8.984375 
Q 59.421875 11.28125 64.40625 15.921875 
L 64.40625 5.609375 
Q 59.234375 2.09375 53.4375 0.328125 
Q 47.65625 -1.421875 41.21875 -1.421875 
Q 24.65625 -1.421875 15.125 8.703125 
Q 5.609375 18.84375 5.609375 36.375 
Q 5.609375 53.953125 15.125 64.078125 
Q 24.65625 74.21875 41.21875 74.21875 
Q 47.75 74.21875 53.53125 72.484375 
Q 59.328125 70.75 64.40625 67.28125 
z
" id="DejaVuSans-67"/>
       <path d="M 30.609375 48.390625 
Q 23.390625 48.390625 19.1875 42.75 
Q 14.984375 37.109375 14.984375 27.296875 
Q 14.984375 17.484375 19.15625 11.84375 
Q 23.34375 6.203125 30.609375 6.203125 
Q 37.796875 6.203125 41.984375 11.859375 
Q 46.1875 17.53125 46.1875 27.296875 
Q 46.1875 37.015625 41.984375 42.703125 
Q 37.796875 48.390625 30.609375 48.390625 
z
M 30.609375 56 
Q 42.328125 56 49.015625 48.375 
Q 55.71875 40.765625 55.71875 27.296875 
Q 55.71875 13.875 49.015625 6.21875 
Q 42.328125 -1.421875 30.609375 -1.421875 
Q 18.84375 -1.421875 12.171875 6.21875 
Q 5.515625 13.875 5.515625 27.296875 
Q 5.515625 40.765625 12.171875 48.375 
Q 18.84375 56 30.609375 56 
z
" id="DejaVuSans-111"/>
       <path d="M 8.5 21.578125 
L 8.5 54.6875 
L 17.484375 54.6875 
L 17.484375 21.921875 
Q 17.484375 14.15625 20.5 10.265625 
Q 23.53125 6.390625 29.59375 6.390625 
Q 36.859375 6.390625 41.078125 11.03125 
Q 45.3125 15.671875 45.3125 23.6875 
L 45.3125 54.6875 
L 54.296875 54.6875 
L 54.296875 0 
L 45.3125 0 
L 45.3125 8.40625 
Q 42.046875 3.421875 37.71875 1 
Q 33.40625 -1.421875 27.6875 -1.421875 
Q 18.265625 -1.421875 13.375 4.4375 
Q 8.5 10.296875 8.5 21.578125 
z
M 31.109375 56 
z
" id="DejaVuSans-117"/>
       <path d="M 54.890625 33.015625 
L 54.890625 0 
L 45.90625 0 
L 45.90625 32.71875 
Q 45.90625 40.484375 42.875 44.328125 
Q 39.84375 48.1875 33.796875 48.1875 
Q 26.515625 48.1875 22.3125 43.546875 
Q 18.109375 38.921875 18.109375 30.90625 
L 18.109375 0 
L 9.078125 0 
L 9.078125 54.6875 
L 18.109375 54.6875 
L 18.109375 46.1875 
Q 21.34375 51.125 25.703125 53.5625 
Q 30.078125 56 35.796875 56 
Q 45.21875 56 50.046875 50.171875 
Q 54.890625 44.34375 54.890625 33.015625 
z
" id="DejaVuSans-110"/>
       <path d="M 18.3125 70.21875 
L 18.3125 54.6875 
L 36.8125 54.6875 
L 36.8125 47.703125 
L 18.3125 47.703125 
L 18.3125 18.015625 
Q 18.3125 11.328125 20.140625 9.421875 
Q 21.96875 7.515625 27.59375 7.515625 
L 36.8125 7.515625 
L 36.8125 0 
L 27.59375 0 
Q 17.1875 0 13.234375 3.875 
Q 9.28125 7.765625 9.28125 18.015625 
L 9.28125 47.703125 
L 2.6875 47.703125 
L 2.6875 54.6875 
L 9.28125 54.6875 
L 9.28125 70.21875 
z
" id="DejaVuSans-116"/>
      </defs>
      <use xlink:href="#DejaVuSans-67"/>
      <use x="69.824219" xlink:href="#DejaVuSans-111"/>
      <use x="131.005859" xlink:href="#DejaVuSans-117"/>
      <use x="194.384766" xlink:href="#DejaVuSans-110"/>
      <use x="257.763672" xlink:href="#DejaVuSans-116"/>
     </g>
    </g>
   </g>
   <g id="line2d_50">
    <path clip-path="url(#p2d6fc105dd)" d="M 68.419721 149.278278 
L 69.413594 148.228658 
L 71.40134 147.202728 
L 74.382959 146.317048 
L 75.376831 145.727563 
L 78.35845 145.917227 
L 80.346196 146.371113 
L 81.340069 147.236155 
L 82.333942 147.614321 
L 83.327815 147.784219 
L 87.303307 147.939729 
L 88.29718 146.912927 
L 89.291053 147.001728 
L 91.278799 147.360418 
L 92.272672 147.445731 
L 93.266545 147.292255 
L 94.260418 147.503429 
L 95.25429 147.903831 
L 96.248163 147.845842 
L 98.235909 148.435327 
L 99.229782 148.608423 
L 100.223655 149.177415 
L 101.217528 149.359376 
L 102.211401 150.126462 
L 104.199147 151.033071 
L 105.19302 151.254709 
L 106.186893 151.971509 
L 108.174639 152.503295 
L 109.168512 152.529456 
L 110.162385 152.808502 
L 111.156258 152.660113 
L 112.150131 152.90922 
L 113.144004 152.444143 
L 114.137877 152.514777 
L 116.125622 152.260002 
L 117.119495 152.315956 
L 118.113368 152.619273 
L 119.107241 152.59631 
L 120.101114 153.271398 
L 121.094987 153.499867 
L 122.08886 153.900851 
L 123.082733 155.186933 
L 124.076606 154.473331 
L 125.070479 154.270151 
L 126.064352 154.467954 
L 128.052098 154.232218 
L 129.045971 154.200534 
L 130.039844 153.325173 
L 131.033717 154.044734 
L 132.02759 154.407494 
L 135.009209 154.513153 
L 137.990827 154.607331 
L 138.9847 153.927302 
L 139.978573 153.741998 
L 140.972446 152.388188 
L 141.966319 151.788821 
L 142.960192 150.894275 
L 143.954065 149.695975 
L 145.941811 147.935079 
L 146.935684 146.582723 
L 147.929557 146.326785 
L 148.92343 143.662477 
L 149.917303 140.526551 
L 150.911176 139.422575 
L 153.892795 135.588599 
L 154.886668 134.542031 
L 156.874413 136.605954 
L 157.868286 135.262173 
L 159.856032 133.626992 
L 160.849905 132.203276 
L 161.843778 132.43596 
L 162.837651 132.450058 
L 163.831524 132.697711 
L 164.825397 131.932369 
L 165.81927 130.656605 
L 166.813143 129.826443 
L 167.807016 129.836617 
L 169.794762 126.386183 
L 170.788635 125.886807 
L 171.782508 123.934066 
L 172.776381 123.944531 
L 173.770254 124.308889 
L 174.764127 124.867999 
L 176.751872 125.359091 
L 177.745745 124.775419 
L 178.739618 126.430656 
L 179.733491 127.628084 
L 180.727364 128.295614 
L 181.721237 128.611866 
L 183.708983 130.322913 
L 185.696729 132.996087 
L 186.690602 133.396053 
L 187.684475 133.353615 
L 188.678348 133.757359 
L 189.672221 133.379339 
L 190.666094 133.642543 
L 191.659967 134.153256 
L 192.65384 134.843459 
L 193.647713 135.145613 
L 194.641586 136.2695 
L 195.635459 137.137305 
L 196.629331 138.391704 
L 197.623204 139.290755 
L 198.617077 139.651626 
L 199.61095 140.165826 
L 200.604823 141.040606 
L 201.598696 141.283318 
L 202.592569 140.690782 
L 203.586442 139.89114 
L 205.574188 140.560269 
L 206.568061 140.371332 
L 207.561934 140.666074 
L 211.537426 137.263893 
L 212.531299 137.268834 
L 213.525172 136.715538 
L 214.519045 136.512212 
L 215.512918 137.359524 
L 216.50679 138.795303 
L 217.500663 141.175479 
L 218.494536 142.253003 
L 219.488409 142.253875 
L 220.482282 143.693724 
L 221.476155 143.858245 
L 223.463901 145.512465 
L 224.457774 145.689194 
L 225.451647 133.438055 
L 226.44552 133.620888 
L 227.439393 135.231362 
L 228.433266 134.781109 
L 229.427139 134.06024 
L 230.421012 134.007774 
L 231.414885 134.162121 
L 232.408758 146.162991 
L 233.402631 145.90778 
L 234.396504 144.357185 
L 235.390377 143.593442 
L 236.384249 142.634948 
L 237.378122 141.455251 
L 238.371995 141.098741 
L 239.365868 141.190594 
L 240.359741 141.041624 
L 241.353614 140.098681 
L 242.347487 139.663689 
L 244.335233 141.296835 
L 245.329106 139.952763 
L 246.322979 139.20646 
L 247.316852 138.814197 
L 248.310725 139.200501 
L 249.304598 140.279915 
L 250.298471 139.489866 
L 251.292344 135.190958 
L 252.286217 135.374373 
L 254.273963 134.746374 
L 255.267836 133.923188 
L 256.261709 133.449537 
L 257.255581 133.807791 
L 258.249454 136.976417 
L 259.243327 137.025395 
L 260.2372 136.592438 
L 261.231073 134.231302 
L 262.224946 133.266267 
L 263.218819 131.652306 
L 264.212692 130.823452 
L 265.206565 129.031162 
L 266.200438 126.568581 
L 267.194311 124.534161 
L 268.188184 125.405889 
L 269.182057 124.695193 
L 270.17593 123.66374 
L 271.169803 120.128721 
L 272.163676 119.311494 
L 273.157549 113.163179 
L 274.151422 113.289041 
L 275.145295 111.246627 
L 276.139168 108.758467 
L 278.126913 104.53368 
L 279.120786 103.952189 
L 280.114659 108.341787 
L 281.108532 105.790841 
L 282.102405 104.598937 
L 284.090151 100.691565 
L 285.084024 97.245928 
L 286.077897 93.172727 
L 287.07177 89.813275 
L 288.065643 87.760251 
L 289.059516 84.355018 
L 291.047262 76.001367 
L 292.041135 77.072352 
L 293.035008 75.247216 
L 294.028881 72.646129 
L 295.022754 66.984401 
L 296.016627 67.124069 
L 297.010499 66.144938 
L 298.004372 63.479466 
L 298.998245 61.257126 
L 300.985991 58.465939 
L 301.979864 62.777055 
L 302.973737 63.030231 
L 303.96761 61.763915 
L 304.961483 56.11236 
L 305.955356 51.471039 
L 306.949229 57.700452 
L 307.943102 59.380978 
L 308.936975 57.481575 
L 309.930848 56.357397 
L 310.924721 51.884376 
L 312.912467 52.746222 
L 312.912467 52.746222 
" style="fill:none;stroke:#1f77b4;stroke-linecap:square;stroke-width:1.5;"/>
   </g>
   <g id="patch_3">
    <path d="M 69.413594 179.298125 
L 69.413594 22.318125 
" style="fill:none;stroke:#000000;stroke-linecap:square;stroke-linejoin:miter;stroke-width:0.8;"/>
   </g>
   <g id="patch_4">
    <path d="M 311.918594 179.298125 
L 311.918594 22.318125 
" style="fill:none;stroke:#000000;stroke-linecap:square;stroke-linejoin:miter;stroke-width:0.8;"/>
   </g>
   <g id="patch_5">
    <path d="M 69.413594 179.298125 
L 311.918594 179.298125 
" style="fill:none;stroke:#000000;stroke-linecap:square;stroke-linejoin:miter;stroke-width:0.8;"/>
   </g>
   <g id="patch_6">
    <path d="M 69.413594 22.318125 
L 311.918594 22.318125 
" style="fill:none;stroke:#000000;stroke-linecap:square;stroke-linejoin:miter;stroke-width:0.8;"/>
   </g>
   <g id="text_17">
    <!-- COVID-19 Cases -->
    <g transform="translate(141.847656 16.318125)scale(0.12 -0.12)">
     <defs>
      <path d="M 39.40625 66.21875 
Q 28.65625 66.21875 22.328125 58.203125 
Q 16.015625 50.203125 16.015625 36.375 
Q 16.015625 22.609375 22.328125 14.59375 
Q 28.65625 6.59375 39.40625 6.59375 
Q 50.140625 6.59375 56.421875 14.59375 
Q 62.703125 22.609375 62.703125 36.375 
Q 62.703125 50.203125 56.421875 58.203125 
Q 50.140625 66.21875 39.40625 66.21875 
z
M 39.40625 74.21875 
Q 54.734375 74.21875 63.90625 63.9375 
Q 73.09375 53.65625 73.09375 36.375 
Q 73.09375 19.140625 63.90625 8.859375 
Q 54.734375 -1.421875 39.40625 -1.421875 
Q 24.03125 -1.421875 14.8125 8.828125 
Q 5.609375 19.09375 5.609375 36.375 
Q 5.609375 53.65625 14.8125 63.9375 
Q 24.03125 74.21875 39.40625 74.21875 
z
" id="DejaVuSans-79"/>
      <path d="M 28.609375 0 
L 0.78125 72.90625 
L 11.078125 72.90625 
L 34.1875 11.53125 
L 57.328125 72.90625 
L 67.578125 72.90625 
L 39.796875 0 
z
" id="DejaVuSans-86"/>
      <path d="M 9.8125 72.90625 
L 19.671875 72.90625 
L 19.671875 0 
L 9.8125 0 
z
" id="DejaVuSans-73"/>
      <path d="M 19.671875 64.796875 
L 19.671875 8.109375 
L 31.59375 8.109375 
Q 46.6875 8.109375 53.6875 14.9375 
Q 60.6875 21.78125 60.6875 36.53125 
Q 60.6875 51.171875 53.6875 57.984375 
Q 46.6875 64.796875 31.59375 64.796875 
z
M 9.8125 72.90625 
L 30.078125 72.90625 
Q 51.265625 72.90625 61.171875 64.09375 
Q 71.09375 55.28125 71.09375 36.53125 
Q 71.09375 17.671875 61.125 8.828125 
Q 51.171875 0 30.078125 0 
L 9.8125 0 
z
" id="DejaVuSans-68"/>
      <path id="DejaVuSans-32"/>
      <path d="M 34.28125 27.484375 
Q 23.390625 27.484375 19.1875 25 
Q 14.984375 22.515625 14.984375 16.5 
Q 14.984375 11.71875 18.140625 8.90625 
Q 21.296875 6.109375 26.703125 6.109375 
Q 34.1875 6.109375 38.703125 11.40625 
Q 43.21875 16.703125 43.21875 25.484375 
L 43.21875 27.484375 
z
M 52.203125 31.203125 
L 52.203125 0 
L 43.21875 0 
L 43.21875 8.296875 
Q 40.140625 3.328125 35.546875 0.953125 
Q 30.953125 -1.421875 24.3125 -1.421875 
Q 15.921875 -1.421875 10.953125 3.296875 
Q 6 8.015625 6 15.921875 
Q 6 25.140625 12.171875 29.828125 
Q 18.359375 34.515625 30.609375 34.515625 
L 43.21875 34.515625 
L 43.21875 35.40625 
Q 43.21875 41.609375 39.140625 45 
Q 35.0625 48.390625 27.6875 48.390625 
Q 23 48.390625 18.546875 47.265625 
Q 14.109375 46.140625 10.015625 43.890625 
L 10.015625 52.203125 
Q 14.9375 54.109375 19.578125 55.046875 
Q 24.21875 56 28.609375 56 
Q 40.484375 56 46.34375 49.84375 
Q 52.203125 43.703125 52.203125 31.203125 
z
" id="DejaVuSans-97"/>
      <path d="M 44.28125 53.078125 
L 44.28125 44.578125 
Q 40.484375 46.53125 36.375 47.5 
Q 32.28125 48.484375 27.875 48.484375 
Q 21.1875 48.484375 17.84375 46.4375 
Q 14.5 44.390625 14.5 40.28125 
Q 14.5 37.15625 16.890625 35.375 
Q 19.28125 33.59375 26.515625 31.984375 
L 29.59375 31.296875 
Q 39.15625 29.25 43.1875 25.515625 
Q 47.21875 21.78125 47.21875 15.09375 
Q 47.21875 7.46875 41.1875 3.015625 
Q 35.15625 -1.421875 24.609375 -1.421875 
Q 20.21875 -1.421875 15.453125 -0.5625 
Q 10.6875 0.296875 5.421875 2 
L 5.421875 11.28125 
Q 10.40625 8.6875 15.234375 7.390625 
Q 20.0625 6.109375 24.8125 6.109375 
Q 31.15625 6.109375 34.5625 8.28125 
Q 37.984375 10.453125 37.984375 14.40625 
Q 37.984375 18.0625 35.515625 20.015625 
Q 33.0625 21.96875 24.703125 23.78125 
L 21.578125 24.515625 
Q 13.234375 26.265625 9.515625 29.90625 
Q 5.8125 33.546875 5.8125 39.890625 
Q 5.8125 47.609375 11.28125 51.796875 
Q 16.75 56 26.8125 56 
Q 31.78125 56 36.171875 55.265625 
Q 40.578125 54.546875 44.28125 53.078125 
z
" id="DejaVuSans-115"/>
      <path d="M 56.203125 29.59375 
L 56.203125 25.203125 
L 14.890625 25.203125 
Q 15.484375 15.921875 20.484375 11.0625 
Q 25.484375 6.203125 34.421875 6.203125 
Q 39.59375 6.203125 44.453125 7.46875 
Q 49.3125 8.734375 54.109375 11.28125 
L 54.109375 2.78125 
Q 49.265625 0.734375 44.1875 -0.34375 
Q 39.109375 -1.421875 33.890625 -1.421875 
Q 20.796875 -1.421875 13.15625 6.1875 
Q 5.515625 13.8125 5.515625 26.8125 
Q 5.515625 40.234375 12.765625 48.109375 
Q 20.015625 56 32.328125 56 
Q 43.359375 56 49.78125 48.890625 
Q 56.203125 41.796875 56.203125 29.59375 
z
M 47.21875 32.234375 
Q 47.125 39.59375 43.09375 43.984375 
Q 39.0625 48.390625 32.421875 48.390625 
Q 24.90625 48.390625 20.390625 44.140625 
Q 15.875 39.890625 15.1875 32.171875 
z
" id="DejaVuSans-101"/>
     </defs>
     <use xlink:href="#DejaVuSans-67"/>
     <use x="69.824219" xlink:href="#DejaVuSans-79"/>
     <use x="146.785156" xlink:href="#DejaVuSans-86"/>
     <use x="215.193359" xlink:href="#DejaVuSans-73"/>
     <use x="244.685547" xlink:href="#DejaVuSans-68"/>
     <use x="321.6875" xlink:href="#DejaVuSans-45"/>
     <use x="357.771484" xlink:href="#DejaVuSans-49"/>
     <use x="421.394531" xlink:href="#DejaVuSans-57"/>
     <use x="485.017578" xlink:href="#DejaVuSans-32"/>
     <use x="516.804688" xlink:href="#DejaVuSans-67"/>
     <use x="586.628906" xlink:href="#DejaVuSans-97"/>
     <use x="647.908203" xlink:href="#DejaVuSans-115"/>
     <use x="700.007812" xlink:href="#DejaVuSans-101"/>
     <use x="761.53125" xlink:href="#DejaVuSans-115"/>
    </g>
   </g>
  </g>
  <g id="axes_2">
   <g id="patch_7">
    <path d="M 367.508594 179.298125 
L 610.013594 179.298125 
L 610.013594 22.318125 
L 367.508594 22.318125 
z
" style="fill:#ffffff;"/>
   </g>
   <g id="matplotlib.axis_3">
    <g id="xtick_44">
     <g id="line2d_51">
      <g>
       <use style="stroke:#000000;stroke-width:0.8;" x="367.508594" xlink:href="#m50f2f3b43d" y="179.298125"/>
      </g>
     </g>
     <g id="text_18">
      <!-- 2020-04 -->
      <g transform="translate(328.422532 215.143563)rotate(-30)scale(0.105 -0.105)">
       <use xlink:href="#DejaVuSans-50"/>
       <use x="63.623047" xlink:href="#DejaVuSans-48"/>
       <use x="127.246094" xlink:href="#DejaVuSans-50"/>
       <use x="190.869141" xlink:href="#DejaVuSans-48"/>
       <use x="254.492188" xlink:href="#DejaVuSans-45"/>
       <use x="290.576172" xlink:href="#DejaVuSans-48"/>
       <use x="354.199219" xlink:href="#DejaVuSans-52"/>
      </g>
     </g>
    </g>
    <g id="xtick_45">
     <g id="line2d_52">
      <g>
       <use style="stroke:#000000;stroke-width:0.8;" x="397.324782" xlink:href="#m50f2f3b43d" y="179.298125"/>
      </g>
     </g>
     <g id="text_19">
      <!-- 2020-05 -->
      <g transform="translate(358.23872 215.143563)rotate(-30)scale(0.105 -0.105)">
       <use xlink:href="#DejaVuSans-50"/>
       <use x="63.623047" xlink:href="#DejaVuSans-48"/>
       <use x="127.246094" xlink:href="#DejaVuSans-50"/>
       <use x="190.869141" xlink:href="#DejaVuSans-48"/>
       <use x="254.492188" xlink:href="#DejaVuSans-45"/>
       <use x="290.576172" xlink:href="#DejaVuSans-48"/>
       <use x="354.199219" xlink:href="#DejaVuSans-53"/>
      </g>
     </g>
    </g>
    <g id="xtick_46">
     <g id="line2d_53">
      <g>
       <use style="stroke:#000000;stroke-width:0.8;" x="428.134844" xlink:href="#m50f2f3b43d" y="179.298125"/>
      </g>
     </g>
     <g id="text_20">
      <!-- 2020-06 -->
      <g transform="translate(389.048782 215.143563)rotate(-30)scale(0.105 -0.105)">
       <use xlink:href="#DejaVuSans-50"/>
       <use x="63.623047" xlink:href="#DejaVuSans-48"/>
       <use x="127.246094" xlink:href="#DejaVuSans-50"/>
       <use x="190.869141" xlink:href="#DejaVuSans-48"/>
       <use x="254.492188" xlink:href="#DejaVuSans-45"/>
       <use x="290.576172" xlink:href="#DejaVuSans-48"/>
       <use x="354.199219" xlink:href="#DejaVuSans-54"/>
      </g>
     </g>
    </g>
    <g id="xtick_47">
     <g id="line2d_54">
      <g>
       <use style="stroke:#000000;stroke-width:0.8;" x="457.951032" xlink:href="#m50f2f3b43d" y="179.298125"/>
      </g>
     </g>
     <g id="text_21">
      <!-- 2020-07 -->
      <g transform="translate(418.86497 215.143563)rotate(-30)scale(0.105 -0.105)">
       <use xlink:href="#DejaVuSans-50"/>
       <use x="63.623047" xlink:href="#DejaVuSans-48"/>
       <use x="127.246094" xlink:href="#DejaVuSans-50"/>
       <use x="190.869141" xlink:href="#DejaVuSans-48"/>
       <use x="254.492188" xlink:href="#DejaVuSans-45"/>
       <use x="290.576172" xlink:href="#DejaVuSans-48"/>
       <use x="354.199219" xlink:href="#DejaVuSans-55"/>
      </g>
     </g>
    </g>
    <g id="xtick_48">
     <g id="line2d_55">
      <g>
       <use style="stroke:#000000;stroke-width:0.8;" x="488.761094" xlink:href="#m50f2f3b43d" y="179.298125"/>
      </g>
     </g>
     <g id="text_22">
      <!-- 2020-08 -->
      <g transform="translate(449.675032 215.143563)rotate(-30)scale(0.105 -0.105)">
       <use xlink:href="#DejaVuSans-50"/>
       <use x="63.623047" xlink:href="#DejaVuSans-48"/>
       <use x="127.246094" xlink:href="#DejaVuSans-50"/>
       <use x="190.869141" xlink:href="#DejaVuSans-48"/>
       <use x="254.492188" xlink:href="#DejaVuSans-45"/>
       <use x="290.576172" xlink:href="#DejaVuSans-48"/>
       <use x="354.199219" xlink:href="#DejaVuSans-56"/>
      </g>
     </g>
    </g>
    <g id="xtick_49">
     <g id="line2d_56">
      <g>
       <use style="stroke:#000000;stroke-width:0.8;" x="519.571155" xlink:href="#m50f2f3b43d" y="179.298125"/>
      </g>
     </g>
     <g id="text_23">
      <!-- 2020-09 -->
      <g transform="translate(480.485093 215.143563)rotate(-30)scale(0.105 -0.105)">
       <use xlink:href="#DejaVuSans-50"/>
       <use x="63.623047" xlink:href="#DejaVuSans-48"/>
       <use x="127.246094" xlink:href="#DejaVuSans-50"/>
       <use x="190.869141" xlink:href="#DejaVuSans-48"/>
       <use x="254.492188" xlink:href="#DejaVuSans-45"/>
       <use x="290.576172" xlink:href="#DejaVuSans-48"/>
       <use x="354.199219" xlink:href="#DejaVuSans-57"/>
      </g>
     </g>
    </g>
    <g id="xtick_50">
     <g id="line2d_57">
      <g>
       <use style="stroke:#000000;stroke-width:0.8;" x="549.387344" xlink:href="#m50f2f3b43d" y="179.298125"/>
      </g>
     </g>
     <g id="text_24">
      <!-- 2020-10 -->
      <g transform="translate(510.301282 215.143563)rotate(-30)scale(0.105 -0.105)">
       <use xlink:href="#DejaVuSans-50"/>
       <use x="63.623047" xlink:href="#DejaVuSans-48"/>
       <use x="127.246094" xlink:href="#DejaVuSans-50"/>
       <use x="190.869141" xlink:href="#DejaVuSans-48"/>
       <use x="254.492188" xlink:href="#DejaVuSans-45"/>
       <use x="290.576172" xlink:href="#DejaVuSans-49"/>
       <use x="354.199219" xlink:href="#DejaVuSans-48"/>
      </g>
     </g>
    </g>
    <g id="xtick_51">
     <g id="line2d_58">
      <g>
       <use style="stroke:#000000;stroke-width:0.8;" x="580.197405" xlink:href="#m50f2f3b43d" y="179.298125"/>
      </g>
     </g>
     <g id="text_25">
      <!-- 2020-11 -->
      <g transform="translate(541.111343 215.143563)rotate(-30)scale(0.105 -0.105)">
       <use xlink:href="#DejaVuSans-50"/>
       <use x="63.623047" xlink:href="#DejaVuSans-48"/>
       <use x="127.246094" xlink:href="#DejaVuSans-50"/>
       <use x="190.869141" xlink:href="#DejaVuSans-48"/>
       <use x="254.492188" xlink:href="#DejaVuSans-45"/>
       <use x="290.576172" xlink:href="#DejaVuSans-49"/>
       <use x="354.199219" xlink:href="#DejaVuSans-49"/>
      </g>
     </g>
    </g>
    <g id="xtick_52">
     <g id="line2d_59">
      <g>
       <use style="stroke:#000000;stroke-width:0.8;" x="610.013594" xlink:href="#m50f2f3b43d" y="179.298125"/>
      </g>
     </g>
     <g id="text_26">
      <!-- 2020-12 -->
      <g transform="translate(570.927532 215.143563)rotate(-30)scale(0.105 -0.105)">
       <use xlink:href="#DejaVuSans-50"/>
       <use x="63.623047" xlink:href="#DejaVuSans-48"/>
       <use x="127.246094" xlink:href="#DejaVuSans-50"/>
       <use x="190.869141" xlink:href="#DejaVuSans-48"/>
       <use x="254.492188" xlink:href="#DejaVuSans-45"/>
       <use x="290.576172" xlink:href="#DejaVuSans-49"/>
       <use x="354.199219" xlink:href="#DejaVuSans-50"/>
      </g>
     </g>
    </g>
    <g id="xtick_53">
     <g id="line2d_60">
      <g>
       <use style="stroke:#000000;stroke-width:0.6;" x="372.477959" xlink:href="#m6940f7d9ab" y="179.298125"/>
      </g>
     </g>
    </g>
    <g id="xtick_54">
     <g id="line2d_61">
      <g>
       <use style="stroke:#000000;stroke-width:0.6;" x="379.435069" xlink:href="#m6940f7d9ab" y="179.298125"/>
      </g>
     </g>
    </g>
    <g id="xtick_55">
     <g id="line2d_62">
      <g>
       <use style="stroke:#000000;stroke-width:0.6;" x="386.39218" xlink:href="#m6940f7d9ab" y="179.298125"/>
      </g>
     </g>
    </g>
    <g id="xtick_56">
     <g id="line2d_63">
      <g>
       <use style="stroke:#000000;stroke-width:0.6;" x="393.34929" xlink:href="#m6940f7d9ab" y="179.298125"/>
      </g>
     </g>
    </g>
    <g id="xtick_57">
     <g id="line2d_64">
      <g>
       <use style="stroke:#000000;stroke-width:0.6;" x="400.306401" xlink:href="#m6940f7d9ab" y="179.298125"/>
      </g>
     </g>
    </g>
    <g id="xtick_58">
     <g id="line2d_65">
      <g>
       <use style="stroke:#000000;stroke-width:0.6;" x="407.263512" xlink:href="#m6940f7d9ab" y="179.298125"/>
      </g>
     </g>
    </g>
    <g id="xtick_59">
     <g id="line2d_66">
      <g>
       <use style="stroke:#000000;stroke-width:0.6;" x="414.220622" xlink:href="#m6940f7d9ab" y="179.298125"/>
      </g>
     </g>
    </g>
    <g id="xtick_60">
     <g id="line2d_67">
      <g>
       <use style="stroke:#000000;stroke-width:0.6;" x="421.177733" xlink:href="#m6940f7d9ab" y="179.298125"/>
      </g>
     </g>
    </g>
    <g id="xtick_61">
     <g id="line2d_68">
      <g>
       <use style="stroke:#000000;stroke-width:0.6;" x="435.091954" xlink:href="#m6940f7d9ab" y="179.298125"/>
      </g>
     </g>
    </g>
    <g id="xtick_62">
     <g id="line2d_69">
      <g>
       <use style="stroke:#000000;stroke-width:0.6;" x="442.049065" xlink:href="#m6940f7d9ab" y="179.298125"/>
      </g>
     </g>
    </g>
    <g id="xtick_63">
     <g id="line2d_70">
      <g>
       <use style="stroke:#000000;stroke-width:0.6;" x="449.006176" xlink:href="#m6940f7d9ab" y="179.298125"/>
      </g>
     </g>
    </g>
    <g id="xtick_64">
     <g id="line2d_71">
      <g>
       <use style="stroke:#000000;stroke-width:0.6;" x="455.963286" xlink:href="#m6940f7d9ab" y="179.298125"/>
      </g>
     </g>
    </g>
    <g id="xtick_65">
     <g id="line2d_72">
      <g>
       <use style="stroke:#000000;stroke-width:0.6;" x="462.920397" xlink:href="#m6940f7d9ab" y="179.298125"/>
      </g>
     </g>
    </g>
    <g id="xtick_66">
     <g id="line2d_73">
      <g>
       <use style="stroke:#000000;stroke-width:0.6;" x="469.877508" xlink:href="#m6940f7d9ab" y="179.298125"/>
      </g>
     </g>
    </g>
    <g id="xtick_67">
     <g id="line2d_74">
      <g>
       <use style="stroke:#000000;stroke-width:0.6;" x="476.834618" xlink:href="#m6940f7d9ab" y="179.298125"/>
      </g>
     </g>
    </g>
    <g id="xtick_68">
     <g id="line2d_75">
      <g>
       <use style="stroke:#000000;stroke-width:0.6;" x="483.791729" xlink:href="#m6940f7d9ab" y="179.298125"/>
      </g>
     </g>
    </g>
    <g id="xtick_69">
     <g id="line2d_76">
      <g>
       <use style="stroke:#000000;stroke-width:0.6;" x="490.74884" xlink:href="#m6940f7d9ab" y="179.298125"/>
      </g>
     </g>
    </g>
    <g id="xtick_70">
     <g id="line2d_77">
      <g>
       <use style="stroke:#000000;stroke-width:0.6;" x="497.70595" xlink:href="#m6940f7d9ab" y="179.298125"/>
      </g>
     </g>
    </g>
    <g id="xtick_71">
     <g id="line2d_78">
      <g>
       <use style="stroke:#000000;stroke-width:0.6;" x="504.663061" xlink:href="#m6940f7d9ab" y="179.298125"/>
      </g>
     </g>
    </g>
    <g id="xtick_72">
     <g id="line2d_79">
      <g>
       <use style="stroke:#000000;stroke-width:0.6;" x="511.620172" xlink:href="#m6940f7d9ab" y="179.298125"/>
      </g>
     </g>
    </g>
    <g id="xtick_73">
     <g id="line2d_80">
      <g>
       <use style="stroke:#000000;stroke-width:0.6;" x="518.577282" xlink:href="#m6940f7d9ab" y="179.298125"/>
      </g>
     </g>
    </g>
    <g id="xtick_74">
     <g id="line2d_81">
      <g>
       <use style="stroke:#000000;stroke-width:0.6;" x="525.534393" xlink:href="#m6940f7d9ab" y="179.298125"/>
      </g>
     </g>
    </g>
    <g id="xtick_75">
     <g id="line2d_82">
      <g>
       <use style="stroke:#000000;stroke-width:0.6;" x="532.491504" xlink:href="#m6940f7d9ab" y="179.298125"/>
      </g>
     </g>
    </g>
    <g id="xtick_76">
     <g id="line2d_83">
      <g>
       <use style="stroke:#000000;stroke-width:0.6;" x="539.448614" xlink:href="#m6940f7d9ab" y="179.298125"/>
      </g>
     </g>
    </g>
    <g id="xtick_77">
     <g id="line2d_84">
      <g>
       <use style="stroke:#000000;stroke-width:0.6;" x="546.405725" xlink:href="#m6940f7d9ab" y="179.298125"/>
      </g>
     </g>
    </g>
    <g id="xtick_78">
     <g id="line2d_85">
      <g>
       <use style="stroke:#000000;stroke-width:0.6;" x="553.362836" xlink:href="#m6940f7d9ab" y="179.298125"/>
      </g>
     </g>
    </g>
    <g id="xtick_79">
     <g id="line2d_86">
      <g>
       <use style="stroke:#000000;stroke-width:0.6;" x="560.319946" xlink:href="#m6940f7d9ab" y="179.298125"/>
      </g>
     </g>
    </g>
    <g id="xtick_80">
     <g id="line2d_87">
      <g>
       <use style="stroke:#000000;stroke-width:0.6;" x="567.277057" xlink:href="#m6940f7d9ab" y="179.298125"/>
      </g>
     </g>
    </g>
    <g id="xtick_81">
     <g id="line2d_88">
      <g>
       <use style="stroke:#000000;stroke-width:0.6;" x="574.234168" xlink:href="#m6940f7d9ab" y="179.298125"/>
      </g>
     </g>
    </g>
    <g id="xtick_82">
     <g id="line2d_89">
      <g>
       <use style="stroke:#000000;stroke-width:0.6;" x="581.191278" xlink:href="#m6940f7d9ab" y="179.298125"/>
      </g>
     </g>
    </g>
    <g id="xtick_83">
     <g id="line2d_90">
      <g>
       <use style="stroke:#000000;stroke-width:0.6;" x="588.148389" xlink:href="#m6940f7d9ab" y="179.298125"/>
      </g>
     </g>
    </g>
    <g id="xtick_84">
     <g id="line2d_91">
      <g>
       <use style="stroke:#000000;stroke-width:0.6;" x="595.105499" xlink:href="#m6940f7d9ab" y="179.298125"/>
      </g>
     </g>
    </g>
    <g id="xtick_85">
     <g id="line2d_92">
      <g>
       <use style="stroke:#000000;stroke-width:0.6;" x="602.06261" xlink:href="#m6940f7d9ab" y="179.298125"/>
      </g>
     </g>
    </g>
    <g id="xtick_86">
     <g id="line2d_93">
      <g>
       <use style="stroke:#000000;stroke-width:0.6;" x="609.019721" xlink:href="#m6940f7d9ab" y="179.298125"/>
      </g>
     </g>
    </g>
    <g id="text_27">
     <!-- CDC Report Date -->
     <g transform="translate(439.843867 229.772882)scale(0.115 -0.115)">
      <defs>
       <path d="M 44.390625 34.1875 
Q 47.5625 33.109375 50.5625 29.59375 
Q 53.5625 26.078125 56.59375 19.921875 
L 66.609375 0 
L 56 0 
L 46.6875 18.703125 
Q 43.0625 26.03125 39.671875 28.421875 
Q 36.28125 30.8125 30.421875 30.8125 
L 19.671875 30.8125 
L 19.671875 0 
L 9.8125 0 
L 9.8125 72.90625 
L 32.078125 72.90625 
Q 44.578125 72.90625 50.734375 67.671875 
Q 56.890625 62.453125 56.890625 51.90625 
Q 56.890625 45.015625 53.6875 40.46875 
Q 50.484375 35.9375 44.390625 34.1875 
z
M 19.671875 64.796875 
L 19.671875 38.921875 
L 32.078125 38.921875 
Q 39.203125 38.921875 42.84375 42.21875 
Q 46.484375 45.515625 46.484375 51.90625 
Q 46.484375 58.296875 42.84375 61.546875 
Q 39.203125 64.796875 32.078125 64.796875 
z
" id="DejaVuSans-82"/>
       <path d="M 18.109375 8.203125 
L 18.109375 -20.796875 
L 9.078125 -20.796875 
L 9.078125 54.6875 
L 18.109375 54.6875 
L 18.109375 46.390625 
Q 20.953125 51.265625 25.265625 53.625 
Q 29.59375 56 35.59375 56 
Q 45.5625 56 51.78125 48.09375 
Q 58.015625 40.1875 58.015625 27.296875 
Q 58.015625 14.40625 51.78125 6.484375 
Q 45.5625 -1.421875 35.59375 -1.421875 
Q 29.59375 -1.421875 25.265625 0.953125 
Q 20.953125 3.328125 18.109375 8.203125 
z
M 48.6875 27.296875 
Q 48.6875 37.203125 44.609375 42.84375 
Q 40.53125 48.484375 33.40625 48.484375 
Q 26.265625 48.484375 22.1875 42.84375 
Q 18.109375 37.203125 18.109375 27.296875 
Q 18.109375 17.390625 22.1875 11.75 
Q 26.265625 6.109375 33.40625 6.109375 
Q 40.53125 6.109375 44.609375 11.75 
Q 48.6875 17.390625 48.6875 27.296875 
z
" id="DejaVuSans-112"/>
       <path d="M 41.109375 46.296875 
Q 39.59375 47.171875 37.8125 47.578125 
Q 36.03125 48 33.890625 48 
Q 26.265625 48 22.1875 43.046875 
Q 18.109375 38.09375 18.109375 28.8125 
L 18.109375 0 
L 9.078125 0 
L 9.078125 54.6875 
L 18.109375 54.6875 
L 18.109375 46.1875 
Q 20.953125 51.171875 25.484375 53.578125 
Q 30.03125 56 36.53125 56 
Q 37.453125 56 38.578125 55.875 
Q 39.703125 55.765625 41.0625 55.515625 
z
" id="DejaVuSans-114"/>
      </defs>
      <use xlink:href="#DejaVuSans-67"/>
      <use x="69.824219" xlink:href="#DejaVuSans-68"/>
      <use x="146.826172" xlink:href="#DejaVuSans-67"/>
      <use x="216.650391" xlink:href="#DejaVuSans-32"/>
      <use x="248.4375" xlink:href="#DejaVuSans-82"/>
      <use x="313.419922" xlink:href="#DejaVuSans-101"/>
      <use x="374.943359" xlink:href="#DejaVuSans-112"/>
      <use x="438.419922" xlink:href="#DejaVuSans-111"/>
      <use x="499.601562" xlink:href="#DejaVuSans-114"/>
      <use x="540.714844" xlink:href="#DejaVuSans-116"/>
      <use x="579.923828" xlink:href="#DejaVuSans-32"/>
      <use x="611.710938" xlink:href="#DejaVuSans-68"/>
      <use x="688.712891" xlink:href="#DejaVuSans-97"/>
      <use x="749.992188" xlink:href="#DejaVuSans-116"/>
      <use x="789.201172" xlink:href="#DejaVuSans-101"/>
     </g>
    </g>
   </g>
   <g id="matplotlib.axis_4">
    <g id="ytick_7">
     <g id="line2d_94">
      <g>
       <use style="stroke:#000000;stroke-width:0.8;" x="367.508594" xlink:href="#mc9f8589423" y="172.16267"/>
      </g>
     </g>
     <g id="text_28">
      <!-- 0 -->
      <g transform="translate(353.827969 176.15185)scale(0.105 -0.105)">
       <use xlink:href="#DejaVuSans-48"/>
      </g>
     </g>
    </g>
    <g id="ytick_8">
     <g id="line2d_95">
      <g>
       <use style="stroke:#000000;stroke-width:0.8;" x="367.508594" xlink:href="#mc9f8589423" y="146.218259"/>
      </g>
     </g>
     <g id="text_29">
      <!-- 1000 -->
      <g transform="translate(333.786094 150.207438)scale(0.105 -0.105)">
       <use xlink:href="#DejaVuSans-49"/>
       <use x="63.623047" xlink:href="#DejaVuSans-48"/>
       <use x="127.246094" xlink:href="#DejaVuSans-48"/>
       <use x="190.869141" xlink:href="#DejaVuSans-48"/>
      </g>
     </g>
    </g>
    <g id="ytick_9">
     <g id="line2d_96">
      <g>
       <use style="stroke:#000000;stroke-width:0.8;" x="367.508594" xlink:href="#mc9f8589423" y="120.273847"/>
      </g>
     </g>
     <g id="text_30">
      <!-- 2000 -->
      <g transform="translate(333.786094 124.263026)scale(0.105 -0.105)">
       <use xlink:href="#DejaVuSans-50"/>
       <use x="63.623047" xlink:href="#DejaVuSans-48"/>
       <use x="127.246094" xlink:href="#DejaVuSans-48"/>
       <use x="190.869141" xlink:href="#DejaVuSans-48"/>
      </g>
     </g>
    </g>
    <g id="ytick_10">
     <g id="line2d_97">
      <g>
       <use style="stroke:#000000;stroke-width:0.8;" x="367.508594" xlink:href="#mc9f8589423" y="94.329435"/>
      </g>
     </g>
     <g id="text_31">
      <!-- 3000 -->
      <g transform="translate(333.786094 98.318614)scale(0.105 -0.105)">
       <defs>
        <path d="M 40.578125 39.3125 
Q 47.65625 37.796875 51.625 33 
Q 55.609375 28.21875 55.609375 21.1875 
Q 55.609375 10.40625 48.1875 4.484375 
Q 40.765625 -1.421875 27.09375 -1.421875 
Q 22.515625 -1.421875 17.65625 -0.515625 
Q 12.796875 0.390625 7.625 2.203125 
L 7.625 11.71875 
Q 11.71875 9.328125 16.59375 8.109375 
Q 21.484375 6.890625 26.8125 6.890625 
Q 36.078125 6.890625 40.9375 10.546875 
Q 45.796875 14.203125 45.796875 21.1875 
Q 45.796875 27.640625 41.28125 31.265625 
Q 36.765625 34.90625 28.71875 34.90625 
L 20.21875 34.90625 
L 20.21875 43.015625 
L 29.109375 43.015625 
Q 36.375 43.015625 40.234375 45.921875 
Q 44.09375 48.828125 44.09375 54.296875 
Q 44.09375 59.90625 40.109375 62.90625 
Q 36.140625 65.921875 28.71875 65.921875 
Q 24.65625 65.921875 20.015625 65.03125 
Q 15.375 64.15625 9.8125 62.3125 
L 9.8125 71.09375 
Q 15.4375 72.65625 20.34375 73.4375 
Q 25.25 74.21875 29.59375 74.21875 
Q 40.828125 74.21875 47.359375 69.109375 
Q 53.90625 64.015625 53.90625 55.328125 
Q 53.90625 49.265625 50.4375 45.09375 
Q 46.96875 40.921875 40.578125 39.3125 
z
" id="DejaVuSans-51"/>
       </defs>
       <use xlink:href="#DejaVuSans-51"/>
       <use x="63.623047" xlink:href="#DejaVuSans-48"/>
       <use x="127.246094" xlink:href="#DejaVuSans-48"/>
       <use x="190.869141" xlink:href="#DejaVuSans-48"/>
      </g>
     </g>
    </g>
    <g id="ytick_11">
     <g id="line2d_98">
      <g>
       <use style="stroke:#000000;stroke-width:0.8;" x="367.508594" xlink:href="#mc9f8589423" y="68.385023"/>
      </g>
     </g>
     <g id="text_32">
      <!-- 4000 -->
      <g transform="translate(333.786094 72.374202)scale(0.105 -0.105)">
       <use xlink:href="#DejaVuSans-52"/>
       <use x="63.623047" xlink:href="#DejaVuSans-48"/>
       <use x="127.246094" xlink:href="#DejaVuSans-48"/>
       <use x="190.869141" xlink:href="#DejaVuSans-48"/>
      </g>
     </g>
    </g>
    <g id="ytick_12">
     <g id="line2d_99">
      <g>
       <use style="stroke:#000000;stroke-width:0.8;" x="367.508594" xlink:href="#mc9f8589423" y="42.440611"/>
      </g>
     </g>
     <g id="text_33">
      <!-- 5000 -->
      <g transform="translate(333.786094 46.429791)scale(0.105 -0.105)">
       <use xlink:href="#DejaVuSans-53"/>
       <use x="63.623047" xlink:href="#DejaVuSans-48"/>
       <use x="127.246094" xlink:href="#DejaVuSans-48"/>
       <use x="190.869141" xlink:href="#DejaVuSans-48"/>
      </g>
     </g>
    </g>
   </g>
   <g id="line2d_100">
    <path clip-path="url(#p3a1670e7a0)" d="M 366.514721 34.757359 
L 367.508594 31.002832 
L 368.502467 29.998412 
L 369.49634 29.45358 
L 370.490213 29.598127 
L 371.484086 29.86869 
L 372.477959 30.002119 
L 373.471831 29.590714 
L 375.459577 33.70105 
L 376.45345 35.43562 
L 378.441196 40.872827 
L 380.428942 49.378888 
L 381.422815 54.638191 
L 382.416688 57.747814 
L 383.410561 61.372619 
L 385.398307 67.602984 
L 386.39218 70.108473 
L 388.379926 76.409259 
L 389.373799 78.903629 
L 391.361545 84.344542 
L 392.355418 86.594294 
L 393.34929 89.870702 
L 394.343163 91.987025 
L 396.330909 97.917176 
L 397.324782 99.681396 
L 398.318655 101.945973 
L 399.312528 103.524876 
L 400.306401 106.890236 
L 401.300274 109.377194 
L 403.28802 112.976054 
L 404.281893 116.044907 
L 406.269639 118.287246 
L 408.257385 121.296798 
L 409.251258 121.860162 
L 411.239004 123.350113 
L 412.232877 123.717041 
L 413.226749 125.02538 
L 417.202241 128.794733 
L 418.196114 129.977057 
L 420.18386 131.452182 
L 421.177733 132.767934 
L 425.153225 134.346837 
L 427.140971 135.792311 
L 428.134844 134.928733 
L 429.128717 135.069574 
L 430.12259 135.73301 
L 431.116463 136.007279 
L 432.110336 136.481691 
L 433.104209 136.49281 
L 434.098081 136.222247 
L 436.085827 137.727023 
L 437.0797 136.733723 
L 438.073573 137.078413 
L 439.067446 136.426096 
L 440.061319 135.966509 
L 441.055192 135.310487 
L 443.042938 133.457314 
L 444.036811 133.675989 
L 445.030684 131.811697 
L 446.024557 130.792452 
L 447.01843 128.965225 
L 448.012303 127.51975 
L 449.006176 126.348545 
L 450.993922 123.30193 
L 452.981668 121.218964 
L 453.97554 120.859449 
L 454.969413 120.066291 
L 456.957159 118.072278 
L 457.951032 116.20428 
L 458.944905 114.747687 
L 459.938778 114.213973 
L 460.932651 113.272562 
L 461.926524 111.990167 
L 462.920397 110.081399 
L 463.91427 108.435782 
L 464.908143 108.862012 
L 465.902016 108.483965 
L 466.895889 106.597435 
L 467.889762 105.300215 
L 468.883635 104.803564 
L 469.877508 103.839915 
L 470.871381 103.472987 
L 471.865254 102.62794 
L 472.859127 102.987456 
L 473.852999 103.858447 
L 475.840745 105.177905 
L 476.834618 106.100785 
L 477.828491 107.842767 
L 478.822364 109.18817 
L 479.816237 109.758947 
L 483.791729 115.955955 
L 484.785602 116.604566 
L 486.773348 118.624523 
L 487.767221 118.858023 
L 488.761094 118.746833 
L 489.754967 119.365792 
L 491.742713 121.767503 
L 492.736586 122.608844 
L 494.724331 125.040206 
L 495.718204 126.967505 
L 496.712077 128.094234 
L 498.699823 129.613835 
L 499.693696 130.488532 
L 501.681442 130.555246 
L 502.675315 130.722032 
L 503.669188 131.044484 
L 504.663061 132.182332 
L 505.656934 132.745696 
L 506.650807 133.635219 
L 507.64468 133.976202 
L 508.638553 134.799011 
L 509.632426 135.358669 
L 510.626299 135.73301 
L 512.614045 137.03023 
L 513.607918 137.45646 
L 514.60179 138.661022 
L 515.595663 139.67656 
L 516.589536 140.373353 
L 517.583409 140.862591 
L 518.577282 141.607566 
L 519.571155 141.325884 
L 520.565028 141.9782 
L 521.558901 142.463732 
L 522.552774 142.645342 
L 524.54052 142.682406 
L 525.534393 143.601579 
L 526.528266 143.909206 
L 528.516012 143.664587 
L 530.503758 143.627524 
L 531.497631 143.901793 
L 532.491504 142.845485 
L 533.485377 142.508208 
L 534.479249 141.855891 
L 535.473122 141.555677 
L 537.460868 141.414836 
L 539.448614 140.173211 
L 540.442487 140.343702 
L 542.430233 140.321464 
L 543.424106 139.41341 
L 544.417979 138.857458 
L 545.411852 138.824101 
L 547.399598 138.627665 
L 548.393471 137.634365 
L 549.387344 136.010986 
L 550.381217 135.65147 
L 551.37509 134.8509 
L 552.368963 133.872425 
L 554.356709 131.192738 
L 556.344454 131.415118 
L 557.338327 130.484826 
L 559.326073 129.732438 
L 561.313819 128.694661 
L 563.301565 126.804426 
L 565.289311 125.759237 
L 566.283184 124.799293 
L 567.277057 124.07285 
L 569.264803 121.519178 
L 570.258676 120.774203 
L 572.246422 118.442912 
L 573.240295 118.061159 
L 574.234168 116.749113 
L 575.22804 116.367359 
L 576.221913 115.096083 
L 577.215786 114.173203 
L 578.209659 113.591307 
L 579.203532 112.509055 
L 580.197405 109.53286 
L 583.179024 103.402566 
L 585.16677 98.476834 
L 586.160643 96.527297 
L 587.154516 96.234496 
L 588.148389 93.984745 
L 589.142262 90.519313 
L 590.136135 89.385171 
L 591.130008 87.913752 
L 594.111627 82.291228 
L 595.105499 80.030357 
L 596.099372 78.492224 
L 597.093245 75.920021 
L 599.080991 71.583598 
L 601.068737 71.094361 
L 602.06261 70.479107 
L 603.056483 70.475401 
L 604.050356 69.978751 
L 605.044229 73.206977 
L 606.038102 73.433064 
L 607.031975 72.035772 
L 608.025848 72.843755 
L 609.019721 72.358224 
L 610.013594 71.168488 
L 611.007467 71.613249 
L 611.007467 71.613249 
" style="fill:none;stroke:#1f77b4;stroke-linecap:square;stroke-width:1.5;"/>
   </g>
   <g id="patch_8">
    <path d="M 367.508594 179.298125 
L 367.508594 22.318125 
" style="fill:none;stroke:#000000;stroke-linecap:square;stroke-linejoin:miter;stroke-width:0.8;"/>
   </g>
   <g id="patch_9">
    <path d="M 610.013594 179.298125 
L 610.013594 22.318125 
" style="fill:none;stroke:#000000;stroke-linecap:square;stroke-linejoin:miter;stroke-width:0.8;"/>
   </g>
   <g id="patch_10">
    <path d="M 367.508594 179.298125 
L 610.013594 179.298125 
" style="fill:none;stroke:#000000;stroke-linecap:square;stroke-linejoin:miter;stroke-width:0.8;"/>
   </g>
   <g id="patch_11">
    <path d="M 367.508594 22.318125 
L 610.013594 22.318125 
" style="fill:none;stroke:#000000;stroke-linecap:square;stroke-linejoin:miter;stroke-width:0.8;"/>
   </g>
   <g id="text_34">
    <!-- COVID-19 Hospitalizations -->
    <g transform="translate(410.160156 16.318125)scale(0.12 -0.12)">
     <defs>
      <path d="M 9.8125 72.90625 
L 19.671875 72.90625 
L 19.671875 43.015625 
L 55.515625 43.015625 
L 55.515625 72.90625 
L 65.375 72.90625 
L 65.375 0 
L 55.515625 0 
L 55.515625 34.71875 
L 19.671875 34.71875 
L 19.671875 0 
L 9.8125 0 
z
" id="DejaVuSans-72"/>
      <path d="M 9.421875 54.6875 
L 18.40625 54.6875 
L 18.40625 0 
L 9.421875 0 
z
M 9.421875 75.984375 
L 18.40625 75.984375 
L 18.40625 64.59375 
L 9.421875 64.59375 
z
" id="DejaVuSans-105"/>
      <path d="M 9.421875 75.984375 
L 18.40625 75.984375 
L 18.40625 0 
L 9.421875 0 
z
" id="DejaVuSans-108"/>
      <path d="M 5.515625 54.6875 
L 48.1875 54.6875 
L 48.1875 46.484375 
L 14.40625 7.171875 
L 48.1875 7.171875 
L 48.1875 0 
L 4.296875 0 
L 4.296875 8.203125 
L 38.09375 47.515625 
L 5.515625 47.515625 
z
" id="DejaVuSans-122"/>
     </defs>
     <use xlink:href="#DejaVuSans-67"/>
     <use x="69.824219" xlink:href="#DejaVuSans-79"/>
     <use x="146.785156" xlink:href="#DejaVuSans-86"/>
     <use x="215.193359" xlink:href="#DejaVuSans-73"/>
     <use x="244.685547" xlink:href="#DejaVuSans-68"/>
     <use x="321.6875" xlink:href="#DejaVuSans-45"/>
     <use x="357.771484" xlink:href="#DejaVuSans-49"/>
     <use x="421.394531" xlink:href="#DejaVuSans-57"/>
     <use x="485.017578" xlink:href="#DejaVuSans-32"/>
     <use x="516.804688" xlink:href="#DejaVuSans-72"/>
     <use x="592" xlink:href="#DejaVuSans-111"/>
     <use x="653.181641" xlink:href="#DejaVuSans-115"/>
     <use x="705.28125" xlink:href="#DejaVuSans-112"/>
     <use x="768.757812" xlink:href="#DejaVuSans-105"/>
     <use x="796.541016" xlink:href="#DejaVuSans-116"/>
     <use x="835.75" xlink:href="#DejaVuSans-97"/>
     <use x="897.029297" xlink:href="#DejaVuSans-108"/>
     <use x="924.8125" xlink:href="#DejaVuSans-105"/>
     <use x="952.595703" xlink:href="#DejaVuSans-122"/>
     <use x="1005.085938" xlink:href="#DejaVuSans-97"/>
     <use x="1066.365234" xlink:href="#DejaVuSans-116"/>
     <use x="1105.574219" xlink:href="#DejaVuSans-105"/>
     <use x="1133.357422" xlink:href="#DejaVuSans-111"/>
     <use x="1194.539062" xlink:href="#DejaVuSans-110"/>
     <use x="1257.917969" xlink:href="#DejaVuSans-115"/>
    </g>
   </g>
  </g>
  <g id="axes_3">
   <g id="patch_12">
    <path d="M 665.603594 179.298125 
L 908.108594 179.298125 
L 908.108594 22.318125 
L 665.603594 22.318125 
z
" style="fill:#ffffff;"/>
   </g>
   <g id="matplotlib.axis_5">
    <g id="xtick_87">
     <g id="line2d_101">
      <g>
       <use style="stroke:#000000;stroke-width:0.8;" x="665.603594" xlink:href="#m50f2f3b43d" y="179.298125"/>
      </g>
     </g>
     <g id="text_35">
      <!-- 2020-04 -->
      <g transform="translate(626.517532 215.143563)rotate(-30)scale(0.105 -0.105)">
       <use xlink:href="#DejaVuSans-50"/>
       <use x="63.623047" xlink:href="#DejaVuSans-48"/>
       <use x="127.246094" xlink:href="#DejaVuSans-50"/>
       <use x="190.869141" xlink:href="#DejaVuSans-48"/>
       <use x="254.492188" xlink:href="#DejaVuSans-45"/>
       <use x="290.576172" xlink:href="#DejaVuSans-48"/>
       <use x="354.199219" xlink:href="#DejaVuSans-52"/>
      </g>
     </g>
    </g>
    <g id="xtick_88">
     <g id="line2d_102">
      <g>
       <use style="stroke:#000000;stroke-width:0.8;" x="695.419782" xlink:href="#m50f2f3b43d" y="179.298125"/>
      </g>
     </g>
     <g id="text_36">
      <!-- 2020-05 -->
      <g transform="translate(656.33372 215.143563)rotate(-30)scale(0.105 -0.105)">
       <use xlink:href="#DejaVuSans-50"/>
       <use x="63.623047" xlink:href="#DejaVuSans-48"/>
       <use x="127.246094" xlink:href="#DejaVuSans-50"/>
       <use x="190.869141" xlink:href="#DejaVuSans-48"/>
       <use x="254.492188" xlink:href="#DejaVuSans-45"/>
       <use x="290.576172" xlink:href="#DejaVuSans-48"/>
       <use x="354.199219" xlink:href="#DejaVuSans-53"/>
      </g>
     </g>
    </g>
    <g id="xtick_89">
     <g id="line2d_103">
      <g>
       <use style="stroke:#000000;stroke-width:0.8;" x="726.229844" xlink:href="#m50f2f3b43d" y="179.298125"/>
      </g>
     </g>
     <g id="text_37">
      <!-- 2020-06 -->
      <g transform="translate(687.143782 215.143563)rotate(-30)scale(0.105 -0.105)">
       <use xlink:href="#DejaVuSans-50"/>
       <use x="63.623047" xlink:href="#DejaVuSans-48"/>
       <use x="127.246094" xlink:href="#DejaVuSans-50"/>
       <use x="190.869141" xlink:href="#DejaVuSans-48"/>
       <use x="254.492188" xlink:href="#DejaVuSans-45"/>
       <use x="290.576172" xlink:href="#DejaVuSans-48"/>
       <use x="354.199219" xlink:href="#DejaVuSans-54"/>
      </g>
     </g>
    </g>
    <g id="xtick_90">
     <g id="line2d_104">
      <g>
       <use style="stroke:#000000;stroke-width:0.8;" x="756.046032" xlink:href="#m50f2f3b43d" y="179.298125"/>
      </g>
     </g>
     <g id="text_38">
      <!-- 2020-07 -->
      <g transform="translate(716.95997 215.143563)rotate(-30)scale(0.105 -0.105)">
       <use xlink:href="#DejaVuSans-50"/>
       <use x="63.623047" xlink:href="#DejaVuSans-48"/>
       <use x="127.246094" xlink:href="#DejaVuSans-50"/>
       <use x="190.869141" xlink:href="#DejaVuSans-48"/>
       <use x="254.492188" xlink:href="#DejaVuSans-45"/>
       <use x="290.576172" xlink:href="#DejaVuSans-48"/>
       <use x="354.199219" xlink:href="#DejaVuSans-55"/>
      </g>
     </g>
    </g>
    <g id="xtick_91">
     <g id="line2d_105">
      <g>
       <use style="stroke:#000000;stroke-width:0.8;" x="786.856094" xlink:href="#m50f2f3b43d" y="179.298125"/>
      </g>
     </g>
     <g id="text_39">
      <!-- 2020-08 -->
      <g transform="translate(747.770032 215.143563)rotate(-30)scale(0.105 -0.105)">
       <use xlink:href="#DejaVuSans-50"/>
       <use x="63.623047" xlink:href="#DejaVuSans-48"/>
       <use x="127.246094" xlink:href="#DejaVuSans-50"/>
       <use x="190.869141" xlink:href="#DejaVuSans-48"/>
       <use x="254.492188" xlink:href="#DejaVuSans-45"/>
       <use x="290.576172" xlink:href="#DejaVuSans-48"/>
       <use x="354.199219" xlink:href="#DejaVuSans-56"/>
      </g>
     </g>
    </g>
    <g id="xtick_92">
     <g id="line2d_106">
      <g>
       <use style="stroke:#000000;stroke-width:0.8;" x="817.666155" xlink:href="#m50f2f3b43d" y="179.298125"/>
      </g>
     </g>
     <g id="text_40">
      <!-- 2020-09 -->
      <g transform="translate(778.580093 215.143563)rotate(-30)scale(0.105 -0.105)">
       <use xlink:href="#DejaVuSans-50"/>
       <use x="63.623047" xlink:href="#DejaVuSans-48"/>
       <use x="127.246094" xlink:href="#DejaVuSans-50"/>
       <use x="190.869141" xlink:href="#DejaVuSans-48"/>
       <use x="254.492188" xlink:href="#DejaVuSans-45"/>
       <use x="290.576172" xlink:href="#DejaVuSans-48"/>
       <use x="354.199219" xlink:href="#DejaVuSans-57"/>
      </g>
     </g>
    </g>
    <g id="xtick_93">
     <g id="line2d_107">
      <g>
       <use style="stroke:#000000;stroke-width:0.8;" x="847.482344" xlink:href="#m50f2f3b43d" y="179.298125"/>
      </g>
     </g>
     <g id="text_41">
      <!-- 2020-10 -->
      <g transform="translate(808.396282 215.143563)rotate(-30)scale(0.105 -0.105)">
       <use xlink:href="#DejaVuSans-50"/>
       <use x="63.623047" xlink:href="#DejaVuSans-48"/>
       <use x="127.246094" xlink:href="#DejaVuSans-50"/>
       <use x="190.869141" xlink:href="#DejaVuSans-48"/>
       <use x="254.492188" xlink:href="#DejaVuSans-45"/>
       <use x="290.576172" xlink:href="#DejaVuSans-49"/>
       <use x="354.199219" xlink:href="#DejaVuSans-48"/>
      </g>
     </g>
    </g>
    <g id="xtick_94">
     <g id="line2d_108">
      <g>
       <use style="stroke:#000000;stroke-width:0.8;" x="878.292405" xlink:href="#m50f2f3b43d" y="179.298125"/>
      </g>
     </g>
     <g id="text_42">
      <!-- 2020-11 -->
      <g transform="translate(839.206343 215.143563)rotate(-30)scale(0.105 -0.105)">
       <use xlink:href="#DejaVuSans-50"/>
       <use x="63.623047" xlink:href="#DejaVuSans-48"/>
       <use x="127.246094" xlink:href="#DejaVuSans-50"/>
       <use x="190.869141" xlink:href="#DejaVuSans-48"/>
       <use x="254.492188" xlink:href="#DejaVuSans-45"/>
       <use x="290.576172" xlink:href="#DejaVuSans-49"/>
       <use x="354.199219" xlink:href="#DejaVuSans-49"/>
      </g>
     </g>
    </g>
    <g id="xtick_95">
     <g id="line2d_109">
      <g>
       <use style="stroke:#000000;stroke-width:0.8;" x="908.108594" xlink:href="#m50f2f3b43d" y="179.298125"/>
      </g>
     </g>
     <g id="text_43">
      <!-- 2020-12 -->
      <g transform="translate(869.022532 215.143563)rotate(-30)scale(0.105 -0.105)">
       <use xlink:href="#DejaVuSans-50"/>
       <use x="63.623047" xlink:href="#DejaVuSans-48"/>
       <use x="127.246094" xlink:href="#DejaVuSans-50"/>
       <use x="190.869141" xlink:href="#DejaVuSans-48"/>
       <use x="254.492188" xlink:href="#DejaVuSans-45"/>
       <use x="290.576172" xlink:href="#DejaVuSans-49"/>
       <use x="354.199219" xlink:href="#DejaVuSans-50"/>
      </g>
     </g>
    </g>
    <g id="xtick_96">
     <g id="line2d_110">
      <g>
       <use style="stroke:#000000;stroke-width:0.6;" x="670.572959" xlink:href="#m6940f7d9ab" y="179.298125"/>
      </g>
     </g>
    </g>
    <g id="xtick_97">
     <g id="line2d_111">
      <g>
       <use style="stroke:#000000;stroke-width:0.6;" x="677.530069" xlink:href="#m6940f7d9ab" y="179.298125"/>
      </g>
     </g>
    </g>
    <g id="xtick_98">
     <g id="line2d_112">
      <g>
       <use style="stroke:#000000;stroke-width:0.6;" x="684.48718" xlink:href="#m6940f7d9ab" y="179.298125"/>
      </g>
     </g>
    </g>
    <g id="xtick_99">
     <g id="line2d_113">
      <g>
       <use style="stroke:#000000;stroke-width:0.6;" x="691.44429" xlink:href="#m6940f7d9ab" y="179.298125"/>
      </g>
     </g>
    </g>
    <g id="xtick_100">
     <g id="line2d_114">
      <g>
       <use style="stroke:#000000;stroke-width:0.6;" x="698.401401" xlink:href="#m6940f7d9ab" y="179.298125"/>
      </g>
     </g>
    </g>
    <g id="xtick_101">
     <g id="line2d_115">
      <g>
       <use style="stroke:#000000;stroke-width:0.6;" x="705.358512" xlink:href="#m6940f7d9ab" y="179.298125"/>
      </g>
     </g>
    </g>
    <g id="xtick_102">
     <g id="line2d_116">
      <g>
       <use style="stroke:#000000;stroke-width:0.6;" x="712.315622" xlink:href="#m6940f7d9ab" y="179.298125"/>
      </g>
     </g>
    </g>
    <g id="xtick_103">
     <g id="line2d_117">
      <g>
       <use style="stroke:#000000;stroke-width:0.6;" x="719.272733" xlink:href="#m6940f7d9ab" y="179.298125"/>
      </g>
     </g>
    </g>
    <g id="xtick_104">
     <g id="line2d_118">
      <g>
       <use style="stroke:#000000;stroke-width:0.6;" x="733.186954" xlink:href="#m6940f7d9ab" y="179.298125"/>
      </g>
     </g>
    </g>
    <g id="xtick_105">
     <g id="line2d_119">
      <g>
       <use style="stroke:#000000;stroke-width:0.6;" x="740.144065" xlink:href="#m6940f7d9ab" y="179.298125"/>
      </g>
     </g>
    </g>
    <g id="xtick_106">
     <g id="line2d_120">
      <g>
       <use style="stroke:#000000;stroke-width:0.6;" x="747.101176" xlink:href="#m6940f7d9ab" y="179.298125"/>
      </g>
     </g>
    </g>
    <g id="xtick_107">
     <g id="line2d_121">
      <g>
       <use style="stroke:#000000;stroke-width:0.6;" x="754.058286" xlink:href="#m6940f7d9ab" y="179.298125"/>
      </g>
     </g>
    </g>
    <g id="xtick_108">
     <g id="line2d_122">
      <g>
       <use style="stroke:#000000;stroke-width:0.6;" x="761.015397" xlink:href="#m6940f7d9ab" y="179.298125"/>
      </g>
     </g>
    </g>
    <g id="xtick_109">
     <g id="line2d_123">
      <g>
       <use style="stroke:#000000;stroke-width:0.6;" x="767.972508" xlink:href="#m6940f7d9ab" y="179.298125"/>
      </g>
     </g>
    </g>
    <g id="xtick_110">
     <g id="line2d_124">
      <g>
       <use style="stroke:#000000;stroke-width:0.6;" x="774.929618" xlink:href="#m6940f7d9ab" y="179.298125"/>
      </g>
     </g>
    </g>
    <g id="xtick_111">
     <g id="line2d_125">
      <g>
       <use style="stroke:#000000;stroke-width:0.6;" x="781.886729" xlink:href="#m6940f7d9ab" y="179.298125"/>
      </g>
     </g>
    </g>
    <g id="xtick_112">
     <g id="line2d_126">
      <g>
       <use style="stroke:#000000;stroke-width:0.6;" x="788.84384" xlink:href="#m6940f7d9ab" y="179.298125"/>
      </g>
     </g>
    </g>
    <g id="xtick_113">
     <g id="line2d_127">
      <g>
       <use style="stroke:#000000;stroke-width:0.6;" x="795.80095" xlink:href="#m6940f7d9ab" y="179.298125"/>
      </g>
     </g>
    </g>
    <g id="xtick_114">
     <g id="line2d_128">
      <g>
       <use style="stroke:#000000;stroke-width:0.6;" x="802.758061" xlink:href="#m6940f7d9ab" y="179.298125"/>
      </g>
     </g>
    </g>
    <g id="xtick_115">
     <g id="line2d_129">
      <g>
       <use style="stroke:#000000;stroke-width:0.6;" x="809.715172" xlink:href="#m6940f7d9ab" y="179.298125"/>
      </g>
     </g>
    </g>
    <g id="xtick_116">
     <g id="line2d_130">
      <g>
       <use style="stroke:#000000;stroke-width:0.6;" x="816.672282" xlink:href="#m6940f7d9ab" y="179.298125"/>
      </g>
     </g>
    </g>
    <g id="xtick_117">
     <g id="line2d_131">
      <g>
       <use style="stroke:#000000;stroke-width:0.6;" x="823.629393" xlink:href="#m6940f7d9ab" y="179.298125"/>
      </g>
     </g>
    </g>
    <g id="xtick_118">
     <g id="line2d_132">
      <g>
       <use style="stroke:#000000;stroke-width:0.6;" x="830.586504" xlink:href="#m6940f7d9ab" y="179.298125"/>
      </g>
     </g>
    </g>
    <g id="xtick_119">
     <g id="line2d_133">
      <g>
       <use style="stroke:#000000;stroke-width:0.6;" x="837.543614" xlink:href="#m6940f7d9ab" y="179.298125"/>
      </g>
     </g>
    </g>
    <g id="xtick_120">
     <g id="line2d_134">
      <g>
       <use style="stroke:#000000;stroke-width:0.6;" x="844.500725" xlink:href="#m6940f7d9ab" y="179.298125"/>
      </g>
     </g>
    </g>
    <g id="xtick_121">
     <g id="line2d_135">
      <g>
       <use style="stroke:#000000;stroke-width:0.6;" x="851.457836" xlink:href="#m6940f7d9ab" y="179.298125"/>
      </g>
     </g>
    </g>
    <g id="xtick_122">
     <g id="line2d_136">
      <g>
       <use style="stroke:#000000;stroke-width:0.6;" x="858.414946" xlink:href="#m6940f7d9ab" y="179.298125"/>
      </g>
     </g>
    </g>
    <g id="xtick_123">
     <g id="line2d_137">
      <g>
       <use style="stroke:#000000;stroke-width:0.6;" x="865.372057" xlink:href="#m6940f7d9ab" y="179.298125"/>
      </g>
     </g>
    </g>
    <g id="xtick_124">
     <g id="line2d_138">
      <g>
       <use style="stroke:#000000;stroke-width:0.6;" x="872.329168" xlink:href="#m6940f7d9ab" y="179.298125"/>
      </g>
     </g>
    </g>
    <g id="xtick_125">
     <g id="line2d_139">
      <g>
       <use style="stroke:#000000;stroke-width:0.6;" x="879.286278" xlink:href="#m6940f7d9ab" y="179.298125"/>
      </g>
     </g>
    </g>
    <g id="xtick_126">
     <g id="line2d_140">
      <g>
       <use style="stroke:#000000;stroke-width:0.6;" x="886.243389" xlink:href="#m6940f7d9ab" y="179.298125"/>
      </g>
     </g>
    </g>
    <g id="xtick_127">
     <g id="line2d_141">
      <g>
       <use style="stroke:#000000;stroke-width:0.6;" x="893.200499" xlink:href="#m6940f7d9ab" y="179.298125"/>
      </g>
     </g>
    </g>
    <g id="xtick_128">
     <g id="line2d_142">
      <g>
       <use style="stroke:#000000;stroke-width:0.6;" x="900.15761" xlink:href="#m6940f7d9ab" y="179.298125"/>
      </g>
     </g>
    </g>
    <g id="xtick_129">
     <g id="line2d_143">
      <g>
       <use style="stroke:#000000;stroke-width:0.6;" x="907.114721" xlink:href="#m6940f7d9ab" y="179.298125"/>
      </g>
     </g>
    </g>
   </g>
   <g id="matplotlib.axis_6">
    <g id="ytick_13">
     <g id="line2d_144">
      <g>
       <use style="stroke:#000000;stroke-width:0.8;" x="665.603594" xlink:href="#mc9f8589423" y="172.16267"/>
      </g>
     </g>
     <g id="text_44">
      <!-- 0 -->
      <g transform="translate(651.922969 176.15185)scale(0.105 -0.105)">
       <use xlink:href="#DejaVuSans-48"/>
      </g>
     </g>
    </g>
    <g id="ytick_14">
     <g id="line2d_145">
      <g>
       <use style="stroke:#000000;stroke-width:0.8;" x="665.603594" xlink:href="#mc9f8589423" y="141.493272"/>
      </g>
     </g>
     <g id="text_45">
      <!-- 500 -->
      <g transform="translate(638.561719 145.482452)scale(0.105 -0.105)">
       <use xlink:href="#DejaVuSans-53"/>
       <use x="63.623047" xlink:href="#DejaVuSans-48"/>
       <use x="127.246094" xlink:href="#DejaVuSans-48"/>
      </g>
     </g>
    </g>
    <g id="ytick_15">
     <g id="line2d_146">
      <g>
       <use style="stroke:#000000;stroke-width:0.8;" x="665.603594" xlink:href="#mc9f8589423" y="110.823874"/>
      </g>
     </g>
     <g id="text_46">
      <!-- 1000 -->
      <g transform="translate(631.881094 114.813054)scale(0.105 -0.105)">
       <use xlink:href="#DejaVuSans-49"/>
       <use x="63.623047" xlink:href="#DejaVuSans-48"/>
       <use x="127.246094" xlink:href="#DejaVuSans-48"/>
       <use x="190.869141" xlink:href="#DejaVuSans-48"/>
      </g>
     </g>
    </g>
    <g id="ytick_16">
     <g id="line2d_147">
      <g>
       <use style="stroke:#000000;stroke-width:0.8;" x="665.603594" xlink:href="#mc9f8589423" y="80.154476"/>
      </g>
     </g>
     <g id="text_47">
      <!-- 1500 -->
      <g transform="translate(631.881094 84.143656)scale(0.105 -0.105)">
       <use xlink:href="#DejaVuSans-49"/>
       <use x="63.623047" xlink:href="#DejaVuSans-53"/>
       <use x="127.246094" xlink:href="#DejaVuSans-48"/>
       <use x="190.869141" xlink:href="#DejaVuSans-48"/>
      </g>
     </g>
    </g>
    <g id="ytick_17">
     <g id="line2d_148">
      <g>
       <use style="stroke:#000000;stroke-width:0.8;" x="665.603594" xlink:href="#mc9f8589423" y="49.485078"/>
      </g>
     </g>
     <g id="text_48">
      <!-- 2000 -->
      <g transform="translate(631.881094 53.474258)scale(0.105 -0.105)">
       <use xlink:href="#DejaVuSans-50"/>
       <use x="63.623047" xlink:href="#DejaVuSans-48"/>
       <use x="127.246094" xlink:href="#DejaVuSans-48"/>
       <use x="190.869141" xlink:href="#DejaVuSans-48"/>
      </g>
     </g>
    </g>
   </g>
   <g id="line2d_149">
    <path clip-path="url(#p9d421ffaa6)" d="M 664.609721 61.53377 
L 665.603594 55.592669 
L 667.59134 46.75112 
L 669.579086 39.688396 
L 671.566831 32.178775 
L 672.560704 29.690172 
L 673.554577 29.45358 
L 674.54845 29.523681 
L 675.542323 31.504048 
L 677.530069 36.787947 
L 678.523942 40.100242 
L 679.517815 45.795987 
L 680.511688 48.687674 
L 681.505561 51.132463 
L 682.499434 54.032911 
L 683.493307 57.371495 
L 684.48718 59.255472 
L 685.481053 62.471377 
L 686.474926 64.294016 
L 687.468799 66.870245 
L 688.462672 70.287693 
L 689.456545 72.206721 
L 690.450418 74.835526 
L 696.413655 97.232949 
L 697.407528 98.854046 
L 698.401401 103.577134 
L 699.395274 106.757988 
L 700.389147 110.727485 
L 702.376893 117.211872 
L 703.370766 118.491224 
L 706.352385 124.58129 
L 707.346258 124.896747 
L 708.340131 125.764252 
L 709.334004 127.131231 
L 711.321749 129.409529 
L 712.315622 131.065677 
L 713.309495 131.731641 
L 714.303368 133.23006 
L 715.297241 135.052699 
L 716.291114 136.533592 
L 717.284987 137.11193 
L 718.27886 137.935622 
L 719.272733 140.056192 
L 720.266606 141.405645 
L 721.260479 141.458222 
L 723.248225 142.886539 
L 724.242098 144.271044 
L 725.235971 145.04216 
L 726.229844 144.297332 
L 727.223717 145.138549 
L 728.21759 146.689545 
L 730.205336 147.977659 
L 732.193081 147.960134 
L 733.186954 148.652386 
L 734.180827 149.125571 
L 735.1747 149.108046 
L 736.168573 149.598756 
L 738.156319 149.397214 
L 739.150192 149.41474 
L 740.144065 149.589993 
L 741.137938 149.379689 
L 742.131811 148.95908 
L 744.119557 146.277698 
L 745.11343 145.278752 
L 746.107303 144.551449 
L 747.101176 143.386012 
L 749.088922 141.61595 
L 750.082795 141.195341 
L 751.076668 140.958749 
L 752.07054 140.485564 
L 753.064413 139.556719 
L 754.058286 138.978382 
L 755.052159 138.198503 
L 757.039905 135.48207 
L 758.033778 135.420731 
L 759.027651 135.070224 
L 760.021524 134.439311 
L 762.00927 131.591438 
L 763.003143 131.801742 
L 763.997016 130.942999 
L 764.990889 128.690989 
L 765.984762 127.4204 
L 766.978635 126.360115 
L 767.972508 125.75549 
L 768.966381 125.606524 
L 769.960254 124.896747 
L 770.954127 125.019424 
L 771.947999 125.510135 
L 772.941872 125.194678 
L 773.935745 125.685388 
L 774.929618 125.746727 
L 777.911237 126.587945 
L 778.90511 127.630704 
L 779.898983 128.848718 
L 780.892856 129.681173 
L 781.886729 130.014155 
L 782.880602 130.671356 
L 783.874475 130.907949 
L 784.868348 131.950708 
L 786.856094 132.143487 
L 787.849967 132.60791 
L 788.84384 133.641906 
L 789.837713 134.27282 
L 790.831586 135.35063 
L 792.819331 136.481016 
L 793.813204 137.611403 
L 794.807077 138.294892 
L 795.80095 138.741789 
L 797.788696 139.907226 
L 798.782569 140.257734 
L 799.776442 140.976274 
L 801.764188 141.537086 
L 802.758061 142.036559 
L 803.751934 142.176762 
L 804.745807 143.044268 
L 807.727426 143.86796 
L 808.721299 144.130841 
L 810.709045 145.839564 
L 811.702918 146.163784 
L 812.69679 146.996239 
L 813.690663 147.583339 
L 814.684536 148.398268 
L 815.678409 148.95908 
L 816.672282 149.134334 
L 818.660028 149.861637 
L 819.653901 150.527601 
L 820.647774 150.825532 
L 821.641647 149.782772 
L 822.63552 149.993077 
L 823.629393 151.728089 
L 824.623266 151.43892 
L 825.617139 151.701801 
L 826.611012 151.579123 
L 827.604885 151.885817 
L 828.598758 153.191457 
L 829.592631 152.97239 
L 830.586504 152.25385 
L 831.580377 152.411578 
L 832.574249 152.341477 
L 833.568122 151.938393 
L 834.561995 151.938393 
L 836.549741 151.789427 
L 837.543614 151.044599 
L 838.537487 151.167277 
L 839.53136 150.571414 
L 840.525233 150.790481 
L 841.519106 149.931738 
L 842.512979 149.344638 
L 843.506852 149.037944 
L 844.500725 148.424556 
L 846.488471 148.126625 
L 847.482344 145.497819 
L 849.47009 145.357616 
L 850.463963 144.884431 
L 851.457836 144.139603 
L 852.451709 143.228284 
L 853.445581 142.579845 
L 854.439454 144.069502 
L 855.433327 143.4123 
L 856.4272 142.606133 
L 857.421073 141.046375 
L 858.414946 140.520614 
L 859.408819 139.749498 
L 860.402692 139.469092 
L 861.396565 138.899517 
L 862.390438 138.838179 
L 863.384311 137.672742 
L 864.378184 138.102113 
L 865.372057 137.611403 
L 866.36593 136.463491 
L 867.359803 134.816106 
L 868.353676 133.825923 
L 869.347549 132.450181 
L 870.341422 132.423893 
L 871.335295 131.547625 
L 872.329168 129.952816 
L 873.32304 129.760037 
L 874.316913 128.778616 
L 875.310786 128.936344 
L 876.304659 128.086364 
L 877.298532 126.500318 
L 879.286278 124.633866 
L 880.280151 123.266887 
L 881.274024 120.848386 
L 882.267897 118.026801 
L 883.26177 116.107773 
L 884.255643 116.06396 
L 886.243389 111.945498 
L 887.237262 109.185252 
L 888.231135 109.772352 
L 889.225008 109.220303 
L 890.218881 108.475475 
L 891.212754 105.268332 
L 892.206627 105.504924 
L 893.200499 103.997742 
L 894.194372 103.708574 
L 895.188245 102.753441 
L 896.182118 102.043664 
L 897.175991 101.062243 
L 898.169864 103.410642 
L 899.163737 103.804963 
L 900.15761 103.384354 
L 901.151483 101.964799 
L 902.145356 102.148816 
L 903.139229 105.504924 
L 904.133102 106.354905 
L 905.126975 106.188414 
L 906.120848 106.985818 
L 907.114721 108.177543 
L 908.108594 110.858925 
L 909.102467 112.401157 
L 909.102467 112.401157 
" style="fill:none;stroke:#1f77b4;stroke-linecap:square;stroke-width:1.5;"/>
   </g>
   <g id="patch_13">
    <path d="M 665.603594 179.298125 
L 665.603594 22.318125 
" style="fill:none;stroke:#000000;stroke-linecap:square;stroke-linejoin:miter;stroke-width:0.8;"/>
   </g>
   <g id="patch_14">
    <path d="M 908.108594 179.298125 
L 908.108594 22.318125 
" style="fill:none;stroke:#000000;stroke-linecap:square;stroke-linejoin:miter;stroke-width:0.8;"/>
   </g>
   <g id="patch_15">
    <path d="M 665.603594 179.298125 
L 908.108594 179.298125 
" style="fill:none;stroke:#000000;stroke-linecap:square;stroke-linejoin:miter;stroke-width:0.8;"/>
   </g>
   <g id="patch_16">
    <path d="M 665.603594 22.318125 
L 908.108594 22.318125 
" style="fill:none;stroke:#000000;stroke-linecap:square;stroke-linejoin:miter;stroke-width:0.8;"/>
   </g>
   <g id="text_49">
    <!-- COVID-19 Deaths -->
    <g transform="translate(734.578281 16.318125)scale(0.12 -0.12)">
     <defs>
      <path d="M 54.890625 33.015625 
L 54.890625 0 
L 45.90625 0 
L 45.90625 32.71875 
Q 45.90625 40.484375 42.875 44.328125 
Q 39.84375 48.1875 33.796875 48.1875 
Q 26.515625 48.1875 22.3125 43.546875 
Q 18.109375 38.921875 18.109375 30.90625 
L 18.109375 0 
L 9.078125 0 
L 9.078125 75.984375 
L 18.109375 75.984375 
L 18.109375 46.1875 
Q 21.34375 51.125 25.703125 53.5625 
Q 30.078125 56 35.796875 56 
Q 45.21875 56 50.046875 50.171875 
Q 54.890625 44.34375 54.890625 33.015625 
z
" id="DejaVuSans-104"/>
     </defs>
     <use xlink:href="#DejaVuSans-67"/>
     <use x="69.824219" xlink:href="#DejaVuSans-79"/>
     <use x="146.785156" xlink:href="#DejaVuSans-86"/>
     <use x="215.193359" xlink:href="#DejaVuSans-73"/>
     <use x="244.685547" xlink:href="#DejaVuSans-68"/>
     <use x="321.6875" xlink:href="#DejaVuSans-45"/>
     <use x="357.771484" xlink:href="#DejaVuSans-49"/>
     <use x="421.394531" xlink:href="#DejaVuSans-57"/>
     <use x="485.017578" xlink:href="#DejaVuSans-32"/>
     <use x="516.804688" xlink:href="#DejaVuSans-68"/>
     <use x="593.806641" xlink:href="#DejaVuSans-101"/>
     <use x="655.330078" xlink:href="#DejaVuSans-97"/>
     <use x="716.609375" xlink:href="#DejaVuSans-116"/>
     <use x="755.818359" xlink:href="#DejaVuSans-104"/>
     <use x="819.197266" xlink:href="#DejaVuSans-115"/>
    </g>
   </g>
  </g>
 </g>
 <defs>
  <clipPath id="p2d6fc105dd">
   <rect height="156.98" width="242.505" x="69.413594" y="22.318125"/>
  </clipPath>
  <clipPath id="p3a1670e7a0">
   <rect height="156.98" width="242.505" x="367.508594" y="22.318125"/>
  </clipPath>
  <clipPath id="p9d421ffaa6">
   <rect height="156.98" width="242.505" x="665.603594" y="22.318125"/>
  </clipPath>
 </defs>
</svg>
