<?xml version="1.0" encoding="utf-8" standalone="no"?>
<!DOCTYPE svg PUBLIC "-//W3C//DTD SVG 1.1//EN"
  "http://www.w3.org/Graphics/SVG/1.1/DTD/svg11.dtd">
<!-- Created with matplotlib (https://matplotlib.org/) -->
<svg height="239.364523pt" version="1.1" viewBox="0 0 627.284375 239.364523" width="627.284375pt" xmlns="http://www.w3.org/2000/svg" xmlns:xlink="http://www.w3.org/1999/xlink">
 <metadata>
  <rdf:RDF xmlns:cc="http://creativecommons.org/ns#" xmlns:dc="http://purl.org/dc/elements/1.1/" xmlns:rdf="http://www.w3.org/1999/02/22-rdf-syntax-ns#">
   <cc:Work>
    <dc:type rdf:resource="http://purl.org/dc/dcmitype/StillImage"/>
    <dc:date>2020-12-11T21:40:47.327334</dc:date>
    <dc:format>image/svg+xml</dc:format>
    <dc:creator>
     <cc:Agent>
      <dc:title>Matplotlib v3.3.1, https://matplotlib.org/</dc:title>
     </cc:Agent>
    </dc:creator>
   </cc:Work>
  </rdf:RDF>
 </metadata>
 <defs>
  <style type="text/css">*{stroke-linecap:butt;stroke-linejoin:round;}</style>
 </defs>
 <g id="figure_1">
  <g id="patch_1">
   <path d="M 0 239.364523 
L 627.284375 239.364523 
L 627.284375 0 
L 0 0 
z
" style="fill:none;"/>
  </g>
  <g id="axes_1">
   <g id="patch_2">
    <path d="M 59.389375 179.298125 
L 313.629375 179.298125 
L 313.629375 22.318125 
L 59.389375 22.318125 
z
" style="fill:#ffffff;"/>
   </g>
   <g id="matplotlib.axis_1">
    <g id="xtick_1">
     <g id="line2d_1">
      <defs>
       <path d="M 0 0 
L 0 3.5 
" id="md9413e5778" style="stroke:#000000;stroke-width:0.8;"/>
      </defs>
      <g>
       <use style="stroke:#000000;stroke-width:0.8;" x="59.389375" xlink:href="#md9413e5778" y="179.298125"/>
      </g>
     </g>
     <g id="text_1">
      <!-- 2020-04 -->
      <g transform="translate(20.303313 215.143563)rotate(-30)scale(0.105 -0.105)">
       <defs>
        <path d="M 19.1875 8.296875 
L 53.609375 8.296875 
L 53.609375 0 
L 7.328125 0 
L 7.328125 8.296875 
Q 12.9375 14.109375 22.625 23.890625 
Q 32.328125 33.6875 34.8125 36.53125 
Q 39.546875 41.84375 41.421875 45.53125 
Q 43.3125 49.21875 43.3125 52.78125 
Q 43.3125 58.59375 39.234375 62.25 
Q 35.15625 65.921875 28.609375 65.921875 
Q 23.96875 65.921875 18.8125 64.3125 
Q 13.671875 62.703125 7.8125 59.421875 
L 7.8125 69.390625 
Q 13.765625 71.78125 18.9375 73 
Q 24.125 74.21875 28.421875 74.21875 
Q 39.75 74.21875 46.484375 68.546875 
Q 53.21875 62.890625 53.21875 53.421875 
Q 53.21875 48.921875 51.53125 44.890625 
Q 49.859375 40.875 45.40625 35.40625 
Q 44.1875 33.984375 37.640625 27.21875 
Q 31.109375 20.453125 19.1875 8.296875 
z
" id="DejaVuSans-50"/>
        <path d="M 31.78125 66.40625 
Q 24.171875 66.40625 20.328125 58.90625 
Q 16.5 51.421875 16.5 36.375 
Q 16.5 21.390625 20.328125 13.890625 
Q 24.171875 6.390625 31.78125 6.390625 
Q 39.453125 6.390625 43.28125 13.890625 
Q 47.125 21.390625 47.125 36.375 
Q 47.125 51.421875 43.28125 58.90625 
Q 39.453125 66.40625 31.78125 66.40625 
z
M 31.78125 74.21875 
Q 44.046875 74.21875 50.515625 64.515625 
Q 56.984375 54.828125 56.984375 36.375 
Q 56.984375 17.96875 50.515625 8.265625 
Q 44.046875 -1.421875 31.78125 -1.421875 
Q 19.53125 -1.421875 13.0625 8.265625 
Q 6.59375 17.96875 6.59375 36.375 
Q 6.59375 54.828125 13.0625 64.515625 
Q 19.53125 74.21875 31.78125 74.21875 
z
" id="DejaVuSans-48"/>
        <path d="M 4.890625 31.390625 
L 31.203125 31.390625 
L 31.203125 23.390625 
L 4.890625 23.390625 
z
" id="DejaVuSans-45"/>
        <path d="M 37.796875 64.3125 
L 12.890625 25.390625 
L 37.796875 25.390625 
z
M 35.203125 72.90625 
L 47.609375 72.90625 
L 47.609375 25.390625 
L 58.015625 25.390625 
L 58.015625 17.1875 
L 47.609375 17.1875 
L 47.609375 0 
L 37.796875 0 
L 37.796875 17.1875 
L 4.890625 17.1875 
L 4.890625 26.703125 
z
" id="DejaVuSans-52"/>
       </defs>
       <use xlink:href="#DejaVuSans-50"/>
       <use x="63.623047" xlink:href="#DejaVuSans-48"/>
       <use x="127.246094" xlink:href="#DejaVuSans-50"/>
       <use x="190.869141" xlink:href="#DejaVuSans-48"/>
       <use x="254.492188" xlink:href="#DejaVuSans-45"/>
       <use x="290.576172" xlink:href="#DejaVuSans-48"/>
       <use x="354.199219" xlink:href="#DejaVuSans-52"/>
      </g>
     </g>
    </g>
    <g id="xtick_2">
     <g id="line2d_2">
      <g>
       <use style="stroke:#000000;stroke-width:0.8;" x="95.030496" xlink:href="#md9413e5778" y="179.298125"/>
      </g>
     </g>
     <g id="text_2">
      <!-- 2020-05 -->
      <g transform="translate(55.944435 215.143563)rotate(-30)scale(0.105 -0.105)">
       <defs>
        <path d="M 10.796875 72.90625 
L 49.515625 72.90625 
L 49.515625 64.59375 
L 19.828125 64.59375 
L 19.828125 46.734375 
Q 21.96875 47.46875 24.109375 47.828125 
Q 26.265625 48.1875 28.421875 48.1875 
Q 40.625 48.1875 47.75 41.5 
Q 54.890625 34.8125 54.890625 23.390625 
Q 54.890625 11.625 47.5625 5.09375 
Q 40.234375 -1.421875 26.90625 -1.421875 
Q 22.3125 -1.421875 17.546875 -0.640625 
Q 12.796875 0.140625 7.71875 1.703125 
L 7.71875 11.625 
Q 12.109375 9.234375 16.796875 8.0625 
Q 21.484375 6.890625 26.703125 6.890625 
Q 35.15625 6.890625 40.078125 11.328125 
Q 45.015625 15.765625 45.015625 23.390625 
Q 45.015625 31 40.078125 35.4375 
Q 35.15625 39.890625 26.703125 39.890625 
Q 22.75 39.890625 18.8125 39.015625 
Q 14.890625 38.140625 10.796875 36.28125 
z
" id="DejaVuSans-53"/>
       </defs>
       <use xlink:href="#DejaVuSans-50"/>
       <use x="63.623047" xlink:href="#DejaVuSans-48"/>
       <use x="127.246094" xlink:href="#DejaVuSans-50"/>
       <use x="190.869141" xlink:href="#DejaVuSans-48"/>
       <use x="254.492188" xlink:href="#DejaVuSans-45"/>
       <use x="290.576172" xlink:href="#DejaVuSans-48"/>
       <use x="354.199219" xlink:href="#DejaVuSans-53"/>
      </g>
     </g>
    </g>
    <g id="xtick_3">
     <g id="line2d_3">
      <g>
       <use style="stroke:#000000;stroke-width:0.8;" x="131.859655" xlink:href="#md9413e5778" y="179.298125"/>
      </g>
     </g>
     <g id="text_3">
      <!-- 2020-06 -->
      <g transform="translate(92.773594 215.143563)rotate(-30)scale(0.105 -0.105)">
       <defs>
        <path d="M 33.015625 40.375 
Q 26.375 40.375 22.484375 35.828125 
Q 18.609375 31.296875 18.609375 23.390625 
Q 18.609375 15.53125 22.484375 10.953125 
Q 26.375 6.390625 33.015625 6.390625 
Q 39.65625 6.390625 43.53125 10.953125 
Q 47.40625 15.53125 47.40625 23.390625 
Q 47.40625 31.296875 43.53125 35.828125 
Q 39.65625 40.375 33.015625 40.375 
z
M 52.59375 71.296875 
L 52.59375 62.3125 
Q 48.875 64.0625 45.09375 64.984375 
Q 41.3125 65.921875 37.59375 65.921875 
Q 27.828125 65.921875 22.671875 59.328125 
Q 17.53125 52.734375 16.796875 39.40625 
Q 19.671875 43.65625 24.015625 45.921875 
Q 28.375 48.1875 33.59375 48.1875 
Q 44.578125 48.1875 50.953125 41.515625 
Q 57.328125 34.859375 57.328125 23.390625 
Q 57.328125 12.15625 50.6875 5.359375 
Q 44.046875 -1.421875 33.015625 -1.421875 
Q 20.359375 -1.421875 13.671875 8.265625 
Q 6.984375 17.96875 6.984375 36.375 
Q 6.984375 53.65625 15.1875 63.9375 
Q 23.390625 74.21875 37.203125 74.21875 
Q 40.921875 74.21875 44.703125 73.484375 
Q 48.484375 72.75 52.59375 71.296875 
z
" id="DejaVuSans-54"/>
       </defs>
       <use xlink:href="#DejaVuSans-50"/>
       <use x="63.623047" xlink:href="#DejaVuSans-48"/>
       <use x="127.246094" xlink:href="#DejaVuSans-50"/>
       <use x="190.869141" xlink:href="#DejaVuSans-48"/>
       <use x="254.492188" xlink:href="#DejaVuSans-45"/>
       <use x="290.576172" xlink:href="#DejaVuSans-48"/>
       <use x="354.199219" xlink:href="#DejaVuSans-54"/>
      </g>
     </g>
    </g>
    <g id="xtick_4">
     <g id="line2d_4">
      <g>
       <use style="stroke:#000000;stroke-width:0.8;" x="167.500777" xlink:href="#md9413e5778" y="179.298125"/>
      </g>
     </g>
     <g id="text_4">
      <!-- 2020-07 -->
      <g transform="translate(128.414715 215.143563)rotate(-30)scale(0.105 -0.105)">
       <defs>
        <path d="M 8.203125 72.90625 
L 55.078125 72.90625 
L 55.078125 68.703125 
L 28.609375 0 
L 18.3125 0 
L 43.21875 64.59375 
L 8.203125 64.59375 
z
" id="DejaVuSans-55"/>
       </defs>
       <use xlink:href="#DejaVuSans-50"/>
       <use x="63.623047" xlink:href="#DejaVuSans-48"/>
       <use x="127.246094" xlink:href="#DejaVuSans-50"/>
       <use x="190.869141" xlink:href="#DejaVuSans-48"/>
       <use x="254.492188" xlink:href="#DejaVuSans-45"/>
       <use x="290.576172" xlink:href="#DejaVuSans-48"/>
       <use x="354.199219" xlink:href="#DejaVuSans-55"/>
      </g>
     </g>
    </g>
    <g id="xtick_5">
     <g id="line2d_5">
      <g>
       <use style="stroke:#000000;stroke-width:0.8;" x="204.329936" xlink:href="#md9413e5778" y="179.298125"/>
      </g>
     </g>
     <g id="text_5">
      <!-- 2020-08 -->
      <g transform="translate(165.243874 215.143563)rotate(-30)scale(0.105 -0.105)">
       <defs>
        <path d="M 31.78125 34.625 
Q 24.75 34.625 20.71875 30.859375 
Q 16.703125 27.09375 16.703125 20.515625 
Q 16.703125 13.921875 20.71875 10.15625 
Q 24.75 6.390625 31.78125 6.390625 
Q 38.8125 6.390625 42.859375 10.171875 
Q 46.921875 13.96875 46.921875 20.515625 
Q 46.921875 27.09375 42.890625 30.859375 
Q 38.875 34.625 31.78125 34.625 
z
M 21.921875 38.8125 
Q 15.578125 40.375 12.03125 44.71875 
Q 8.5 49.078125 8.5 55.328125 
Q 8.5 64.0625 14.71875 69.140625 
Q 20.953125 74.21875 31.78125 74.21875 
Q 42.671875 74.21875 48.875 69.140625 
Q 55.078125 64.0625 55.078125 55.328125 
Q 55.078125 49.078125 51.53125 44.71875 
Q 48 40.375 41.703125 38.8125 
Q 48.828125 37.15625 52.796875 32.3125 
Q 56.78125 27.484375 56.78125 20.515625 
Q 56.78125 9.90625 50.3125 4.234375 
Q 43.84375 -1.421875 31.78125 -1.421875 
Q 19.734375 -1.421875 13.25 4.234375 
Q 6.78125 9.90625 6.78125 20.515625 
Q 6.78125 27.484375 10.78125 32.3125 
Q 14.796875 37.15625 21.921875 38.8125 
z
M 18.3125 54.390625 
Q 18.3125 48.734375 21.84375 45.5625 
Q 25.390625 42.390625 31.78125 42.390625 
Q 38.140625 42.390625 41.71875 45.5625 
Q 45.3125 48.734375 45.3125 54.390625 
Q 45.3125 60.0625 41.71875 63.234375 
Q 38.140625 66.40625 31.78125 66.40625 
Q 25.390625 66.40625 21.84375 63.234375 
Q 18.3125 60.0625 18.3125 54.390625 
z
" id="DejaVuSans-56"/>
       </defs>
       <use xlink:href="#DejaVuSans-50"/>
       <use x="63.623047" xlink:href="#DejaVuSans-48"/>
       <use x="127.246094" xlink:href="#DejaVuSans-50"/>
       <use x="190.869141" xlink:href="#DejaVuSans-48"/>
       <use x="254.492188" xlink:href="#DejaVuSans-45"/>
       <use x="290.576172" xlink:href="#DejaVuSans-48"/>
       <use x="354.199219" xlink:href="#DejaVuSans-56"/>
      </g>
     </g>
    </g>
    <g id="xtick_6">
     <g id="line2d_6">
      <g>
       <use style="stroke:#000000;stroke-width:0.8;" x="241.159095" xlink:href="#md9413e5778" y="179.298125"/>
      </g>
     </g>
     <g id="text_6">
      <!-- 2020-09 -->
      <g transform="translate(202.073033 215.143563)rotate(-30)scale(0.105 -0.105)">
       <defs>
        <path d="M 10.984375 1.515625 
L 10.984375 10.5 
Q 14.703125 8.734375 18.5 7.8125 
Q 22.3125 6.890625 25.984375 6.890625 
Q 35.75 6.890625 40.890625 13.453125 
Q 46.046875 20.015625 46.78125 33.40625 
Q 43.953125 29.203125 39.59375 26.953125 
Q 35.25 24.703125 29.984375 24.703125 
Q 19.046875 24.703125 12.671875 31.3125 
Q 6.296875 37.9375 6.296875 49.421875 
Q 6.296875 60.640625 12.9375 67.421875 
Q 19.578125 74.21875 30.609375 74.21875 
Q 43.265625 74.21875 49.921875 64.515625 
Q 56.59375 54.828125 56.59375 36.375 
Q 56.59375 19.140625 48.40625 8.859375 
Q 40.234375 -1.421875 26.421875 -1.421875 
Q 22.703125 -1.421875 18.890625 -0.6875 
Q 15.09375 0.046875 10.984375 1.515625 
z
M 30.609375 32.421875 
Q 37.25 32.421875 41.125 36.953125 
Q 45.015625 41.5 45.015625 49.421875 
Q 45.015625 57.28125 41.125 61.84375 
Q 37.25 66.40625 30.609375 66.40625 
Q 23.96875 66.40625 20.09375 61.84375 
Q 16.21875 57.28125 16.21875 49.421875 
Q 16.21875 41.5 20.09375 36.953125 
Q 23.96875 32.421875 30.609375 32.421875 
z
" id="DejaVuSans-57"/>
       </defs>
       <use xlink:href="#DejaVuSans-50"/>
       <use x="63.623047" xlink:href="#DejaVuSans-48"/>
       <use x="127.246094" xlink:href="#DejaVuSans-50"/>
       <use x="190.869141" xlink:href="#DejaVuSans-48"/>
       <use x="254.492188" xlink:href="#DejaVuSans-45"/>
       <use x="290.576172" xlink:href="#DejaVuSans-48"/>
       <use x="354.199219" xlink:href="#DejaVuSans-57"/>
      </g>
     </g>
    </g>
    <g id="xtick_7">
     <g id="line2d_7">
      <g>
       <use style="stroke:#000000;stroke-width:0.8;" x="276.800216" xlink:href="#md9413e5778" y="179.298125"/>
      </g>
     </g>
     <g id="text_7">
      <!-- 2020-10 -->
      <g transform="translate(237.714154 215.143563)rotate(-30)scale(0.105 -0.105)">
       <defs>
        <path d="M 12.40625 8.296875 
L 28.515625 8.296875 
L 28.515625 63.921875 
L 10.984375 60.40625 
L 10.984375 69.390625 
L 28.421875 72.90625 
L 38.28125 72.90625 
L 38.28125 8.296875 
L 54.390625 8.296875 
L 54.390625 0 
L 12.40625 0 
z
" id="DejaVuSans-49"/>
       </defs>
       <use xlink:href="#DejaVuSans-50"/>
       <use x="63.623047" xlink:href="#DejaVuSans-48"/>
       <use x="127.246094" xlink:href="#DejaVuSans-50"/>
       <use x="190.869141" xlink:href="#DejaVuSans-48"/>
       <use x="254.492188" xlink:href="#DejaVuSans-45"/>
       <use x="290.576172" xlink:href="#DejaVuSans-49"/>
       <use x="354.199219" xlink:href="#DejaVuSans-48"/>
      </g>
     </g>
    </g>
    <g id="xtick_8">
     <g id="line2d_8">
      <g>
       <use style="stroke:#000000;stroke-width:0.8;" x="313.629375" xlink:href="#md9413e5778" y="179.298125"/>
      </g>
     </g>
     <g id="text_8">
      <!-- 2020-11 -->
      <g transform="translate(274.543313 215.143563)rotate(-30)scale(0.105 -0.105)">
       <use xlink:href="#DejaVuSans-50"/>
       <use x="63.623047" xlink:href="#DejaVuSans-48"/>
       <use x="127.246094" xlink:href="#DejaVuSans-50"/>
       <use x="190.869141" xlink:href="#DejaVuSans-48"/>
       <use x="254.492188" xlink:href="#DejaVuSans-45"/>
       <use x="290.576172" xlink:href="#DejaVuSans-49"/>
       <use x="354.199219" xlink:href="#DejaVuSans-49"/>
      </g>
     </g>
    </g>
    <g id="xtick_9">
     <g id="line2d_9">
      <defs>
       <path d="M 0 0 
L 0 2 
" id="m1c7e9a9e24" style="stroke:#000000;stroke-width:0.6;"/>
      </defs>
      <g>
       <use style="stroke:#000000;stroke-width:0.6;" x="65.329562" xlink:href="#m1c7e9a9e24" y="179.298125"/>
      </g>
     </g>
    </g>
    <g id="xtick_10">
     <g id="line2d_10">
      <g>
       <use style="stroke:#000000;stroke-width:0.6;" x="73.645824" xlink:href="#m1c7e9a9e24" y="179.298125"/>
      </g>
     </g>
    </g>
    <g id="xtick_11">
     <g id="line2d_11">
      <g>
       <use style="stroke:#000000;stroke-width:0.6;" x="81.962085" xlink:href="#m1c7e9a9e24" y="179.298125"/>
      </g>
     </g>
    </g>
    <g id="xtick_12">
     <g id="line2d_12">
      <g>
       <use style="stroke:#000000;stroke-width:0.6;" x="90.278347" xlink:href="#m1c7e9a9e24" y="179.298125"/>
      </g>
     </g>
    </g>
    <g id="xtick_13">
     <g id="line2d_13">
      <g>
       <use style="stroke:#000000;stroke-width:0.6;" x="98.594609" xlink:href="#m1c7e9a9e24" y="179.298125"/>
      </g>
     </g>
    </g>
    <g id="xtick_14">
     <g id="line2d_14">
      <g>
       <use style="stroke:#000000;stroke-width:0.6;" x="106.91087" xlink:href="#m1c7e9a9e24" y="179.298125"/>
      </g>
     </g>
    </g>
    <g id="xtick_15">
     <g id="line2d_15">
      <g>
       <use style="stroke:#000000;stroke-width:0.6;" x="115.227132" xlink:href="#m1c7e9a9e24" y="179.298125"/>
      </g>
     </g>
    </g>
    <g id="xtick_16">
     <g id="line2d_16">
      <g>
       <use style="stroke:#000000;stroke-width:0.6;" x="123.543394" xlink:href="#m1c7e9a9e24" y="179.298125"/>
      </g>
     </g>
    </g>
    <g id="xtick_17">
     <g id="line2d_17">
      <g>
       <use style="stroke:#000000;stroke-width:0.6;" x="140.175917" xlink:href="#m1c7e9a9e24" y="179.298125"/>
      </g>
     </g>
    </g>
    <g id="xtick_18">
     <g id="line2d_18">
      <g>
       <use style="stroke:#000000;stroke-width:0.6;" x="148.492179" xlink:href="#m1c7e9a9e24" y="179.298125"/>
      </g>
     </g>
    </g>
    <g id="xtick_19">
     <g id="line2d_19">
      <g>
       <use style="stroke:#000000;stroke-width:0.6;" x="156.80844" xlink:href="#m1c7e9a9e24" y="179.298125"/>
      </g>
     </g>
    </g>
    <g id="xtick_20">
     <g id="line2d_20">
      <g>
       <use style="stroke:#000000;stroke-width:0.6;" x="165.124702" xlink:href="#m1c7e9a9e24" y="179.298125"/>
      </g>
     </g>
    </g>
    <g id="xtick_21">
     <g id="line2d_21">
      <g>
       <use style="stroke:#000000;stroke-width:0.6;" x="173.440964" xlink:href="#m1c7e9a9e24" y="179.298125"/>
      </g>
     </g>
    </g>
    <g id="xtick_22">
     <g id="line2d_22">
      <g>
       <use style="stroke:#000000;stroke-width:0.6;" x="181.757225" xlink:href="#m1c7e9a9e24" y="179.298125"/>
      </g>
     </g>
    </g>
    <g id="xtick_23">
     <g id="line2d_23">
      <g>
       <use style="stroke:#000000;stroke-width:0.6;" x="190.073487" xlink:href="#m1c7e9a9e24" y="179.298125"/>
      </g>
     </g>
    </g>
    <g id="xtick_24">
     <g id="line2d_24">
      <g>
       <use style="stroke:#000000;stroke-width:0.6;" x="198.389749" xlink:href="#m1c7e9a9e24" y="179.298125"/>
      </g>
     </g>
    </g>
    <g id="xtick_25">
     <g id="line2d_25">
      <g>
       <use style="stroke:#000000;stroke-width:0.6;" x="206.706011" xlink:href="#m1c7e9a9e24" y="179.298125"/>
      </g>
     </g>
    </g>
    <g id="xtick_26">
     <g id="line2d_26">
      <g>
       <use style="stroke:#000000;stroke-width:0.6;" x="215.022272" xlink:href="#m1c7e9a9e24" y="179.298125"/>
      </g>
     </g>
    </g>
    <g id="xtick_27">
     <g id="line2d_27">
      <g>
       <use style="stroke:#000000;stroke-width:0.6;" x="223.338534" xlink:href="#m1c7e9a9e24" y="179.298125"/>
      </g>
     </g>
    </g>
    <g id="xtick_28">
     <g id="line2d_28">
      <g>
       <use style="stroke:#000000;stroke-width:0.6;" x="231.654796" xlink:href="#m1c7e9a9e24" y="179.298125"/>
      </g>
     </g>
    </g>
    <g id="xtick_29">
     <g id="line2d_29">
      <g>
       <use style="stroke:#000000;stroke-width:0.6;" x="239.971057" xlink:href="#m1c7e9a9e24" y="179.298125"/>
      </g>
     </g>
    </g>
    <g id="xtick_30">
     <g id="line2d_30">
      <g>
       <use style="stroke:#000000;stroke-width:0.6;" x="248.287319" xlink:href="#m1c7e9a9e24" y="179.298125"/>
      </g>
     </g>
    </g>
    <g id="xtick_31">
     <g id="line2d_31">
      <g>
       <use style="stroke:#000000;stroke-width:0.6;" x="256.603581" xlink:href="#m1c7e9a9e24" y="179.298125"/>
      </g>
     </g>
    </g>
    <g id="xtick_32">
     <g id="line2d_32">
      <g>
       <use style="stroke:#000000;stroke-width:0.6;" x="264.919842" xlink:href="#m1c7e9a9e24" y="179.298125"/>
      </g>
     </g>
    </g>
    <g id="xtick_33">
     <g id="line2d_33">
      <g>
       <use style="stroke:#000000;stroke-width:0.6;" x="273.236104" xlink:href="#m1c7e9a9e24" y="179.298125"/>
      </g>
     </g>
    </g>
    <g id="xtick_34">
     <g id="line2d_34">
      <g>
       <use style="stroke:#000000;stroke-width:0.6;" x="281.552366" xlink:href="#m1c7e9a9e24" y="179.298125"/>
      </g>
     </g>
    </g>
    <g id="xtick_35">
     <g id="line2d_35">
      <g>
       <use style="stroke:#000000;stroke-width:0.6;" x="289.868627" xlink:href="#m1c7e9a9e24" y="179.298125"/>
      </g>
     </g>
    </g>
    <g id="xtick_36">
     <g id="line2d_36">
      <g>
       <use style="stroke:#000000;stroke-width:0.6;" x="298.184889" xlink:href="#m1c7e9a9e24" y="179.298125"/>
      </g>
     </g>
    </g>
    <g id="xtick_37">
     <g id="line2d_37">
      <g>
       <use style="stroke:#000000;stroke-width:0.6;" x="306.501151" xlink:href="#m1c7e9a9e24" y="179.298125"/>
      </g>
     </g>
    </g>
    <g id="text_9">
     <!-- Positive Confirmed Date -->
     <g transform="translate(117.096992 229.772882)scale(0.115 -0.115)">
      <defs>
       <path d="M 19.671875 64.796875 
L 19.671875 37.40625 
L 32.078125 37.40625 
Q 38.96875 37.40625 42.71875 40.96875 
Q 46.484375 44.53125 46.484375 51.125 
Q 46.484375 57.671875 42.71875 61.234375 
Q 38.96875 64.796875 32.078125 64.796875 
z
M 9.8125 72.90625 
L 32.078125 72.90625 
Q 44.34375 72.90625 50.609375 67.359375 
Q 56.890625 61.8125 56.890625 51.125 
Q 56.890625 40.328125 50.609375 34.8125 
Q 44.34375 29.296875 32.078125 29.296875 
L 19.671875 29.296875 
L 19.671875 0 
L 9.8125 0 
z
" id="DejaVuSans-80"/>
       <path d="M 30.609375 48.390625 
Q 23.390625 48.390625 19.1875 42.75 
Q 14.984375 37.109375 14.984375 27.296875 
Q 14.984375 17.484375 19.15625 11.84375 
Q 23.34375 6.203125 30.609375 6.203125 
Q 37.796875 6.203125 41.984375 11.859375 
Q 46.1875 17.53125 46.1875 27.296875 
Q 46.1875 37.015625 41.984375 42.703125 
Q 37.796875 48.390625 30.609375 48.390625 
z
M 30.609375 56 
Q 42.328125 56 49.015625 48.375 
Q 55.71875 40.765625 55.71875 27.296875 
Q 55.71875 13.875 49.015625 6.21875 
Q 42.328125 -1.421875 30.609375 -1.421875 
Q 18.84375 -1.421875 12.171875 6.21875 
Q 5.515625 13.875 5.515625 27.296875 
Q 5.515625 40.765625 12.171875 48.375 
Q 18.84375 56 30.609375 56 
z
" id="DejaVuSans-111"/>
       <path d="M 44.28125 53.078125 
L 44.28125 44.578125 
Q 40.484375 46.53125 36.375 47.5 
Q 32.28125 48.484375 27.875 48.484375 
Q 21.1875 48.484375 17.84375 46.4375 
Q 14.5 44.390625 14.5 40.28125 
Q 14.5 37.15625 16.890625 35.375 
Q 19.28125 33.59375 26.515625 31.984375 
L 29.59375 31.296875 
Q 39.15625 29.25 43.1875 25.515625 
Q 47.21875 21.78125 47.21875 15.09375 
Q 47.21875 7.46875 41.1875 3.015625 
Q 35.15625 -1.421875 24.609375 -1.421875 
Q 20.21875 -1.421875 15.453125 -0.5625 
Q 10.6875 0.296875 5.421875 2 
L 5.421875 11.28125 
Q 10.40625 8.6875 15.234375 7.390625 
Q 20.0625 6.109375 24.8125 6.109375 
Q 31.15625 6.109375 34.5625 8.28125 
Q 37.984375 10.453125 37.984375 14.40625 
Q 37.984375 18.0625 35.515625 20.015625 
Q 33.0625 21.96875 24.703125 23.78125 
L 21.578125 24.515625 
Q 13.234375 26.265625 9.515625 29.90625 
Q 5.8125 33.546875 5.8125 39.890625 
Q 5.8125 47.609375 11.28125 51.796875 
Q 16.75 56 26.8125 56 
Q 31.78125 56 36.171875 55.265625 
Q 40.578125 54.546875 44.28125 53.078125 
z
" id="DejaVuSans-115"/>
       <path d="M 9.421875 54.6875 
L 18.40625 54.6875 
L 18.40625 0 
L 9.421875 0 
z
M 9.421875 75.984375 
L 18.40625 75.984375 
L 18.40625 64.59375 
L 9.421875 64.59375 
z
" id="DejaVuSans-105"/>
       <path d="M 18.3125 70.21875 
L 18.3125 54.6875 
L 36.8125 54.6875 
L 36.8125 47.703125 
L 18.3125 47.703125 
L 18.3125 18.015625 
Q 18.3125 11.328125 20.140625 9.421875 
Q 21.96875 7.515625 27.59375 7.515625 
L 36.8125 7.515625 
L 36.8125 0 
L 27.59375 0 
Q 17.1875 0 13.234375 3.875 
Q 9.28125 7.765625 9.28125 18.015625 
L 9.28125 47.703125 
L 2.6875 47.703125 
L 2.6875 54.6875 
L 9.28125 54.6875 
L 9.28125 70.21875 
z
" id="DejaVuSans-116"/>
       <path d="M 2.984375 54.6875 
L 12.5 54.6875 
L 29.59375 8.796875 
L 46.6875 54.6875 
L 56.203125 54.6875 
L 35.6875 0 
L 23.484375 0 
z
" id="DejaVuSans-118"/>
       <path d="M 56.203125 29.59375 
L 56.203125 25.203125 
L 14.890625 25.203125 
Q 15.484375 15.921875 20.484375 11.0625 
Q 25.484375 6.203125 34.421875 6.203125 
Q 39.59375 6.203125 44.453125 7.46875 
Q 49.3125 8.734375 54.109375 11.28125 
L 54.109375 2.78125 
Q 49.265625 0.734375 44.1875 -0.34375 
Q 39.109375 -1.421875 33.890625 -1.421875 
Q 20.796875 -1.421875 13.15625 6.1875 
Q 5.515625 13.8125 5.515625 26.8125 
Q 5.515625 40.234375 12.765625 48.109375 
Q 20.015625 56 32.328125 56 
Q 43.359375 56 49.78125 48.890625 
Q 56.203125 41.796875 56.203125 29.59375 
z
M 47.21875 32.234375 
Q 47.125 39.59375 43.09375 43.984375 
Q 39.0625 48.390625 32.421875 48.390625 
Q 24.90625 48.390625 20.390625 44.140625 
Q 15.875 39.890625 15.1875 32.171875 
z
" id="DejaVuSans-101"/>
       <path id="DejaVuSans-32"/>
       <path d="M 64.40625 67.28125 
L 64.40625 56.890625 
Q 59.421875 61.53125 53.78125 63.8125 
Q 48.140625 66.109375 41.796875 66.109375 
Q 29.296875 66.109375 22.65625 58.46875 
Q 16.015625 50.828125 16.015625 36.375 
Q 16.015625 21.96875 22.65625 14.328125 
Q 29.296875 6.6875 41.796875 6.6875 
Q 48.140625 6.6875 53.78125 8.984375 
Q 59.421875 11.28125 64.40625 15.921875 
L 64.40625 5.609375 
Q 59.234375 2.09375 53.4375 0.328125 
Q 47.65625 -1.421875 41.21875 -1.421875 
Q 24.65625 -1.421875 15.125 8.703125 
Q 5.609375 18.84375 5.609375 36.375 
Q 5.609375 53.953125 15.125 64.078125 
Q 24.65625 74.21875 41.21875 74.21875 
Q 47.75 74.21875 53.53125 72.484375 
Q 59.328125 70.75 64.40625 67.28125 
z
" id="DejaVuSans-67"/>
       <path d="M 54.890625 33.015625 
L 54.890625 0 
L 45.90625 0 
L 45.90625 32.71875 
Q 45.90625 40.484375 42.875 44.328125 
Q 39.84375 48.1875 33.796875 48.1875 
Q 26.515625 48.1875 22.3125 43.546875 
Q 18.109375 38.921875 18.109375 30.90625 
L 18.109375 0 
L 9.078125 0 
L 9.078125 54.6875 
L 18.109375 54.6875 
L 18.109375 46.1875 
Q 21.34375 51.125 25.703125 53.5625 
Q 30.078125 56 35.796875 56 
Q 45.21875 56 50.046875 50.171875 
Q 54.890625 44.34375 54.890625 33.015625 
z
" id="DejaVuSans-110"/>
       <path d="M 37.109375 75.984375 
L 37.109375 68.5 
L 28.515625 68.5 
Q 23.6875 68.5 21.796875 66.546875 
Q 19.921875 64.59375 19.921875 59.515625 
L 19.921875 54.6875 
L 34.71875 54.6875 
L 34.71875 47.703125 
L 19.921875 47.703125 
L 19.921875 0 
L 10.890625 0 
L 10.890625 47.703125 
L 2.296875 47.703125 
L 2.296875 54.6875 
L 10.890625 54.6875 
L 10.890625 58.5 
Q 10.890625 67.625 15.140625 71.796875 
Q 19.390625 75.984375 28.609375 75.984375 
z
" id="DejaVuSans-102"/>
       <path d="M 41.109375 46.296875 
Q 39.59375 47.171875 37.8125 47.578125 
Q 36.03125 48 33.890625 48 
Q 26.265625 48 22.1875 43.046875 
Q 18.109375 38.09375 18.109375 28.8125 
L 18.109375 0 
L 9.078125 0 
L 9.078125 54.6875 
L 18.109375 54.6875 
L 18.109375 46.1875 
Q 20.953125 51.171875 25.484375 53.578125 
Q 30.03125 56 36.53125 56 
Q 37.453125 56 38.578125 55.875 
Q 39.703125 55.765625 41.0625 55.515625 
z
" id="DejaVuSans-114"/>
       <path d="M 52 44.1875 
Q 55.375 50.25 60.0625 53.125 
Q 64.75 56 71.09375 56 
Q 79.640625 56 84.28125 50.015625 
Q 88.921875 44.046875 88.921875 33.015625 
L 88.921875 0 
L 79.890625 0 
L 79.890625 32.71875 
Q 79.890625 40.578125 77.09375 44.375 
Q 74.3125 48.1875 68.609375 48.1875 
Q 61.625 48.1875 57.5625 43.546875 
Q 53.515625 38.921875 53.515625 30.90625 
L 53.515625 0 
L 44.484375 0 
L 44.484375 32.71875 
Q 44.484375 40.625 41.703125 44.40625 
Q 38.921875 48.1875 33.109375 48.1875 
Q 26.21875 48.1875 22.15625 43.53125 
Q 18.109375 38.875 18.109375 30.90625 
L 18.109375 0 
L 9.078125 0 
L 9.078125 54.6875 
L 18.109375 54.6875 
L 18.109375 46.1875 
Q 21.1875 51.21875 25.484375 53.609375 
Q 29.78125 56 35.6875 56 
Q 41.65625 56 45.828125 52.96875 
Q 50 49.953125 52 44.1875 
z
" id="DejaVuSans-109"/>
       <path d="M 45.40625 46.390625 
L 45.40625 75.984375 
L 54.390625 75.984375 
L 54.390625 0 
L 45.40625 0 
L 45.40625 8.203125 
Q 42.578125 3.328125 38.25 0.953125 
Q 33.9375 -1.421875 27.875 -1.421875 
Q 17.96875 -1.421875 11.734375 6.484375 
Q 5.515625 14.40625 5.515625 27.296875 
Q 5.515625 40.1875 11.734375 48.09375 
Q 17.96875 56 27.875 56 
Q 33.9375 56 38.25 53.625 
Q 42.578125 51.265625 45.40625 46.390625 
z
M 14.796875 27.296875 
Q 14.796875 17.390625 18.875 11.75 
Q 22.953125 6.109375 30.078125 6.109375 
Q 37.203125 6.109375 41.296875 11.75 
Q 45.40625 17.390625 45.40625 27.296875 
Q 45.40625 37.203125 41.296875 42.84375 
Q 37.203125 48.484375 30.078125 48.484375 
Q 22.953125 48.484375 18.875 42.84375 
Q 14.796875 37.203125 14.796875 27.296875 
z
" id="DejaVuSans-100"/>
       <path d="M 19.671875 64.796875 
L 19.671875 8.109375 
L 31.59375 8.109375 
Q 46.6875 8.109375 53.6875 14.9375 
Q 60.6875 21.78125 60.6875 36.53125 
Q 60.6875 51.171875 53.6875 57.984375 
Q 46.6875 64.796875 31.59375 64.796875 
z
M 9.8125 72.90625 
L 30.078125 72.90625 
Q 51.265625 72.90625 61.171875 64.09375 
Q 71.09375 55.28125 71.09375 36.53125 
Q 71.09375 17.671875 61.125 8.828125 
Q 51.171875 0 30.078125 0 
L 9.8125 0 
z
" id="DejaVuSans-68"/>
       <path d="M 34.28125 27.484375 
Q 23.390625 27.484375 19.1875 25 
Q 14.984375 22.515625 14.984375 16.5 
Q 14.984375 11.71875 18.140625 8.90625 
Q 21.296875 6.109375 26.703125 6.109375 
Q 34.1875 6.109375 38.703125 11.40625 
Q 43.21875 16.703125 43.21875 25.484375 
L 43.21875 27.484375 
z
M 52.203125 31.203125 
L 52.203125 0 
L 43.21875 0 
L 43.21875 8.296875 
Q 40.140625 3.328125 35.546875 0.953125 
Q 30.953125 -1.421875 24.3125 -1.421875 
Q 15.921875 -1.421875 10.953125 3.296875 
Q 6 8.015625 6 15.921875 
Q 6 25.140625 12.171875 29.828125 
Q 18.359375 34.515625 30.609375 34.515625 
L 43.21875 34.515625 
L 43.21875 35.40625 
Q 43.21875 41.609375 39.140625 45 
Q 35.0625 48.390625 27.6875 48.390625 
Q 23 48.390625 18.546875 47.265625 
Q 14.109375 46.140625 10.015625 43.890625 
L 10.015625 52.203125 
Q 14.9375 54.109375 19.578125 55.046875 
Q 24.21875 56 28.609375 56 
Q 40.484375 56 46.34375 49.84375 
Q 52.203125 43.703125 52.203125 31.203125 
z
" id="DejaVuSans-97"/>
      </defs>
      <use xlink:href="#DejaVuSans-80"/>
      <use x="56.677734" xlink:href="#DejaVuSans-111"/>
      <use x="117.859375" xlink:href="#DejaVuSans-115"/>
      <use x="169.958984" xlink:href="#DejaVuSans-105"/>
      <use x="197.742188" xlink:href="#DejaVuSans-116"/>
      <use x="236.951172" xlink:href="#DejaVuSans-105"/>
      <use x="264.734375" xlink:href="#DejaVuSans-118"/>
      <use x="323.914062" xlink:href="#DejaVuSans-101"/>
      <use x="385.4375" xlink:href="#DejaVuSans-32"/>
      <use x="417.224609" xlink:href="#DejaVuSans-67"/>
      <use x="487.048828" xlink:href="#DejaVuSans-111"/>
      <use x="548.230469" xlink:href="#DejaVuSans-110"/>
      <use x="611.609375" xlink:href="#DejaVuSans-102"/>
      <use x="646.814453" xlink:href="#DejaVuSans-105"/>
      <use x="674.597656" xlink:href="#DejaVuSans-114"/>
      <use x="713.960938" xlink:href="#DejaVuSans-109"/>
      <use x="811.373047" xlink:href="#DejaVuSans-101"/>
      <use x="872.896484" xlink:href="#DejaVuSans-100"/>
      <use x="936.373047" xlink:href="#DejaVuSans-32"/>
      <use x="968.160156" xlink:href="#DejaVuSans-68"/>
      <use x="1045.162109" xlink:href="#DejaVuSans-97"/>
      <use x="1106.441406" xlink:href="#DejaVuSans-116"/>
      <use x="1145.650391" xlink:href="#DejaVuSans-101"/>
     </g>
    </g>
   </g>
   <g id="matplotlib.axis_2">
    <g id="ytick_1">
     <g id="line2d_38">
      <defs>
       <path d="M 0 0 
L -3.5 0 
" id="m16198dc71e" style="stroke:#000000;stroke-width:0.8;"/>
      </defs>
      <g>
       <use style="stroke:#000000;stroke-width:0.8;" x="59.389375" xlink:href="#m16198dc71e" y="172.16267"/>
      </g>
     </g>
     <g id="text_10">
      <!-- 0.000 -->
      <g transform="translate(22.329844 176.15185)scale(0.105 -0.105)">
       <defs>
        <path d="M 10.6875 12.40625 
L 21 12.40625 
L 21 0 
L 10.6875 0 
z
" id="DejaVuSans-46"/>
       </defs>
       <use xlink:href="#DejaVuSans-48"/>
       <use x="63.623047" xlink:href="#DejaVuSans-46"/>
       <use x="95.410156" xlink:href="#DejaVuSans-48"/>
       <use x="159.033203" xlink:href="#DejaVuSans-48"/>
       <use x="222.65625" xlink:href="#DejaVuSans-48"/>
      </g>
     </g>
    </g>
    <g id="ytick_2">
     <g id="line2d_39">
      <g>
       <use style="stroke:#000000;stroke-width:0.8;" x="59.389375" xlink:href="#m16198dc71e" y="148.972443"/>
      </g>
     </g>
     <g id="text_11">
      <!-- 0.025 -->
      <g transform="translate(22.329844 152.961623)scale(0.105 -0.105)">
       <use xlink:href="#DejaVuSans-48"/>
       <use x="63.623047" xlink:href="#DejaVuSans-46"/>
       <use x="95.410156" xlink:href="#DejaVuSans-48"/>
       <use x="159.033203" xlink:href="#DejaVuSans-50"/>
       <use x="222.65625" xlink:href="#DejaVuSans-53"/>
      </g>
     </g>
    </g>
    <g id="ytick_3">
     <g id="line2d_40">
      <g>
       <use style="stroke:#000000;stroke-width:0.8;" x="59.389375" xlink:href="#m16198dc71e" y="125.782216"/>
      </g>
     </g>
     <g id="text_12">
      <!-- 0.050 -->
      <g transform="translate(22.329844 129.771396)scale(0.105 -0.105)">
       <use xlink:href="#DejaVuSans-48"/>
       <use x="63.623047" xlink:href="#DejaVuSans-46"/>
       <use x="95.410156" xlink:href="#DejaVuSans-48"/>
       <use x="159.033203" xlink:href="#DejaVuSans-53"/>
       <use x="222.65625" xlink:href="#DejaVuSans-48"/>
      </g>
     </g>
    </g>
    <g id="ytick_4">
     <g id="line2d_41">
      <g>
       <use style="stroke:#000000;stroke-width:0.8;" x="59.389375" xlink:href="#m16198dc71e" y="102.591989"/>
      </g>
     </g>
     <g id="text_13">
      <!-- 0.075 -->
      <g transform="translate(22.329844 106.581168)scale(0.105 -0.105)">
       <use xlink:href="#DejaVuSans-48"/>
       <use x="63.623047" xlink:href="#DejaVuSans-46"/>
       <use x="95.410156" xlink:href="#DejaVuSans-48"/>
       <use x="159.033203" xlink:href="#DejaVuSans-55"/>
       <use x="222.65625" xlink:href="#DejaVuSans-53"/>
      </g>
     </g>
    </g>
    <g id="ytick_5">
     <g id="line2d_42">
      <g>
       <use style="stroke:#000000;stroke-width:0.8;" x="59.389375" xlink:href="#m16198dc71e" y="79.401761"/>
      </g>
     </g>
     <g id="text_14">
      <!-- 0.100 -->
      <g transform="translate(22.329844 83.390941)scale(0.105 -0.105)">
       <use xlink:href="#DejaVuSans-48"/>
       <use x="63.623047" xlink:href="#DejaVuSans-46"/>
       <use x="95.410156" xlink:href="#DejaVuSans-49"/>
       <use x="159.033203" xlink:href="#DejaVuSans-48"/>
       <use x="222.65625" xlink:href="#DejaVuSans-48"/>
      </g>
     </g>
    </g>
    <g id="ytick_6">
     <g id="line2d_43">
      <g>
       <use style="stroke:#000000;stroke-width:0.8;" x="59.389375" xlink:href="#m16198dc71e" y="56.211534"/>
      </g>
     </g>
     <g id="text_15">
      <!-- 0.125 -->
      <g transform="translate(22.329844 60.200714)scale(0.105 -0.105)">
       <use xlink:href="#DejaVuSans-48"/>
       <use x="63.623047" xlink:href="#DejaVuSans-46"/>
       <use x="95.410156" xlink:href="#DejaVuSans-49"/>
       <use x="159.033203" xlink:href="#DejaVuSans-50"/>
       <use x="222.65625" xlink:href="#DejaVuSans-53"/>
      </g>
     </g>
    </g>
    <g id="ytick_7">
     <g id="line2d_44">
      <g>
       <use style="stroke:#000000;stroke-width:0.8;" x="59.389375" xlink:href="#m16198dc71e" y="33.021307"/>
      </g>
     </g>
     <g id="text_16">
      <!-- 0.150 -->
      <g transform="translate(22.329844 37.010487)scale(0.105 -0.105)">
       <use xlink:href="#DejaVuSans-48"/>
       <use x="63.623047" xlink:href="#DejaVuSans-46"/>
       <use x="95.410156" xlink:href="#DejaVuSans-49"/>
       <use x="159.033203" xlink:href="#DejaVuSans-53"/>
       <use x="222.65625" xlink:href="#DejaVuSans-48"/>
      </g>
     </g>
    </g>
    <g id="text_17">
     <!-- Ratio -->
     <g transform="translate(15.938203 115.567656)rotate(-90)scale(0.115 -0.115)">
      <defs>
       <path d="M 44.390625 34.1875 
Q 47.5625 33.109375 50.5625 29.59375 
Q 53.5625 26.078125 56.59375 19.921875 
L 66.609375 0 
L 56 0 
L 46.6875 18.703125 
Q 43.0625 26.03125 39.671875 28.421875 
Q 36.28125 30.8125 30.421875 30.8125 
L 19.671875 30.8125 
L 19.671875 0 
L 9.8125 0 
L 9.8125 72.90625 
L 32.078125 72.90625 
Q 44.578125 72.90625 50.734375 67.671875 
Q 56.890625 62.453125 56.890625 51.90625 
Q 56.890625 45.015625 53.6875 40.46875 
Q 50.484375 35.9375 44.390625 34.1875 
z
M 19.671875 64.796875 
L 19.671875 38.921875 
L 32.078125 38.921875 
Q 39.203125 38.921875 42.84375 42.21875 
Q 46.484375 45.515625 46.484375 51.90625 
Q 46.484375 58.296875 42.84375 61.546875 
Q 39.203125 64.796875 32.078125 64.796875 
z
" id="DejaVuSans-82"/>
      </defs>
      <use xlink:href="#DejaVuSans-82"/>
      <use x="67.232422" xlink:href="#DejaVuSans-97"/>
      <use x="128.511719" xlink:href="#DejaVuSans-116"/>
      <use x="167.720703" xlink:href="#DejaVuSans-105"/>
      <use x="195.503906" xlink:href="#DejaVuSans-111"/>
     </g>
    </g>
   </g>
   <g id="line2d_45">
    <path clip-path="url(#pfd9f7bed96)" d="M 23.748254 172.16267 
L 26.124328 172.16267 
L 27.312366 69.094994 
L 28.500403 69.094994 
L 29.68844 29.45358 
L 30.876478 39.647086 
L 32.064515 63.032189 
L 33.252553 69.094994 
L 34.44059 79.401761 
L 35.628627 100.808125 
L 36.816665 42.297398 
L 38.004702 90.614619 
L 40.380777 72.553641 
L 41.568814 86.27294 
L 43.944889 99.729719 
L 45.132926 108.311949 
L 46.320964 106.762893 
L 47.509001 112.749691 
L 48.697039 111.416588 
L 49.885076 110.731605 
L 51.073113 111.266997 
L 52.261151 115.015325 
L 53.449188 110.077283 
L 54.637225 111.807442 
L 55.825263 111.371018 
L 57.0133 113.000837 
L 58.201338 116.314646 
L 59.389375 116.550999 
L 60.577412 117.722848 
L 61.76545 120.909965 
L 62.953487 122.565075 
L 64.141525 123.719348 
L 65.329562 125.306519 
L 66.517599 124.316336 
L 67.705637 123.865571 
L 68.893674 121.038417 
L 70.081711 120.966285 
L 71.269749 120.021566 
L 72.457786 117.553325 
L 73.645824 115.728705 
L 74.833861 111.295209 
L 76.021898 110.970643 
L 77.209936 110.818333 
L 78.397973 110.820556 
L 79.586011 107.792 
L 80.774048 106.84854 
L 81.962085 104.048825 
L 83.150123 107.65374 
L 84.33816 105.212439 
L 85.526197 106.357665 
L 86.714235 104.810462 
L 87.902272 107.835374 
L 89.09031 109.559273 
L 90.278347 109.102243 
L 91.466384 105.904878 
L 92.654422 104.901175 
L 93.842459 108.433802 
L 95.030496 107.621254 
L 96.218534 103.862334 
L 97.406571 108.203078 
L 98.594609 108.273291 
L 99.782646 110.795106 
L 100.970683 116.715924 
L 102.158721 112.303031 
L 103.346758 115.758292 
L 104.534796 117.327608 
L 105.722833 113.773704 
L 106.91087 117.090838 
L 108.098908 117.635463 
L 110.474982 113.86875 
L 111.66302 109.665611 
L 112.851057 113.809821 
L 114.039095 115.802051 
L 115.227132 118.197719 
L 116.415169 118.951272 
L 117.603207 120.61935 
L 118.791244 124.150135 
L 119.979282 126.623697 
L 121.167319 125.08997 
L 122.355356 128.691819 
L 123.543394 127.898064 
L 124.731431 128.741916 
L 125.919468 129.073732 
L 127.107506 133.767658 
L 128.295543 134.275423 
L 129.483581 137.487276 
L 130.671618 136.492257 
L 131.859655 137.244203 
L 133.047693 140.915601 
L 134.23573 142.315573 
L 135.423768 141.830964 
L 136.611805 143.551566 
L 138.98788 145.575149 
L 140.175917 146.104374 
L 141.363954 145.235629 
L 142.551992 145.731475 
L 143.740029 147.357142 
L 147.304141 150.786735 
L 148.492179 151.739363 
L 149.680216 152.936969 
L 153.244328 155.4364 
L 154.432366 156.538163 
L 155.620403 156.037793 
L 156.80844 154.86932 
L 157.996478 155.967582 
L 159.184515 156.424316 
L 160.372553 156.727888 
L 161.56059 157.219802 
L 162.748627 156.153794 
L 163.936665 156.063177 
L 165.124702 156.363745 
L 166.312739 155.927843 
L 167.500777 155.267972 
L 168.688814 154.265049 
L 169.876852 154.53756 
L 172.252926 155.441243 
L 173.440964 153.912362 
L 174.629001 153.032374 
L 175.817039 152.75699 
L 177.005076 151.616391 
L 178.193113 149.494363 
L 179.381151 150.605248 
L 180.569188 150.052479 
L 181.757225 150.75861 
L 182.945263 150.701155 
L 184.1333 151.230954 
L 185.321338 151.509617 
L 186.509375 151.601212 
L 187.697412 150.35099 
L 188.88545 150.695599 
L 190.073487 151.159795 
L 191.261525 151.047437 
L 192.449562 150.67288 
L 193.637599 151.787642 
L 196.013674 152.873488 
L 197.201711 152.658499 
L 198.389749 153.230026 
L 200.765824 153.666538 
L 201.953861 153.269061 
L 203.141898 153.599955 
L 204.329936 153.012107 
L 205.517973 152.830271 
L 206.706011 151.593575 
L 207.894048 151.831314 
L 209.082085 150.483368 
L 211.45816 150.834199 
L 212.646197 151.088967 
L 213.834235 152.036297 
L 215.022272 151.617347 
L 216.21031 152.331721 
L 217.398347 153.30535 
L 218.586384 153.123733 
L 219.774422 152.045016 
L 220.962459 151.293459 
L 222.150496 150.036779 
L 223.338534 150.767776 
L 224.526571 149.552303 
L 225.714609 148.509342 
L 226.902646 147.943593 
L 228.090683 148.484072 
L 229.278721 148.573078 
L 230.466758 149.265157 
L 231.654796 149.46123 
L 232.842833 149.212058 
L 234.03087 150.262494 
L 235.218908 150.163545 
L 236.406945 149.631959 
L 237.594982 150.318742 
L 238.78302 149.961073 
L 239.971057 152.811372 
L 241.159095 152.86992 
L 242.347132 153.731374 
L 244.723207 154.89621 
L 247.099282 154.616704 
L 248.287319 152.667674 
L 249.475356 152.568686 
L 250.663394 151.30549 
L 251.851431 151.735142 
L 253.039468 151.808898 
L 254.227506 152.0298 
L 255.415543 153.036175 
L 256.603581 153.182717 
L 257.791618 153.995045 
L 258.979655 155.436436 
L 260.167693 154.699218 
L 261.35573 154.676449 
L 262.543768 154.985582 
L 264.919842 154.896706 
L 266.10788 155.710104 
L 267.295917 155.084644 
L 268.483954 156.065004 
L 269.671992 156.772792 
L 270.860029 156.333725 
L 272.048067 156.241022 
L 273.236104 155.804077 
L 274.424141 155.15896 
L 275.612179 154.037876 
L 276.800216 154.609496 
L 277.988254 154.157967 
L 279.176291 154.299109 
L 280.364328 154.300995 
L 281.552366 154.777915 
L 282.740403 154.305734 
L 283.92844 155.988192 
L 287.492553 155.531308 
L 288.68059 155.610009 
L 291.056665 157.388409 
L 292.244702 157.620141 
L 293.432739 158.581209 
L 294.620777 158.942084 
L 295.808814 160.065572 
L 296.996852 160.479487 
L 298.184889 160.511006 
L 299.372926 161.004723 
L 300.560964 161.291939 
L 301.749001 160.917728 
L 302.937039 162.010892 
L 304.125076 161.952462 
L 305.313113 161.689665 
L 307.689188 161.531712 
L 308.877225 161.745948 
L 310.065263 162.39734 
L 311.2533 162.181274 
L 313.629375 163.409613 
L 316.00545 164.279904 
L 317.193487 164.196481 
L 319.569562 164.682605 
L 320.757599 164.894142 
L 323.133674 164.852289 
L 324.321711 165.279396 
L 325.509749 165.950146 
L 326.697786 166.318963 
L 327.885824 166.458957 
L 332.637973 168.240848 
L 333.826011 168.422826 
L 335.014048 168.819525 
L 336.202085 169.095493 
L 337.390123 169.191458 
L 340.954235 170.043529 
L 342.142272 170.460547 
L 344.518347 170.826283 
L 345.706384 171.134982 
L 346.894422 171.159868 
L 351.646571 171.703481 
L 351.646571 171.703481 
" style="fill:none;stroke:#1f77b4;stroke-linecap:square;stroke-width:1.5;"/>
   </g>
   <g id="line2d_46">
    <path clip-path="url(#pfd9f7bed96)" d="M 23.748254 154.090956 
L 24.936291 160.485552 
L 26.124328 143.943548 
L 27.312366 136.250687 
L 28.500403 136.250687 
L 29.68844 122.063044 
L 30.876478 123.08997 
L 32.064515 113.448215 
L 33.252553 111.343298 
L 34.44059 115.44028 
L 35.628627 122.253937 
L 36.816665 126.559208 
L 38.004702 134.755036 
L 39.192739 135.617587 
L 40.380777 134.273234 
L 41.568814 135.108504 
L 42.756852 138.007434 
L 43.944889 138.013398 
L 45.132926 135.867145 
L 46.320964 133.048352 
L 47.509001 135.271597 
L 48.697039 135.22764 
L 49.885076 136.841873 
L 51.073113 136.756476 
L 52.261151 137.233862 
L 53.449188 136.447172 
L 54.637225 137.687718 
L 55.825263 137.838671 
L 58.201338 139.012075 
L 59.389375 138.843656 
L 60.577412 139.111852 
L 61.76545 139.117211 
L 62.953487 139.395801 
L 64.141525 139.253063 
L 65.329562 138.98912 
L 68.893674 136.503432 
L 70.081711 136.077463 
L 71.269749 135.407763 
L 72.457786 135.235572 
L 73.645824 135.298944 
L 74.833861 134.458747 
L 76.021898 134.654344 
L 77.209936 134.650392 
L 78.397973 135.204947 
L 79.586011 134.566332 
L 80.774048 133.627415 
L 81.962085 132.165743 
L 84.33816 130.291142 
L 85.526197 128.991845 
L 86.714235 128.776789 
L 87.902272 129.677525 
L 89.09031 129.718621 
L 90.278347 127.597345 
L 91.466384 127.738594 
L 92.654422 126.901226 
L 93.842459 129.233444 
L 95.030496 127.534551 
L 96.218534 124.541445 
L 97.406571 125.438071 
L 98.594609 126.155217 
L 99.782646 126.025052 
L 100.970683 126.922069 
L 102.158721 123.251937 
L 103.346758 125.387206 
L 104.534796 126.685644 
L 105.722833 125.459452 
L 106.91087 128.120849 
L 108.098908 131.109595 
L 109.286945 131.772175 
L 110.474982 132.005642 
L 111.66302 129.544205 
L 112.851057 131.205594 
L 114.039095 132.559185 
L 115.227132 132.82906 
L 116.415169 132.358448 
L 117.603207 132.676414 
L 119.979282 136.165387 
L 121.167319 136.663432 
L 122.355356 139.274982 
L 123.543394 140.045296 
L 124.731431 140.327702 
L 125.919468 142.35349 
L 127.107506 143.975715 
L 128.295543 144.636242 
L 129.483581 145.544814 
L 130.671618 145.088725 
L 131.859655 144.431879 
L 133.047693 146.051176 
L 134.23573 146.692498 
L 135.423768 146.456223 
L 136.611805 147.836026 
L 137.799842 148.410425 
L 138.98788 148.197806 
L 140.175917 148.892974 
L 141.363954 148.532681 
L 142.551992 149.360179 
L 143.740029 150.386466 
L 144.928067 150.580659 
L 147.304141 152.574223 
L 148.492179 153.217399 
L 149.680216 154.1143 
L 150.868254 154.330744 
L 152.056291 154.804247 
L 153.244328 155.754045 
L 154.432366 156.464307 
L 156.80844 156.383424 
L 159.184515 157.323198 
L 161.56059 157.772515 
L 162.748627 157.233813 
L 166.312739 156.84897 
L 167.500777 156.535788 
L 168.688814 156.073362 
L 169.876852 156.315794 
L 171.064889 156.736587 
L 172.252926 156.661916 
L 173.440964 156.042798 
L 174.629001 155.615568 
L 175.817039 155.334192 
L 177.005076 154.639407 
L 178.193113 153.493483 
L 179.381151 153.65603 
L 180.569188 153.261385 
L 181.757225 153.423964 
L 182.945263 153.064302 
L 185.321338 152.706903 
L 186.509375 152.360719 
L 187.697412 151.364102 
L 191.261525 150.695044 
L 192.449562 150.35334 
L 196.013674 150.39847 
L 197.201711 150.099129 
L 198.389749 150.211732 
L 199.577786 150.459858 
L 200.765824 150.541661 
L 203.141898 150.398297 
L 204.329936 149.829402 
L 205.517973 149.975235 
L 206.706011 149.536679 
L 207.894048 149.407255 
L 209.082085 148.687393 
L 210.270123 148.937915 
L 211.45816 148.944138 
L 213.834235 149.406069 
L 215.022272 149.254568 
L 216.21031 149.432633 
L 217.398347 149.475893 
L 219.774422 148.568296 
L 222.150496 147.185174 
L 223.338534 147.170869 
L 224.526571 146.57181 
L 225.714609 146.551272 
L 226.902646 146.051589 
L 228.090683 146.138472 
L 229.278721 146.7382 
L 230.466758 146.862611 
L 231.654796 146.815463 
L 232.842833 146.140981 
L 234.03087 146.09205 
L 235.218908 146.228669 
L 236.406945 146.037548 
L 237.594982 145.22477 
L 238.78302 144.653759 
L 239.971057 146.709429 
L 241.159095 146.85633 
L 242.347132 147.301257 
L 243.535169 147.330659 
L 244.723207 147.538731 
L 245.911244 148.483104 
L 247.099282 148.996539 
L 248.287319 148.196661 
L 249.475356 147.863748 
L 250.663394 147.361108 
L 253.039468 148.3879 
L 254.227506 148.454004 
L 255.415543 148.943422 
L 256.603581 148.791732 
L 257.791618 148.966934 
L 258.979655 149.725307 
L 261.35573 148.833405 
L 262.543768 149.001246 
L 263.731805 148.882627 
L 264.919842 148.598551 
L 266.10788 149.274635 
L 267.295917 148.880193 
L 269.671992 149.943144 
L 270.860029 149.637558 
L 272.048067 149.593871 
L 273.236104 149.694788 
L 274.424141 149.413486 
L 276.800216 149.305297 
L 277.988254 148.762259 
L 279.176291 148.433352 
L 280.364328 148.534803 
L 281.552366 148.798774 
L 282.740403 148.50143 
L 283.92844 149.168901 
L 285.116478 148.983203 
L 286.304515 149.372742 
L 288.68059 149.916476 
L 289.868627 150.467719 
L 291.056665 150.883263 
L 292.244702 150.920682 
L 293.432739 151.628638 
L 294.620777 151.681666 
L 295.808814 152.028952 
L 296.996852 152.027773 
L 298.184889 151.840252 
L 300.560964 152.19695 
L 301.749001 152.035719 
L 302.937039 152.313846 
L 305.313113 152.166958 
L 307.689188 152.027139 
L 308.877225 151.878997 
L 310.065263 151.942704 
L 311.2533 151.645253 
L 312.441338 151.937656 
L 314.817412 151.810939 
L 318.381525 151.738243 
L 319.569562 152.07578 
L 320.757599 152.129355 
L 321.945637 151.940233 
L 323.133674 151.618536 
L 324.321711 151.544906 
L 325.509749 151.618175 
L 326.697786 151.105494 
L 327.885824 150.796988 
L 329.073861 151.005331 
L 331.449936 151.182619 
L 332.637973 151.386305 
L 333.826011 151.19398 
L 335.014048 151.287476 
L 336.202085 151.029388 
L 337.390123 150.6098 
L 342.142272 151.203722 
L 344.518347 150.988002 
L 345.706384 151.137406 
L 346.894422 151.056151 
L 348.082459 151.214771 
L 349.270496 151.102553 
L 350.458534 151.145985 
L 351.646571 151.434663 
L 351.646571 151.434663 
" style="fill:none;stroke:#ff7f0e;stroke-dasharray:5.55,2.4;stroke-dashoffset:0;stroke-width:1.5;"/>
   </g>
   <g id="patch_3">
    <path d="M 59.389375 179.298125 
L 59.389375 22.318125 
" style="fill:none;stroke:#000000;stroke-linecap:square;stroke-linejoin:miter;stroke-width:0.8;"/>
   </g>
   <g id="patch_4">
    <path d="M 313.629375 179.298125 
L 313.629375 22.318125 
" style="fill:none;stroke:#000000;stroke-linecap:square;stroke-linejoin:miter;stroke-width:0.8;"/>
   </g>
   <g id="patch_5">
    <path d="M 59.389375 179.298125 
L 313.629375 179.298125 
" style="fill:none;stroke:#000000;stroke-linecap:square;stroke-linejoin:miter;stroke-width:0.8;"/>
   </g>
   <g id="patch_6">
    <path d="M 59.389375 22.318125 
L 313.629375 22.318125 
" style="fill:none;stroke:#000000;stroke-linecap:square;stroke-linejoin:miter;stroke-width:0.8;"/>
   </g>
   <g id="text_18">
    <!-- CFR -->
    <g transform="translate(174.699687 16.318125)scale(0.12 -0.12)">
     <defs>
      <path d="M 9.8125 72.90625 
L 51.703125 72.90625 
L 51.703125 64.59375 
L 19.671875 64.59375 
L 19.671875 43.109375 
L 48.578125 43.109375 
L 48.578125 34.8125 
L 19.671875 34.8125 
L 19.671875 0 
L 9.8125 0 
z
" id="DejaVuSans-70"/>
     </defs>
     <use xlink:href="#DejaVuSans-67"/>
     <use x="69.824219" xlink:href="#DejaVuSans-70"/>
     <use x="127.34375" xlink:href="#DejaVuSans-82"/>
    </g>
   </g>
  </g>
  <g id="axes_2">
   <g id="patch_7">
    <path d="M 365.844375 179.298125 
L 620.084375 179.298125 
L 620.084375 22.318125 
L 365.844375 22.318125 
z
" style="fill:#ffffff;"/>
   </g>
   <g id="matplotlib.axis_3">
    <g id="xtick_38">
     <g id="line2d_47">
      <g>
       <use style="stroke:#000000;stroke-width:0.8;" x="365.844375" xlink:href="#md9413e5778" y="179.298125"/>
      </g>
     </g>
     <g id="text_19">
      <!-- 2020-04 -->
      <g transform="translate(326.758313 215.143563)rotate(-30)scale(0.105 -0.105)">
       <use xlink:href="#DejaVuSans-50"/>
       <use x="63.623047" xlink:href="#DejaVuSans-48"/>
       <use x="127.246094" xlink:href="#DejaVuSans-50"/>
       <use x="190.869141" xlink:href="#DejaVuSans-48"/>
       <use x="254.492188" xlink:href="#DejaVuSans-45"/>
       <use x="290.576172" xlink:href="#DejaVuSans-48"/>
       <use x="354.199219" xlink:href="#DejaVuSans-52"/>
      </g>
     </g>
    </g>
    <g id="xtick_39">
     <g id="line2d_48">
      <g>
       <use style="stroke:#000000;stroke-width:0.8;" x="401.485496" xlink:href="#md9413e5778" y="179.298125"/>
      </g>
     </g>
     <g id="text_20">
      <!-- 2020-05 -->
      <g transform="translate(362.399435 215.143563)rotate(-30)scale(0.105 -0.105)">
       <use xlink:href="#DejaVuSans-50"/>
       <use x="63.623047" xlink:href="#DejaVuSans-48"/>
       <use x="127.246094" xlink:href="#DejaVuSans-50"/>
       <use x="190.869141" xlink:href="#DejaVuSans-48"/>
       <use x="254.492188" xlink:href="#DejaVuSans-45"/>
       <use x="290.576172" xlink:href="#DejaVuSans-48"/>
       <use x="354.199219" xlink:href="#DejaVuSans-53"/>
      </g>
     </g>
    </g>
    <g id="xtick_40">
     <g id="line2d_49">
      <g>
       <use style="stroke:#000000;stroke-width:0.8;" x="438.314655" xlink:href="#md9413e5778" y="179.298125"/>
      </g>
     </g>
     <g id="text_21">
      <!-- 2020-06 -->
      <g transform="translate(399.228594 215.143563)rotate(-30)scale(0.105 -0.105)">
       <use xlink:href="#DejaVuSans-50"/>
       <use x="63.623047" xlink:href="#DejaVuSans-48"/>
       <use x="127.246094" xlink:href="#DejaVuSans-50"/>
       <use x="190.869141" xlink:href="#DejaVuSans-48"/>
       <use x="254.492188" xlink:href="#DejaVuSans-45"/>
       <use x="290.576172" xlink:href="#DejaVuSans-48"/>
       <use x="354.199219" xlink:href="#DejaVuSans-54"/>
      </g>
     </g>
    </g>
    <g id="xtick_41">
     <g id="line2d_50">
      <g>
       <use style="stroke:#000000;stroke-width:0.8;" x="473.955777" xlink:href="#md9413e5778" y="179.298125"/>
      </g>
     </g>
     <g id="text_22">
      <!-- 2020-07 -->
      <g transform="translate(434.869715 215.143563)rotate(-30)scale(0.105 -0.105)">
       <use xlink:href="#DejaVuSans-50"/>
       <use x="63.623047" xlink:href="#DejaVuSans-48"/>
       <use x="127.246094" xlink:href="#DejaVuSans-50"/>
       <use x="190.869141" xlink:href="#DejaVuSans-48"/>
       <use x="254.492188" xlink:href="#DejaVuSans-45"/>
       <use x="290.576172" xlink:href="#DejaVuSans-48"/>
       <use x="354.199219" xlink:href="#DejaVuSans-55"/>
      </g>
     </g>
    </g>
    <g id="xtick_42">
     <g id="line2d_51">
      <g>
       <use style="stroke:#000000;stroke-width:0.8;" x="510.784936" xlink:href="#md9413e5778" y="179.298125"/>
      </g>
     </g>
     <g id="text_23">
      <!-- 2020-08 -->
      <g transform="translate(471.698874 215.143563)rotate(-30)scale(0.105 -0.105)">
       <use xlink:href="#DejaVuSans-50"/>
       <use x="63.623047" xlink:href="#DejaVuSans-48"/>
       <use x="127.246094" xlink:href="#DejaVuSans-50"/>
       <use x="190.869141" xlink:href="#DejaVuSans-48"/>
       <use x="254.492188" xlink:href="#DejaVuSans-45"/>
       <use x="290.576172" xlink:href="#DejaVuSans-48"/>
       <use x="354.199219" xlink:href="#DejaVuSans-56"/>
      </g>
     </g>
    </g>
    <g id="xtick_43">
     <g id="line2d_52">
      <g>
       <use style="stroke:#000000;stroke-width:0.8;" x="547.614095" xlink:href="#md9413e5778" y="179.298125"/>
      </g>
     </g>
     <g id="text_24">
      <!-- 2020-09 -->
      <g transform="translate(508.528033 215.143563)rotate(-30)scale(0.105 -0.105)">
       <use xlink:href="#DejaVuSans-50"/>
       <use x="63.623047" xlink:href="#DejaVuSans-48"/>
       <use x="127.246094" xlink:href="#DejaVuSans-50"/>
       <use x="190.869141" xlink:href="#DejaVuSans-48"/>
       <use x="254.492188" xlink:href="#DejaVuSans-45"/>
       <use x="290.576172" xlink:href="#DejaVuSans-48"/>
       <use x="354.199219" xlink:href="#DejaVuSans-57"/>
      </g>
     </g>
    </g>
    <g id="xtick_44">
     <g id="line2d_53">
      <g>
       <use style="stroke:#000000;stroke-width:0.8;" x="583.255216" xlink:href="#md9413e5778" y="179.298125"/>
      </g>
     </g>
     <g id="text_25">
      <!-- 2020-10 -->
      <g transform="translate(544.169154 215.143563)rotate(-30)scale(0.105 -0.105)">
       <use xlink:href="#DejaVuSans-50"/>
       <use x="63.623047" xlink:href="#DejaVuSans-48"/>
       <use x="127.246094" xlink:href="#DejaVuSans-50"/>
       <use x="190.869141" xlink:href="#DejaVuSans-48"/>
       <use x="254.492188" xlink:href="#DejaVuSans-45"/>
       <use x="290.576172" xlink:href="#DejaVuSans-49"/>
       <use x="354.199219" xlink:href="#DejaVuSans-48"/>
      </g>
     </g>
    </g>
    <g id="xtick_45">
     <g id="line2d_54">
      <g>
       <use style="stroke:#000000;stroke-width:0.8;" x="620.084375" xlink:href="#md9413e5778" y="179.298125"/>
      </g>
     </g>
     <g id="text_26">
      <!-- 2020-11 -->
      <g transform="translate(580.998313 215.143563)rotate(-30)scale(0.105 -0.105)">
       <use xlink:href="#DejaVuSans-50"/>
       <use x="63.623047" xlink:href="#DejaVuSans-48"/>
       <use x="127.246094" xlink:href="#DejaVuSans-50"/>
       <use x="190.869141" xlink:href="#DejaVuSans-48"/>
       <use x="254.492188" xlink:href="#DejaVuSans-45"/>
       <use x="290.576172" xlink:href="#DejaVuSans-49"/>
       <use x="354.199219" xlink:href="#DejaVuSans-49"/>
      </g>
     </g>
    </g>
    <g id="xtick_46">
     <g id="line2d_55">
      <g>
       <use style="stroke:#000000;stroke-width:0.6;" x="371.784562" xlink:href="#m1c7e9a9e24" y="179.298125"/>
      </g>
     </g>
    </g>
    <g id="xtick_47">
     <g id="line2d_56">
      <g>
       <use style="stroke:#000000;stroke-width:0.6;" x="380.100824" xlink:href="#m1c7e9a9e24" y="179.298125"/>
      </g>
     </g>
    </g>
    <g id="xtick_48">
     <g id="line2d_57">
      <g>
       <use style="stroke:#000000;stroke-width:0.6;" x="388.417085" xlink:href="#m1c7e9a9e24" y="179.298125"/>
      </g>
     </g>
    </g>
    <g id="xtick_49">
     <g id="line2d_58">
      <g>
       <use style="stroke:#000000;stroke-width:0.6;" x="396.733347" xlink:href="#m1c7e9a9e24" y="179.298125"/>
      </g>
     </g>
    </g>
    <g id="xtick_50">
     <g id="line2d_59">
      <g>
       <use style="stroke:#000000;stroke-width:0.6;" x="405.049609" xlink:href="#m1c7e9a9e24" y="179.298125"/>
      </g>
     </g>
    </g>
    <g id="xtick_51">
     <g id="line2d_60">
      <g>
       <use style="stroke:#000000;stroke-width:0.6;" x="413.36587" xlink:href="#m1c7e9a9e24" y="179.298125"/>
      </g>
     </g>
    </g>
    <g id="xtick_52">
     <g id="line2d_61">
      <g>
       <use style="stroke:#000000;stroke-width:0.6;" x="421.682132" xlink:href="#m1c7e9a9e24" y="179.298125"/>
      </g>
     </g>
    </g>
    <g id="xtick_53">
     <g id="line2d_62">
      <g>
       <use style="stroke:#000000;stroke-width:0.6;" x="429.998394" xlink:href="#m1c7e9a9e24" y="179.298125"/>
      </g>
     </g>
    </g>
    <g id="xtick_54">
     <g id="line2d_63">
      <g>
       <use style="stroke:#000000;stroke-width:0.6;" x="446.630917" xlink:href="#m1c7e9a9e24" y="179.298125"/>
      </g>
     </g>
    </g>
    <g id="xtick_55">
     <g id="line2d_64">
      <g>
       <use style="stroke:#000000;stroke-width:0.6;" x="454.947179" xlink:href="#m1c7e9a9e24" y="179.298125"/>
      </g>
     </g>
    </g>
    <g id="xtick_56">
     <g id="line2d_65">
      <g>
       <use style="stroke:#000000;stroke-width:0.6;" x="463.26344" xlink:href="#m1c7e9a9e24" y="179.298125"/>
      </g>
     </g>
    </g>
    <g id="xtick_57">
     <g id="line2d_66">
      <g>
       <use style="stroke:#000000;stroke-width:0.6;" x="471.579702" xlink:href="#m1c7e9a9e24" y="179.298125"/>
      </g>
     </g>
    </g>
    <g id="xtick_58">
     <g id="line2d_67">
      <g>
       <use style="stroke:#000000;stroke-width:0.6;" x="479.895964" xlink:href="#m1c7e9a9e24" y="179.298125"/>
      </g>
     </g>
    </g>
    <g id="xtick_59">
     <g id="line2d_68">
      <g>
       <use style="stroke:#000000;stroke-width:0.6;" x="488.212225" xlink:href="#m1c7e9a9e24" y="179.298125"/>
      </g>
     </g>
    </g>
    <g id="xtick_60">
     <g id="line2d_69">
      <g>
       <use style="stroke:#000000;stroke-width:0.6;" x="496.528487" xlink:href="#m1c7e9a9e24" y="179.298125"/>
      </g>
     </g>
    </g>
    <g id="xtick_61">
     <g id="line2d_70">
      <g>
       <use style="stroke:#000000;stroke-width:0.6;" x="504.844749" xlink:href="#m1c7e9a9e24" y="179.298125"/>
      </g>
     </g>
    </g>
    <g id="xtick_62">
     <g id="line2d_71">
      <g>
       <use style="stroke:#000000;stroke-width:0.6;" x="513.161011" xlink:href="#m1c7e9a9e24" y="179.298125"/>
      </g>
     </g>
    </g>
    <g id="xtick_63">
     <g id="line2d_72">
      <g>
       <use style="stroke:#000000;stroke-width:0.6;" x="521.477272" xlink:href="#m1c7e9a9e24" y="179.298125"/>
      </g>
     </g>
    </g>
    <g id="xtick_64">
     <g id="line2d_73">
      <g>
       <use style="stroke:#000000;stroke-width:0.6;" x="529.793534" xlink:href="#m1c7e9a9e24" y="179.298125"/>
      </g>
     </g>
    </g>
    <g id="xtick_65">
     <g id="line2d_74">
      <g>
       <use style="stroke:#000000;stroke-width:0.6;" x="538.109796" xlink:href="#m1c7e9a9e24" y="179.298125"/>
      </g>
     </g>
    </g>
    <g id="xtick_66">
     <g id="line2d_75">
      <g>
       <use style="stroke:#000000;stroke-width:0.6;" x="546.426057" xlink:href="#m1c7e9a9e24" y="179.298125"/>
      </g>
     </g>
    </g>
    <g id="xtick_67">
     <g id="line2d_76">
      <g>
       <use style="stroke:#000000;stroke-width:0.6;" x="554.742319" xlink:href="#m1c7e9a9e24" y="179.298125"/>
      </g>
     </g>
    </g>
    <g id="xtick_68">
     <g id="line2d_77">
      <g>
       <use style="stroke:#000000;stroke-width:0.6;" x="563.058581" xlink:href="#m1c7e9a9e24" y="179.298125"/>
      </g>
     </g>
    </g>
    <g id="xtick_69">
     <g id="line2d_78">
      <g>
       <use style="stroke:#000000;stroke-width:0.6;" x="571.374842" xlink:href="#m1c7e9a9e24" y="179.298125"/>
      </g>
     </g>
    </g>
    <g id="xtick_70">
     <g id="line2d_79">
      <g>
       <use style="stroke:#000000;stroke-width:0.6;" x="579.691104" xlink:href="#m1c7e9a9e24" y="179.298125"/>
      </g>
     </g>
    </g>
    <g id="xtick_71">
     <g id="line2d_80">
      <g>
       <use style="stroke:#000000;stroke-width:0.6;" x="588.007366" xlink:href="#m1c7e9a9e24" y="179.298125"/>
      </g>
     </g>
    </g>
    <g id="xtick_72">
     <g id="line2d_81">
      <g>
       <use style="stroke:#000000;stroke-width:0.6;" x="596.323627" xlink:href="#m1c7e9a9e24" y="179.298125"/>
      </g>
     </g>
    </g>
    <g id="xtick_73">
     <g id="line2d_82">
      <g>
       <use style="stroke:#000000;stroke-width:0.6;" x="604.639889" xlink:href="#m1c7e9a9e24" y="179.298125"/>
      </g>
     </g>
    </g>
    <g id="xtick_74">
     <g id="line2d_83">
      <g>
       <use style="stroke:#000000;stroke-width:0.6;" x="612.956151" xlink:href="#m1c7e9a9e24" y="179.298125"/>
      </g>
     </g>
    </g>
    <g id="text_27">
     <!-- Positive Confirmed Date -->
     <g transform="translate(423.551992 229.772882)scale(0.115 -0.115)">
      <use xlink:href="#DejaVuSans-80"/>
      <use x="56.677734" xlink:href="#DejaVuSans-111"/>
      <use x="117.859375" xlink:href="#DejaVuSans-115"/>
      <use x="169.958984" xlink:href="#DejaVuSans-105"/>
      <use x="197.742188" xlink:href="#DejaVuSans-116"/>
      <use x="236.951172" xlink:href="#DejaVuSans-105"/>
      <use x="264.734375" xlink:href="#DejaVuSans-118"/>
      <use x="323.914062" xlink:href="#DejaVuSans-101"/>
      <use x="385.4375" xlink:href="#DejaVuSans-32"/>
      <use x="417.224609" xlink:href="#DejaVuSans-67"/>
      <use x="487.048828" xlink:href="#DejaVuSans-111"/>
      <use x="548.230469" xlink:href="#DejaVuSans-110"/>
      <use x="611.609375" xlink:href="#DejaVuSans-102"/>
      <use x="646.814453" xlink:href="#DejaVuSans-105"/>
      <use x="674.597656" xlink:href="#DejaVuSans-114"/>
      <use x="713.960938" xlink:href="#DejaVuSans-109"/>
      <use x="811.373047" xlink:href="#DejaVuSans-101"/>
      <use x="872.896484" xlink:href="#DejaVuSans-100"/>
      <use x="936.373047" xlink:href="#DejaVuSans-32"/>
      <use x="968.160156" xlink:href="#DejaVuSans-68"/>
      <use x="1045.162109" xlink:href="#DejaVuSans-97"/>
      <use x="1106.441406" xlink:href="#DejaVuSans-116"/>
      <use x="1145.650391" xlink:href="#DejaVuSans-101"/>
     </g>
    </g>
   </g>
   <g id="matplotlib.axis_4">
    <g id="ytick_8">
     <g id="line2d_84">
      <g>
       <use style="stroke:#000000;stroke-width:0.8;" x="365.844375" xlink:href="#m16198dc71e" y="172.16267"/>
      </g>
     </g>
     <g id="text_28">
      <!-- 0.0 -->
      <g transform="translate(342.146094 176.15185)scale(0.105 -0.105)">
       <use xlink:href="#DejaVuSans-48"/>
       <use x="63.623047" xlink:href="#DejaVuSans-46"/>
       <use x="95.410156" xlink:href="#DejaVuSans-48"/>
      </g>
     </g>
    </g>
    <g id="ytick_9">
     <g id="line2d_85">
      <g>
       <use style="stroke:#000000;stroke-width:0.8;" x="365.844375" xlink:href="#m16198dc71e" y="129.349943"/>
      </g>
     </g>
     <g id="text_29">
      <!-- 0.1 -->
      <g transform="translate(342.146094 133.339123)scale(0.105 -0.105)">
       <use xlink:href="#DejaVuSans-48"/>
       <use x="63.623047" xlink:href="#DejaVuSans-46"/>
       <use x="95.410156" xlink:href="#DejaVuSans-49"/>
      </g>
     </g>
    </g>
    <g id="ytick_10">
     <g id="line2d_86">
      <g>
       <use style="stroke:#000000;stroke-width:0.8;" x="365.844375" xlink:href="#m16198dc71e" y="86.537216"/>
      </g>
     </g>
     <g id="text_30">
      <!-- 0.2 -->
      <g transform="translate(342.146094 90.526396)scale(0.105 -0.105)">
       <use xlink:href="#DejaVuSans-48"/>
       <use x="63.623047" xlink:href="#DejaVuSans-46"/>
       <use x="95.410156" xlink:href="#DejaVuSans-50"/>
      </g>
     </g>
    </g>
    <g id="ytick_11">
     <g id="line2d_87">
      <g>
       <use style="stroke:#000000;stroke-width:0.8;" x="365.844375" xlink:href="#m16198dc71e" y="43.724489"/>
      </g>
     </g>
     <g id="text_31">
      <!-- 0.3 -->
      <g transform="translate(342.146094 47.713668)scale(0.105 -0.105)">
       <defs>
        <path d="M 40.578125 39.3125 
Q 47.65625 37.796875 51.625 33 
Q 55.609375 28.21875 55.609375 21.1875 
Q 55.609375 10.40625 48.1875 4.484375 
Q 40.765625 -1.421875 27.09375 -1.421875 
Q 22.515625 -1.421875 17.65625 -0.515625 
Q 12.796875 0.390625 7.625 2.203125 
L 7.625 11.71875 
Q 11.71875 9.328125 16.59375 8.109375 
Q 21.484375 6.890625 26.8125 6.890625 
Q 36.078125 6.890625 40.9375 10.546875 
Q 45.796875 14.203125 45.796875 21.1875 
Q 45.796875 27.640625 41.28125 31.265625 
Q 36.765625 34.90625 28.71875 34.90625 
L 20.21875 34.90625 
L 20.21875 43.015625 
L 29.109375 43.015625 
Q 36.375 43.015625 40.234375 45.921875 
Q 44.09375 48.828125 44.09375 54.296875 
Q 44.09375 59.90625 40.109375 62.90625 
Q 36.140625 65.921875 28.71875 65.921875 
Q 24.65625 65.921875 20.015625 65.03125 
Q 15.375 64.15625 9.8125 62.3125 
L 9.8125 71.09375 
Q 15.4375 72.65625 20.34375 73.4375 
Q 25.25 74.21875 29.59375 74.21875 
Q 40.828125 74.21875 47.359375 69.109375 
Q 53.90625 64.015625 53.90625 55.328125 
Q 53.90625 49.265625 50.4375 45.09375 
Q 46.96875 40.921875 40.578125 39.3125 
z
" id="DejaVuSans-51"/>
       </defs>
       <use xlink:href="#DejaVuSans-48"/>
       <use x="63.623047" xlink:href="#DejaVuSans-46"/>
       <use x="95.410156" xlink:href="#DejaVuSans-51"/>
      </g>
     </g>
    </g>
   </g>
   <g id="line2d_88">
    <path clip-path="url(#p88c72bde34)" d="M 330.203254 172.16267 
L 332.579328 172.16267 
L 333.767366 29.45358 
L 338.519515 29.45358 
L 339.707553 49.840593 
L 340.89559 29.45358 
L 342.083627 49.840593 
L 343.271665 35.940356 
L 344.459702 88.625642 
L 345.647739 71.426842 
L 346.835777 66.777496 
L 348.023814 65.130852 
L 349.211852 71.645833 
L 350.399889 75.592609 
L 351.587926 83.404577 
L 352.775964 74.006662 
L 353.964001 77.386404 
L 355.152039 79.631937 
L 356.340076 81.243169 
L 357.528113 78.538235 
L 358.716151 81.119788 
L 359.904188 73.644747 
L 361.092225 73.034328 
L 362.280263 74.408452 
L 363.4683 74.305008 
L 364.656338 78.83978 
L 365.844375 79.536003 
L 367.032412 81.347794 
L 368.22045 85.94431 
L 369.408487 87.576819 
L 370.596525 87.996741 
L 371.784562 90.016354 
L 372.972599 87.451709 
L 374.160637 86.343274 
L 375.348674 81.21075 
L 376.536711 81.021466 
L 377.724749 76.99315 
L 378.912786 72.39968 
L 380.100824 70.383529 
L 381.288861 66.182245 
L 382.476898 66.133828 
L 383.664936 63.450489 
L 384.852973 57.891609 
L 386.041011 58.209998 
L 387.229048 56.390195 
L 388.417085 50.523956 
L 389.605123 52.781027 
L 390.79316 47.590521 
L 391.981197 48.829226 
L 393.169235 47.324128 
L 394.357272 48.790855 
L 395.54531 52.610149 
L 396.733347 56.91251 
L 397.921384 56.441545 
L 399.109422 55.753442 
L 400.297459 59.235032 
L 401.485496 61.533144 
L 402.673534 59.521698 
L 403.861571 60.276277 
L 405.049609 57.521955 
L 406.237646 57.274124 
L 407.425683 66.175065 
L 408.613721 63.848181 
L 409.801758 65.281814 
L 410.989796 69.50545 
L 412.177833 71.183686 
L 413.36587 71.924127 
L 414.553908 66.581148 
L 415.741945 65.668701 
L 418.11802 61.873362 
L 419.306057 60.169112 
L 420.494095 62.28123 
L 421.682132 68.759049 
L 422.870169 72.565256 
L 424.058207 71.641859 
L 425.246244 77.023277 
L 426.434282 81.739238 
L 427.622319 85.316678 
L 428.810356 84.491557 
L 429.998394 81.255456 
L 431.186431 83.914999 
L 432.374468 84.369483 
L 433.562506 88.297352 
L 434.750543 87.507782 
L 435.938581 89.020678 
L 437.126618 88.704949 
L 438.314655 92.721869 
L 439.502693 95.711372 
L 440.69073 100.122024 
L 441.878768 101.622055 
L 443.066805 102.242387 
L 444.254842 101.236424 
L 445.44288 103.903223 
L 446.630917 102.054493 
L 447.818954 99.166075 
L 449.006992 95.364582 
L 450.195029 93.81538 
L 451.383067 93.989952 
L 452.571104 93.807302 
L 453.759141 94.609116 
L 454.947179 95.137152 
L 456.135216 99.145956 
L 457.323254 100.57979 
L 458.511291 100.371037 
L 459.699328 99.528223 
L 460.887366 99.186431 
L 464.451478 87.866804 
L 465.639515 86.744291 
L 466.827553 82.471203 
L 468.01559 79.842942 
L 469.203627 76.007868 
L 470.391665 77.725565 
L 471.579702 78.126284 
L 472.767739 77.859197 
L 473.955777 77.364156 
L 475.143814 75.530705 
L 476.331852 74.50956 
L 477.519889 73.820851 
L 478.707926 72.300624 
L 479.895964 66.986895 
L 481.084001 64.104168 
L 482.272039 59.314632 
L 483.460076 58.480575 
L 484.648113 54.546595 
L 485.836151 52.37151 
L 487.024188 51.54543 
L 488.212225 53.033437 
L 489.400263 53.864345 
L 490.5883 55.191289 
L 491.776338 53.84123 
L 492.964375 55.268561 
L 494.152412 56.097993 
L 495.34045 57.616676 
L 496.528487 59.37933 
L 497.716525 56.452597 
L 498.904562 55.953479 
L 500.092599 58.432531 
L 501.280637 59.491692 
L 502.468674 62.91076 
L 504.844749 65.100402 
L 506.032786 66.037389 
L 507.220824 68.979187 
L 508.408861 69.893392 
L 509.596898 72.096259 
L 510.784936 71.045856 
L 511.972973 69.692864 
L 513.161011 66.599004 
L 514.349048 68.783681 
L 515.537085 64.522947 
L 516.725123 63.795042 
L 517.91316 66.339276 
L 519.101197 67.946303 
L 520.289235 69.077383 
L 521.477272 69.118762 
L 522.66531 70.807126 
L 523.853347 75.188807 
L 525.041384 75.003193 
L 526.229422 72.159208 
L 527.417459 71.181384 
L 528.605496 68.927762 
L 529.793534 68.696693 
L 530.981571 69.384158 
L 532.169609 66.20715 
L 533.357646 66.724682 
L 534.545683 66.805237 
L 535.733721 65.066336 
L 536.921758 71.10593 
L 538.109796 73.672045 
L 539.297833 74.689669 
L 540.48587 77.475092 
L 541.673908 77.190775 
L 542.861945 77.023277 
L 544.049982 80.53882 
L 545.23802 77.681815 
L 546.426057 81.926615 
L 547.614095 81.905131 
L 549.990169 88.682881 
L 551.178207 89.168731 
L 553.554282 87.829419 
L 554.742319 83.81277 
L 555.930356 83.051999 
L 557.118394 86.376114 
L 558.306431 85.693615 
L 559.494468 87.997229 
L 560.682506 88.573897 
L 561.870543 90.199404 
L 563.058581 87.271848 
L 564.246618 91.91466 
L 565.434655 91.025647 
L 566.622693 87.713621 
L 567.81073 86.961104 
L 568.998768 87.557579 
L 570.186805 86.451932 
L 571.374842 90.698949 
L 573.750917 87.875114 
L 574.938954 95.174871 
L 576.126992 100.964262 
L 577.315029 100.16384 
L 578.503067 101.630182 
L 579.691104 98.592145 
L 580.879141 97.881913 
L 582.067179 93.436788 
L 583.255216 96.481385 
L 584.443254 92.961325 
L 585.631291 94.556518 
L 586.819328 94.283488 
L 588.007366 97.606318 
L 589.195403 97.8412 
L 590.38344 101.40151 
L 591.571478 98.756865 
L 592.759515 98.556458 
L 593.947553 91.888807 
L 595.13559 89.979445 
L 596.323627 91.538501 
L 597.511665 92.66515 
L 598.699702 94.243507 
L 601.075777 98.527999 
L 602.263814 108.361587 
L 603.451852 113.080225 
L 604.639889 112.181388 
L 605.827926 116.708205 
L 607.015964 115.543601 
L 608.204001 113.600183 
L 609.392039 117.239929 
L 610.580076 116.137291 
L 611.768113 113.916954 
L 614.144188 112.949435 
L 615.332225 113.581057 
L 616.520263 115.459592 
L 617.7083 115.105634 
L 618.896338 115.48304 
L 620.084375 116.908317 
L 621.272412 119.692365 
L 622.46045 120.599897 
L 623.648487 121.177286 
L 624.836525 122.371657 
L 626.024562 121.904251 
L 628.284375 124.169479 
L 628.284375 124.169479 
" style="fill:none;stroke:#1f77b4;stroke-linecap:square;stroke-width:1.5;"/>
   </g>
   <g id="line2d_89">
    <path clip-path="url(#p88c72bde34)" d="M 330.203254 84.630932 
L 331.391291 84.630932 
L 332.579328 107.071482 
L 333.767366 83.977643 
L 334.955403 83.977643 
L 336.14344 68.690632 
L 337.331478 68.690632 
L 338.519515 76.170815 
L 339.707553 77.379403 
L 340.89559 68.690632 
L 342.083627 70.967817 
L 344.459702 97.834582 
L 345.647739 94.577249 
L 346.835777 87.84836 
L 348.023814 83.511811 
L 349.211852 87.520868 
L 350.399889 86.051357 
L 351.587926 83.554818 
L 352.775964 75.52169 
L 353.964001 78.222608 
L 355.152039 77.984451 
L 356.340076 79.796716 
L 357.528113 80.803952 
L 358.716151 79.626333 
L 359.904188 76.603812 
L 361.092225 77.068085 
L 362.280263 76.118542 
L 364.656338 79.075045 
L 365.844375 78.687898 
L 367.032412 80.206468 
L 368.22045 80.394768 
L 370.596525 81.314853 
L 371.784562 80.163711 
L 372.972599 78.708089 
L 375.348674 75.226596 
L 376.536711 76.211396 
L 378.912786 73.761919 
L 380.100824 74.756895 
L 381.288861 73.259128 
L 382.476898 73.350612 
L 384.852973 67.966329 
L 386.041011 68.540716 
L 387.229048 66.868355 
L 388.417085 62.647975 
L 389.605123 61.784165 
L 390.79316 60.164818 
L 391.981197 60.346204 
L 393.169235 60.230588 
L 394.357272 59.283407 
L 395.54531 59.334155 
L 396.733347 56.103109 
L 397.921384 56.672085 
L 399.109422 55.866747 
L 400.297459 57.346797 
L 401.485496 58.096645 
L 402.673534 56.632196 
L 403.861571 57.834392 
L 405.049609 62.336752 
L 406.237646 61.287705 
L 407.425683 63.000075 
L 408.613721 60.816206 
L 409.801758 61.264615 
L 410.989796 63.084515 
L 412.177833 61.956775 
L 413.36587 63.007811 
L 414.553908 65.587031 
L 415.741945 63.793122 
L 416.929982 62.566316 
L 418.11802 59.225177 
L 419.306057 57.845887 
L 420.494095 60.489173 
L 421.682132 61.173721 
L 422.870169 60.676829 
L 424.058207 63.174677 
L 425.246244 66.021834 
L 426.434282 70.88966 
L 427.622319 73.668663 
L 428.810356 73.629161 
L 429.998394 74.769664 
L 431.186431 75.532763 
L 432.374468 75.418375 
L 433.562506 77.427155 
L 434.750543 75.782556 
L 435.938581 75.53938 
L 437.126618 77.09435 
L 438.314655 77.460787 
L 439.502693 78.97592 
L 440.69073 83.841949 
L 441.878768 84.847614 
L 443.066805 88.287817 
L 444.254842 90.574748 
L 445.44288 90.460972 
L 446.630917 92.027744 
L 447.818954 91.456104 
L 449.006992 88.226074 
L 450.195029 89.571662 
L 451.383067 89.1452 
L 452.571104 88.531438 
L 453.759141 89.760799 
L 454.947179 89.930646 
L 456.135216 91.188566 
L 457.323254 92.848888 
L 458.511291 90.982522 
L 459.699328 91.177659 
L 460.887366 91.247077 
L 462.075403 90.249751 
L 463.26344 89.533325 
L 464.451478 87.632356 
L 465.639515 86.963542 
L 466.827553 87.351998 
L 468.01559 85.854463 
L 469.203627 85.538162 
L 470.391665 85.758173 
L 471.579702 85.061947 
L 472.767739 85.571743 
L 473.955777 86.426959 
L 475.143814 85.758838 
L 476.331852 86.672475 
L 477.519889 86.832876 
L 478.707926 86.252517 
L 481.084001 83.829395 
L 482.272039 81.983323 
L 483.460076 80.726321 
L 485.836151 77.04277 
L 487.024188 75.988609 
L 488.212225 76.009697 
L 489.400263 75.143928 
L 490.5883 74.546195 
L 491.776338 73.512506 
L 492.964375 72.840539 
L 495.34045 73.902951 
L 496.528487 73.695109 
L 497.716525 72.43948 
L 498.904562 72.274721 
L 500.092599 73.134154 
L 501.280637 73.606305 
L 502.468674 73.377441 
L 503.656711 73.278431 
L 504.844749 72.72372 
L 506.032786 74.366347 
L 507.220824 75.093749 
L 508.408861 74.747358 
L 509.596898 75.487368 
L 510.784936 74.4689 
L 511.972973 74.133159 
L 513.161011 73.542046 
L 514.349048 73.349972 
L 515.537085 72.049648 
L 516.725123 71.3504 
L 517.91316 70.042247 
L 519.101197 70.70735 
L 520.289235 70.616239 
L 521.477272 70.1012 
L 522.66531 69.42225 
L 523.853347 69.249534 
L 525.041384 69.351752 
L 526.229422 68.789449 
L 527.417459 68.68337 
L 528.605496 67.843485 
L 529.793534 67.715825 
L 530.981571 68.200505 
L 532.169609 67.583421 
L 533.357646 65.990255 
L 535.733721 64.626965 
L 536.921758 65.458026 
L 538.109796 65.896349 
L 540.48587 65.400377 
L 541.673908 67.653753 
L 542.861945 69.401924 
L 544.049982 69.372552 
L 545.23802 67.873391 
L 546.426057 68.691587 
L 547.614095 68.748568 
L 548.802132 70.091123 
L 549.990169 70.105198 
L 551.178207 69.810579 
L 552.366244 70.85052 
L 553.554282 71.607231 
L 554.742319 71.656483 
L 555.930356 71.820911 
L 557.118394 71.735242 
L 559.494468 70.38989 
L 560.682506 70.685153 
L 561.870543 71.971416 
L 563.058581 71.409591 
L 565.434655 71.516028 
L 566.622693 71.046669 
L 567.81073 72.478681 
L 568.998768 72.403135 
L 570.186805 72.846009 
L 571.374842 73.696414 
L 572.56288 75.11032 
L 573.750917 75.38827 
L 574.938954 76.314777 
L 576.126992 77.021264 
L 577.315029 77.532386 
L 578.503067 75.485283 
L 579.691104 76.353652 
L 580.879141 75.581433 
L 582.067179 74.446528 
L 583.255216 75.346025 
L 584.443254 74.584442 
L 588.007366 72.835809 
L 589.195403 71.779059 
L 590.38344 72.80745 
L 592.759515 72.951156 
L 593.947553 70.824662 
L 595.13559 71.887244 
L 596.323627 71.150851 
L 597.511665 73.436564 
L 598.699702 72.539849 
L 599.887739 73.050145 
L 601.075777 72.846208 
L 602.263814 74.442213 
L 603.451852 74.867084 
L 604.639889 74.509815 
L 605.827926 73.869328 
L 607.015964 74.584533 
L 608.204001 74.155463 
L 609.392039 74.410602 
L 610.580076 74.452844 
L 611.768113 75.906508 
L 612.956151 76.511417 
L 615.332225 76.183282 
L 616.520263 76.378397 
L 617.7083 76.058762 
L 618.896338 75.350178 
L 620.084375 74.078582 
L 621.272412 73.299344 
L 622.46045 72.798973 
L 623.648487 72.979695 
L 624.836525 72.815375 
L 626.024562 71.831683 
L 627.212599 71.912742 
L 628.284375 71.178661 
L 628.284375 71.178661 
" style="fill:none;stroke:#ff7f0e;stroke-dasharray:5.55,2.4;stroke-dashoffset:0;stroke-width:1.5;"/>
   </g>
   <g id="patch_8">
    <path d="M 365.844375 179.298125 
L 365.844375 22.318125 
" style="fill:none;stroke:#000000;stroke-linecap:square;stroke-linejoin:miter;stroke-width:0.8;"/>
   </g>
   <g id="patch_9">
    <path d="M 620.084375 179.298125 
L 620.084375 22.318125 
" style="fill:none;stroke:#000000;stroke-linecap:square;stroke-linejoin:miter;stroke-width:0.8;"/>
   </g>
   <g id="patch_10">
    <path d="M 365.844375 179.298125 
L 620.084375 179.298125 
" style="fill:none;stroke:#000000;stroke-linecap:square;stroke-linejoin:miter;stroke-width:0.8;"/>
   </g>
   <g id="patch_11">
    <path d="M 365.844375 22.318125 
L 620.084375 22.318125 
" style="fill:none;stroke:#000000;stroke-linecap:square;stroke-linejoin:miter;stroke-width:0.8;"/>
   </g>
   <g id="text_32">
    <!-- HFR -->
    <g transform="translate(480.832187 16.318125)scale(0.12 -0.12)">
     <defs>
      <path d="M 9.8125 72.90625 
L 19.671875 72.90625 
L 19.671875 43.015625 
L 55.515625 43.015625 
L 55.515625 72.90625 
L 65.375 72.90625 
L 65.375 0 
L 55.515625 0 
L 55.515625 34.71875 
L 19.671875 34.71875 
L 19.671875 0 
L 9.8125 0 
z
" id="DejaVuSans-72"/>
     </defs>
     <use xlink:href="#DejaVuSans-72"/>
     <use x="75.195312" xlink:href="#DejaVuSans-70"/>
     <use x="132.714844" xlink:href="#DejaVuSans-82"/>
    </g>
   </g>
  </g>
 </g>
 <defs>
  <clipPath id="pfd9f7bed96">
   <rect height="156.98" width="254.24" x="59.389375" y="22.318125"/>
  </clipPath>
  <clipPath id="p88c72bde34">
   <rect height="156.98" width="254.24" x="365.844375" y="22.318125"/>
  </clipPath>
 </defs>
</svg>
